<svg xmlns="http://www.w3.org/2000/svg" xmlns:xlink="http://www.w3.org/1999/xlink" viewBox="0 0 220.03 177.61"><defs><style>.cls-1{isolation:isolate;}.cls-2{fill:url(#linear-gradient);}.cls-3{fill:url(#linear-gradient-2);}.cls-4{fill:url(#linear-gradient-3);}.cls-5{fill:url(#linear-gradient-4);}.cls-6{fill:url(#linear-gradient-5);}.cls-7,.cls-8{fill:#fff;}.cls-8{mix-blend-mode:soft-light;opacity:0.2;}</style><linearGradient id="linear-gradient" x1="176.15" y1="28.53" x2="146.34" y2="57.18" gradientUnits="userSpaceOnUse"><stop offset="0" stop-color="#33dfc2"/><stop offset="1" stop-color="#a5f7ed"/></linearGradient><linearGradient id="linear-gradient-2" x1="94.84" y1="122.85" x2="43.91" y2="207.73" xlink:href="#linear-gradient"/><linearGradient id="linear-gradient-3" x1="141.28" y1="129.43" x2="58.98" y2="-36.06" xlink:href="#linear-gradient"/><linearGradient id="linear-gradient-4" x1="79.53" y1="97.32" x2="159" y2="97.32" gradientUnits="userSpaceOnUse"><stop offset="0" stop-color="#a5f7ed"/><stop offset="1" stop-color="#a5f7ed"/></linearGradient><linearGradient id="linear-gradient-5" x1="81.47" y1="97.2" x2="154.95" y2="97.2" xlink:href="#linear-gradient"/></defs><g class="cls-1"><g id="Layer_1" data-name="Layer 1"><path class="cls-2" d="M116.66,162.51a13.57,13.57,0,0,1-7.41-1.91,143.24,143.24,0,0,1-25.77-19.54c-11.42-11.13-18-22.44-19.42-33.55l0-.18-.28-47.41c0-9.37,6.11-17,17.59-22,9.48-4.13,22-6.18,35.31-5.79,13.12.38,25.26,3.08,34.25,7.59,10.68,5.36,16.28,12.9,16.28,21.83l-.25,45.3,0,.17c-1.31,10.64-7.35,21.64-18,32.76A148.94,148.94,0,0,1,124,160.18,14,14,0,0,1,116.66,162.51Z"/><path class="cls-3" d="M169.13,61.58l-.25,45.3,0,.17c-1.3,10.64-7.25,21.64-17.78,32.76a145.72,145.72,0,0,1-23.51,19.67l-1,.7a13.77,13.77,0,0,1-7.27,2.33,13.28,13.28,0,0,1-7.32-1.92,140.92,140.92,0,0,1-25.43-19.53c-11.27-11.13-17.75-22.44-19.16-33.56l0-.17-.28-47.41c0-9.37,6-17,17.35-22,7.39-3.26,16.68-5.23,26.7-5.72,2.67-.13,5.4-.16,8.16-.08,12.94.39,24.92,3.09,33.79,7.6C163.6,45.11,169.13,52.65,169.13,61.58Z"/><path class="cls-4" d="M70.19,60l.28,47.18c3.1,24.06,31.39,43.55,43.71,51a10.86,10.86,0,0,0,11.54-.31c12.07-7.93,38.8-27.92,41.66-51.06l.25-45.17C167.63,28,70.19,25,70.19,60Z"/><path class="cls-5" d="M120,150.81a1.66,1.66,0,0,1-.92-.24,133.77,133.77,0,0,1-23.46-17.91c-9.24-9.07-14.56-17.9-15.79-26.18l-.27-46.4c0-4.45,3.54-8.26,10.44-11.3,7.71-3.41,18.66-5.19,30-4.92s21.85,2.52,29.21,6.18c6.52,3.23,9.81,7,9.82,11.34l-.25,44.78c-1.14,8-6.15,16.67-14.93,25.75a139,139,0,0,1-22.94,18.62A1.75,1.75,0,0,1,120,150.81Z"/><path class="cls-6" d="M118.81,147.64a130.14,130.14,0,0,1-22.18-17.07C88,122,82.92,113.83,81.74,106.24l-.27-46.12c0-3.18,2.94-6.1,8.67-8.64,7.31-3.24,17.77-4.94,28.67-4.7s21,2.37,27.95,5.83c5.43,2.69,8.18,5.62,8.19,8.73L154.7,106c-1.11,7.36-5.85,15.41-14.14,24A135.31,135.31,0,0,1,118.81,147.64Z"/><rect class="cls-7" x="109.6" y="67.9" width="16.92" height="48.53"/><rect class="cls-7" x="97.14" y="82.59" width="41.85" height="15.58"/><path class="cls-8" d="M127.57,159.48l-1,.7a13.77,13.77,0,0,1-7.27,2.33,13.28,13.28,0,0,1-7.32-1.92,140.92,140.92,0,0,1-25.43-19.53c-11.27-11.13-17.75-22.44-19.16-33.56l0-.17-.28-47.41c0-9.37,6-17,17.35-22,7.39-3.26,16.68-5.23,26.7-5.72q.89,1.32,1.86,2.85c1.61,2.55,3.37,5.52,5,8.76.5,1,1,1.95,1.47,3,4.48,9.44,7.76,20.53,5,29.7-5.06,16.64-15.8,46.89-5,70.74.49,1.08,1,2.15,1.6,3.2a44.81,44.81,0,0,0,4.92,7.2C126.46,158.26,127,158.87,127.57,159.48Z"/></g></g></svg>