<svg id="Layer_1" data-name="Layer 1" xmlns="http://www.w3.org/2000/svg" viewBox="0 0 82.77 137.38"><defs><style>.cls-1{fill:#fff;}.cls-2{fill:#e1e1e1;}.cls-3{fill:#ffa561;}.cls-4{fill:#009b84;}.cls-5{fill:#ae7a55;}.cls-6{fill:#996d4f;}.cls-7{fill:#293241;}.cls-8{fill:#f2f2f2;}.cls-9{fill:#3e4653;}</style></defs><path class="cls-1" d="M35.33,94c0,.78,0,1.57,0,2.36h0c0,3.16,0,6.33-.08,9.48v0c0,2.46-.09,4.92-.15,7.34,0,1.43-.09,2.85-.14,4.26,0,1.11-.09,2.21-.13,3.29-.21,4.72-.49,9.24-.86,13.46-.06.73-.13,1.46-.21,2.17q0,.48-.09,1H6.49c0-.32.09-.63.13-1,.6-4.43,1.29-9.35,2-14.53,1.14-8.18,2.38-17,3.62-25.67,1.17-8.16,2.33-16.15,3.41-23.27l.18-1.16c2-13.42,3.71-23.51,4.43-25.38A10.89,10.89,0,0,1,25,41.26a23.19,23.19,0,0,1,3.76-1.83s0,0,0,0c.75-.29,1.46-.52,2.1-.72s1.3-.36,1.78-.48c.7-.17,1.13-.25,1.13-.25s.07,1.26.18,3.52c.27,5.49.77,16.93,1.09,30.66.15,6.2.25,12.87.27,19.67C35.33,92.55,35.33,93.28,35.33,94Z"/><path class="cls-2" d="M49.31,118.72c.06,2.87-.86,8.22-2.25,14.75-.22.95-.43,1.94-.66,2.95q-.09.48-.21,1H13.76c0-.33,0-.64.05-1,.09-1.82.22-3.55.36-5.17.34-3.88.81-7.16,1.23-9.64.55-3.31,1-5.21,1-5.21A120.53,120.53,0,0,1,31,113.63c1.37-.17,2.76-.31,4.13-.39,4-.26,7.87-.09,10.55.92a7.07,7.07,0,0,1,2.26,1.35A4.25,4.25,0,0,1,49.31,118.72Z"/><path class="cls-3" d="M65,126.84c0,.41,0,.83,0,1.27,0,2.56-.15,5.38-.29,8.31,0,.32,0,.64-.05,1H30.85l-.13-1-.31-2.34-.27-1.87v0l-1.53-11.14-.32-2.29,2.5-.49c1.1-.22,2.52-.48,4.16-.77,3.13-.56,7-1.21,10.95-1.73l2-.26c6.7-.82,13-1.16,14.89.07C64.46,116.68,65,121,65,126.84Z"/><path class="cls-4" d="M65,43.7S46.81,32,33.78,38c-2.08,1-4.45,3.63-6.15,5.5-4.71,5.19-13.91,87.64-13.91,87.64S39.85,140,65,128.1Z"/><path class="cls-1" d="M32.74,37.67S14.35,45.2,11.86,51,1.27,92.35,1.27,96.52s14.1.94,16.37-5.79c1.88-5.59,8.24-22.75,11.59-33.6Z"/><path class="cls-5" d="M36.56,43.41a20.65,20.65,0,0,0,14.23-2.9,40.73,40.73,0,0,1-3-10.71c0-.13,0-.25,0-.37a10.84,10.84,0,0,1,0-2.45H37.29s-2.84,1.29-2.84,2.19c0,.48,0,.94,0,1.38,0,1.19-.07,2.23-.13,3.13A29,29,0,0,1,33.78,38S32.51,42.61,36.56,43.41Z"/><path class="cls-6" d="M34.31,33.68A14.34,14.34,0,0,0,47.76,29.8c.15-.16.22-.25.22-.25l-.26-.12c-2.93-1.18-9.57-.24-13.28,1.12C34.42,31.74,34.37,32.78,34.31,33.68Z"/><path class="cls-5" d="M50.33,25.27C48.92,32.83,39.16,32.59,35,32.11,33.76,32,33,31.83,33,31.83c-1.34-.36-2.08-2.47-2.43-5.23-.69-5.46.18-13.49,1.1-15.54,1.39-3.08,4-6.42,13.84-4S52.13,15.58,50.33,25.27Z"/><path class="cls-7" d="M31.32,6.84A22.4,22.4,0,0,1,38.1,1.31c5.55-3,12.67.1,12.7.11,8,3.53,10.12,9.67,5.86,19.24-4.5,10.12-8.78,9-8.78,9s.91-.57.83-3.72c0-.18,0-.33,0-.46a2.12,2.12,0,0,1,.67-1.73c1-.89,1.48-3.58.64-4.33-1-.9-2.42.2-2.87,1a1.23,1.23,0,0,1-1.76.39c-2.5-1.58-.88-4.74-3.27-6.67s-7.23-.31-10.81-1.85C26.6,10.56,30.31,8.24,31.32,6.84Z"/><path class="cls-1" d="M69.46,137.38H30c0-.33,0-.65,0-1,0-.89,0-1.69,0-2.36s0-1.41.05-1.85v0c0-.16,0-.3,0-.4.2-2.18.38-6.7.52-10.83,0-.93.06-1.84.1-2.69.06-1.93.12-3.6.17-4.64,0-.51.05-.88.06-1.06.26-2.48,3.94-4.24,4.22-6.67v0c.31-3,.63-5.87.94-8.68l.09-.84c.1-.87.2-1.74.29-2.59h0c.08-.76.16-1.49.25-2.22.81-7.11,1.57-13.37,2.21-18v0c.47-3.39.87-5.89,1.17-7.19.09-.38.29-1.24.58-2.43s.67-2.72,1.1-4.43h0s0,0,0-.06a171.24,171.24,0,0,1,5.11-17,24.11,24.11,0,0,1,1.43-3.14,3.8,3.8,0,0,1,1.28-1.55h0c.16.07,1.83.89,3.71,1.83h0c2.37,1.18,5.06,2.53,5.39,2.78,3.37,2.46,4.91,5.33,6.16,10.54.42,1.79.81,3.86,1.23,6.28.18,1.07,1,21,1.93,43,0,1.08.08,2.16.12,3.25l.3,7.7c.31,8.14.62,16.2.87,23.36C69.44,136.74,69.46,137.06,69.46,137.38Z"/><path class="cls-8" d="M57,68s.63,22.27-16.08,25-5.61,3.41-5.61,3.41,31.45-1.34,32-2.17S57,68,57,68Z"/><path class="cls-8" d="M42.89,102.51s.32.23.92.61l0,0a78.26,78.26,0,0,0,21.14,9c1.15.32,2.35.61,3.58.89l-.3-7.72a30.4,30.4,0,0,0,4.14-.57c0-.34-.09-.68-.13-1-1.4-.58-2.8-1.13-4.14-1.66C67,101.68,66,101.28,65,100.9,60.45,99.18,57.09,98,57.09,98L43.7,102.26Z"/><path class="cls-1" d="M39.35,102.14s1.72.43,4.46,1h0A109.16,109.16,0,0,0,65,105.49c1.11,0,2.21,0,3.28-.14a30.4,30.4,0,0,0,4.14-.57A12.82,12.82,0,0,0,79,101.66c11.29-11.5-6.16-52.77-9.83-56.78-4.28-4.69-12.1-6.33-16.42-6.9l-.52-.06c-1.51-.18-2.49-.22-2.54-.22h0l.9,2.93c.22.71.48,1.54.76,2.47,2.65,8.68,7.76,25.74,10,35.36.82,3.53,1.27,6.05,1.07,6.8-.89,3.29-10,5-15.78,5.73-2.41.31-4.24.46-4.65.49h-.09l-.33,1.37-.8,3.29L40,99.37Z"/><polygon class="cls-9" points="7.87 121.92 46.63 120.29 38.77 71.98 0 73.61 7.87 121.92"/><path class="cls-5" d="M41.94,91.48S34.4,91,34,92.72c-.88,4.1,6.49,7.46,8.87,7.23S43.68,91.21,41.94,91.48Z"/><path class="cls-5" d="M2.12,83.42s7.22-2.26,8-.63c1.81,3.78-4.58,8.76-7,9.09S.37,83.56,2.12,83.42Z"/><path class="cls-8" d="M48.92,35.27a14,14,0,0,1,4.77,3.8S41.82,59.67,41.87,59.48,45.89,37.91,48.92,35.27Z"/><path class="cls-8" d="M34.14,35.56a9.07,9.07,0,0,0-3.5,3.58l-1.41,18s3-13.2,4.55-19.17A10.45,10.45,0,0,0,34.14,35.56Z"/><path class="cls-2" d="M25.92,72.52a1.78,1.78,0,0,0-2.08-1.19c-1.76.16-11.67.65-11.67.65s-1.92,0-1.74,1.19Z"/><path class="cls-1" d="M37.29,27a4.17,4.17,0,0,1-3.37.81C32.69,27.57,32,26,32,26A9.26,9.26,0,0,1,37.29,27Z"/></svg>