<svg id="Layer_1" data-name="Layer 1" xmlns="http://www.w3.org/2000/svg" viewBox="0 0 333.1 294.57"><defs><style>.cls-1{fill:#385b64;}.cls-2{fill:#fff;}.cls-3{fill:#e0e0e0;}.cls-4{fill:#009b84;}.cls-5{fill:#263238;}.cls-6{fill:#fafafa;}</style></defs><path class="cls-1" d="M322.43,185l-46.49-.22a10.11,10.11,0,0,1-10.08-10.14l.49-116.22a10.13,10.13,0,0,1,10.18-10.06l46.49.22A10.11,10.11,0,0,1,333.1,58.69l-.5,116.22A10.12,10.12,0,0,1,322.43,185Z"/><path class="cls-2" d="M323,52.56l-9,0a2.23,2.23,0,0,0-2.2,2.27v1.63a2.23,2.23,0,0,1-2.2,2.27L292,58.61a2.25,2.25,0,0,1-2.18-2.29V54.69a2.23,2.23,0,0,0-2.18-2.29l-3.17,0-7.89,0a7.08,7.08,0,0,0-7.12,7L269,172.83a7.08,7.08,0,0,0,7.06,7.1l46.39.21a7.08,7.08,0,0,0,7.13-7L330,59.66A7.09,7.09,0,0,0,323,52.56Z"/><rect class="cls-1" x="276.28" y="129.75" width="45.91" height="3.07"/><path class="cls-1" d="M320.55,141.84c0,.11-9.8.2-21.88.2s-21.89-.09-21.89-.2,9.8-.2,21.89-.2S320.55,141.73,320.55,141.84Z"/><path class="cls-1" d="M320.55,69c0,.11-9.8.2-21.88.2s-21.89-.09-21.89-.2,9.8-.2,21.89-.2S320.55,68.89,320.55,69Z"/><path class="cls-1" d="M320.55,147.43c0,.11-9.8.2-21.88.2s-21.89-.09-21.89-.2,9.8-.2,21.89-.2S320.55,147.32,320.55,147.43Z"/><path class="cls-1" d="M320.55,153c0,.11-9.8.2-21.88.2s-21.89-.09-21.89-.2,9.8-.2,21.89-.2S320.55,152.91,320.55,153Z"/><path class="cls-1" d="M320.55,158.61c0,.11-9.8.2-21.88.2s-21.89-.09-21.89-.2,9.8-.2,21.89-.2S320.55,158.5,320.55,158.61Z"/><path class="cls-1" d="M320.55,164.2c0,.11-9.8.2-21.88.2s-21.89-.09-21.89-.2,9.8-.2,21.89-.2S320.55,164.09,320.55,164.2Z"/><path class="cls-1" d="M321.18,170.54c0,.11-9.8.2-21.88.2s-21.89-.09-21.89-.2,9.8-.2,21.89-.2S321.18,170.43,321.18,170.54Z"/><rect class="cls-3" x="276.78" y="75.37" width="46.02" height="44.53"/><polygon class="cls-4" points="280.35 116.09 293.08 93.17 303.5 107.82 309.82 100.04 319.24 116.09 280.35 116.09"/><path class="cls-4" d="M307.93,88.72a3.31,3.31,0,1,1-3.31-3.31A3.31,3.31,0,0,1,307.93,88.72Z"/><path class="cls-1" d="M319.24,116.21a1.23,1.23,0,0,1,0-.18c0-.13,0-.3,0-.52,0-.47,0-1.14,0-2,0-1.77,0-4.32-.05-7.57,0-6.5-.06-15.76-.1-26.88l.19.19-38.88,0c-.06,0,.41-.41.21-.22h0v10c0,3.27,0,6.48,0,9.6,0,6.23,0,12.13,0,17.55l-.19-.19,28.12.1,7.93,0,2.1,0h0l-2.06,0-7.89,0-28.24.1h-.19v-.19c0-5.42,0-11.32,0-17.55,0-3.12,0-6.33,0-9.6v-10h0c-.19.2.27-.27.23-.22l38.88,0h.19v.19c0,11.17-.08,20.47-.1,27,0,3.23,0,5.77-.05,7.52,0,.85,0,1.51,0,2,0,.21,0,.37,0,.5A.92.92,0,0,1,319.24,116.21Z"/><rect class="cls-1" x="107.09" y="-26.2" width="120.45" height="172.85" rx="11.55" transform="translate(107.09 227.54) rotate(-90)"/><rect class="cls-2" x="108.46" y="-11.95" width="112.85" height="144.35" transform="translate(104.67 225.11) rotate(-90)"/><path class="cls-5" d="M245.06,55.6a4.63,4.63,0,1,1-4.63,4.62A4.62,4.62,0,0,1,245.06,55.6Z"/><rect class="cls-5" x="68.68" y="59.27" width="36.28" height="1.91" rx="0.87" transform="translate(26.6 147.05) rotate(-90)"/><rect class="cls-1" x="158.55" y="12.28" width="45.91" height="3.07"/><rect class="cls-1" x="98.76" y="65.08" width="45.91" height="3.07"/><path class="cls-1" d="M215.65,23.71c0,.12-12.79.21-28.55.21s-28.55-.09-28.55-.21,12.78-.2,28.55-.2S215.65,23.6,215.65,23.71Z"/><path class="cls-1" d="M215.65,30.42c0,.11-12.79.2-28.55.2s-28.55-.09-28.55-.2,12.78-.2,28.55-.2S215.65,30.31,215.65,30.42Z"/><path class="cls-1" d="M215.65,37.13c0,.11-12.79.2-28.55.2s-28.55-.09-28.55-.2,12.78-.2,28.55-.2S215.65,37,215.65,37.13Z"/><path class="cls-1" d="M215.65,43.83c0,.11-12.79.2-28.55.2s-28.55-.09-28.55-.2,12.78-.2,28.55-.2S215.65,43.72,215.65,43.83Z"/><path class="cls-1" d="M215.65,50.54c0,.11-12.79.2-28.55.2s-28.55-.09-28.55-.2,12.78-.2,28.55-.2S215.65,50.43,215.65,50.54Z"/><path class="cls-1" d="M203.13,57.24c0,.12-10,.2-22.29.2s-22.29-.08-22.29-.2,10-.2,22.29-.2S203.13,57.13,203.13,57.24Z"/><path class="cls-1" d="M174.15,77.17c0,.11-16.77.2-37.44.2s-37.45-.09-37.45-.2S116,77,136.71,77,174.15,77.06,174.15,77.17Z"/><path class="cls-1" d="M174.15,82.76c0,.11-16.77.2-37.44.2s-37.45-.09-37.45-.2,16.76-.2,37.45-.2S174.15,82.65,174.15,82.76Z"/><path class="cls-1" d="M174.15,88.35c0,.11-16.77.2-37.44.2s-37.45-.09-37.45-.2,16.76-.2,37.45-.2S174.15,88.24,174.15,88.35Z"/><path class="cls-1" d="M174.15,93.94c0,.11-16.77.2-37.44.2s-37.45-.09-37.45-.2,16.76-.2,37.45-.2S174.15,93.83,174.15,93.94Z"/><path class="cls-1" d="M174.15,99.53c0,.11-16.77.2-37.44.2s-37.45-.09-37.45-.2,16.76-.2,37.45-.2S174.15,99.42,174.15,99.53Z"/><rect class="cls-4" x="99.26" y="10.7" width="46.02" height="44.53"/><polygon class="cls-3" points="102.83 51.42 115.56 28.5 125.97 43.15 132.3 35.37 141.71 51.42 102.83 51.42"/><path class="cls-3" d="M130.41,24.05a3.32,3.32,0,1,1-3.32-3.32A3.32,3.32,0,0,1,130.41,24.05Z"/><path class="cls-1" d="M141.71,51.54s0-.06,0-.18,0-.31,0-.52c0-.48,0-1.14,0-2,0-1.77,0-4.32,0-7.57,0-6.5-.06-15.76-.1-26.88l.19.19-38.88,0s.41-.42.21-.22h0V34c0,6.24,0,12.14,0,17.56l-.19-.19,28.11.1,7.93,0,2.11,0h0l-2.07,0-7.89.05-28.23.1h-.2v-.19c0-5.42,0-11.32,0-17.56V14.4h0l.22-.22,38.88,0h.19v.19c0,11.17-.07,20.47-.1,27,0,3.23,0,5.77,0,7.52,0,.85,0,1.5,0,2,0,.21,0,.37,0,.5S141.72,51.54,141.71,51.54Z"/><rect class="cls-4" x="184.48" y="70.98" width="32.57" height="31.51"/><polygon class="cls-3" points="187.01 99.8 196.02 83.58 203.39 93.95 207.87 88.44 214.53 99.8 187.01 99.8"/><path class="cls-3" d="M206.53,80.43a2.35,2.35,0,1,1-2.35-2.34A2.35,2.35,0,0,1,206.53,80.43Z"/><path class="cls-1" d="M214.53,99.89a.73.73,0,0,1,0-.13c0-.1,0-.22,0-.37,0-.33,0-.81,0-1.42,0-1.25,0-3,0-5.35,0-4.6,0-11.16-.07-19l.14.14-27.52,0,.15-.15h0V87.46c0,4.42,0,8.59,0,12.43l-.13-.14,19.9.07,5.61,0h1.87c.09,0,.14,0,.14,0H214l-1.47,0L207,100,187,100h-.14v-.13c0-3.84,0-8,0-12.43,0-2.2,0-4.47,0-6.79v-7h0l.16-.16,27.52,0h.13v.13c0,7.91,0,14.49-.07,19.12,0,2.28,0,4.08,0,5.32,0,.6,0,1.06,0,1.39v.35A1.09,1.09,0,0,0,214.53,99.89Z"/><rect class="cls-5" x="10.1" y="132.63" width="241.62" height="159.78" rx="14.57"/><path class="cls-5" d="M0,280.59H261.78a0,0,0,0,1,0,0v1.26a12.72,12.72,0,0,1-12.72,12.72H12.72A12.72,12.72,0,0,1,0,281.86v-1.26a0,0,0,0,1,0,0Z"/><rect class="cls-3" x="16.59" y="138.98" width="227.97" height="134.93"/><polygon class="cls-1" points="107.1 280.59 110.34 285.76 156.06 285.76 159.07 280.59 107.1 280.59"/><rect class="cls-6" x="24.19" y="147.96" width="209.9" height="125.9"/><path class="cls-1" d="M33.15,154.17a1.76,1.76,0,1,1-1.76-1.76A1.76,1.76,0,0,1,33.15,154.17Z"/><path class="cls-1" d="M40.34,154.17a1.76,1.76,0,1,1-1.76-1.76A1.76,1.76,0,0,1,40.34,154.17Z"/><path class="cls-1" d="M47.53,154.17a1.77,1.77,0,1,1-1.77-1.76A1.76,1.76,0,0,1,47.53,154.17Z"/><path class="cls-1" d="M234.09,161.88c0,.11-47,.2-104.94.2s-105-.09-105-.2,47-.21,105-.21S234.09,161.76,234.09,161.88Z"/><rect class="cls-1" x="10.1" y="280.7" width="241.62" height="0.77"/><rect class="cls-1" x="41.4" y="223.04" width="45.91" height="3.07"/><rect class="cls-1" x="100.7" y="180.4" width="45.91" height="3.07"/><path class="cls-1" d="M214.88,191.84c0,.11-25.56.2-57.09.2s-57.09-.09-57.09-.2,25.56-.2,57.09-.2S214.88,191.73,214.88,191.84Z"/><path class="cls-1" d="M214.88,198.55c0,.11-25.56.2-57.09.2s-57.09-.09-57.09-.2,25.56-.2,57.09-.2S214.88,198.44,214.88,198.55Z"/><path class="cls-1" d="M214.88,205.25c0,.11-25.56.2-57.09.2s-57.09-.09-57.09-.2,25.56-.2,57.09-.2S214.88,205.14,214.88,205.25Z"/><path class="cls-1" d="M214.88,212c0,.11-25.56.2-57.09.2s-57.09-.09-57.09-.2,25.56-.2,57.09-.2S214.88,211.85,214.88,212Z"/><path class="cls-1" d="M214.88,218.66c0,.12-25.56.21-57.09.21s-57.09-.09-57.09-.21,25.56-.2,57.09-.2S214.88,218.55,214.88,218.66Z"/><path class="cls-1" d="M145.27,225.37c0,.11-10,.2-22.28.2s-22.29-.09-22.29-.2,10-.2,22.29-.2S145.27,225.26,145.27,225.37Z"/><path class="cls-1" d="M214.05,238.38c0,.12-16.8.21-37.53.21S139,238.5,139,238.38s16.8-.2,37.52-.2S214.05,238.27,214.05,238.38Z"/><path class="cls-1" d="M214.05,245.5c0,.11-16.8.2-37.53.2s-37.52-.09-37.52-.2,16.8-.2,37.52-.2S214.05,245.39,214.05,245.5Z"/><path class="cls-1" d="M214.05,252.62c0,.11-16.8.2-37.53.2s-37.52-.09-37.52-.2,16.8-.2,37.52-.2S214.05,252.51,214.05,252.62Z"/><path class="cls-1" d="M214.05,259.74c0,.11-16.8.2-37.53.2s-37.52-.09-37.52-.2,16.8-.2,37.52-.2S214.05,259.63,214.05,259.74Z"/><path class="cls-1" d="M87.43,237.7c0,.11-10,.2-22.37.2s-22.37-.09-22.37-.2,10-.2,22.37-.2S87.43,237.59,87.43,237.7Z"/><path class="cls-1" d="M87.43,243.29c0,.12-10,.2-22.37.2s-22.37-.08-22.37-.2,10-.2,22.37-.2S87.43,243.18,87.43,243.29Z"/><path class="cls-1" d="M87.43,248.88c0,.12-10,.21-22.37.21s-22.37-.09-22.37-.21,10-.2,22.37-.2S87.43,248.77,87.43,248.88Z"/><path class="cls-1" d="M87.43,254.47c0,.12-10,.21-22.37.21s-22.37-.09-22.37-.21,10-.2,22.37-.2S87.43,254.36,87.43,254.47Z"/><path class="cls-1" d="M87.43,260.07c0,.11-10,.2-22.37.2s-22.37-.09-22.37-.2,10-.21,22.37-.21S87.43,260,87.43,260.07Z"/><rect class="cls-3" x="41.4" y="170.37" width="46.02" height="44.53"/><polygon class="cls-4" points="44.97 211.09 57.7 188.17 68.12 202.82 74.44 195.04 83.86 211.09 44.97 211.09"/><path class="cls-4" d="M72.55,183.72a3.31,3.31,0,1,1-3.31-3.32A3.31,3.31,0,0,1,72.55,183.72Z"/><path class="cls-1" d="M83.86,211.21a.54.54,0,0,1,0-.18c0-.14,0-.31,0-.52,0-.48,0-1.14,0-2,0-1.76,0-4.31,0-7.56,0-6.5-.06-15.76-.1-26.88l.19.19-38.89,0,.22-.22h0v10c0,3.27,0,6.48,0,9.59,0,6.24,0,12.14,0,17.56L45,211l28.12.1,7.93,0,2.1,0h0l-2.06,0-7.89.05L45,211.4h-.19v-.19c0-5.42,0-11.32,0-17.56,0-3.11,0-6.32,0-9.59v-10h0l.22-.22,38.89,0h.19v.19c0,11.17-.08,20.47-.1,27,0,3.23,0,5.77,0,7.52,0,.85,0,1.5,0,2,0,.21,0,.37,0,.5S83.86,211.21,83.86,211.21Z"/><rect class="cls-3" x="100.67" y="234.99" width="32.57" height="31.51"/><polygon class="cls-4" points="103.19 263.8 112.21 247.59 119.58 257.95 124.05 252.45 130.72 263.8 103.19 263.8"/><path class="cls-4" d="M122.71,244.43a2.34,2.34,0,1,1-2.34-2.34A2.34,2.34,0,0,1,122.71,244.43Z"/><path class="cls-1" d="M130.72,263.89s0,0,0-.13,0-.21,0-.37c0-.33,0-.8,0-1.41,0-1.25,0-3.06,0-5.36,0-4.6,0-11.15-.07-19l.14.13-27.52,0,.15-.15h0v13.85c0,4.41,0,8.58,0,12.42l-.13-.13,19.89.07,5.62,0,1.48,0h-1.43l-5.58,0-20,.07h-.14v-.14c0-3.84,0-8,0-12.42,0-2.21,0-4.48,0-6.79v-7.06h0l.16-.16,27.52,0h.13v.13c0,7.9,0,14.49-.07,19.11,0,2.28,0,4.08,0,5.32,0,.6,0,1.06,0,1.39,0,.15,0,.27,0,.36Z"/></svg>