<svg id="Layer_1" data-name="Layer 1" xmlns="http://www.w3.org/2000/svg" viewBox="0 0 708.95 638.88"><defs><style>.cls-1{fill:#ebebeb;}.cls-2{fill:#e0e0e0;}.cls-3{fill:#f5f5f5;}.cls-4{fill:#fafafa;}.cls-5{fill:#fff;}.cls-6{fill:#263238;}.cls-7{fill:#455a64;}.cls-8{fill:#009b84;}.cls-9{fill:#ffbe9d;}.cls-10{fill:#eb996e;}.cls-11{opacity:0.3;}.cls-12{fill:#c78976;}.cls-13{fill:#a26760;}.cls-14{opacity:0.2;}.cls-15{fill:#385b64;}</style></defs><path class="cls-1" d="M627.6,474.9c6-3.12,13.15-3.52,19.85-2.41,3.6.59,7.36,1.67,9.81,4.38s2.91,7.46.1,9.79c-1.67,1.38-4,1.59-6.18,1.57-5.25-.06-11.08-1-15.27,2.17-2.39,1.8-4,4.8-6.84,5.68s-6-.78-7.44-3.31a11.49,11.49,0,0,1-.84-8.53A13,13,0,0,1,627.6,474.9Z"/><path class="cls-1" d="M613.76,448.19c3.69,5.28,10.87,3.53,14.2.31s4.73-7.88,6-12.33c2.93-10.17,5.88-20.83,3.7-31.19a17.25,17.25,0,0,0-4-8.47c-2.17-2.3-5.52-3.67-8.58-2.86-3.61,1-5.86,4.5-7.49,7.87a74.2,74.2,0,0,0-7.34,31.9c0,5.14.58,10.53,3.48,14.77"/><path class="cls-1" d="M603.62,455.76c4-4.76,4.77-11.7,3-17.66s-5.82-11-10.46-15.17a56.27,56.27,0,0,0-18.73-11.05,19.93,19.93,0,0,0-8.43-1.44,8.89,8.89,0,0,0-7.07,4.28c-2,3.76-.08,8.32,2,12a141.89,141.89,0,0,0,12.3,18.73c3.69,4.76,7.91,9.45,13.53,11.6s11.46,1.89,14.44-2"/><path class="cls-2" d="M613.51,527.75a11.8,11.8,0,0,0,.34-2.4c.17-1.74.38-3.93.63-6.54s.71-6,1.47-9.59a75.08,75.08,0,0,1,3.49-11.32,42,42,0,0,1,5.78-10.25,21.58,21.58,0,0,1,7.31-6.07,20.5,20.5,0,0,1,6.16-1.92,11.21,11.21,0,0,0,2.38-.35,11.56,11.56,0,0,0-2.42,0,18.33,18.33,0,0,0-6.42,1.67,21.37,21.37,0,0,0-7.71,6.13,40.62,40.62,0,0,0-6,10.45A69.13,69.13,0,0,0,615.06,509a78.31,78.31,0,0,0-1.27,9.71c-.21,2.78-.29,5-.33,6.58A11.43,11.43,0,0,0,613.51,527.75Z"/><path class="cls-2" d="M614,522.72a4.22,4.22,0,0,0,.07-1.11c0-.84,0-1.89,0-3.18,0-2.76,0-6.76.14-11.69.24-9.86,1.09-20.48,2.73-35.44,1.56-14.07,3.64-30.45,5.84-41.1.47-2.42.95-4.6,1.4-6.51s.79-3.56,1.14-4.89.55-2.28.74-3.09a5.18,5.18,0,0,0,.2-1.1,4.09,4.09,0,0,0-.39,1c-.24.8-.55,1.81-.92,3.05s-.83,3-1.31,4.86-1,4.08-1.54,6.5a360.64,360.64,0,0,0-6.14,38.13c-1.64,15-2.38,28.65-2.45,38.54-.06,4.94,0,8.94.17,11.71.08,1.29.15,2.34.2,3.17A4.89,4.89,0,0,0,614,522.72Z"/><path class="cls-2" d="M614,496.38a20.57,20.57,0,0,0,0-3.32c-.13-2.13-.42-5.22-1-9A118.89,118.89,0,0,0,610.06,471a108,108,0,0,0-5.48-15.52c-4.55-10.79-10.73-19.61-16.1-25.07a41.77,41.77,0,0,0-3.79-3.52c-.58-.49-1.1-1-1.62-1.37l-1.47-1a20.46,20.46,0,0,0-2.8-1.79c-.16.21,4,2.64,9.17,8.17a87.23,87.23,0,0,1,15.7,25,120.68,120.68,0,0,1,5.51,15.37,132.85,132.85,0,0,1,3.12,13c.68,3.74,1.08,6.8,1.32,8.91A21.23,21.23,0,0,0,614,496.38Z"/><polygon class="cls-2" points="588.57 542.84 591.21 578.99 637.66 578.99 640.3 542.84 588.57 542.84"/><rect class="cls-2" x="584.09" y="528.59" width="61.75" height="14.25"/><polygon class="cls-1" points="584.09 577.61 584.09 581.56 586.99 581.56 644.82 581.56 644.82 577.61 584.09 577.61"/><polygon class="cls-2" points="589.83 588.51 586.99 581.56 642.61 581.56 639.29 588.51 589.83 588.51"/><path class="cls-3" d="M639.43,554.65a1.33,1.33,0,0,1-.21.34l-.7.92-2.7,3.46-.12.15-.12-.16-6.65-9.19h.39l-6.55,9.27-.2.29-.23-.28-7.76-9.23H615l-.42.54-6.94,8.7-.23.29-.22-.3c-2.35-3.34-4.56-6.45-6.55-9.27l.38,0L593,559.38l-.14.16-.11-.18c-1.06-1.79-1.91-3.21-2.53-4.24-.26-.46-.47-.84-.64-1.13a1.56,1.56,0,0,1-.2-.41,3.25,3.25,0,0,1,.27.36c.19.29.42.65.72,1.09l2.65,4.16-.26,0,7.94-9.3.2-.23.18.25,6.61,9.22h-.45l6.92-8.71.43-.54.22-.27.23.27,7.74,9.25-.44,0,6.61-9.22.2-.27.19.27,6.5,9.29h-.23l2.81-3.37.76-.87A2.1,2.1,0,0,1,639.43,554.65Z"/><path class="cls-3" d="M640.94,542.6c0,.16-11.63.29-26,.29s-26-.13-26-.29,11.64-.29,26-.29S640.94,542.44,640.94,542.6Z"/><path class="cls-3" d="M643.29,582c0,.16-12.65.29-28.25.29s-28.25-.13-28.25-.29,12.65-.29,28.25-.29S643.29,581.79,643.29,582Z"/><path class="cls-2" d="M115.4,418.45a60.22,60.22,0,0,0-25.71-8.85c-4.21-.43-8.8-.31-12.17,2.24a2.51,2.51,0,0,0-1.25,2.22,2.69,2.69,0,0,0,1.19,1.52c10.46,8,26.29,9,37.94,2.87"/><path class="cls-2" d="M114.74,417.73c-5.82-4.55-11.68-9.12-16.61-14.62s-8.94-12-10.41-19.26c-.45-2.19-.59-4.7.82-6.44,13.24,10.34,23.64,23.71,26.2,40.32"/><path class="cls-2" d="M115.26,418.35c-1-7.24-1.35-14.68.31-21.8s5.54-13.94,11.62-18c2.29,5.35,1.3,11.51-.31,17.1a83.17,83.17,0,0,1-11.52,24.25"/><path class="cls-2" d="M128.24,441.61c-7.88,1-14.74,5.11-20.62,10.44a39,39,0,0,0-11.8,20.25c7.73-.48,14.29-5.93,19-12s8-12.82,13.27-18.53"/><path class="cls-2" d="M131.06,445.33a50.87,50.87,0,0,1,5.87-48.11c4.49,16,2.84,34-5.87,48.11"/><path class="cls-2" d="M148.21,465.75A36.77,36.77,0,0,0,113,486c-.43.87-.82,2-.23,2.76a2.58,2.58,0,0,0,2.33.68c6.93-.44,13.07-4.61,18.14-9.36s9.48-10.24,15.08-14.34"/><path class="cls-2" d="M147.66,464.64a65.44,65.44,0,0,1-.65-36.59c1.29-4.71,3.45-9.67,7.81-11.88A1.54,1.54,0,0,1,156,416a1.58,1.58,0,0,1,.76.88,22,22,0,0,1,1.84,10.49A66,66,0,0,1,157,438c-1.37,6.49-2.1,13.47-5.66,19.07a39.39,39.39,0,0,0-2.27,4.19c-.67,1.43-.67,1.93-1.29,3.06"/><path class="cls-2" d="M193.05,471.4c-3.36-12.79.21-28.3,8.27-38.79.6-.77,1.38-1.6,2.35-1.51,1.49.14,1.87,2.12,1.81,3.61a70.14,70.14,0,0,1-12.43,36.69"/><path class="cls-2" d="M197.15,474.2c15.54,4,33.37.11,46.3-9.42a37.56,37.56,0,0,0-25.07-3.08c-8.37,1.92-16,5.67-21.23,12.5"/><path class="cls-2" d="M200.6,465.68c8.7-14.19,25.39-23.46,42-24.3-1.92,6.76-7.48,12-13.75,15.2s-13.27,4.55-20.17,5.89c-2.68.53-6.36,1.1-8.1,3.21"/><path class="cls-2" d="M193.92,424.35c2.36-8.08,4.73-16.22,5.37-24.61s-.55-17.14-4.9-24.34c-8.13,15.73-8.95,34.11-.71,49.79"/><path class="cls-2" d="M221.29,410.51c9.51-17.28,28.91-31.08,48.54-33-7.57,18.86-28.22,33.43-48.54,33"/><path class="cls-2" d="M215.31,413.9c14.18,2.16,26.26,11.21,39.52,16.71,2.83,1.17,5.89,2.1,8.93,1.71s6-2.44,6.72-5.43a7.78,7.78,0,0,0-2.34-6.94,19.24,19.24,0,0,0-6.49-3.94c-14.44-6-29.91-6.16-45.12-2.52"/><path class="cls-2" d="M207.11,423.84c3.21.92,4.3,2.59,6.85,4.75a73.74,73.74,0,0,0,30,15.39c1.14.29,2.65.4,3.21-.63s-.13-2-.77-2.81c-4.61-5.76-11.18-9.7-18.09-12.28s-12.91-5.68-21.16-5"/><path class="cls-2" d="M197.85,363.78a56.74,56.74,0,0,0,43.47,14.79,3,3,0,0,0,2-.71c1.09-1.19-.22-3-1.49-4-12.79-10-28.27-14.09-44-10.05"/><path class="cls-2" d="M208.82,359.76a60.58,60.58,0,0,1,54.25-8.95c-6.83,6.73-16.31,10.35-25.85,11.34a81.75,81.75,0,0,1-28.4-2.39"/><path class="cls-2" d="M204.46,332.15c-1.25-12.75-.44-22.82-1.33-35.64-.07-1-.29-2.26-1.24-2.63-1.34-.51-2.45,1.13-2.89,2.49a40.85,40.85,0,0,0,5.44,35.5"/><path class="cls-2" d="M203.54,333.56c8.65-5.34,15.14-12.33,21.14-20.54,4.17-5.71,7.69-12.55,6.74-19.56-5.86-.12-11.43,3.12-15.24,7.57s-6.08,10-7.77,15.64-2.88,11.38-4.87,16.89"/><path class="cls-2" d="M224.31,327.8a170.58,170.58,0,0,0,52-30.67c-6.22-2.5-13.33-1-19.54,1.5-14.19,5.73-25.79,15.4-32.74,29"/><path class="cls-2" d="M209.38,340.54c9.6,1,19.35,1.74,28.88.14,9.36-1.56,18.21-5.27,27-8.95a3.21,3.21,0,0,0,1.83-1.39,2.1,2.1,0,0,0-.65-2.31,5.55,5.55,0,0,0-2.3-1.08c-9.52-2.66-19.78-1.41-29.14,1.74a135.83,135.83,0,0,0-25.58,11.85"/><path class="cls-2" d="M154.56,364.21c-6.55-13.22-6.12-28.65-.47-42.28,4,6.07,4.47,13.8,3.74,21s-2.92,14.66-3.06,21.92"/><path class="cls-2" d="M128.39,351a59,59,0,0,0-43.82,18.67c8.17,1.28,16.57-.82,24-4.45s14-8.71,20.56-13.76"/><path class="cls-2" d="M110.8,345.13c-8-.65-15.7-1.64-23.39.72S72.72,353.56,69.58,361c7.48.85,15.07-1,21.93-4.14s13.1-7.41,19.29-11.69"/><path class="cls-2" d="M136.85,345.4c-7.2-4.72-14.59-9.52-23-11.47s-18.09-.51-23.94,5.8c6.79,4,15,4.45,22.88,4.45s17.51-.1,24.93,2.53"/><path class="cls-2" d="M136.89,345.78c-12.3-12.08-17-33.79-12-50.31a76.65,76.65,0,0,1,12,50.31"/><path class="cls-2" d="M170.73,311.54c2.32-5.39,4-11.05,6-16.54s4.67-10.9,8.6-15.26,9.38-7.61,15.24-7.9A61.36,61.36,0,0,1,171,311.63"/><path class="cls-2" d="M164.6,318.68c-3.84-5.29-8.27-12.46-13.48-16.41s-12-6.33-18.35-4.82a42.75,42.75,0,0,0,31.83,21.23"/><path class="cls-2" d="M165.83,312c-2.52-6.39-5.06-12.86-6.07-19.65s-.4-14.06,3.07-20c6.76,12.77,8.93,26.47,3.34,39.79"/><path class="cls-2" d="M170.79,272.34c3.82-12.66,15.41-22,27.92-26.25a10.49,10.49,0,0,1,4.9-.74,4.26,4.26,0,0,1,3.61,3c.46,2.16-1.32,4.09-3,5.52a95.21,95.21,0,0,1-33.44,18.46"/><path class="cls-2" d="M170.93,262c.48-8.16,1-16.44,3.65-24.17s7.77-15,15.21-18.37c1.26,8.24-2.37,16.44-6.76,23.53s-9.67,13.79-12.3,21.7"/><path class="cls-2" d="M170.73,267.6c-3.17-9.22-3.49-20.94-9-29-3.86-5.62-10-9.45-13.37-15.4-2.21,5.56-1.53,12,.78,17.48s6.13,10.26,10.22,14.63,7.59,7.65,11.39,12.26"/><path class="cls-2" d="M170.79,539.25c-.25,0-.46-61.53-.48-137.42s.17-137.44.42-137.44.45,61.52.47,137.44S171,539.25,170.79,539.25Z"/><path class="cls-2" d="M224.56,354.93a14.36,14.36,0,0,1-2.31.86l-6.37,2.15c-5.37,1.83-12.74,4.48-20.75,7.76s-15.4,6.16-19.65,9.85a14.41,14.41,0,0,0-3.95,5.22c-.61,1.45-.72,2.33-.81,2.32a1.81,1.81,0,0,1,0-.65,10.21,10.21,0,0,1,.45-1.79,13.85,13.85,0,0,1,3.86-5.57,34.48,34.48,0,0,1,8.53-5.3c3.41-1.59,7.19-3.25,11.2-4.9,8-3.29,15.47-5.86,20.9-7.54,2.71-.84,4.92-1.47,6.46-1.88A12.74,12.74,0,0,1,224.56,354.93Z"/><path class="cls-2" d="M242.19,311.63a4.28,4.28,0,0,1-.65.69l-2,1.86-7.37,6.69-24.53,21.85c-9.58,8.52-17.86,16.67-23.59,22.8-2.87,3.07-5.14,5.6-6.68,7.37l-1.78,2c-.41.46-.64.7-.67.68a4.1,4.1,0,0,1,.53-.79c.37-.5.91-1.23,1.66-2.15,1.46-1.84,3.65-4.45,6.48-7.57a309.06,309.06,0,0,1,23.46-23c9.61-8.51,18.35-16.15,24.71-21.66l7.55-6.48,2.09-1.73A3.81,3.81,0,0,1,242.19,311.63Z"/><path class="cls-2" d="M197.32,351.39c-.25-.11,1.75-4.73,3.74-10.58s3-10.77,3.22-10.73-.34,5.1-2.38,11a71.4,71.4,0,0,1-3,7.39A11.68,11.68,0,0,1,197.32,351.39Z"/><path class="cls-2" d="M170.84,388.63a10.48,10.48,0,0,1-1.47-1.71l-3.78-4.85c-3.18-4.1-7.57-9.77-12.49-16s-9.45-11.77-12.72-15.79c-1.55-1.91-2.84-3.52-3.87-4.78a10.82,10.82,0,0,1-1.33-1.83,11,11,0,0,1,1.6,1.6c1,1.07,2.38,2.64,4.08,4.61,3.4,3.92,8,9.43,12.94,15.64s9.24,11.94,12.29,16.14c1.52,2.11,2.74,3.82,3.56,5A12,12,0,0,1,170.84,388.63Z"/><path class="cls-2" d="M159.05,373.5c-.14.15-3.29-3.58-4.94-9.25a26.54,26.54,0,0,1-1.12-9.32l.4,0c-.18.71-.31,1.09-.38,1.07s-.07-.4,0-1.14l.39,0A42,42,0,0,0,155,364C156.56,369.49,159.29,373.35,159.05,373.5Z"/><path class="cls-2" d="M143.83,354.35a16,16,0,0,0-3.45-2c-2.3-.89-5.77-1.08-9.57-.76a58.77,58.77,0,0,0-9.64,1.56,29,29,0,0,1-4,.95,14,14,0,0,1,3.8-1.56,43.85,43.85,0,0,1,9.74-1.83c3.85-.34,7.5,0,9.88,1.06S143.91,354.33,143.83,354.35Z"/><path class="cls-2" d="M140.22,349.71c-.07.14-2-.81-5.28-1.93a53.29,53.29,0,0,0-26.63-2c-3.4.61-5.46,1.25-5.51,1.1a5.56,5.56,0,0,1,1.4-.59,32.11,32.11,0,0,1,4-1.12,46.9,46.9,0,0,1,27,2.05,32.57,32.57,0,0,1,3.78,1.72C139.79,349.37,140.25,349.65,140.22,349.71Z"/><path class="cls-2" d="M170.73,330.08c-.24.06-2-5.93-3.86-13.38s-3.23-13.54-3-13.6,2,5.93,3.85,13.38S171,330,170.73,330.08Z"/><path class="cls-2" d="M171,330.08c-.26.09-1.37-3.91-4.27-8s-6.42-6.28-6.29-6.49a6,6,0,0,1,2.43,1.26,19.36,19.36,0,0,1,4.59,4.72C170.43,325.82,171.19,330.07,171,330.08Z"/><path class="cls-2" d="M170.79,506.45c-.1,0-.28-1.48-1-4.1a58.66,58.66,0,0,0-4.12-10.65c-4.25-8.69-12-19.7-21.81-30.74-4.87-5.56-9.6-10.81-13.61-15.84a111,111,0,0,1-9.73-14,67.76,67.76,0,0,1-4.91-10.41c-.45-1.29-.79-2.29-1-3a5.18,5.18,0,0,1-.25-1.07c.08,0,.53,1.41,1.54,3.92a75.22,75.22,0,0,0,5.13,10.22,119.23,119.23,0,0,0,9.83,13.84c4,5,8.76,10.19,13.64,15.77,9.85,11.06,17.57,22.22,21.71,31.05a52.83,52.83,0,0,1,3.88,10.84,29.26,29.26,0,0,1,.55,3.09A4.94,4.94,0,0,1,170.79,506.45Z"/><path class="cls-2" d="M219.38,451.56a20.65,20.65,0,0,1-2.55,1.43,55.32,55.32,0,0,0-6.6,4.37,75.18,75.18,0,0,0-8.68,7.91c-3,3.22-6.18,7-9.38,11-6.4,8-12.39,15.13-16,20.8-1.82,2.82-3.14,5.19-4,6.85a24.87,24.87,0,0,1-1.4,2.57,2.32,2.32,0,0,1,.23-.73c.19-.45.45-1.14.86-2a63.27,63.27,0,0,1,3.79-7c3.48-5.81,9.42-13,15.81-21,3.2-4,6.38-7.75,9.48-11a71.16,71.16,0,0,1,8.89-7.84,45.91,45.91,0,0,1,6.82-4.17c.85-.43,1.53-.69,2-.88A2.46,2.46,0,0,1,219.38,451.56Z"/><path class="cls-2" d="M220.33,469.37a36.94,36.94,0,0,1-5.38.78,71.27,71.27,0,0,0-12.77,2.51,38.37,38.37,0,0,0-11.43,6c-2.63,2-3.88,3.72-4,3.62a4.22,4.22,0,0,1,.8-1.23,19.47,19.47,0,0,1,2.8-2.87,34.47,34.47,0,0,1,11.56-6.36,58,58,0,0,1,13-2.3A29.19,29.19,0,0,1,220.33,469.37Z"/><path class="cls-2" d="M188.32,480.33c-.28-.16,2.15-3.87,4-8.85s2.18-9.44,2.49-9.39a8.51,8.51,0,0,1-.08,2.89,31.63,31.63,0,0,1-1.57,6.8,33.28,33.28,0,0,1-3.13,6.24A8.83,8.83,0,0,1,188.32,480.33Z"/><path class="cls-2" d="M235.12,403.76a3.91,3.91,0,0,1-.87.46l-2.53,1.15c-1.1.47-2.45,1.08-4,1.88s-3.3,1.59-5.15,2.7l-2.93,1.67c-1,.58-2,1.28-3.1,1.95-2.17,1.31-4.33,2.93-6.65,4.58a125.68,125.68,0,0,0-13.88,12.21,124.15,124.15,0,0,0-11.72,14.29c-1.57,2.37-3.12,4.59-4.35,6.8-.64,1.09-1.3,2.12-1.85,3.16s-1.07,2-1.57,3c-1,1.89-1.79,3.69-2.52,5.23s-1.31,2.91-1.74,4l-1.06,2.57a4.3,4.3,0,0,1-.43.88,3.91,3.91,0,0,1,.26-.94c.24-.69.54-1.56.9-2.63s.91-2.54,1.61-4.1,1.4-3.41,2.42-5.32l1.53-3c.54-1,1.18-2.1,1.81-3.21,1.22-2.24,2.75-4.49,4.31-6.89a110,110,0,0,1,25.79-26.69c2.35-1.64,4.55-3.25,6.75-4.54,1.08-.67,2.11-1.35,3.14-1.92l3-1.63c1.88-1.08,3.68-1.86,5.23-2.6s2.92-1.32,4.05-1.75l2.6-1A3.69,3.69,0,0,1,235.12,403.76Z"/><path class="cls-2" d="M196.66,429.53c-.08,0,.35-1.51,2.11-3.15a13.39,13.39,0,0,1,8.52-3.27,23.21,23.21,0,0,1,9,1.75,12.83,12.83,0,0,1,3.39,1.65,21.14,21.14,0,0,1-3.6-1.05,27.11,27.11,0,0,0-8.73-1.46,13.83,13.83,0,0,0-8.14,2.86A23.14,23.14,0,0,0,196.66,429.53Z"/><path class="cls-2" d="M190.91,435.46c-.24-.14,1.93-3.32,2.42-7.87s-.81-8.14-.54-8.22a5.24,5.24,0,0,1,1,2.29,16,16,0,0,1,.42,6,16.22,16.22,0,0,1-1.8,5.77C191.66,434.82,191,435.52,190.91,435.46Z"/><path class="cls-2" d="M128.29,515.26c1.32,23.52,8.41,47.44,19.31,71.62H195c10.39-23.94,17-47.82,18.16-71.62Z"/><path class="cls-4" d="M205.48,553.32c0,.24-15.61.44-34.85.44s-34.86-.2-34.86-.44,15.6-.45,34.86-.45S205.48,553.07,205.48,553.32Z"/><path class="cls-4" d="M204.42,561.84c0,.24-14.63.44-32.67.44s-32.68-.2-32.68-.44,14.63-.45,32.68-.45S204.42,561.59,204.42,561.84Z"/><path class="cls-4" d="M148.36,530.7c.25,0,.45,4.89.45,10.92s-.2,10.92-.45,10.92-.44-4.89-.44-10.92S148.12,530.7,148.36,530.7Z"/><path class="cls-4" d="M173.76,530.7c.25,0,.44,5.07.44,11.31s-.19,11.31-.44,11.31-.44-5.06-.44-11.31S173.51,530.7,173.76,530.7Z"/><path class="cls-4" d="M197.6,530.51c.25,0,.45,5.17.45,11.53s-.2,11.54-.45,11.54-.44-5.17-.44-11.54S197.36,530.51,197.6,530.51Z"/><path class="cls-4" d="M211.66,530.7c0,.25-18.31.45-40.88.45s-40.88-.2-40.88-.45,18.3-.44,40.88-.44S211.66,530.46,211.66,530.7Z"/><rect class="cls-2" x="119.28" y="40.9" width="127.4" height="132.8"/><rect class="cls-4" x="110.65" y="40.9" width="127.4" height="132.8"/><path class="cls-2" d="M238.09,173.74H110.61V40.86H238.09Zm-127.4-.08H238V40.94H110.69Z"/><rect class="cls-5" x="127.78" y="58.75" width="93.15" height="97.1"/><path class="cls-2" d="M127.78,156.5a15.7,15.7,0,0,1-2.3,2.67c-1.49,1.57-3.58,3.69-5.92,6s-4.5,4.37-6.09,5.82a15.29,15.29,0,0,1-2.69,2.25,14.93,14.93,0,0,1,2.29-2.66c1.48-1.57,3.58-3.7,5.93-6s4.51-4.37,6.1-5.83A14.17,14.17,0,0,1,127.78,156.5Z"/><path class="cls-2" d="M220.92,156.26a14.69,14.69,0,0,1,2.68,2.29c1.57,1.49,3.69,3.58,6,5.93s4.37,4.49,5.82,6.08a15.29,15.29,0,0,1,2.25,2.69A15.09,15.09,0,0,1,235,171c-1.57-1.49-3.7-3.59-6-5.94s-4.37-4.51-5.83-6.09A15.52,15.52,0,0,1,220.92,156.26Z"/><path class="cls-2" d="M220.67,59a15.25,15.25,0,0,1,2.3-2.67c1.49-1.57,3.58-3.7,5.92-6s4.5-4.37,6.09-5.83a14.5,14.5,0,0,1,2.69-2.24,14.93,14.93,0,0,1-2.29,2.66c-1.49,1.57-3.58,3.7-5.93,6s-4.51,4.38-6.1,5.84A14.55,14.55,0,0,1,220.67,59Z"/><path class="cls-2" d="M127.52,59.25a15.7,15.7,0,0,1-2.67-2.3c-1.57-1.49-3.69-3.58-6-5.92s-4.37-4.5-5.83-6.09a14.5,14.5,0,0,1-2.24-2.69,14.93,14.93,0,0,1,2.66,2.29c1.57,1.49,3.7,3.58,6,5.93s4.37,4.51,5.83,6.1A14.17,14.17,0,0,1,127.52,59.25Z"/><path class="cls-2" d="M220.67,155.85s0-.17,0-.47,0-.78,0-1.36c0-1.22,0-3,0-5.24,0-4.6-.06-11.29-.1-19.79,0-17-.1-41.23-.18-70.24l.36.36-92.88,0h0l.41-.41c0,35.64,0,69-.06,97.1l-.35-.35,67.26.18,18.89.09,5,0,1.29,0,.45,0a2.87,2.87,0,0,1-.41,0l-1.25,0-4.93,0-18.82.09-67.48.18h-.36v-.35c0-28.12,0-61.46,0-97.1v-.41h.43l92.88,0H221v.36c-.08,29.1-.14,53.41-.18,70.47,0,8.46-.08,15.13-.1,19.71,0,2.24,0,4,0,5.17,0,.56,0,1,0,1.32A3.23,3.23,0,0,1,220.67,155.85Z"/><rect class="cls-1" x="158.81" y="91.76" width="31.08" height="31.08"/><path class="cls-6" d="M673.14,589.65c0,.19-135,.35-301.56.35S70,589.84,70,589.65s135-.34,301.59-.34S673.14,589.46,673.14,589.65Z"/><path class="cls-6" d="M564.77,516.42l-167.61-.1a36.51,36.51,0,0,1-36.49-36.52l.08-420.19a36.52,36.52,0,0,1,36.54-36.5l167.6.1a36.51,36.51,0,0,1,36.49,36.51l-.08,420.2A36.51,36.51,0,0,1,564.77,516.42Z"/><path class="cls-5" d="M564.71,38.07l-32.49,0a8.07,8.07,0,0,0-7.89,8.24v5.9a8.06,8.06,0,0,1-7.89,8.24l-63.34,0a8.09,8.09,0,0,1-7.89-8.26V46.25A8.09,8.09,0,0,0,437.31,38H425.88l-28.44,0a25.57,25.57,0,0,0-25.58,25.57l-.08,410.13a25.58,25.58,0,0,0,25.55,25.58l167.27.1a25.58,25.58,0,0,0,25.59-25.57l.08-410.14A25.58,25.58,0,0,0,564.71,38.07Z"/><path class="cls-1" d="M564.71,38.07l-32.49,0a8.07,8.07,0,0,0-7.89,8.24v5.9a8.06,8.06,0,0,1-7.89,8.24l-63.34,0a8.09,8.09,0,0,1-7.89-8.26V46.25A8.09,8.09,0,0,0,437.31,38H425.88l-28.44,0a25.57,25.57,0,0,0-25.58,25.57v40.31H590.26V63.64A25.58,25.58,0,0,0,564.71,38.07Z"/><path class="cls-6" d="M567,70.34a2.82,2.82,0,1,1-2.82-2.82A2.81,2.81,0,0,1,567,70.34Z"/><path class="cls-6" d="M567,78a2.82,2.82,0,1,1-2.82-2.82A2.82,2.82,0,0,1,567,78Z"/><path class="cls-6" d="M567,85.6a2.82,2.82,0,1,1-2.82-2.82A2.82,2.82,0,0,1,567,85.6Z"/><circle class="cls-2" cx="572.74" cy="123.67" r="3.82"/><path class="cls-2" d="M568,129.62a3.82,3.82,0,1,1-3.82-3.82A3.82,3.82,0,0,1,568,129.62Z"/><path class="cls-2" d="M576.56,135.09a3.82,3.82,0,1,1-3.82-3.82A3.83,3.83,0,0,1,576.56,135.09Z"/><polygon class="cls-2" points="571.66 135.66 562.92 129.62 572.35 123.1 573.14 124.25 565.36 129.62 572.45 134.52 571.66 135.66"/><rect class="cls-1" x="388.95" y="113.01" width="163.79" height="34.89" rx="12.56"/><path class="cls-6" d="M414.88,130.53v3.79H413v-3.49c0-1.07-.49-1.56-1.34-1.56s-1.58.56-1.58,1.78v3.27h-1.92V125.2H410v3.2a2.88,2.88,0,0,1,2.1-.79A2.59,2.59,0,0,1,414.88,130.53Z"/><path class="cls-6" d="M420.87,134a2.75,2.75,0,0,1-1.56.42,2.18,2.18,0,0,1-2.47-2.37v-2.72h-1v-1.47h1v-1.61h1.92v1.61h1.65v1.47h-1.65V132a.77.77,0,0,0,.82.87,1.29,1.29,0,0,0,.78-.24Z"/><path class="cls-6" d="M426.07,134a2.75,2.75,0,0,1-1.56.42,2.18,2.18,0,0,1-2.47-2.37v-2.72h-1v-1.47h1v-1.61H424v1.61h1.64v1.47H424V132a.76.76,0,0,0,.82.87,1.31,1.31,0,0,0,.78-.24Z"/><path class="cls-6" d="M434.35,131a3.21,3.21,0,0,1-3.29,3.41,2.56,2.56,0,0,1-2-.8v3.08h-1.92v-9H429v.76a2.56,2.56,0,0,1,2.08-.86A3.21,3.21,0,0,1,434.35,131Zm-1.94,0a1.69,1.69,0,1,0-1.68,1.83A1.67,1.67,0,0,0,432.41,131Z"/><path class="cls-6" d="M435,133.7l.64-1.37a4.54,4.54,0,0,0,2.3.64c.88,0,1.21-.24,1.21-.6,0-1.09-4,0-4-2.62,0-1.26,1.13-2.14,3.06-2.14a5.38,5.38,0,0,1,2.54.58l-.64,1.36a3.77,3.77,0,0,0-1.9-.49c-.86,0-1.23.27-1.23.61,0,1.13,4,0,4,2.65,0,1.22-1.14,2.1-3.12,2.1A5.63,5.63,0,0,1,435,133.7Z"/><path class="cls-6" d="M441.69,128.8a1.19,1.19,0,0,1,2.38,0,1.19,1.19,0,1,1-2.38,0Zm0,4.41a1.19,1.19,0,0,1,2.38,0,1.19,1.19,0,1,1-2.38,0Z"/><path class="cls-6" d="M448.79,124h1.7l-4.05,11.58h-1.71Z"/><path class="cls-6" d="M452.71,124h1.7l-4.05,11.58h-1.71Z"/><path class="cls-6" d="M465,127.71l-2.4,6.61h-1.84l-1.49-4.11-1.54,4.11H455.9l-2.38-6.61h1.8l1.56,4.47,1.63-4.47h1.62l1.57,4.47,1.61-4.47Z"/><path class="cls-6" d="M476.36,127.71l-2.4,6.61h-1.84l-1.49-4.11-1.53,4.11h-1.85l-2.38-6.61h1.81l1.56,4.47,1.62-4.47h1.62l1.57,4.47,1.61-4.47Z"/><path class="cls-6" d="M487.71,127.71l-2.4,6.61h-1.84L482,130.21l-1.53,4.11h-1.84l-2.39-6.61H478l1.56,4.47,1.62-4.47h1.62l1.58,4.47,1.61-4.47Z"/><path class="cls-6" d="M487.75,133.21a1.19,1.19,0,0,1,2.38,0,1.19,1.19,0,1,1-2.38,0Z"/><path class="cls-6" d="M491,133.21a1.19,1.19,0,0,1,2.38,0,1.19,1.19,0,1,1-2.38,0Z"/><path class="cls-6" d="M494.19,133.21a1.19,1.19,0,0,1,2.38,0,1.19,1.19,0,1,1-2.38,0Z"/><path class="cls-2" d="M567.34,426.07c0,.19-38,.34-84.93.34s-84.94-.15-84.94-.34,38-.35,84.94-.35S567.34,425.88,567.34,426.07Z"/><path class="cls-2" d="M567.34,411.49c0,.19-38,.35-84.93.35s-84.94-.16-84.94-.35,38-.34,84.94-.34S567.34,411.3,567.34,411.49Z"/><path class="cls-2" d="M567.34,396.92c0,.19-38,.34-84.93.34s-84.94-.15-84.94-.34,38-.35,84.94-.35S567.34,396.73,567.34,396.92Z"/><path class="cls-2" d="M567.34,382.34c0,.19-38,.35-84.93.35s-84.94-.16-84.94-.35,38-.34,84.94-.34S567.34,382.15,567.34,382.34Z"/><path class="cls-2" d="M567.34,367.77c0,.19-38,.35-84.93.35s-84.94-.16-84.94-.35,38-.35,84.94-.35S567.34,367.58,567.34,367.77Z"/><path class="cls-2" d="M567.34,353.19c0,.2-38,.35-84.93.35s-84.94-.15-84.94-.35,38-.34,84.94-.34S567.34,353,567.34,353.19Z"/><path class="cls-2" d="M567.34,338.62c0,.19-38,.35-84.93.35s-84.94-.16-84.94-.35,38-.35,84.94-.35S567.34,338.43,567.34,338.62Z"/><path class="cls-2" d="M567.34,324c0,.2-38,.35-84.93.35s-84.94-.15-84.94-.35,38-.34,84.94-.34S567.34,323.85,567.34,324Z"/><path class="cls-2" d="M567.34,309.47c0,.19-38,.35-84.93.35s-84.94-.16-84.94-.35,38-.35,84.94-.35S567.34,309.28,567.34,309.47Z"/><path class="cls-2" d="M567.34,294.89c0,.2-38,.35-84.93.35s-84.94-.15-84.94-.35,38-.34,84.94-.34S567.34,294.7,567.34,294.89Z"/><path class="cls-2" d="M567.34,280.32c0,.19-38,.35-84.93.35s-84.94-.16-84.94-.35,38-.35,84.94-.35S567.34,280.13,567.34,280.32Z"/><path class="cls-2" d="M567.34,265.75c0,.19-38,.34-84.93.34s-84.94-.15-84.94-.34,38-.35,84.94-.35S567.34,265.55,567.34,265.75Z"/><path class="cls-2" d="M567.34,251.17c0,.19-38,.35-84.93.35s-84.94-.16-84.94-.35,38-.35,84.94-.35S567.34,251,567.34,251.17Z"/><path class="cls-2" d="M567.34,236.6c0,.19-38,.34-84.93.34s-84.94-.15-84.94-.34,38-.35,84.94-.35S567.34,236.4,567.34,236.6Z"/><path class="cls-2" d="M567.34,222c0,.19-38,.35-84.93.35s-84.94-.16-84.94-.35,38-.35,84.94-.35S567.34,221.83,567.34,222Z"/><path class="cls-2" d="M567.34,207.45c0,.19-38,.34-84.93.34s-84.94-.15-84.94-.34,38-.35,84.94-.35S567.34,207.26,567.34,207.45Z"/><path class="cls-2" d="M567.34,192.87c0,.19-38,.35-84.93.35s-84.94-.16-84.94-.35,38-.34,84.94-.34S567.34,192.68,567.34,192.87Z"/><path class="cls-2" d="M567.34,178.3c0,.19-38,.34-84.93.34s-84.94-.15-84.94-.34,38-.35,84.94-.35S567.34,178.11,567.34,178.3Z"/><path class="cls-2" d="M567.34,163.72c0,.19-38,.35-84.93.35s-84.94-.16-84.94-.35,38-.34,84.94-.34S567.34,163.53,567.34,163.72Z"/><path class="cls-2" d="M567.34,440.64c0,.19-38,.35-84.93.35s-84.94-.16-84.94-.35,38-.34,84.94-.34S567.34,440.45,567.34,440.64Z"/><path class="cls-2" d="M567.34,455.22c0,.19-38,.34-84.93.34s-84.94-.15-84.94-.34,38-.35,84.94-.35S567.34,455,567.34,455.22Z"/><path class="cls-2" d="M567.34,469.79c0,.19-38,.35-84.93.35s-84.94-.16-84.94-.35,38-.34,84.94-.34S567.34,469.6,567.34,469.79Z"/><rect class="cls-5" x="393.11" y="158.41" width="215.8" height="240.74" rx="10.28"/><path class="cls-6" d="M598.64,399.16s.19,0,.58-.05a10,10,0,0,0,1.7-.25,10.26,10.26,0,0,0,5.62-3.52,10.58,10.58,0,0,0,2.09-4.45,41.2,41.2,0,0,0,.18-6c0-4.36,0-9.39,0-15.06,0-22.66-.06-55.44-.11-95.95,0-20.25,0-42.44,0-66.26q0-17.87,0-36.91a16.73,16.73,0,0,0-.37-4.66A9.57,9.57,0,0,0,606,162a9.72,9.72,0,0,0-3.84-2.62,11.62,11.62,0,0,0-4.68-.66H577.66l-174.25,0a10,10,0,0,0-9,5.63,11.08,11.08,0,0,0-1,5.45v72.93c0,29.15,0,57.27,0,84q0,20.1,0,39.14,0,9.53,0,18.75c0,1.54,0,3.09,0,4.59a10,10,0,0,0,7.9,9.35,21.11,21.11,0,0,0,4.37.22h30l31.79,0,96,.11,26.08.07,6.78,0c1.53,0,2.32,0,2.32,0l-2.32,0-6.78,0-26.08.06-96,.11-31.79,0h-30a22.76,22.76,0,0,1-4.49-.22,10.53,10.53,0,0,1-8.36-9.9c0-1.55,0-3.06,0-4.61q0-9.22,0-18.75,0-19,0-39.14c0-26.78,0-54.9,0-84q0-21.86,0-44.46V169.84a11.86,11.86,0,0,1,1.06-5.75,10.66,10.66,0,0,1,9.59-6l174.25,0h19.83a12.26,12.26,0,0,1,4.9.7,10.59,10.59,0,0,1,6.44,7.09,17.2,17.2,0,0,1,.39,4.82q0,19,0,36.91c0,23.82,0,46,0,66.26,0,40.51-.09,73.29-.11,95.95,0,5.67,0,10.7,0,15.06a41.66,41.66,0,0,1-.22,6,10.63,10.63,0,0,1-2.16,4.5,10.21,10.21,0,0,1-5.71,3.5,10.4,10.4,0,0,1-1.71.22Z"/><path class="cls-6" d="M609.15,165.8a10.57,10.57,0,0,0-2.43-4.43,10.73,10.73,0,0,0-4.2-2.88,12.35,12.35,0,0,0-5-.72l-194.08,0a10.89,10.89,0,0,0-9.88,6.21,11.87,11.87,0,0,0-1.1,5.9l.05,214.88v1.61c0,1,0,2,0,3a10.89,10.89,0,0,0,8.63,10.2,12.53,12.53,0,0,0,2.71.24h1.85l157.77-.15,26.08-.06,6.79,0,2.31,0h.58a9.57,9.57,0,0,0,1.79-.23,10.51,10.51,0,0,0,5.89-3.61,10.91,10.91,0,0,0,2.22-4.65,21.45,21.45,0,0,0,.22-4.14c0-.63,0-1.29,0-2l.14-111,0-66.26,0-37.59A14.53,14.53,0,0,0,609.15,165.8Zm-216,105.91V169.83a11.18,11.18,0,0,1,1-5.6,10.29,10.29,0,0,1,9.19-5.83h88.95l-88.85,0h-.1a10.26,10.26,0,0,0-9.16,5.81,11.13,11.13,0,0,0-1,5.6ZM608.3,390.83a10.34,10.34,0,0,1-2,4.3,9.9,9.9,0,0,1-5.43,3.4,9.41,9.41,0,0,1-1.66.25l-.57,0-2.29,0-32.87-.1-96-.11-61.81,0h-1.18a13.37,13.37,0,0,1-3.13-.21,9.6,9.6,0,0,1-7.63-9c0-1,0-2,0-2.93v-1.65l.05-214.88a10.65,10.65,0,0,1,.95-5.3,9.62,9.62,0,0,1,8.57-5.44h.1l194.09,0a11.11,11.11,0,0,1,4.56.63,9.45,9.45,0,0,1,3.71,2.54,9.31,9.31,0,0,1,2.15,3.91,13.51,13.51,0,0,1,.36,3.9l.05,100.49.12,99.3,0,15.05c0,.68,0,1.34,0,2A21,21,0,0,1,608.3,390.83Z"/><path class="cls-6" d="M421.61,327.84h1.89v6.61h4.08V336h-6Z"/><path class="cls-6" d="M428.3,327.84a1,1,0,0,1,1.13-1,1,1,0,0,1,1.13,1,1,1,0,0,1-1.13,1.05A1,1,0,0,1,428.3,327.84Zm.22,1.89h1.81V336h-1.81Z"/><path class="cls-6" d="M438.43,332.41V336h-1.82v-3.3c0-1-.46-1.48-1.27-1.48s-1.5.53-1.5,1.69V336H432v-6.26h1.73v.73a2.75,2.75,0,0,1,2.07-.82A2.46,2.46,0,0,1,438.43,332.41Z"/><path class="cls-6" d="M442.76,333.54l-.87.86V336h-1.82v-8.63h1.82v4.88l2.65-2.51h2.17l-2.61,2.65,2.84,3.61h-2.2Z"/><rect class="cls-1" x="408.19" y="344.22" width="184.23" height="34.89" rx="12.56"/><rect class="cls-6" x="564.04" y="358.78" width="10.18" height="10.18" rx="1.16"/><rect class="cls-1" x="568.44" y="354.38" width="10.18" height="10.18" rx="1.16"/><path class="cls-6" d="M577.08,365.22H570a2.21,2.21,0,0,1-2.21-2.2v-7.1a2.21,2.21,0,0,1,2.21-2.21h7.1a2.22,2.22,0,0,1,2.21,2.21V363A2.22,2.22,0,0,1,577.08,365.22ZM570,355a.88.88,0,0,0-.88.88V363a.88.88,0,0,0,.88.87h7.1A.88.88,0,0,0,578,363v-7.1a.88.88,0,0,0-.88-.88Z"/><path class="cls-6" d="M434.12,361.74v3.79H432.2V362c0-1.07-.49-1.56-1.34-1.56s-1.58.56-1.58,1.78v3.27h-1.92v-9.12h1.92v3.2a2.88,2.88,0,0,1,2.1-.79A2.59,2.59,0,0,1,434.12,361.74Z"/><path class="cls-6" d="M440.11,365.21a2.75,2.75,0,0,1-1.56.42,2.18,2.18,0,0,1-2.47-2.37v-2.72h-1v-1.47h1v-1.61H438v1.61h1.65v1.47H438v2.69a.77.77,0,0,0,.82.87,1.29,1.29,0,0,0,.78-.24Z"/><path class="cls-6" d="M445.31,365.21a2.75,2.75,0,0,1-1.56.42,2.18,2.18,0,0,1-2.47-2.37v-2.72h-1v-1.47h1v-1.61h1.92v1.61h1.65v1.47H443.2v2.69a.77.77,0,0,0,.82.87,1.31,1.31,0,0,0,.78-.24Z"/><path class="cls-6" d="M453.59,362.22a3.21,3.21,0,0,1-3.29,3.41,2.57,2.57,0,0,1-2-.8v3.08h-1.92v-9h1.83v.76a2.56,2.56,0,0,1,2.08-.86A3.21,3.21,0,0,1,453.59,362.22Zm-1.94,0a1.69,1.69,0,1,0-1.68,1.84A1.67,1.67,0,0,0,451.65,362.22Z"/><path class="cls-6" d="M454.23,364.91l.64-1.37a4.54,4.54,0,0,0,2.3.64c.88,0,1.21-.24,1.21-.6,0-1.09-4,0-4-2.62,0-1.25,1.13-2.14,3.06-2.14a5.38,5.38,0,0,1,2.54.58l-.63,1.36a3.83,3.83,0,0,0-1.91-.49c-.86,0-1.23.27-1.23.62,0,1.13,4,0,4,2.64,0,1.22-1.15,2.1-3.13,2.1A5.65,5.65,0,0,1,454.23,364.91Z"/><path class="cls-6" d="M460.93,360a1.19,1.19,0,0,1,2.38,0,1.19,1.19,0,1,1-2.38,0Zm0,4.41a1.19,1.19,0,0,1,2.38,0,1.19,1.19,0,1,1-2.38,0Z"/><path class="cls-6" d="M468,355.18h1.71l-4.06,11.58H464Z"/><path class="cls-6" d="M472,355.18h1.71l-4.06,11.58h-1.71Z"/><path class="cls-6" d="M484.25,358.92l-2.4,6.61H480l-1.49-4.1-1.53,4.1h-1.85l-2.38-6.61h1.8l1.57,4.47,1.62-4.47h1.62l1.57,4.47,1.61-4.47Z"/><path class="cls-6" d="M495.6,358.92l-2.4,6.61h-1.84l-1.49-4.1-1.53,4.1h-1.85l-2.38-6.61h1.81l1.56,4.47,1.62-4.47h1.62l1.57,4.47,1.61-4.47Z"/><path class="cls-6" d="M507,358.92l-2.39,6.61h-1.85l-1.48-4.1-1.54,4.1h-1.84l-2.39-6.61h1.81l1.56,4.47,1.62-4.47h1.62l1.58,4.47,1.61-4.47Z"/><path class="cls-6" d="M507,364.42a1.19,1.19,0,0,1,2.38,0,1.19,1.19,0,1,1-2.38,0Z"/><path class="cls-6" d="M510.21,364.42a1.19,1.19,0,0,1,2.38,0,1.19,1.19,0,1,1-2.38,0Z"/><path class="cls-6" d="M513.43,364.42a1.19,1.19,0,0,1,2.38,0,1.19,1.19,0,1,1-2.38,0Z"/><path class="cls-2" d="M604.05,313.74c0,.19-45.78.35-102.25.35s-102.25-.16-102.25-.35,45.77-.34,102.25-.34S604.05,313.55,604.05,313.74Z"/><path class="cls-6" d="M409.28,85.89a1.29,1.29,0,0,1-.84-.3l-7.85-6.44a1.33,1.33,0,0,1-.49-1,1.35,1.35,0,0,1,.47-1l7.85-6.76a1.33,1.33,0,0,1,1.73,2L403.5,78.1l6.63,5.44a1.33,1.33,0,0,1-.85,2.35Z"/><path class="cls-7" d="M384.79,431.93c-16.71,19.48-18.48,40.52-25.15,60.23-10.89,32.18-16.78,65-10.66,98.4,13.7,6.74,29.78,0,44.94-1.83,26.91-3.2,53.48,9.86,80.54,8.48,5.6-.28,11.51-1.35,15.66-5.12,6.6-6,6.31-16.23,6.73-25.15,1.92-41.06,28.65-76.53,39.48-116.18.62-2.28,1.15-4.9-.16-6.87s-3.55-2.45-5.7-2.88c-22.65-4.5-46-2.41-69.1-1.62-21.93.76-44.58.18-64.84-8a14.73,14.73,0,0,0-8.72-.83A5.68,5.68,0,0,0,384.79,431.93Z"/><path class="cls-6" d="M409.82,489.85a3.63,3.63,0,0,1,.48-.7l1.5-1.91c.64-.83,1.46-1.83,2.48-2.93s2.12-2.41,3.5-3.7l2.11-2.07c.74-.72,1.57-1.4,2.4-2.14,1.63-1.5,3.53-2.93,5.49-4.48a106.47,106.47,0,0,1,13.75-8.62,104.58,104.58,0,0,1,15-6.2c2.39-.7,4.66-1.42,6.83-1.88,1.08-.24,2.12-.52,3.13-.71l2.92-.52c1.85-.37,3.55-.51,5-.7s2.77-.28,3.83-.33l2.42-.11a5.06,5.06,0,0,1,.85,0,3.4,3.4,0,0,1-.84.13l-2.41.24c-1.05.09-2.33.21-3.8.44s-3.17.4-5,.8l-2.89.56c-1,.2-2,.49-3.1.75-2.16.48-4.4,1.21-6.78,1.93a100.17,100.17,0,0,0-28.56,14.73c-2,1.51-3.85,2.92-5.5,4.39-.83.73-1.66,1.4-2.41,2.1l-2.13,2c-1.39,1.26-2.51,2.54-3.55,3.61s-1.89,2-2.56,2.84l-1.6,1.83A4.57,4.57,0,0,1,409.82,489.85Z"/><path class="cls-8" d="M421.71,385.63s-36.44-43.48-50.3-43.48c0,0-8.76,15.42-9.05,23.83s28,47.77,28,47.77Z"/><path class="cls-8" d="M333.94,341.76l37.47.39L383,399.87s-6.22,60.17-10.86,75.54-15.21,40.52-15.21,40.52L264.58,495.5l-2.76-66.65-11.31-62.6L290,350.65Z"/><path class="cls-8" d="M224.28,421.58c0-2.32,12.9-49.82,26.23-55.33l10.3,15.9,4.71,43.24Z"/><path class="cls-6" d="M382.54,370.22a6.32,6.32,0,0,1,0,1.51q-.06,1.66-.15,4.08c-.13,3.45-.24,8.22-.18,13.48s.3,10,.52,13.47c.1,1.61.18,3,.25,4.08a6.06,6.06,0,0,1,0,1.51,6.11,6.11,0,0,1-.29-1.48c-.14-1-.3-2.35-.47-4.07-.34-3.44-.65-8.22-.72-13.5s.13-10.06.38-13.51c.13-1.73.26-3.12.37-4.08A6.42,6.42,0,0,1,382.54,370.22Z"/><path class="cls-6" d="M261.38,384a7.86,7.86,0,0,1-.14,1.66c-.14,1.05-.32,2.59-.52,4.48A118.69,118.69,0,0,0,260.1,405a121.07,121.07,0,0,0,1.27,14.81c.28,1.88.53,3.4.72,4.45a7.37,7.37,0,0,1,.21,1.65,7.91,7.91,0,0,1-.48-1.59c-.27-1-.59-2.55-.93-4.43a97.06,97.06,0,0,1-.66-29.79c.26-1.89.52-3.42.74-4.47A7.55,7.55,0,0,1,261.38,384Z"/><path class="cls-6" d="M341.42,491.64a9.55,9.55,0,0,1-1.31-1.43l-3.4-4c-2.86-3.42-6.84-8.13-11.32-13.25s-8.62-9.69-11.63-13l-3.57-3.9a10.35,10.35,0,0,1-1.24-1.49,10.4,10.4,0,0,1,1.44,1.3c.9.87,2.17,2.15,3.72,3.76,3.11,3.2,7.31,7.72,11.8,12.85s8.41,9.9,11.18,13.4c1.38,1.75,2.48,3.19,3.23,4.19A11.44,11.44,0,0,1,341.42,491.64Z"/><path class="cls-6" d="M349.25,283.85a57.93,57.93,0,0,1-18.49,43.74l-8.27-23.94"/><path class="cls-6" d="M286.94,236.22c7.09-3.88,15.66-4.44,23.59-2.85s15.32,5.18,22.32,9.23c3.92,2.27,7.84,4.77,10.66,8.32,5.15,6.48,10.25,17.12,10.74,25.39.4,6.68-2.15,23.41-5,29.48-2.59,5.57-14.72,9.81-20.71,11.19l-54.95-63.9A27.85,27.85,0,0,1,286.94,236.22Z"/><path class="cls-6" d="M277.47,244.84l13.17-2.36c-7.2,17.15-9.16,56.36-13.27,74.5-4.86-7.05-16.13-28.5-15.53-37S261.82,243.38,277.47,244.84Z"/><path class="cls-9" d="M269.93,272.79c.86-13.16,9.62-29.28,22.73-27.87L323,252.66c9.73,2.49,16.21,10.7,16.92,20.72,0,.5.09-.11.08.27l-6.77,78.54-22.77,45.19h0L290.36,350c0-6.41,0-11.5,0-11.47s-16.8-2.83-20.24-24.77C268.39,302.83,269,287.41,269.93,272.79Z"/><path class="cls-6" d="M276.52,290.63a2.82,2.82,0,0,0,2.71,2.84,2.69,2.69,0,0,0,2.91-2.53,2.82,2.82,0,0,0-2.71-2.84A2.69,2.69,0,0,0,276.52,290.63Z"/><path class="cls-6" d="M273.23,281.39c.35.36,2.48-1.21,5.51-1.2s5.24,1.54,5.57,1.17c.16-.16-.19-.83-1.16-1.53a7.69,7.69,0,0,0-4.46-1.39,7.41,7.41,0,0,0-4.38,1.41C273.37,280.56,273.06,281.22,273.23,281.39Z"/><path class="cls-6" d="M304.3,290.63a2.82,2.82,0,0,0,2.71,2.84,2.69,2.69,0,0,0,2.91-2.53,2.82,2.82,0,0,0-2.71-2.84A2.69,2.69,0,0,0,304.3,290.63Z"/><path class="cls-6" d="M302,281.39c.34.36,2.48-1.21,5.51-1.19s5.24,1.53,5.57,1.16c.16-.16-.19-.83-1.16-1.53a7.69,7.69,0,0,0-4.46-1.39,7.47,7.47,0,0,0-4.39,1.41C302.12,280.56,301.81,281.22,302,281.39Z"/><path class="cls-6" d="M292.51,305.16c0-.17-1.86-.5-4.91-.9-.78-.08-1.51-.23-1.64-.76a3.94,3.94,0,0,1,.53-2.29l2.29-5.88c3.2-8.38,5.51-15.26,5.17-15.39s-3.2,6.56-6.39,14.93l-2.21,5.92a4.5,4.5,0,0,0-.4,3,1.94,1.94,0,0,0,1.27,1.14,5.12,5.12,0,0,0,1.31.18C290.6,305.31,292.5,305.33,292.51,305.16Z"/><path class="cls-10" d="M319.43,330.71s-7.13,15.07-29.08,13v-5.16A55.21,55.21,0,0,0,319.43,330.71Z"/><path class="cls-6" d="M302.93,270.45c.29.82,3.32.44,6.87.87s6.42,1.41,6.89.68c.21-.36-.29-1.13-1.44-1.93a12,12,0,0,0-10.49-1.18C303.46,269.41,302.8,270.06,302.93,270.45Z"/><path class="cls-6" d="M274.21,272.13c.54.68,2.62,0,5.13-.05s4.63.47,5.12-.25c.22-.35-.12-1-1-1.69a7.4,7.4,0,0,0-8.26.24C274.27,271.08,274,271.79,274.21,272.13Z"/><path class="cls-6" d="M275.89,252.76c1.34-3.3,5-5.28,8.52-5.46a18.66,18.66,0,0,1,10.12,2.95c13.07,7.55,19.78,25.78,32.69,33.6,3.17,1.92,7.3.16,10,2.7s4.46,6.62,3,10a30.71,30.71,0,0,0,4.48-7.57,10.35,10.35,0,0,0-.36-8.55c-1.12-1.94-3.09-3.41-3.63-5.58-.48-1.91.27-3.9.19-5.87a12.63,12.63,0,0,0-2-5.59c-5.05-8.94-12-17-21-22.06a37.05,37.05,0,0,0-19.25-5,28.39,28.39,0,0,0-18.31,7.27c-2.89,2.69-5.92,5.48-4.43,9.13"/><path class="cls-9" d="M336.91,289.27c.23-.63,11.67-4.76,11.82,7.4.15,11.82-11.77,9.49-11.8,9.16S336.91,289.27,336.91,289.27Z"/><path class="cls-10" d="M340.54,301.32s.21.14.56.29a2,2,0,0,0,1.53,0c1.25-.47,2.28-2.46,2.32-4.59a6.75,6.75,0,0,0-.61-2.94,2.4,2.4,0,0,0-1.56-1.57,1,1,0,0,0-1.21.58c-.15.33-.08.57-.14.59s-.25-.2-.16-.69a1.3,1.3,0,0,1,.45-.74,1.51,1.51,0,0,1,1.14-.31,2.89,2.89,0,0,1,2.17,1.81,7.11,7.11,0,0,1,.74,3.28c0,2.39-1.25,4.62-2.95,5.13a2.22,2.22,0,0,1-1.89-.29C340.56,301.6,340.5,301.34,340.54,301.32Z"/><path class="cls-7" d="M341.61,283.2a3.73,3.73,0,0,1-.71-.4c-.46-.29-1.15-.67-2-1.26a40.13,40.13,0,0,1-6.37-5.8,112.26,112.26,0,0,1-7.8-10.14A94.11,94.11,0,0,0,315,253.46a37,37,0,0,0-6.3-5,30.6,30.6,0,0,0-6.79-3.08,33.48,33.48,0,0,0-12.52-1.54,32.41,32.41,0,0,0-8.38,1.64c-1,.3-1.69.62-2.19.81a5.72,5.72,0,0,1-.77.28,3.92,3.92,0,0,1,.72-.38,21.42,21.42,0,0,1,2.17-.91,30.84,30.84,0,0,1,8.42-1.82,33.41,33.41,0,0,1,12.7,1.44A30.72,30.72,0,0,1,309,248a37.24,37.24,0,0,1,6.39,5,89.26,89.26,0,0,1,9.78,12.24,121.69,121.69,0,0,0,7.68,10.16,44,44,0,0,0,6.22,5.89c.81.61,1.48,1,1.91,1.34A4.86,4.86,0,0,1,341.61,283.2Z"/><path class="cls-6" d="M338.64,286.54c.18,3.23.33,6.64-1.16,9.5s-5.25,4.82-8.06,3.22c-2.29-1.31-3-4.24-3.36-6.85-1.12-7.52-1.63-15.13-2.82-22.65Z"/><path class="cls-10" d="M300,310.91a5.84,5.84,0,0,1-2.92,9.14,3.45,3.45,0,0,1-2.2,0c-1.24-.47-1.85-1.83-2.35-3-.4-1-.81-2-1.22-3.06a1.36,1.36,0,0,1-.11-1.07,1.34,1.34,0,0,1,1-.58l7.58-1.83"/><path class="cls-6" d="M295,319.72a6.85,6.85,0,0,0,3.45-.44,5.43,5.43,0,0,0,3-2.45,4.08,4.08,0,0,0,.46-2.35,6.83,6.83,0,0,0-.6-2.42,6.37,6.37,0,0,0-1.43-2l-.2-.18-.25.09c-5,1.77-8.95,2.67-8.91,2.88s4.08-.32,9.2-2l-.45-.09a5.53,5.53,0,0,1,1.21,1.7,4.84,4.84,0,0,1,.22,4,4.9,4.9,0,0,1-2.51,2.24C296.32,319.45,295,319.55,295,319.72Z"/><path class="cls-7" d="M278.8,247.14c0,.07,1.05-.2,2.94-.26a20.27,20.27,0,0,1,7.82,1.43,25.68,25.68,0,0,1,4.9,2.52,55.73,55.73,0,0,1,5.05,3.86,60.43,60.43,0,0,1,9.89,10.67c1.5,2.1,2.83,4.27,4.27,6.28a30.18,30.18,0,0,0,4.74,5.32,52.4,52.4,0,0,0,10,6.68c3,1.6,5.55,2.72,7.3,3.49l2,.86a3.36,3.36,0,0,0,.72.26,3.41,3.41,0,0,0-.67-.38l-2-1c-1.71-.85-4.2-2-7.18-3.67a54.28,54.28,0,0,1-9.81-6.73,30.23,30.23,0,0,1-4.61-5.24c-1.41-2-2.74-4.16-4.26-6.29a59.84,59.84,0,0,0-10-10.75,52.13,52.13,0,0,0-5.15-3.85,25.9,25.9,0,0,0-5-2.5,19.52,19.52,0,0,0-8-1.25,13.81,13.81,0,0,0-2.19.31A3.22,3.22,0,0,0,278.8,247.14Z"/><path class="cls-7" d="M339,279.25a5.45,5.45,0,0,0,1.05.7l3,1.76,1,.57a3.08,3.08,0,0,0,1.29.43,1.21,1.21,0,0,0,.8-.19,1,1,0,0,0,.44-.78,2.59,2.59,0,0,0-.55-1.49l-3.48-5.56-.47.44a12.43,12.43,0,0,0,8,2.39,3.4,3.4,0,0,0,1.07-.19,1.42,1.42,0,0,0,.92-.8,1.29,1.29,0,0,0-.2-1.19,5.5,5.5,0,0,0-.67-.74,25,25,0,0,1-4-5.07,45.57,45.57,0,0,1-2.56-5.44,7,7,0,0,0,.38,1.59,21.69,21.69,0,0,0,1.78,4.08,23.55,23.55,0,0,0,4,5.28c.44.42.88.9.71,1.27s-.82.55-1.44.56a12,12,0,0,1-7.6-2.27l-1.41-1L342,275l3.55,5.51a2.34,2.34,0,0,1,.5,1.16.56.56,0,0,1-.68.5,6.19,6.19,0,0,1-2.13-.87l-3.08-1.59A4.76,4.76,0,0,0,339,279.25Z"/><g class="cls-11"><path d="M264.54,452.52c3.3-11,9.43-21.63,19.16-27.73,8-5,17.61-6.53,27-6.87,17-.61,33.91,2.34,50.32,6.74,25.8,6.93,51.08,17.77,71,35.59l4.8,3.48c-15.75,4.57-32.66,1.15-48.38-3.54s-31.33-10.7-47.71-11.34c-9.81-.38-19.92,1.15-29.23-2-3.78-1.26-7.52-3.29-11.48-2.85-4.72.52-8.28,4.37-11.37,8l-29.69,34.45C260.4,475.08,261.23,463.52,264.54,452.52Z"/></g><path class="cls-9" d="M419.11,388s33.33,37.68,35.94,51,0,19.14-11.6,23.49S355,438.1,355,438.1l13.05-22.32,41.34,8.12-15.35-13.45L407.92,398Z"/><path class="cls-6" d="M329.49,372.27,333.4,420a3,3,0,0,1-2.66,3.21l-29.41,3.13a3,3,0,0,1-3.28-2.63l-5.77-49.81a3,3,0,0,1,2.88-3.33l31.26-1A3,3,0,0,1,329.49,372.27Z"/><path class="cls-9" d="M314.73,393.46c.92.07,20.88,3.62,20.88,3.62l23.77,16.67,8.7,2-5.22,24.35-7.83-2a95.52,95.52,0,0,1-12.24-.26c-6.09-.58-25.36-2.06-25.36-2.06l-9.94-5.5s-3.19-5.22-3.19-6.67a2.26,2.26,0,0,1,3.48-2c2,1.16,15.94,1.45,19.42,0,0,0-20.29-1.47-22.9-4.79s-1.74-5.94,1.45-5.94,14.78,1.74,18.26,1.45,7.83-.29,8.7-2-1.74-3.19-1.74-3.19l-3.77-2.89s-14.79-2.61-15.66-5.8A3.71,3.71,0,0,1,314.73,393.46Z"/><path class="cls-10" d="M409.82,424.2c0-.05.32-.16.95-.33a18.26,18.26,0,0,1,2.68-.48,26.89,26.89,0,0,1,9,.49,25.83,25.83,0,0,1,8.3,3.45,18.07,18.07,0,0,1,2.18,1.64c.48.43.73.68.7.71s-1.18-.79-3.14-1.93a29.48,29.48,0,0,0-8.19-3.19,30.84,30.84,0,0,0-8.77-.68C411.23,424,409.84,424.31,409.82,424.2Z"/><path class="cls-9" d="M308,392.43s-17,2.75-18,3.82-22.42,27.23-22.42,27.23L278.4,444.9l19.09-10.35a30.73,30.73,0,0,1,6.07-2s19.27-3,20.52-5.36.54-2.85-.89-3.21-12.95,1-15.52,1.43a39.3,39.3,0,0,1-7.68,0s8-1.87,9.82-2.5,19.74-4.64,19.45-7.85-2.52-4.38-13.74-1.35a80,80,0,0,1-18.92,3l24.81-8.65s10-3.22,6.78-6.07-24.63,3-24.63,3l-9.46,3.57,2.68-5.71s13.45-4,15.18-5.33c2.13-1.67,2.43-3.21.83-4.59S308,392.43,308,392.43Z"/><path class="cls-9" d="M230,422.28,261.12,425l-.31,8.54,6.7-10L278.4,444.9s-3.95,12.72-6.07,19.75c-5.68,18.83-14.94,39.9-26.31,38.84-13.64-1.26-23.62-17.44-23.39-27.91C222.84,466.06,230,422.28,230,422.28Z"/><path class="cls-10" d="M267.51,423.48s.19-.26.58-.76l1.73-2.19,6.74-8.34,10.7-13.11,1.61-1.94c.27-.32.55-.65.85-1a3.68,3.68,0,0,1,1.27-.6c1.7-.51,3.48-.88,5.31-1.27,3.66-.74,7.54-1.43,11.61-2.12h0A8.91,8.91,0,0,1,311,392a4.16,4.16,0,0,1,1.57.55,3.57,3.57,0,0,1,1.18,1.23,2.19,2.19,0,0,1,.18,1.77A3.91,3.91,0,0,1,313,397a6,6,0,0,1-1.34,1.09,16.41,16.41,0,0,1-1.55.7c-4.19,1.64-8.65,3-13.27,4.42l.19-.16c-.83,1.77-1.75,3.73-2.67,5.71l-.4-.42,9.46-3.58h0c4-1.08,8.23-2.07,12.55-2.87a64.3,64.3,0,0,1,6.6-.89,19.53,19.53,0,0,1,3.42,0,5.57,5.57,0,0,1,1.74.41,2.3,2.3,0,0,1,1.32,1.42,2.05,2.05,0,0,1-.59,1.86,6.8,6.8,0,0,1-1.37,1.16A20,20,0,0,1,324,407.5c-2.16.91-4.39,1.58-6.59,2.38L304,414.57l-7.29,2.55-.12-.67a83.31,83.31,0,0,0,17.53-2.69,75.67,75.67,0,0,1,8.48-1.9,12.28,12.28,0,0,1,4.36,0,3.21,3.21,0,0,1,1.95,1.18,3.9,3.9,0,0,1,.66,2.18,1.73,1.73,0,0,1-.54,1.13,5.14,5.14,0,0,1-.86.71,13.4,13.4,0,0,1-1.85,1,37.72,37.72,0,0,1-3.83,1.53c-2.57.89-5.15,1.62-7.69,2.31l-3.78,1c-1.22.33-2.46.77-3.69,1.05-2.47.64-4.9,1.22-7.28,1.77l0-.59a32,32,0,0,0,8.37-.11c2.74-.4,5.43-.69,8.05-1,1.31-.13,2.6-.24,3.89-.32.64,0,1.28-.07,1.92-.08a7.25,7.25,0,0,1,1,.07,4.44,4.44,0,0,1,.94.34,1.4,1.4,0,0,1,.73.83,2.05,2.05,0,0,1,0,1.05,5.39,5.39,0,0,1-.34.9l-.21.42a1.74,1.74,0,0,1-.34.42,11.16,11.16,0,0,1-3.35,1.49,119.82,119.82,0,0,1-12.85,2.87l-2.94.5a22.21,22.21,0,0,0-2.79.57,20.6,20.6,0,0,0-4.94,1.8l-13.81,7.39-3.65,1.93-.94.48a1.77,1.77,0,0,1-.33.15l.3-.19.92-.53,3.61-2L297,434.64c3-1.67,6.79-2.3,10.76-3a119.24,119.24,0,0,0,12.78-2.92,11,11,0,0,0,3.15-1.4,1.08,1.08,0,0,0,.24-.28l.19-.4a5.38,5.38,0,0,0,.31-.81c.16-.57.08-1.06-.44-1.29a4,4,0,0,0-.82-.28,4.91,4.91,0,0,0-.88,0c-.62,0-1.25,0-1.89.08-1.27.08-2.56.2-3.87.33-2.61.26-5.29.57-8,1a32.76,32.76,0,0,1-8.52.14.29.29,0,0,1-.27-.32.29.29,0,0,1,.23-.27h0c2.38-.57,4.81-1.15,7.26-1.79,1.24-.29,2.42-.71,3.69-1.05l3.78-1c2.53-.69,5.09-1.43,7.64-2.32a39.25,39.25,0,0,0,3.76-1.5,12.62,12.62,0,0,0,1.76-1c.51-.36,1.11-.85,1.11-1.31a3.2,3.2,0,0,0-.54-1.76,2.51,2.51,0,0,0-1.57-.93,11.84,11.84,0,0,0-4.11,0,76.06,76.06,0,0,0-8.4,1.89,83.58,83.58,0,0,1-17.7,2.72.33.33,0,0,1-.35-.33.34.34,0,0,1,.23-.34h0l7.3-2.55,13.44-4.69c2.2-.8,4.44-1.47,6.54-2.36a19.81,19.81,0,0,0,3-1.56,6.59,6.59,0,0,0,1.24-1,1.41,1.41,0,0,0,.44-1.25c-.28-.9-1.4-1.25-2.48-1.33a20.08,20.08,0,0,0-3.29,0,64.26,64.26,0,0,0-6.54.88c-4.29.78-8.46,1.76-12.49,2.83h0L294.21,409a.3.3,0,0,1-.4-.18.33.33,0,0,1,0-.24l2.68-5.71a.3.3,0,0,1,.19-.16c4.61-1.4,9.09-2.76,13.24-4.37a14.19,14.19,0,0,0,1.48-.67,5.31,5.31,0,0,0,1.21-1,2.12,2.12,0,0,0,.69-2.57,3.09,3.09,0,0,0-2.35-1.52,8.77,8.77,0,0,0-2.94.13h0c-4.07.67-8,1.34-11.61,2.07-1.82.37-3.6.74-5.27,1.22a3.49,3.49,0,0,0-1.08.49l-.84,1-1.61,1.92-10.8,13-6.85,8.26-1.79,2.14C267.74,423.25,267.51,423.48,267.51,423.48Z"/><polygon class="cls-9" points="213.37 564.75 159.9 587.02 180.92 611.38 226.62 602.45 213.37 564.75"/><path class="cls-6" d="M356.25,518s2.7,61.46-2.71,72.28-59.91,12.37-59.91,12.37l-85.9,6.17-10.88-40s61.94-30.35,67.8-33.83,19.7-9.64,19.7-9.64l20.47-27.5Z"/><path class="cls-7" d="M256.61,604.14a3.29,3.29,0,0,1,.67-.25l2-.62,7.31-2.18L291.15,594h.09a40.25,40.25,0,0,0,4.14-.34,39.82,39.82,0,0,0,4-.77c1.27-.4,2.56-.72,3.75-1.23a36.59,36.59,0,0,0,6.69-3.32,37.93,37.93,0,0,0,14.05-15.57c.45-.91.72-1.65.95-2.13a4.43,4.43,0,0,1,.36-.74,3.3,3.3,0,0,1-.23.79c-.19.5-.42,1.26-.84,2.19a34.56,34.56,0,0,1-4.45,7.41,38.4,38.4,0,0,1-9.5,8.59,37.73,37.73,0,0,1-6.78,3.42c-1.22.52-2.53.84-3.83,1.26a38.5,38.5,0,0,1-4.07.78,39.51,39.51,0,0,1-4.23.35h.09l-24.66,6.86-7.37,2-2,.5A2.36,2.36,0,0,1,256.61,604.14Z"/><path class="cls-6" d="M262.8,536.79l-6.19-86.61s4-64.36-32.33-60.91-33.81,60.28-33.81,60.28,2.2,77.86,4.4,89.17,3.09,23.82,10.34,28.55l33-4.06Z"/><path class="cls-6" d="M244.43,406.23l8,21.43-8,80.6s-46.75,2.51-46.27,1.26-7.07-40.5-7.07-40.5-1.24-51.8,12.88-61.22S244.43,406.23,244.43,406.23Z"/><path class="cls-9" d="M242.61,508.36c-.05,0-1.84,38.55-1.84,38.55L207,563.76l-6.48-53.92Z"/><polygon class="cls-6" points="304.82 497.85 265.86 484.96 246.02 503.49 258.63 541.28 289.61 528.97 304.82 497.85"/><path class="cls-7" d="M196.85,568.82a3.89,3.89,0,0,1,.43-.25l1.29-.68,5-2.56,18.37-9.28,27.28-13.7,16.12-8.06,8.52-4.26,4.37-2.18,2.2-1.1a16,16,0,0,1,2.27-1,33.05,33.05,0,0,1,9.65-2.17,38.71,38.71,0,0,1,9.58.4,48.16,48.16,0,0,1,16.91,6.26,53.66,53.66,0,0,1,12.56,10.45,73.55,73.55,0,0,1,8.35,11.53,106.65,106.65,0,0,1,8.54,18.73c.81,2.29,1.39,4.09,1.75,5.31.18.59.31,1,.41,1.4a3.13,3.13,0,0,1,.12.48,2.58,2.58,0,0,1-.18-.46l-.48-1.37c-.41-1.21-1-3-1.87-5.27a112.27,112.27,0,0,0-8.71-18.57,75,75,0,0,0-8.35-11.4,53.56,53.56,0,0,0-12.46-10.28,47.79,47.79,0,0,0-16.7-6.14,37.91,37.91,0,0,0-9.42-.38,32.44,32.44,0,0,0-9.44,2.12,14.5,14.5,0,0,0-2.24,1l-2.21,1.1-4.36,2.17-8.53,4.25-16.13,8-27.34,13.56-18.46,9.08-5,2.44-1.32.62A2.25,2.25,0,0,1,196.85,568.82Z"/><path class="cls-7" d="M272.42,527.33a37.31,37.31,0,0,0-.52-5.84c-.66-3.57-2.63-8.22-5.38-13.05s-5.22-9.28-6.38-12.79a25.86,25.86,0,0,1-1.11-4.2,6.32,6.32,0,0,1-.15-1.59c.13,0,.4,2.24,1.72,5.62s3.77,7.78,6.53,12.63,4.7,9.63,5.25,13.29a18.75,18.75,0,0,1,.26,4.35A5.94,5.94,0,0,1,272.42,527.33Z"/><path class="cls-7" d="M191.09,469a2.12,2.12,0,0,1,.11.42c.07.32.16.73.28,1.25.23,1.14.56,2.75,1,4.81.83,4.18,2,10.24,3.4,17.74.68,3.75,1.44,7.85,2.15,12.29.16,1.11.35,2.23.45,3.41a2.75,2.75,0,0,1,0,.5l0,.16c0,.07.05-.06,0-.14s-.06-.08-.06-.09.05,0,.08,0a5.11,5.11,0,0,0,.82.1c.58,0,1.17.06,1.76.07,2.38,0,4.84,0,7.35-.08,10.07-.27,21.14-.8,32.76-1.38l3.25-.17-.32.31c2.27-22.4,4.3-42.53,5.78-57.11.76-7.24,1.38-13.09,1.82-17.19.22-2,.4-3.55.52-4.66.07-.5.12-.9.16-1.2a1.58,1.58,0,0,1,.07-.41,1.82,1.82,0,0,1,0,.41c0,.31-.05.71-.08,1.22-.1,1.11-.23,2.67-.4,4.67-.38,4.1-.93,10-1.6,17.2-1.43,14.59-3.39,34.73-5.57,57.14l0,.29-.3,0-3.26.17c-11.62.58-22.69,1.09-32.77,1.33-2.52.05-5,.09-7.38.05-.6,0-1.19,0-1.79-.08a5.16,5.16,0,0,1-.92-.12.72.72,0,0,1-.32-.14s-.07,0-.12-.16a.33.33,0,0,1,0-.19c0-.07.2,0,0-.07v0c0-.06,0-.25,0-.37-.09-1.13-.27-2.26-.43-3.37-.68-4.42-1.41-8.53-2.06-12.29l-3.19-17.77c-.36-2.07-.65-3.69-.85-4.84-.09-.52-.15-.94-.21-1.26A1.4,1.4,0,0,1,191.09,469Z"/><path class="cls-7" d="M236.28,399.87a5.65,5.65,0,0,1,1,.93c.63.62,1.48,1.57,2.48,2.79a53.47,53.47,0,0,1,10.62,22.08,36.42,36.42,0,0,1,.63,3.68,4.74,4.74,0,0,1,.09,1.37c-.11,0-.42-1.9-1.2-4.94a61.39,61.39,0,0,0-10.52-21.88C237.5,401.39,236.19,400,236.28,399.87Z"/><path class="cls-7" d="M274.23,525.51a5.28,5.28,0,0,1,.2-1.29c.17-.83.47-2,.88-3.45a71.23,71.23,0,0,1,10.2-21.07c.88-1.22,1.62-2.19,2.16-2.83a5.07,5.07,0,0,1,.89-.95c.09.06-1,1.56-2.64,4.06a91,91,0,0,0-5.75,10.14,92.46,92.46,0,0,0-4.39,10.79C274.83,523.75,274.34,525.54,274.23,525.51Z"/><path class="cls-7" d="M332.65,519.61c.11,0,.6,1.35,1.62,3.46a40.06,40.06,0,0,0,11.4,14.16c1.85,1.45,3.09,2.23,3,2.32s-.36-.11-.95-.42a22.16,22.16,0,0,1-2.38-1.51,34.2,34.2,0,0,1-11.55-14.34,22.4,22.4,0,0,1-1-2.65C332.68,520,332.6,519.63,332.65,519.61Z"/><path class="cls-7" d="M161.22,612.39c-20.1-.61-25.16.14-45.26-.47-4.91-.14-22.74.85-26.9-1.76-3.79-2.39-8.63-4.58-9.7-8.93-1.8-7.32.06-15.69,6.73-20.43a16.48,16.48,0,0,1,7.84-2.87c11.84-1.19,22.87,7.24,34.67,4.42,3.19-.76,6-2.6,9.21-3.44,4.63-1.21,9.63-.15,13.93,2s5.29,2.46,5.29,2.46l21-7.59,7.37,36.77Z"/><path class="cls-7" d="M178.18,567l-11,3.85a3.49,3.49,0,0,0-2.24,4.1l9.42,39.41a3.48,3.48,0,0,0,3.84,2.65l11.26-1.5a3.48,3.48,0,0,0,2.93-4.24l-9.65-41.77A3.47,3.47,0,0,0,178.18,567Z"/><path class="cls-6" d="M174.62,615.91a36.75,36.75,0,0,1-2.18-5.89c-1.21-3.69-2.74-8.83-4.14-14.58s-2.34-11.05-2.88-14.89c-.27-1.92-.45-3.48-.54-4.57a6.26,6.26,0,0,1,0-1.69,49.74,49.74,0,0,1,1.26,6.15c.7,3.8,1.76,9,3.14,14.77s2.82,10.88,3.85,14.61A45.15,45.15,0,0,1,174.62,615.91Z"/><path class="cls-6" d="M166.9,580c-.18-.15,3.14-3,8.32-3.94s9.29.59,9.17.79-4.09-.78-9,.14S167.06,580.22,166.9,580Z"/><path class="cls-6" d="M168.53,594.88c-.08-.25,4-1.81,9.28-3.14s9.6-1.94,9.64-1.68-4.2,1.27-9.41,2.6S168.61,595.13,168.53,594.88Z"/><path class="cls-6" d="M173.92,610.26c0-.3,4.32.12,9-2s7.36-5.52,7.57-5.32-.42,1-1.61,2.3a17.6,17.6,0,0,1-12.2,5.38A5.86,5.86,0,0,1,173.92,610.26Z"/><polygon class="cls-7" points="242.61 534.63 240.77 546.91 206.99 563.76 202.79 538.16 242.61 534.63"/><path class="cls-7" d="M197.59,528.19l2.12,11.7a3.56,3.56,0,0,0,3.77,2.91l41.15-3.19a3.55,3.55,0,0,0,3.27-3.45l.29-11.56a3.55,3.55,0,0,0-3.8-3.63l-43.56,3A3.55,3.55,0,0,0,197.59,528.19Z"/><path class="cls-6" d="M246.22,539.57c0,.13-2.37.63-6.27,1.25s-9.32,1.35-15.33,1.84-11.49.6-15.44.53c-2,0-3.58-.1-4.68-.19a5.92,5.92,0,0,1-1.71-.22,53.26,53.26,0,0,1,6.39-.28c3.93-.11,9.37-.33,15.36-.81s11.4-1.1,15.31-1.55S246.2,539.43,246.22,539.57Z"/><path class="cls-6" d="M208.83,541.6c-.18.16-2.55-3.64-2.64-9s2.08-9.25,2.26-9.1-1.43,4-1.29,9.08S209.11,541.49,208.83,541.6Z"/><path class="cls-6" d="M224.09,542.34c-.26,0-1.17-4.34-1.68-9.83s-.41-10-.15-10,.61,4.42,1.12,9.88S224.36,542.3,224.09,542.34Z"/><path class="cls-6" d="M240.42,539.37c-.3,0,.81-4.33-.58-9.4s-4.38-8.28-4.14-8.47c.08-.08,1,.59,2.06,2a17.9,17.9,0,0,1,3,6.23,17.47,17.47,0,0,1,.44,6.9A5.94,5.94,0,0,1,240.42,539.37Z"/><rect class="cls-7" x="500.39" y="306.29" width="51.6" height="6.47"/><polygon class="cls-12" points="518.1 225.88 522.49 224.93 538.16 226.22 541.49 227.65 527.19 244.39 518.1 225.88"/><path class="cls-7" d="M545,270.36s10.18-29.65,9.44-31.72-13.12-11.35-13.12-11.35l-13.28,15.19-8.7-17.55s-11.64,4.68-13,4.91c-2.82.49-5.29,3.76-6.64,6.89-3.39,7.79-7.44,21.49-7.44,21.49l12.53,5,1.23-2.4c-.66,3.06-2,8.9-3.45,13.32-3.83,11.58-3.29,33.81-3.29,33.81l51-.15s1.08-14.44.19-22.41S545,270.36,545,270.36Z"/><path class="cls-6" d="M531.55,249.68l.27-.1a4.6,4.6,0,0,1,.81-.18,8.26,8.26,0,0,1,3.13.34c1.31.36,2.86.92,4.64,1.52.89.31,1.84.61,2.86.87a14.07,14.07,0,0,0,3.23.53h.16l0,.14L544,267.22c0,.27-.1.54-.14.8l0,.18-.17-.07c-1.2-.55-2.41-1.07-3.59-1.55a27.2,27.2,0,0,0-3.52-1.21,49.84,49.84,0,0,0-6.77-.89h-.13l0-.12c.55-4.41,1-8.08,1.33-10.67.16-1.26.29-2.26.39-3,0-.32.08-.58.1-.77s0-.26,0-.26a1.49,1.49,0,0,1,0,.28l-.08.8c-.08.71-.19,1.72-.33,3-.29,2.59-.71,6.24-1.2,10.63l-.12-.14a47.48,47.48,0,0,1,6.81.86,27.88,27.88,0,0,1,3.57,1.22c1.19.48,2.39,1,3.61,1.54l-.21.11.15-.8,2.63-14.41.14.15a13.63,13.63,0,0,1-3.31-.55c-1-.28-2-.59-2.87-.9-1.78-.62-3.31-1.2-4.61-1.57a8.33,8.33,0,0,0-3.08-.41C531.92,249.56,531.57,249.7,531.55,249.68Z"/><polygon class="cls-7" points="554.46 238.64 562.13 267.56 546.6 273.18 545.02 270.36 554.46 238.64"/><path class="cls-6" d="M499.33,302.37h.12l.37.06,1.43.24c1.24.2,3,.48,5.27.64a24.74,24.74,0,0,0,3.65,0,6.8,6.8,0,0,0,1-.14,4.26,4.26,0,0,0,.49-.1l.49-.16c.65-.18,1-.87,1.3-1.51a11.44,11.44,0,0,0,.66-2.15c.17-.76.31-1.53.42-2.33.23-1.59.37-3.26.48-5,.22-3.73.25-7.28.2-10.42l.12.13-10.37-.22-2.95-.08-.78,0-.27,0,.27,0h3.73l10.38.11h.12v.13c.07,3.14,0,6.69-.18,10.43-.1,1.72-.25,3.39-.48,5-.11.8-.25,1.59-.43,2.35a12.12,12.12,0,0,1-.68,2.19,4.84,4.84,0,0,1-.56,1,2.52,2.52,0,0,1-.4.4,1.84,1.84,0,0,1-.5.26l-.51.16c-.17.05-.34.07-.51.11a9,9,0,0,1-1,.13,23.67,23.67,0,0,1-3.69,0,49.21,49.21,0,0,1-5.27-.73c-.62-.11-1.09-.22-1.42-.29l-.36-.09C499.37,302.39,499.32,302.38,499.33,302.37Z"/><path class="cls-6" d="M515.17,285.17c0,.08-3.31.15-7.39.15s-7.39-.07-7.39-.15,3.31-.14,7.39-.14S515.17,285.09,515.17,285.17Z"/><path class="cls-6" d="M505.79,256.2a5.25,5.25,0,0,1-.17-.88c-.08-.57-.19-1.4-.3-2.42a78.2,78.2,0,0,1-.47-8,70,70,0,0,1,.41-8c.12-1,.23-1.85.33-2.42a5.25,5.25,0,0,1,.17-.88,5,5,0,0,1-.06.9c-.06.57-.14,1.4-.23,2.42-.18,2-.35,4.88-.34,8s.22,6,.39,8c.09,1,.16,1.8.22,2.42A5.5,5.5,0,0,1,505.79,256.2Z"/><path class="cls-6" d="M545,230.12a2.22,2.22,0,0,1-.25.38l-.78,1.06-2.93,3.9-9.94,13.08,0,.05H524.7l0-.08c-2.85-6-5.38-11.39-7.22-15.27l-2.12-4.56c-.24-.52-.42-.93-.56-1.24l-.14-.32a.82.82,0,0,1,0-.11s0,0,.06.1l.17.31.61,1.22c.52,1.08,1.27,2.62,2.2,4.52,1.85,3.87,4.41,9.21,7.3,15.23l-.13-.09H531l-.11.05,10-13,3-3.84.81-1Z"/><path class="cls-6" d="M543.9,283a2.2,2.2,0,0,1-.4-.46c-.25-.31-.58-.78-1-1.37a30,30,0,0,1-2.61-4.86,30.59,30.59,0,0,1-1.68-5.25c-.15-.69-.25-1.25-.3-1.65a2.52,2.52,0,0,1-.05-.61s.2.85.55,2.21a38.13,38.13,0,0,0,1.75,5.19A36.74,36.74,0,0,0,542.7,281C543.43,282.21,543.94,282.92,543.9,283Z"/><path class="cls-6" d="M540,274.67c0-.07,1.29-1,2.81-2.3s2.65-2.47,2.71-2.41a13,13,0,0,1-2.52,2.63A12.85,12.85,0,0,1,540,274.67Z"/><path class="cls-6" d="M547.14,274.28s0-.06-.13-.19l-.33-.58c-.29-.55-.7-1.3-1.2-2.23l0,0v0c.81-3.11,2.18-8.22,3.75-14l3.36-12.2c.44-1.53.79-2.78,1-3.69.13-.41.23-.74.3-1a1.54,1.54,0,0,1,.13-.34,2.29,2.29,0,0,1-.07.36c-.06.26-.15.6-.25,1-.23.91-.56,2.17-1,3.72l-3.29,12.22c-1.56,5.76-3,10.85-3.85,13.94v-.06l1.13,2.26.29.61A1.4,1.4,0,0,1,547.14,274.28Z"/><g class="cls-11"><path d="M505.79,256.2a19.54,19.54,0,0,1-.64-16.75S505.22,253.47,505.79,256.2Z"/></g><path class="cls-6" d="M545.76,255.89a2.35,2.35,0,0,1-.59,0c-.38-.05-.92-.14-1.59-.26-1.34-.23-3.19-.61-5.2-1.11s-3.83-1-5.12-1.43c-.65-.21-1.17-.39-1.53-.52a2.47,2.47,0,0,1-.55-.23,2.29,2.29,0,0,1,.58.13l1.56.42c1.31.36,3.12.85,5.13,1.35s3.84.9,5.17,1.19l1.57.35A2.78,2.78,0,0,1,545.76,255.89Z"/><g class="cls-11"><path d="M529.8,264.36s9.83,4.78,13.94,3.64C543.74,268,536.73,264.07,529.8,264.36Z"/></g><g class="cls-11"><path d="M546,270s7.58-4.75,6.13-23.34Z"/></g><path class="cls-6" d="M547.64,308c0,.08-10.71.14-23.92.14S499.8,308,499.8,308s10.71-.15,23.92-.15S547.64,307.88,547.64,308Z"/><path class="cls-12" d="M557.2,269.36s1.09,18,.65,20.83-2,15.49-2,15.49l-6.38-1.33L547.7,272.8Z"/><path class="cls-12" d="M546.8,312.76a9.44,9.44,0,0,1,.08-1.73c.22-1,2.52-7.36,2.52-7.36l6.38,1.32.11.25c.52,1.2,2.77,6.38,2.77,6.61,0,.06,0,.55,0,.91l-7.66,0-.22-1.61s-.26.77-.54,1.56Z"/><g class="cls-11"><path d="M500.5,308c7.26,2.87,15.33,2.61,23.13,2.3,8.23-.33,16.51-.67,24.54-2.48Z"/></g><path class="cls-8" d="M537.58,217.62a10.1,10.1,0,0,0,5.66-7.78,39.78,39.78,0,0,1,.37-4.23c.47-2,1.84-3.75,1.77-5.78,0-1.35-.74-2.59-1-3.92a34,34,0,0,1,0-3.91,8.43,8.43,0,0,0-5.71-7.4l-8.33-2.71-12.11,6s-6.6,7.39-3.54,21.42Z"/><path class="cls-7" d="M516.16,210.43a2.44,2.44,0,0,0-.95-.65h.07l-.2,0a.93.93,0,0,0-.75.08h0a1.77,1.77,0,0,0-1,.83,2.11,2.11,0,0,0,.21,2.16,1.6,1.6,0,0,0,3-.5A2,2,0,0,0,516.16,210.43Z"/><path class="cls-12" d="M515.38,197.46c.5-4.58,3.81-10.07,8.36-9.38l14.13,4.28a2.7,2.7,0,0,1,2.28,2.84l-1.9,30.61a8.42,8.42,0,0,1-7.23,7.81h0a8.42,8.42,0,0,1-9.58-8.36c0-2.1,0-3.68,0-3.67s-5.83-1.25-6.69-9C514.34,208.79,514.82,202.55,515.38,197.46Z"/><path class="cls-6" d="M518.1,204a1,1,0,0,0,.9,1,.93.93,0,0,0,1-.83,1,1,0,0,0-.89-1A.94.94,0,0,0,518.1,204Z"/><path class="cls-6" d="M516.58,200.77c.12.14.89-.38,1.94-.33s1.81.62,1.93.5-.05-.3-.38-.56a2.72,2.72,0,0,0-1.54-.55,2.58,2.58,0,0,0-1.55.42C516.64,200.49,516.52,200.71,516.58,200.77Z"/><path class="cls-6" d="M527.92,204a1,1,0,0,0,.9,1,.93.93,0,0,0,1-.83,1,1,0,0,0-.9-1A.94.94,0,0,0,527.92,204Z"/><path class="cls-6" d="M527,201.45c.12.14.89-.38,1.94-.33s1.81.62,1.93.5-.05-.3-.38-.56a2.72,2.72,0,0,0-1.54-.55,2.6,2.6,0,0,0-1.55.42C527,201.17,526.9,201.39,527,201.45Z"/><path class="cls-6" d="M522.76,209.11a7.13,7.13,0,0,0-1.7-.39c-.27,0-.52-.1-.56-.29a1.3,1.3,0,0,1,.22-.79l.89-2a35,35,0,0,0,2-5.29,35.69,35.69,0,0,0-2.46,5.12c-.3.71-.59,1.38-.86,2a1.53,1.53,0,0,0-.19,1.05.67.67,0,0,0,.42.42,1.71,1.71,0,0,0,.46.08A6.62,6.62,0,0,0,522.76,209.11Z"/><path class="cls-13" d="M521.45,221.59a19.5,19.5,0,0,0,10.38-2.26s-2.73,5.14-10.36,4.07Z"/><path class="cls-13" d="M522.8,211.63a2.61,2.61,0,0,1,2.19-1,1.7,1.7,0,0,1,1.36.82,1.63,1.63,0,0,1-.11,1.71,1.61,1.61,0,0,1-1.74.53,3.85,3.85,0,0,1-1.51-1,1.17,1.17,0,0,1-.32-.41.55.55,0,0,1,.07-.54"/><path class="cls-6" d="M525.84,210c-.18,0-.23,1.13-1.25,1.9s-2.24.58-2.25.74.26.24.78.28a2.86,2.86,0,0,0,1.87-.56,2.5,2.5,0,0,0,1-1.6C526,210.28,525.91,210,525.84,210Z"/><path class="cls-6" d="M526.7,197.08c.09.29,1.15.21,2.38.41s2.22.59,2.4.34-.08-.39-.48-.69a4,4,0,0,0-1.75-.71,4.16,4.16,0,0,0-1.89.13C526.9,196.73,526.66,196.94,526.7,197.08Z"/><path class="cls-6" d="M517.12,197.15c.18.25.92,0,1.79.07s1.61.23,1.79,0,0-.36-.34-.61a2.58,2.58,0,0,0-2.88,0C517.16,196.79,517,197,517.12,197.15Z"/><path class="cls-6" d="M529.74,189.42A27,27,0,0,1,540,191.29a3.84,3.84,0,0,1,3.06,4.4,27,27,0,0,1-2.3,9l-1.34,2.3c-2-.47-3.73-5.58-3.6-8a5.63,5.63,0,0,1-3.28-5A6.26,6.26,0,0,1,529.74,189.42Z"/><path class="cls-12" d="M537.22,205.83c.11-1.64,2.13-2,3.54-1.11.77.47,1.35,1.39,1.25,3.13-.28,4.65-4.89,3.41-4.89,3.28S537.09,207.75,537.22,205.83Z"/><path class="cls-13" d="M538.65,209.45s.08.06.21.14a.84.84,0,0,0,.6,0,2,2,0,0,0,1-1.74,2.77,2.77,0,0,0-.16-1.17.94.94,0,0,0-.57-.66.41.41,0,0,0-.49.2c-.07.12,0,.22-.08.22s-.09-.08,0-.27a.46.46,0,0,1,.2-.28.62.62,0,0,1,.45-.09,1.14,1.14,0,0,1,.81.77,2.81,2.81,0,0,1,.2,1.31,2.13,2.13,0,0,1-1.3,1.94.87.87,0,0,1-.73-.17C538.65,209.57,538.63,209.46,538.65,209.45Z"/><path class="cls-7" d="M541.25,210.5a2.52,2.52,0,0,0-1-.65h.07l-.2,0a.93.93,0,0,0-.75.08h0a1.75,1.75,0,0,0-1,.82,2.1,2.1,0,0,0,.21,2.17,1.78,1.78,0,0,0,1.73.75,1.81,1.81,0,0,0,1.22-1.25A2,2,0,0,0,541.25,210.5Z"/><path class="cls-8" d="M543.27,189.31a7.6,7.6,0,0,0-5.85-3.6,13.11,13.11,0,0,0-2.08-.08,7.64,7.64,0,0,0,.09-2.82,8.1,8.1,0,0,0-5-6.08,10.1,10.1,0,0,0-7.63.35,9.83,9.83,0,0,0-5.34,5.1,7,7,0,0,0,1.13,7.37,13.41,13.41,0,0,0,6.91,2.58,9.31,9.31,0,0,0,6.4-1.4c6.15,4.36,8.18,12.15,9.65,19.22,2.21-4.62,2.38-9.92,2.51-15A11.27,11.27,0,0,0,543.27,189.31Z"/><path class="cls-6" d="M536.44,190.33c.06-.07-.29-.5-.79-1s-1-.79-1-.72.29.5.79,1S536.38,190.39,536.44,190.33Z"/><path class="cls-6" d="M522.84,188.94s-.49-.47-1.13-1.33a8.58,8.58,0,0,1-1.62-3.81,8.73,8.73,0,0,1,.38-4.11c.35-1,.72-1.59.67-1.62a1.45,1.45,0,0,0-.3.38,6.58,6.58,0,0,0-.59,1.15,8,8,0,0,0,1.27,8.15,6.71,6.71,0,0,0,.92.93C522.68,188.87,522.83,189,522.84,188.94Z"/><path class="cls-6" d="M525.46,184.74a5.14,5.14,0,0,0-.83-.83,17.69,17.69,0,0,1-2-2,7.54,7.54,0,0,1-1.34-2.42c-.21-.68-.23-1.13-.28-1.13a2.19,2.19,0,0,0,.06,1.19,6.29,6.29,0,0,0,1.3,2.57,12.08,12.08,0,0,0,2.08,2A3.66,3.66,0,0,0,525.46,184.74Z"/><g class="cls-11"><path d="M535.5,183.35a8.53,8.53,0,0,1-3.54,7.41l.09.13a4.69,4.69,0,0,0,3.45-7.54Z"/></g><path class="cls-5" d="M541.77,193.11a8.62,8.62,0,0,0-1.49.87,8.22,8.22,0,0,0-1.47.91,3.27,3.27,0,0,0,1.64-.62A3.39,3.39,0,0,0,541.77,193.11Z"/><path class="cls-5" d="M545,197.65a14.61,14.61,0,0,0-2.05.35,13.5,13.5,0,0,0-2.06.33,4.47,4.47,0,0,0,2.11,0A4.36,4.36,0,0,0,545,197.65Z"/><path class="cls-5" d="M538.26,184.53c-.1,0,.33,1.26.56,2.82s.22,2.85.32,2.85a6.89,6.89,0,0,0,0-2.9A7.06,7.06,0,0,0,538.26,184.53Z"/><path class="cls-5" d="M537.13,192.81a4.39,4.39,0,0,0-1.3,0,4.53,4.53,0,0,0-1.3.11,2,2,0,0,0,1.31.23C536.59,193.13,537.15,192.9,537.13,192.81Z"/><path class="cls-5" d="M542.09,201.3a3.92,3.92,0,0,0-1.18,1.46,4,4,0,0,0-.68,1.75,8.56,8.56,0,0,0,1-1.58A8.33,8.33,0,0,0,542.09,201.3Z"/><path class="cls-5" d="M529.31,189.05a12.6,12.6,0,0,0-.76-1.79L526.6,183c-.72-1.62-1.37-3.09-1.89-4.28a11.86,11.86,0,0,0-.84-1.75,10.54,10.54,0,0,0,.62,1.84c.43,1.12,1.06,2.66,1.81,4.33s1.48,3.15,2,4.21A10.35,10.35,0,0,0,529.31,189.05Z"/><path class="cls-5" d="M532.68,179.88a4.7,4.7,0,0,0-1.18-.72,24,24,0,0,0-3.07-1.27,22,22,0,0,0-3.23-.8,4.54,4.54,0,0,0-1.37-.13c0,.1,2,.44,4.49,1.25S532.64,180,532.68,179.88Z"/><path class="cls-5" d="M519.68,183.55a6.07,6.07,0,0,0-1.57,5.07c.1,0,.08-1.21.52-2.61S519.76,183.61,519.68,183.55Z"/><path class="cls-5" d="M529.05,191.91a10.1,10.1,0,0,1-1.88-.36,9.8,9.8,0,0,1-1.64-1,3,3,0,0,0,3.52,1.36Z"/><path class="cls-5" d="M535.14,186.67a2.78,2.78,0,0,0-.64-1.72,2.84,2.84,0,0,0-1.39-1.21c-.06.08.57.59,1.12,1.4S535,186.7,535.14,186.67Z"/><path class="cls-5" d="M515.32,197.84c0-.08-.17-.31-.39-.61s-.38-.57-.47-.55-.07.39.2.75S515.28,197.92,515.32,197.84Z"/><path class="cls-6" d="M534,189.22c0,.05.75.81,1.91,2.14a35.42,35.42,0,0,1,4,5.63,36.14,36.14,0,0,1,2.78,6.3c.55,1.68.79,2.75.85,2.74a3.53,3.53,0,0,0-.12-.77c-.09-.49-.26-1.19-.51-2a30.43,30.43,0,0,0-2.71-6.4,30.85,30.85,0,0,0-4.08-5.62c-.61-.65-1.12-1.16-1.49-1.48A4.08,4.08,0,0,0,534,189.22Z"/><path class="cls-6" d="M544.44,196.35a8.75,8.75,0,0,0-1-1.65,25.85,25.85,0,0,0-3.14-3.51,25.46,25.46,0,0,0-3.74-2.85,7.63,7.63,0,0,0-1.73-.91,17.88,17.88,0,0,0,1.6,1.11,32.3,32.3,0,0,1,3.64,2.9,32.64,32.64,0,0,1,3.18,3.41A14.71,14.71,0,0,0,544.44,196.35Z"/><path class="cls-6" d="M531.31,177.34s.22.3.56.88a8,8,0,0,1,.93,2.63,8.12,8.12,0,0,1-.39,4.08,8.47,8.47,0,0,1-3.11,3.91,9.41,9.41,0,0,1-4.73,1.67,9.78,9.78,0,0,1-4.09-.53,6.71,6.71,0,0,1-2.36-1.47c-.47-.47-.66-.8-.69-.77a.74.74,0,0,0,.13.24,4.36,4.36,0,0,0,.47.62,6.25,6.25,0,0,0,2.37,1.6,9.71,9.71,0,0,0,4.2.61,9.43,9.43,0,0,0,4.9-1.7,8.55,8.55,0,0,0,3.2-4.07,8.2,8.2,0,0,0,.33-4.23,7.21,7.21,0,0,0-1-2.66,5.66,5.66,0,0,0-.47-.62C531.39,177.4,531.32,177.33,531.31,177.34Z"/><path class="cls-6" d="M535.1,181.81c-.05,0,.11.69.17,1.8a9.08,9.08,0,0,1-.71,4.19,6.66,6.66,0,0,1-2.85,3.07,14.3,14.3,0,0,1-1.67.63,1.32,1.32,0,0,0,.49,0,4.6,4.6,0,0,0,1.28-.4,6.41,6.41,0,0,0,3.05-3.14,8.46,8.46,0,0,0,.65-4.35,9.16,9.16,0,0,0-.24-1.32C535.19,182,535.13,181.81,535.1,181.81Z"/><g class="cls-11"><path d="M539.5,196a49.57,49.57,0,0,1,3.16,7.24,4.54,4.54,0,0,1,.43,2.57c0,.17-.16.37-.32.33s-.16-.15-.19-.26a112.75,112.75,0,0,0-4.89-12.27Z"/></g><g class="cls-11"><path d="M520.48,179c-1.07,3.49-.61,7.22,2.18,9.85a3.45,3.45,0,0,1-2.68-2.05A8.19,8.19,0,0,1,520.48,179Z"/></g><path class="cls-8" d="M541.14,225.21a3.87,3.87,0,0,0-2.73-2.11l0,.72a3.35,3.35,0,0,1,2.17,1.73,6.89,6.89,0,0,1,.69,3.54c-.05,3.87-.19,7.57-.19,7.6l.69,0s.14-3.74.19-7.62A7.54,7.54,0,0,0,541.14,225.21Z"/><path class="cls-8" d="M538.45,244.15l-.94-.07c0-.18.35-4.51,1.22-6.07a3.86,3.86,0,0,1,3.09-1.89,3.32,3.32,0,0,1,2.87,1.07c1,1.33,1.29,5.89,1.31,6.4l-.94,0c-.06-1.32-.37-4.94-1.11-5.87a2.36,2.36,0,0,0-2.05-.71,2.9,2.9,0,0,0-2.34,1.41C538.91,239.62,538.54,243,538.45,244.15Z"/><path class="cls-2" d="M541,260.55a5.42,5.42,0,0,1-2.49-.72l.22-.42c1.52.81,2.79.88,3.78.22,4-2.65,2.76-15.86,2.75-16l.46,0c.06.56,1.25,13.62-3,16.43A3.15,3.15,0,0,1,541,260.55Z"/><path class="cls-2" d="M539.59,260h0a.56.56,0,0,1-.67.3L537.7,260a.68.68,0,0,1-.51-.81h0a.67.67,0,0,1,.94-.46l1.19.57A.57.57,0,0,1,539.59,260Z"/><path class="cls-2" d="M542.47,260.38a3.15,3.15,0,0,1-1.82-.55c-4.12-2.78-2.95-15.21-2.9-15.74l.47,0c0,.13-1.19,12.67,2.69,15.3,1,.68,2.32.62,3.89-.2l.21.42A5.57,5.57,0,0,1,542.47,260.38Z"/><path class="cls-2" d="M544,259.84h0a.57.57,0,0,0,.66.31l1.23-.35a.68.68,0,0,0,.51-.81h0a.67.67,0,0,0-.93-.46l-1.2.56A.57.57,0,0,0,544,259.84Z"/><path class="cls-8" d="M517,242.13a99,99,0,0,1,.34-12.38c.65-5.8,4.07-6.08,4.21-6.09l.06.94,0-.47,0,.47c-.12,0-2.79.28-3.35,5.25A100.25,100.25,0,0,0,518,242.1Z"/><path class="cls-2" d="M507.53,243.78l-.47-1.18a.44.44,0,0,1,.26-.58l6.62-2.58a.45.45,0,0,1,.58.25L515,241Z"/><path class="cls-6" d="M500.63,247.35l11.09,30.46a1.22,1.22,0,0,0,1.5.74l20.7-6.3a1.21,1.21,0,0,0,.8-1.55l-10.88-31.91a1.21,1.21,0,0,0-1.57-.74l-20.92,7.75A1.2,1.2,0,0,0,500.63,247.35Z"/><path class="cls-12" d="M493.28,258.49s-3.13,9.7-2.17,12.9a5.75,5.75,0,0,0,1.82,2.42c3.57,3.19,5.09,2.86,10.64.87L522,267.25l-3.47-7.72L502.16,262Z"/><path class="cls-12" d="M531.89,254.22a.68.68,0,0,0-.81-.68,36.4,36.4,0,0,0-6.16,1.38,81.88,81.88,0,0,0-6.75,4.66l3,8,9.8-1s3-2,3-2.71a10.71,10.71,0,0,0-.28-1.22l.91-.69c1.33-1.18.09-2.83.09-2.83a2.24,2.24,0,0,0,.81-1.78,1.63,1.63,0,0,0-1-1.39s.17-1.52-.65-1.79a3.12,3.12,0,0,0-2,.44A.52.52,0,0,0,531.89,254.22Z"/><path class="cls-13" d="M532.43,254.29s-.09.06-.26.14-.43.18-.75.29c-.64.23-1.55.48-2.55.75a23.5,23.5,0,0,0-2.51.81c-.62.26-1,.52-1,.5s.07-.08.22-.2a3.92,3.92,0,0,1,.7-.41,15.27,15.27,0,0,1,2.51-.87c1-.27,1.91-.5,2.56-.7A10.55,10.55,0,0,1,532.43,254.29Z"/><path class="cls-13" d="M534.43,255.85a2.18,2.18,0,0,1-.58.43,11.15,11.15,0,0,1-1.57.75c-.63.24-1.21.42-1.64.55a2.92,2.92,0,0,1-.69.17,19.25,19.25,0,0,1,2.27-.89c.62-.24,1.18-.49,1.57-.69A4.36,4.36,0,0,1,534.43,255.85Z"/><path class="cls-13" d="M534.69,259.09a7.18,7.18,0,0,1-1.83,1,7.31,7.31,0,0,1-2,.57c0-.05.87-.31,1.92-.74S534.66,259.05,534.69,259.09Z"/><path class="cls-13" d="M534.58,261.91a7.06,7.06,0,0,1-2.93,1.23,15.15,15.15,0,0,1,1.47-.61A12.08,12.08,0,0,1,534.58,261.91Z"/><path class="cls-13" d="M529.61,261s-.08.1-.26.14a1,1,0,0,1-1.21-.59c-.07-.17-.06-.29,0-.29s.17.42.62.64A1.79,1.79,0,0,0,529.61,261Z"/><path class="cls-13" d="M529.89,263.92c0,.05-.35.13-.7-.1s-.43-.58-.38-.59.18.25.48.44S529.88,263.87,529.89,263.92Z"/><path class="cls-13" d="M527.9,258.3c0,.05-.21.17-.47,0s-.29-.4-.24-.4.14.14.33.24S527.89,258.25,527.9,258.3Z"/><path class="cls-6" d="M491.88,186.82c-1.15-1.29-2.56-2.51-2.94-4.2s.23-3.32-.57-4.7c-1-1.7-3.48-1.88-4.66-3.45-.57-.75-.76-1.75-1.32-2.51a4.73,4.73,0,0,0-4.4-1.43c-1.61.19-3.15.79-4.76.93-2.21.18-4.5-.51-6.62.15-2.33.74-3.74,2.83-5.24,4.86l-1.95,2.35a9.09,9.09,0,0,1-1.31,1.1,15.47,15.47,0,0,0-2.49,1.63,3.92,3.92,0,0,0,.33,5.64,4.19,4.19,0,0,0-2.77,4.15,12,12,0,0,0,.8,2.83,4.15,4.15,0,0,1,.12,2.88,1.84,1.84,0,0,1-2.39,1.07,4.41,4.41,0,0,0,2.44,2.9,2.62,2.62,0,0,1-1.76.82c1.85,4.19,6.77,6.33,11.35,6.29s8.94-1.84,13.16-3.61l12.28-3.39c1.08-.26,1.52-1.58,1.48-2.7a8.91,8.91,0,0,1,0-3.3c.53-1.43,2.17-2.21,2.72-3.63C494.05,189.88,493,188.11,491.88,186.82Z"/><path class="cls-9" d="M474.17,173.62l-.68,0c-7.34.11-11.34,6.41-11,13.74l-.27,25.26a8.6,8.6,0,0,0,8.05,8.67h0a8.57,8.57,0,0,0,9.12-8.16c.07-1.33.12-2.26.12-2.26s7.09-.79,7.47-7.82c.19-3.4,0-10.43-.23-16.79A13.12,13.12,0,0,0,474.17,173.62Z"/><path class="cls-10" d="M479.48,210.84a17,17,0,0,1-9-3.1s1.9,5.23,8.95,4.89Z"/><path class="cls-6" d="M483.77,191.86a1,1,0,0,1-1,1,1,1,0,0,1-1-1,1,1,0,0,1,1-1A1,1,0,0,1,483.77,191.86Z"/><path class="cls-6" d="M485.09,189.09c-.13.13-.87-.47-1.95-.51s-1.89.46-2,.32.09-.29.44-.53a2.82,2.82,0,0,1,1.62-.42,2.67,2.67,0,0,1,1.54.57C485.05,188.79,485.16,189,485.09,189.09Z"/><path class="cls-6" d="M473.51,191.86a1,1,0,0,1-1,1,1,1,0,0,1-1-1,1,1,0,0,1,1-1A1,1,0,0,1,473.51,191.86Z"/><path class="cls-6" d="M474.48,189.07c-.13.13-.87-.47-2-.51s-1.89.46-2,.32.08-.29.44-.52a2.74,2.74,0,0,1,1.62-.43,2.67,2.67,0,0,1,1.54.58C474.44,188.78,474.55,189,474.48,189.07Z"/><path class="cls-6" d="M478,197.55a7.26,7.26,0,0,1,1.77-.24c.28,0,.54-.06.6-.25a1.45,1.45,0,0,0-.15-.83c-.23-.68-.47-1.39-.73-2.13a35.57,35.57,0,0,1-1.59-5.58,37.26,37.26,0,0,1,2,5.43l.69,2.15a1.6,1.6,0,0,1,.1,1.09.72.72,0,0,1-.47.39,2.11,2.11,0,0,1-.48,0A7.51,7.51,0,0,1,478,197.55Z"/><path class="cls-6" d="M474.79,198.16c.18,0,.13,1.17,1.1,2.05s2.22.8,2.22,1-.29.22-.82.21a2.91,2.91,0,0,1-1.86-.74,2.55,2.55,0,0,1-.84-1.71C474.57,198.43,474.71,198.15,474.79,198.16Z"/><path class="cls-6" d="M474.61,184.68c-.12.29-1.19.11-2.47.2s-2.31.41-2.47.13c-.07-.13.12-.39.55-.66a4,4,0,0,1,1.85-.56,4.09,4.09,0,0,1,1.91.31C474.44,184.3,474.66,184.55,474.61,184.68Z"/><path class="cls-6" d="M484.8,185.48c-.2.23-.94,0-1.83-.1s-1.66.09-1.83-.17.06-.37.4-.59a2.59,2.59,0,0,1,1.51-.34,2.51,2.51,0,0,1,1.44.56C484.8,185.1,484.89,185.36,484.8,185.48Z"/><path class="cls-9" d="M462.82,192.57c-.12-.06-4.78-1.64-4.83,3.18s4.79,3.87,4.8,3.74S462.82,192.57,462.82,192.57Z"/><path class="cls-10" d="M461.34,197.65s-.08,0-.23.12a.82.82,0,0,1-.62,0,2.05,2.05,0,0,1-.94-1.87,2.71,2.71,0,0,1,.25-1.2,1,1,0,0,1,.63-.64.44.44,0,0,1,.5.24c.06.13,0,.23.05.24s.11-.08.07-.28a.48.48,0,0,0-.19-.3.59.59,0,0,0-.46-.13,1.17,1.17,0,0,0-.88.73,2.79,2.79,0,0,0-.31,1.34,2.19,2.19,0,0,0,1.2,2.1.92.92,0,0,0,.77-.12C461.33,197.76,461.36,197.65,461.34,197.65Z"/><path class="cls-6" d="M462.66,178.45a10,10,0,0,1,3.13-3.45,14.47,14.47,0,0,1,4.63-2.62,10.59,10.59,0,0,1,8.14.46,6.33,6.33,0,0,1,2.3,2c1.73,1.07,3.44,3.07,2.76,3.45l-1-1a7.41,7.41,0,0,1-2.16,2.19l-.12.08a2.53,2.53,0,0,1-.51.28l-.1.06c-2,.69-3.39.41-5.43-.3-1.42-.5-2.71-1.3-4.08-1.9a5,5,0,0,0-3.3,1.22,3.47,3.47,0,0,0-.39.4,2.88,2.88,0,0,0-.35,2.4c.19.82.57,1.58.8,2.38a14.08,14.08,0,0,1,.3,4.58c-.1,2.17-.22,4.42-1.28,6.3-.5.88-1.58,1.76-2.46.82a2,2,0,0,1-.5-1.47c.06-1.47-1.23-2.14-1.9-3.21a5.69,5.69,0,0,1-.67-2.94A18.91,18.91,0,0,1,462.66,178.45Z"/><path class="cls-8" d="M462.82,212.12s5.79,5.37,10.45,5.35,5.79-2.48,5.79-2.48l2.62,3.35s.25,21.81.55,22.19-2.75,2.28-2.75,2.28L464,220.59Z"/><path class="cls-1" d="M495.61,292.28a4.61,4.61,0,0,0,2.79-2.75c.6-2-1-22.34-1-22.34L496.13,266l.94-.75v-6.45l-2.2-13.58s-2.15-18.66-4.77-20L486,243.66,489,287Z"/><path class="cls-1" d="M479.06,215h0l.3-1.89a25.24,25.24,0,0,1,2.58,3.48c2.57,2.17,7.94,7.67,8.92,9.81,1.38,3.06,1.52,17.07,1.52,17.07l-.69,69.3-46.34.07.74-31.4,1.48-61.94,11.37-5.72,3.05-3.36,19.17,31.24-.14-21A9.21,9.21,0,0,0,479.06,215Z"/><path class="cls-1" d="M430.18,271.82a10.23,10.23,0,0,1-.67-7.62c2.6-8.7,10.71-35.67,12.19-39,1.62-3.68,6.24-5.88,6.24-5.88L455.06,238l-1.81,8.72-6.52,18.61h0l19.08,22.32-13.64,11.22s-20.56-24.32-21.95-27Z"/><path class="cls-9" d="M480.25,289.7c-.14-.05-5,.82-5.9.58a32,32,0,0,0-5.18-1c-2.22-.19-4.66-.6-4.66-.6l-9.42,7.74,3.87,1.38a14.71,14.71,0,0,0,6-.68,73.76,73.76,0,0,0,9.15-4,21.54,21.54,0,0,0,3.87-.19C479.57,292.7,482.28,290.47,480.25,289.7Z"/><path class="cls-6" d="M481.93,312.83a1.31,1.31,0,0,1,0-.19V310c0-1.88,0-4.56,0-7.87.05-6.64.16-15.82.14-26,0-5.06-.06-9.89-.14-14.28q-.07-3.3-.14-6.24c-.09-1.95-.17-3.76-.25-5.42-.14-3.31-.25-6-.33-7.86,0-.92-.07-1.64-.08-2.14l0-.55v-.19s0,.06,0,.18l0,.56c0,.5.08,1.22.13,2.13.1,1.87.24,4.55.42,7.86.08,1.66.17,3.48.27,5.43s.11,4,.17,6.23c.09,4.39.15,9.22.16,14.29,0,10.14-.12,19.32-.22,26-.05,3.31-.09,6-.12,7.87,0,.91,0,1.63-.05,2.14v.55C481.94,312.77,481.94,312.83,481.93,312.83Z"/><path class="cls-6" d="M458.94,213.77s.06.07.16.21l.43.62,1.58,2.38c1.34,2.06,3.23,4.94,5.42,8.31l-.06,0,4.06,1,.15,0-.07.14c-.46.88-.93,1.81-1.42,2.76l-.22.43v-.13c3.49,4.52,6.63,8.59,8.91,11.56l2.67,3.51.71.95.18.26.06.09a.45.45,0,0,1-.08-.08l-.2-.24-.75-.93-2.72-3.46-9-11.51,0-.07,0-.07.21-.42,1.42-2.76.08.17-4.06-1h-.05l0,0L461,217.06l-1.52-2.41-.4-.65Z"/><path class="cls-6" d="M481.49,245.86a1.82,1.82,0,0,1,.1-.31c.07-.21.21-.49.34-.88.27-.77.63-1.9,1-3.32.77-2.83,1.64-6.81,2.4-11.27l0,.09c-.11-.19-.23-.38-.36-.58-.66-1.08-1.3-2.13-1.92-3.13l-.15-.25.28.07,2.28.55-.13.14c-1-3-1.88-5.6-2.51-7.46-.29-.91-.52-1.63-.7-2.16l-.17-.57c0-.13-.06-.2-.05-.2s0,.06.09.19l.21.56.76,2.13c.64,1.85,1.54,4.43,2.58,7.44l.07.2-.2,0-2.28-.54.13-.18c.61,1,1.26,2,1.92,3.13l.36.58,0,0v0a112.17,112.17,0,0,1-2.49,11.28c-.41,1.41-.79,2.54-1.1,3.3-.14.38-.29.67-.37.87A1.71,1.71,0,0,1,481.49,245.86Z"/><path class="cls-9" d="M494.79,283.64a22.19,22.19,0,0,0-4.62.74c-1.11.51-1.89,2.23-2.76,2.94s-2.2,1.06-1.89,1.95a2.08,2.08,0,0,0,2.63,1.09,26.24,26.24,0,0,0,2.43-1.09h5.56s1.12-4.41,1.22-4.34A5.82,5.82,0,0,0,494.79,283.64Z"/><path class="cls-6" d="M492.13,236.44c.07,0,.12,10.62.12,23.72s-.05,23.72-.12,23.72-.12-10.62-.12-23.72S492.06,236.44,492.13,236.44Z"/><path class="cls-6" d="M440.69,285.12l.21.24.62.71,2.34,2.75c2,2.4,4.89,5.82,8.39,10h-.14l13.62-11.23,0,.17-4.39-5.14-14.67-17.19,0,0,0-.06c2-5.59,3.62-10.24,4.78-13.5.58-1.61,1-2.88,1.34-3.76l.37-1c.08-.22.13-.33.13-.33s0,.12-.1.35l-.34,1c-.3.88-.73,2.16-1.29,3.78-1.13,3.27-2.75,7.92-4.69,13.53l0-.1c4.23,4.93,9.28,10.84,14.7,17.17l4.39,5.13.08.1-.1.08c-5.05,4.14-9.72,8-13.64,11.2l-.08.06-.06-.08-8.33-10-2.29-2.79-.6-.73Z"/><path class="cls-6" d="M444.72,221.86s.06,0,.2,0h.57a12.23,12.23,0,0,1,2.08.28,12.42,12.42,0,0,1,9.42,9.31,11,11,0,0,1,.31,2.08c0,.25,0,.44,0,.57a.8.8,0,0,1,0,.2,5.4,5.4,0,0,1-.09-.76,13.75,13.75,0,0,0-.37-2.05,12.7,12.7,0,0,0-9.3-9.18,13.24,13.24,0,0,0-2-.35A7,7,0,0,1,444.72,221.86Z"/><path class="cls-6" d="M439.38,266.72a3.53,3.53,0,0,1,.93-.64,8.36,8.36,0,0,1,2.57-.87,8.47,8.47,0,0,1,2.72,0,3.75,3.75,0,0,1,1.08.3,13,13,0,0,0-3.76-.06A12.8,12.8,0,0,0,439.38,266.72Z"/><polygon class="cls-1" points="491.93 289.27 496.62 289.27 490.76 306.84 489.02 294.58 491.93 289.27"/><path class="cls-6" d="M490.58,289.27a1.84,1.84,0,0,1,.43,0l1.23,0,4.37,0h.15l-.05.14c-.57,1.73-1.24,3.76-1.95,5.93-1.08,3.22-2.06,6.13-2.78,8.23l-.87,2.48-.25.67c-.06.16-.09.24-.1.23a.91.91,0,0,1,.05-.24l.21-.69c.2-.62.47-1.47.79-2.51.68-2.11,1.64-5,2.71-8.25.73-2.17,1.42-4.19,2-5.92l.1.14-4.37,0-1.23,0Z"/><path class="cls-6" d="M492.13,283.88a2.18,2.18,0,0,1,.55-.17,7.56,7.56,0,0,1,1.56-.19,4.4,4.4,0,0,1,2.27.55,4.25,4.25,0,0,1,1.77,2.23,4.82,4.82,0,0,1-.81,4.94,4.13,4.13,0,0,1-1.31.87,1.7,1.7,0,0,1-.55.17,4,4,0,0,1,.51-.26,4.62,4.62,0,0,0,1.23-.9,4.75,4.75,0,0,0,.7-4.73,4,4,0,0,0-1.65-2.13,4.49,4.49,0,0,0-2.16-.56A14.65,14.65,0,0,0,492.13,283.88Z"/><path class="cls-6" d="M456.71,297.31a9.17,9.17,0,0,0,2.61.54,10.76,10.76,0,0,0,2.87-.26,25.66,25.66,0,0,0,3.4-1.06c2.38-.88,4.54-1.67,6.11-2.23l1.86-.65a4.82,4.82,0,0,1,.69-.21,3,3,0,0,1-.66.3l-1.83.72c-1.56.6-3.7,1.42-6.09,2.3a23.69,23.69,0,0,1-3.43,1.05,11.07,11.07,0,0,1-2.93.22,7.15,7.15,0,0,1-1.94-.41,4,4,0,0,1-.5-.21Z"/><path class="cls-6" d="M457.72,312.65c-.06,0-.4-2.9-.75-6.48s-.58-6.51-.51-6.51.4,2.89.75,6.48S457.79,312.64,457.72,312.65Z"/><path class="cls-6" d="M470.27,312.06s.25-.09.68-.28a5.78,5.78,0,0,0,1.66-1.08,7.72,7.72,0,0,0,1.68-2.38,13.68,13.68,0,0,0,1-3.45,30.2,30.2,0,0,0,.35-6.57c0-.84-.08-1.53-.11-2a4.08,4.08,0,0,1,0-.74,3.31,3.31,0,0,1,.13.73c.06.47.14,1.15.2,2a28.53,28.53,0,0,1-.29,6.63,13.8,13.8,0,0,1-1.08,3.5,7.75,7.75,0,0,1-1.78,2.41,5.6,5.6,0,0,1-1.73,1,5.27,5.27,0,0,1-.53.16C470.34,312.06,470.28,312.07,470.27,312.06Z"/><path class="cls-6" d="M456.76,298.41s.41.45,1.1,1.14a15.75,15.75,0,0,0,6.45,3.93c.93.3,1.53.42,1.52.46a1.4,1.4,0,0,1-.43,0,10.37,10.37,0,0,1-1.14-.25,13.87,13.87,0,0,1-3.54-1.53,14.29,14.29,0,0,1-3-2.45,9.13,9.13,0,0,1-.74-.9C456.83,298.55,456.74,298.42,456.76,298.41Z"/><path class="cls-6" d="M473.27,246.13a1.5,1.5,0,0,1,.55,1.18c-.05.73,0,5.69,0,5.69s.18.73-.55.73v-7.6Z"/><rect class="cls-6" x="471.89" y="245.32" width="1.52" height="2.49"/><path class="cls-6" d="M472.2,245.6h.93v-1a.46.46,0,0,0-.47-.46h0a.46.46,0,0,0-.46.46Z"/><path class="cls-6" d="M460.4,247.66c0-.07,3.42-.12,7.63-.12s7.64.05,7.64.12-3.42.12-7.64.12S460.4,247.73,460.4,247.66Z"/><g class="cls-14"><polyline points="480.18 244.18 479.48 243.5 466.63 231.22 468.04 227.19 465.81 227.19 461.34 217.47 466.44 225.35 470.5 226.37 468.87 229.56"/></g><g class="cls-14"><path d="M469.47,260.73a7.34,7.34,0,0,0,3.6-1.1,6.22,6.22,0,0,0,2-3,15.24,15.24,0,0,1-.6,3.22,4.59,4.59,0,0,1-1.8,2.41,5.53,5.53,0,0,1-3.41.59,14.09,14.09,0,0,1-4.56-1.14,3.55,3.55,0,0,1-2.32-2.25A14.3,14.3,0,0,0,469.47,260.73Z"/></g><path class="cls-15" d="M478.55,67.82h0a2.07,2.07,0,0,1,2.07,2.08V81.46a1.11,1.11,0,0,1-.29,0,3,3,0,0,1-2-.66,2.83,2.83,0,0,1-.56-2.28,17.35,17.35,0,0,1,.2-1.82,11,11,0,0,0,.17-3.31A3,3,0,0,0,475,71.16c-.37,0-.66.24-.65.52s.32.49.69.48,1.37,0,1.8,1.49a11.71,11.71,0,0,1-.19,3c-.1.72-.15,1.23-.21,1.87a3.12,3.12,0,0,0,.84,2.95,4.29,4.29,0,0,0,3,1l.37,0v6.79h0a8.65,8.65,0,0,1-1.67-.81,2.74,2.74,0,0,1-1.36-2.12,1.45,1.45,0,0,0-1.41-1.43c-1.9-.27-2.25-1-2.46-1.91a3,3,0,0,1,.57-2.31.43.43,0,0,0-.15-.7.85.85,0,0,0-.94.12,3.58,3.58,0,0,0-.81,1.53c-2.94.11-5.27-2.07-3.77-3.85-1.17-1.4-.84-4,1.73-5.34a5.89,5.89,0,0,0,1.8,3.32,7,7,0,0,0,1,.76.83.83,0,0,0,.47.13.76.76,0,0,0,.48-.17.42.42,0,0,0,0-.71,5.27,5.27,0,0,1-.8-.63c-1.7-1.61-1.95-2.88-1.54-3.94a3.51,3.51,0,0,1,3.64-1.73A3.42,3.42,0,0,1,478.55,67.82Z"/><path class="cls-15" d="M480.65,90.43v6.7c-2.64,1.39-6.27.26-6.76-1.9-4.39,1.27-6.79-1.82-6.26-3.68a7.2,7.2,0,0,0,2.06.24l.54,0c.37,0,.63-.29.59-.56a.68.68,0,0,0-.76-.44c-2.25.21-5.77-1.21-4.14-4.57A11,11,0,0,0,472,89.48,1.77,1.77,0,0,1,473.37,91c0,.75-.73,1.36-2.07,1.72-.35.09-.53.37-.41.63a.7.7,0,0,0,.66.34l.2,0a5.45,5.45,0,0,0,2.05-1c1,.08,3.74.38,4.14,2.51a.64.64,0,0,0,.69.43h.07c.37,0,.63-.29.58-.56a3.27,3.27,0,0,0-1.08-1.78c-.89-.75-.58-2.34-.58-2.35.05-.27-.2-.53-.57-.57a.7.7,0,0,0-.77.43,4.07,4.07,0,0,0,0,1.43,9,9,0,0,0-1.77-.44,2.13,2.13,0,0,0,.18-.81,2.8,2.8,0,0,0-2.32-2.47c-5-1.12-9.33-5.11-5.67-9.35.11,2.21,2.73,3.53,5.56,3.47a3.1,3.1,0,0,0,.49,1.62,5.44,5.44,0,0,1-3.48-.3.81.81,0,0,0-.93.14.42.42,0,0,0,.19.69,7.22,7.22,0,0,0,3.14.64,6.5,6.5,0,0,0,1.87-.34,5.77,5.77,0,0,0,2.38.79c.22,0,.24,0,.33.58a3.62,3.62,0,0,0,1.78,2.72,7.17,7.17,0,0,0,1.92,1A5.65,5.65,0,0,1,480.65,90.43Z"/><path class="cls-15" d="M494.25,70.16A10.88,10.88,0,0,0,489.41,69a10.37,10.37,0,0,0-7.71,3.29V96.74s15.52-8.83,17.24-15.83a8.11,8.11,0,0,0,.5-2.79A9,9,0,0,0,494.25,70.16Z"/></svg>