<?xml version="1.0" encoding="utf-8"?>
<!-- Generator: Adobe Illustrator 25.4.1, SVG Export Plug-In . SVG Version: 6.00 Build 0)  -->
<svg version="1.1" id="Layer_1" xmlns="http://www.w3.org/2000/svg" xmlns:xlink="http://www.w3.org/1999/xlink" x="0px" y="0px"
	 viewBox="0 0 199.1 187.3" style="enable-background:new 0 0 199.1 187.3;" xml:space="preserve">
<style type="text/css">
	.st0{fill:#06061C;}
	.st1{fill:#2D3645;}
	.st2{fill:#B3B3B3;}
	.st3{fill:#7E3332;}
	.st4{fill:#FFFFFF;}
	.st5{fill:#293241;}
	.st6{fill:#EC9292;}
	.st7{fill:#FC9290;}
	.st8{opacity:0.77;fill:#177162;enable-background:new    ;}
	.st9{fill:#009B84;}
	.st10{fill:#EB8E8E;}
	.st11{fill:url(#SVGID_1_);}
	.st12{fill:url(#SVGID_00000085940139413836788500000005792325334131019921_);}
	.st13{fill:url(#SVGID_00000048497307366435931090000014768036329474843292_);}
	.st14{fill:#E1E1E1;}
</style>
<path class="st0" d="M83.9,174.1c0.6,1.1,1.7,1.9,2.9,2.2c1.2,0.2,2.3,0.9,3,1.9c0.4,0.5,0.3,1.3-0.3,1.6c-0.2,0.1-0.4,0.2-0.6,0.2
	H78.7c-0.8,0-1.5-0.7-1.5-1.5c0,0,0-0.1,0-0.1c0.1-0.8,0.2-1.6,0.2-2.3c0.2-1,0.7-2,1.6-2.7L83.9,174.1z"/>
<path class="st1" d="M84.2,174.5c-2.1,1-4.4,1.2-6.6,0.6c0,0-7.1-18-7.5-26.6c0-0.3,0-0.7,0-1c0.1-8-7.2-28.8-5.2-33.1
	c2-4.3,18.1,1.9,18.1,1.9l0.3,14.5L84.2,174.5z"/>
<path class="st0" d="M83.2,130.9l-13.1,17.6c0-0.3,0-0.7,0-1c0.1-8-7.2-28.8-5.2-33.1c2-4.3,18.1,1.9,18.1,1.9L83.2,130.9z"/>
<path class="st0" d="M57.5,174.1c0.6,1.1,1.7,1.9,2.9,2.2c1.2,0.2,2.3,0.9,3,1.9c0.4,0.5,0.3,1.3-0.2,1.7c-0.2,0.2-0.5,0.2-0.8,0.2
	H52.3c-0.8,0-1.5-0.7-1.5-1.5c0,0,0-0.1,0-0.1c0.1-0.8,0.2-1.6,0.2-2.3c0.2-1.1,0.7-2,1.6-2.7L57.5,174.1z"/>
<path class="st1" d="M73.5,116.8c0,0-14.2,53-14.7,58.2c0,0-2.8,1.4-7.3-1.1c0,0-2.6-23.8,0-30.3s-0.5-26.1,6.1-30.6
	S73.5,116.8,73.5,116.8z"/>
<path class="st2" d="M59.6,106.6c-0.2,5.6-0.7,10.3-3.9,12.1l-0.7-0.1c-1.1-0.3-1.8-1.2-1.8-2.3c0-0.1,0-0.3,0-0.4l2.9-16l-1-8
	l0.1-0.2C55.1,91.7,59.9,99.5,59.6,106.6z"/>
<path class="st3" d="M73.5,71.7c-4-0.1-7.1-4.1-7.1-4.1l7,0.3C73.2,69.1,73.2,70.4,73.5,71.7z"/>
<path class="st4" d="M72.2,65.8c0,0,0.3,0.8,2.5,0.4c0,0,1.8-0.4,1.6-1.3C74.9,64.7,73.4,65,72.2,65.8z"/>
<path class="st5" d="M59.8,52c-0.3-0.7-0.3-1.6,0-2.3c0,0.7,0.2,1.3,0.5,1.9C60.9,52.2,59.8,52,59.8,52z"/>
<path class="st5" d="M60,51.1c-0.7-0.1-1.4,0.2-1.8,0.8c0.5-0.4,1.2-0.4,1.7,0L60,51.1z"/>
<path class="st6" d="M131.1,77.6c0,0,11,7.2,14.6,10.8c0,0,13.6,4.3,14.5,4.6s-0.5,3.3-0.5,3.3s-13-0.9-16.9-2.7
	s-17.2-7.1-18.1-11.6S131.1,77.6,131.1,77.6z"/>
<polygon class="st7" points="118.1,161.2 115.6,174.4 111.2,174.4 110,158.3 "/>
<polygon class="st7" points="138.4,160 141.2,174.5 137.2,174.7 129.8,160.5 "/>
<path class="st8" d="M115.7,173.9c0.7,1.2,1.8,2,3.1,2.4c1.2,0.2,2.3,0.9,3,1.9c0.4,0.5,0.3,1.3-0.2,1.6c-0.2,0.1-0.4,0.2-0.7,0.2
	h-10.2c-0.8,0-1.5-0.7-1.5-1.5c0,0,0-0.1,0-0.1c0.1-0.8,0.2-1.6,0.2-2.3c0.2-1.1,0.8-2.1,1.7-2.8c0.6,0.4,1.3,0.7,2,0.9
	C114,174.2,114.9,174.1,115.7,173.9z"/>
<path class="st8" d="M141.1,173.9c0.7,1.2,1.8,2,3.1,2.4c1.2,0.2,2.3,0.9,3,1.9c0.4,0.5,0.3,1.3-0.2,1.7c-0.2,0.2-0.5,0.2-0.8,0.2
	l-10.1,0c-0.8,0-1.5-0.7-1.5-1.5c0-0.1,0-0.1,0-0.2c0.1-0.8,0.2-1.6,0.2-2.3c0.2-1.1,0.8-2.1,1.7-2.8c0.6,0.4,1.3,0.7,1.9,0.9
	C139.3,174.2,140.2,174.1,141.1,173.9z"/>
<path class="st9" d="M140.7,160.6c-2.9,0.9-5.9,1.5-8.9,1.8c-4.4,0.4-9.2,0-11.3-3.1c-0.7-1.4-1.1-2.9-1.1-4.4
	c-0.8-12.2,5.6-41.3,5.6-41.3h7.5C132.5,114.2,140.7,160.6,140.7,160.6z"/>
<path class="st8" d="M131.7,162.4c-4.4,0.4-9.2,0-11.3-3.1c-0.7-1.4-1.1-2.9-1.1-4.4c0,0,0,0,0-0.1c1.2-4.5,4.5-32.1,4.5-32.1
	S135.1,152.3,131.7,162.4z"/>
<path class="st9" d="M108.6,115.3c0,0-3.4,22.6-4.9,46.8c0,0,10.6,4.4,20.4,0.9l1.8-46.1L108.6,115.3z"/>
<path class="st8" d="M113.6,49.6c0,0-0.7-3-3.5-3.2c0,0,0.9,0.5,1.1,1.1c-1.2-0.9-2.8-1-4.2-0.5c-2.6,0.9-6.3,3.5-4.4,9.6
	s-2,7.6-3.6,11.5s3.8,4.7,2.7,7.7s2.2,10.3,10.6,7.1s10.3-15.2,6.7-18.2S113.6,49.6,113.6,49.6z"/>
<path class="st9" d="M116.2,49.5c0,0-3.8-0.5-6.1,1.9c-1.3,1.3,0,3.2,0,3.2L116.2,49.5z"/>
<path class="st8" d="M127.6,55.3c-2-3-5.1-5.1-8.7-5.8c-4.5-0.7-8.7,2.4-9.5,6.9c0,0,0,0.1,0,0.1c-0.7,4.6,0,10.5,7.5,12.6
	L127.6,55.3z"/>
<path class="st7" d="M126.2,75.6l-8.4,5l-2.1-5.9c0.7-1.8,1.1-3.7,1.3-5.6c0.1-1.7,0.1-3.3-0.1-5l7.3,3.2c-0.1,0.5-0.1,1.1-0.2,1.6
	c-0.1,1.3,0,2.6,0.4,3.8C124.6,73.9,125.3,74.9,126.2,75.6z"/>
<path class="st6" d="M124.3,72.7c-4,0.2-7.4-3.6-7.4-3.6l7-0.2C123.8,70.2,124,71.5,124.3,72.7z"/>
<path class="st7" d="M126.1,70.3c0,0-7.9,2.7-11.1-3.6c-3.4-6.7-0.5-12,2.2-12.5c5.4-1,8.7,0.8,9.8,3
	C128.1,59.4,130.5,68.9,126.1,70.3z"/>
<path class="st4" d="M122.7,66.9c0,0,0.4,0.8,2.5,0.2c0,0,1.8-0.5,1.5-1.4C125.2,65.6,123.8,66.1,122.7,66.9z"/>
<path class="st1" d="M136.9,81.5l-6.7-5.5l0,0c-0.9-0.7-2-1.2-3.1-1.3c-0.5-0.1-1.5-0.2-2-0.3c0.1,1.2,0.1,2.3-2.1,2.6
	c-2.9,0.5-5.8-1.2-7.2-2.5c-1.8,0.3-3.5,0.7-5.2,1.4c-1,0.4-1.9,1.1-2.4,2.1c-0.5,0.9-0.7,1.9-0.6,2.8l2.2,19.3
	c0,0-2.7,16.4-2.2,16.4c3.1,0.3,16.5,3,26-0.1c1.6-0.5-2.2-9.2-1.4-26.9C137.6,86.3,136.9,81.5,136.9,81.5z"/>
<path class="st8" d="M120.6,55c0,0,0.1,6.2-3.5,8.3c0,0,1.4-2.9,0.9-4.7c0,0-0.9,5.5-3.8,6.5s-4.3-10.3,1.6-12.5s11.6,0.4,12.3,4.4
	s0.2,4.8,0.2,4.8S125.6,54.2,120.6,55z"/>
<path class="st0" d="M107.6,116.6c-0.5,0,2.2-16.4,2.2-16.4l-2.2-19.3c-0.1-1,0.1-2,0.6-2.8c0.2,0,0.3,0.1,0.5,0.2c4.7,4,9,20,9,20
	S119.9,111.2,107.6,116.6z"/>
<path class="st7" d="M106.9,83c0,0-4,15.1-3.3,17.8s8.5,9.2,9.8,9.6l0.9-2.5c0,0-5.9-8.2-5.4-9c1.1-1.9,5.4-13,5.4-13L106.9,83z"/>
<path class="st1" d="M113.3,88.9c0,0-4.6,0.8-9.1-3.8c0,0,3.8-11.1,8.5-8.9S116.3,86.2,113.3,88.9z"/>
<path class="st7" d="M114.4,108c0,0,3.9,0.8,4.1,2c0.1,1-1.7,2.7-2.6,2.3c-0.9-0.5-1.7-1.1-2.4-1.9L114.4,108z"/>
<path class="st5" d="M172.2,48c0,0,7.4,1,9.3,6s4.1,39.6,0,44.2c-0.1-1.8-0.3-3.5-0.6-5.2c0,0-0.8,8.8-5,10.6s-20-26.3-20-26.3
	S151.9,46.5,172.2,48z"/>
<path class="st10" d="M158.3,154.7c1.1,9.5,1.9,17.8,1.6,20.1l4.4-0.5h0.1v-0.1l0,0c0.3-1.1,2.2-8.9,3.6-16.1
	c0.9-4.8,1.5-9.3,1.3-11.6c-0.7-6.1,5.5-31.3-0.2-33.5s-15.4,5.8-15.4,5.8S156.4,138.5,158.3,154.7z"/>
<path class="st7" d="M167,155.3c1.6,9.3,2.9,17.4,2.7,19.6l4.4-1c0,0,2-10.6,3-19.2l0,0c0.4-3.1,0.5-6.2,0.3-9.3
	c-1.1-6.1,3.6-31.6-2.3-33.4s-15,6.7-15,6.7S164.1,138.9,167,155.3z"/>
<path class="st6" d="M158,75.3c0,0-6.7,11.3-8,20.5c0,0,3.2,4.4,4.6,1.3S165.3,77.5,158,75.3z"/>
<path class="st5" d="M159.3,55.3c2-3,5.1-5.1,8.6-5.8c4.5-0.7,8.7,2.4,9.5,6.9c0,0,0,0.1,0,0.1c0.7,4.6,0,10.5-7.5,12.6L159.3,55.3z
	"/>
<path class="st7" d="M160.6,75.6l8.4,5l2.1-5.9c-0.7-1.8-1.1-3.7-1.3-5.6c-0.1-1.7-0.1-3.3,0.1-5l-7.3,3.2c0.1,0.5,0.2,1.1,0.2,1.6
	c0.1,1.3,0,2.6-0.4,3.8C162.3,73.9,161.6,74.9,160.6,75.6z"/>
<path class="st6" d="M162.5,72.7c4,0.2,7.4-3.6,7.4-3.6l-7-0.2C163,70.2,162.9,71.5,162.5,72.7z"/>
<path class="st7" d="M160.7,70.3c0,0,7.9,2.6,11.1-3.6c3.4-6.7,0.5-12-2.2-12.5c-5.4-1-8.7,0.8-9.8,3S156.4,68.9,160.7,70.3z"/>
<path class="st4" d="M164.1,66.9c0,0-0.4,0.8-2.5,0.2c0,0-1.8-0.5-1.5-1.4C161.6,65.6,163,66.1,164.1,66.9z"/>
<path class="st9" d="M180.8,139.8c-2.3,2.2-19.2,6.7-28.7,3.4c-1-0.3-0.5-17.3,0.4-33.8c0.7-12.7,1.6-25.1,2.3-29.5
	c0.4-2.8,2.7-4.9,5.5-5.3c0.5-0.1,1-0.1,1.5-0.2c-0.1,1.2,0.3,2.4,2.5,2.8c2.9,0.6,5.5-1.3,6.9-2.6c1.9,0.3,3.7,0.8,5.5,1.5
	c2,0.8,3.2,2.9,2.9,5l-0.5,4l-3.1,12.5c-0.2,1.6-1.1,5-0.9,6.6c0.7,4.9,4.1,15.2,4.9,24.3C180.5,134.8,180.9,139.7,180.8,139.8z"/>
<path class="st8" d="M180,128.4c-0.2-0.3-16.3-19-16.9-28.9s8-17.3,8-17.3c2.9-0.4,5.9,0.7,7.9,2.9l-2.5,12.5
	c-0.6,1.9-0.8,3.9-0.7,5.9C176.6,108.4,179.2,119.4,180,128.4z"/>
<path class="st5" d="M166.3,55c0,0-0.8,7.4,6.3,10c2.8,1.1,4.2-10.3-1.6-12.5s-11.6,0.4-12.3,4.4s-0.2,4.8-0.2,4.8
	S161.2,54.2,166.3,55z"/>
<path class="st7" d="M170.6,79.3c0,0-3.2,12.8-3.4,17.8c0,0-7.1,12.4-7.5,13.3s2.6,2.1,2.6,2.1s8.9-9.5,10.6-13.5s7.8-16.9,5.4-20.8
	S170.6,79.3,170.6,79.3z"/>
<path class="st6" d="M150,95.8c-0.2,5.7,1.8,11.2,5.6,15.6c0,0,1.7-2,1.5-2.7s-2.6-10.3-4.4-11.7S150,95.8,150,95.8z"/>
<path class="st6" d="M157,108.7c0,0,3.2,1.5,2.1,3c-0.7,0.9-2.1,1.1-3,0.4c-0.3-0.2-0.5-0.5-0.6-0.7
	C155.2,110.3,157,108.7,157,108.7z"/>
<path class="st9" d="M168.2,86c3,2.4,6.7,3.6,10.6,3.3c0,0,3.2-11.2-1.9-12.6S167.6,82,168.2,86z"/>
<path class="st8" d="M159.9,174.7l4.4-0.5l0.1-0.1l0,0c0.3-1.1,2.2-8.9,3.6-16.1c0-0.5-0.2-1-0.4-1.4c-3.2,0.2-6.4-0.4-9.3-1.8
	C159.4,164.2,160.2,172.5,159.9,174.7z"/>
<path class="st9" d="M155.8,77.3l-3.7,6.3c0,0,0.5,2.9,3.2,3.2S155.8,77.3,155.8,77.3z"/>
<path class="st9" d="M169.7,174.9l4.4-1c0,0,2-10.6,3-19.2l0,0c0,0-4.1,2.8-10,0.6l0,0C168.6,164.6,169.8,172.6,169.7,174.9z"/>
<path class="st0" d="M159.9,173.9c-0.7,1.2-1.8,2-3.1,2.4c-1.2,0.2-2.3,0.9-3,1.9c-0.4,0.5-0.3,1.3,0.2,1.7c0.2,0.2,0.5,0.2,0.8,0.2
	l10.1,0c0.8,0,1.5-0.7,1.5-1.5c0,0,0-0.1,0-0.1c-0.1-0.8-0.2-1.6-0.2-2.3c-0.2-1.1-0.8-2.1-1.7-2.8c-0.6,0.4-1.3,0.7-1.9,0.9
	C161.7,174.2,160.8,174.1,159.9,173.9z"/>
<path class="st0" d="M169.6,173.9c-0.7,1.2-1.8,2-3.1,2.4c-1.2,0.2-2.3,0.9-3,1.9c-0.4,0.5-0.3,1.3,0.2,1.7c0.2,0.2,0.5,0.2,0.8,0.2
	l10.2-0.1c0.8,0,1.5-0.7,1.5-1.5c0,0,0-0.1,0-0.1c-0.1-0.8-0.2-1.6-0.2-2.3c-0.2-1.1-0.8-2.1-1.7-2.8c-0.6,0.4-1.3,0.7-1.9,0.9
	C171.4,174.2,170.5,174.1,169.6,173.9z"/>
<path class="st7" d="M159.7,110.4c0,0-4,0-4.2,0.9c-0.1,1.6,1.1,2.9,2.7,3c0.4,0,0.8,0,1.2-0.2c2.9-1,2.8-1.7,2.8-1.7L159.7,110.4z"
	/>
<linearGradient id="SVGID_1_" gradientUnits="userSpaceOnUse" x1="34.2" y1="128.5151" x2="65.05" y2="128.5151" gradientTransform="matrix(1 0 0 -1 0 190)">
	<stop  offset="0" style="stop-color:#AD4E42"/>
	<stop  offset="1" style="stop-color:#A22947"/>
</linearGradient>
<path class="st11" d="M47.7,62.3c0,0-5.4-13.2-5.8-14.1c0,0,0-0.1-0.1-0.1c-0.1-0.8-0.1-1.6,0-2.4c0.2-1.2-0.5-4-1-3.8
	s-0.1,1.3-0.7,1.2s-2.3-3.2-3-2.8s-1.1,1.7-0.5,4.1c0.5,1.6,1.2,3.1,2.1,4.5l0,0c0,0,2,12.9,4,16.7s8.5,16.6,13.1,17.1
	s3.9-6.7,3.9-6.7S51.6,65.5,47.7,62.3z"/>
<linearGradient id="SVGID_00000013170160396019618950000013767899274932224434_" gradientUnits="userSpaceOnUse" x1="62.11" y1="124.0505" x2="81.78" y2="124.0505" gradientTransform="matrix(1 0 0 -1 0 190)">
	<stop  offset="0" style="stop-color:#AD4E42"/>
	<stop  offset="1" style="stop-color:#A22947"/>
</linearGradient>
<path style="fill:url(#SVGID_00000013170160396019618950000013767899274932224434_);" d="M77.2,56.5c-1-2.2-4.1-4.3-9.6-3.6
	c-2.7,0.3-6,5.4-3,12.3c0.4,1,1,1.8,1.8,2.5c-0.3,1.9-0.8,3.7-1.6,5.4l1.8,6.1l8.7-4.5c-0.9-0.8-1.5-1.8-1.7-3
	c-0.1-0.6-0.2-1.3-0.2-1.9c0.7,0,1.5-0.1,2.2-0.3C79.9,68.3,78.2,58.7,77.2,56.5z"/>
<linearGradient id="SVGID_00000131341092231036687450000002239166757911723944_" gradientUnits="userSpaceOnUse" x1="74.07" y1="125.7841" x2="100.9" y2="125.7841" gradientTransform="matrix(1 0 0 -1 0 190)">
	<stop  offset="0" style="stop-color:#AD4E42"/>
	<stop  offset="1" style="stop-color:#A22947"/>
</linearGradient>
<path style="fill:url(#SVGID_00000131341092231036687450000002239166757911723944_);" d="M95.1,43.3c-0.7-0.3-1.6,2.8-2.2,2.9
	s-0.3-0.8-0.8-1s-0.7,2.5-0.3,3.5c0.2,0.7,0.4,1.5,0.3,2.2c0,0-3.3,12.7-4,14.2S75.8,76.9,75.8,76.9l2.6,8.2
	c0,0,13.7-12.6,14.8-15.6s1.7-18.2,1.7-18.2c0.6-1.4,1-2.9,1.2-4.4C96.4,44.6,95.9,43.6,95.1,43.3z"/>
<path class="st14" d="M82.4,82.4c0-0.7,4.4-3.7,4.4-3.7c0.5-3.4-0.5-6.8-2.6-9.5L79,73c-0.5,0-1,0.1-1.4,0.4c-1.2-0.1-2.3-0.1-3.5,0
	c0,1.3-0.3,2.4-2.5,2.7c-2.9,0.4-5.6-1.6-6.9-3c-1.4-0.1-2.7,0.1-4,0.6c-0.7-0.3-1.4-0.5-2.2-0.6l-4.3-3.9c0,0-5,1.5-5.8,9.1
	c0,0,5.7,4.3,6.1,7.7l0.2,1.3l0.5,4.6l1,8l-2.9,16c0,0.1,0,0.3,0,0.4c0,1.1,0.7,2,1.8,2.3l0.7,0.1c3,0.4,15.4,1.9,25.1-0.7
	c2.2-0.6,3.6-2.7,3.4-5l-2.1-25.8l0,0C82.2,87.2,82.4,83.1,82.4,82.4z"/>
<path class="st5" d="M66,67.4c-0.5-1.4-0.8-2.8-0.8-4.3c0,0-2.1-2.7-0.9-3.3s1.9,0.9,2.2,0.6s0.7-5.6,2.2-5.4s7,1.9,9.4-0.2
	s-3.4-10.2-13.3-7.1S56.8,61.9,66,67.4z"/>
</svg>
