<svg id="Layer_1" data-name="Layer 1" xmlns="http://www.w3.org/2000/svg" viewBox="0 0 491.38 1007.05"><defs><style>.cls-1{fill:#293241;}.cls-2{fill:#fafafa;}.cls-3{fill:#263238;}.cls-4{fill:#f30241;}.cls-5{fill:#e1e1e1;}</style></defs><path class="cls-1" d="M416.64,1007.05l-342.15-.2A74.53,74.53,0,0,1,0,932.3L.17,74.52A74.53,74.53,0,0,1,74.74,0L416.9.2a74.53,74.53,0,0,1,74.48,74.55l-.16,857.78A74.53,74.53,0,0,1,416.64,1007.05Z"/><path class="cls-2" d="M416.54,30.54l-66.34,0c-8.89,0-16.11,7.53-16.11,16.83v12c0,9.3-7.22,16.83-16.11,16.83l-129.31-.08c-8.9,0-16.11-7.55-16.11-16.85v-12c0-9.3-7.21-16.85-16.11-16.85l-23.33,0-58.06,0A52.2,52.2,0,0,0,22.84,82.53l-.16,837.26A52.19,52.19,0,0,0,74.84,972l341.47.2A52.2,52.2,0,0,0,468.54,920l.17-837.26A52.21,52.21,0,0,0,416.54,30.54Z"/><path class="cls-3" d="M55.18,143.88a3.85,3.85,0,0,1,.66,0l1.79-.07,6.6-.19-.23.24c0-1.48,0-3.08-.08-4.8,0-.9-.08-1.72,0-2.77a2.58,2.58,0,0,1,2.28-2.09c1.08,0,2-.08,3.17,0a2.62,2.62,0,0,1,2.23,2.62q0,3.36.09,7l-.39-.38,8.35-.08-.4.4c0-3.36-.06-6.84-.1-10.4,0-.88,0-1.77,0-2.64A2.6,2.6,0,0,0,78,128.72l-3.64-3.59-3.52-3.48L69.12,120c-.6-.57-1-1.14-1.7-1.27a2.18,2.18,0,0,0-1.85.35c-.48.41-1,1-1.54,1.52l-3,3c-1.88,2-3.86,3.75-5.27,5.42-.59.91-.37,2-.41,3.08s0,2,0,2.93c0,1.78,0,3.35,0,4.73,0,1.18,0,2.18,0,3a8.6,8.6,0,0,1-.06,1.1,6.2,6.2,0,0,1-.07-1c0-.84-.06-1.82-.1-3,0-1.39-.07-3-.12-4.78q0-1.42-.06-3c0-1-.26-2.27.43-3.42,1.56-1.92,3.39-3.58,5.29-5.6l3-3c.53-.53,1-1,1.61-1.6a2.9,2.9,0,0,1,2.49-.49,4.54,4.54,0,0,1,2,1.45l1.72,1.68,3.53,3.45,3.66,3.59A3.44,3.44,0,0,1,80,130.61c0,.89,0,1.77,0,2.67,0,3.56.06,7,.08,10.39v.41h-.4l-8.34,0h-.38v-.38c0-2.42,0-4.76,0-7a1.93,1.93,0,0,0-1.62-1.95c-.94-.06-2.09,0-3,0a2,2,0,0,0-1.75,1.57c-.08.82,0,1.81,0,2.66v5h-.23L57.5,144l-1.75,0A2.83,2.83,0,0,1,55.18,143.88Z"/><path class="cls-3" d="M417,122.57a2.49,2.49,0,1,1-2.48-2.5A2.48,2.48,0,0,1,417,122.57Z"/><path class="cls-3" d="M417,131.53a2.49,2.49,0,1,1-2.48-2.5A2.51,2.51,0,0,1,417,131.53Z"/><path class="cls-3" d="M417,140.5a2.5,2.5,0,1,1-2.49-2.5A2.51,2.51,0,0,1,417,140.5Z"/><path class="cls-4" d="M228,648.17h.11a9.51,9.51,0,0,1,9.53,9.6V711a4.44,4.44,0,0,1-1.31.17c-4.13-.18-7.09-1.18-9.09-3-3.19-2.94-2.65-7.85-2.57-10.52a81.3,81.3,0,0,1,.91-8.37c.81-6,1.65-12.25.8-15.22-2.69-9.36-10.27-10.58-14.55-10.47-1.71.05-3.06,1.11-3,2.38s1.47,2.27,3.19,2.23,6.28-.16,8.29,6.84c.65,2.27-.21,8.66-.9,13.8-.45,3.32-.68,5.65-.94,8.59s-1.48,8.54,3.87,13.58c3.1,2.92,7.67,4.74,13.62,4.78a15.52,15.52,0,0,0,1.68-.07V747h0a39.88,39.88,0,0,1-7.66-3.72c-5.29-3.68-5.84-7.05-6.28-9.76-.39-2.46-.94-5.83-6.5-6.62-8.76-1.24-10.36-4.61-11.3-8.77a13.77,13.77,0,0,1,2.62-10.65,2,2,0,0,0-.71-3.2,3.84,3.84,0,0,0-4.32.53,16.64,16.64,0,0,0-3.73,7c-13.54.5-24.26-9.53-17.37-17.74-5.37-6.45-3.85-18.19,7.95-24.57a27.41,27.41,0,0,0,8.29,15.27A33.06,33.06,0,0,0,203,688.3a3.79,3.79,0,0,0,2.15.57,3.64,3.64,0,0,0,2.22-.77,1.91,1.91,0,0,0-.24-3.25,27.5,27.5,0,0,1-3.68-2.93c-7.82-7.4-9-13.24-7.09-18.13,1.8-4.71,9.88-9.45,16.79-8C216,650.58,221.13,648.34,228,648.17Z"/><path class="cls-4" d="M237.59,752.31v30.82c-12.15,6.4-28.86,1.21-31.11-8.74-20.2,5.86-31.26-8.39-28.82-16.93a33.73,33.73,0,0,0,9.48,1.08c.8,0,1.62-.07,2.46-.14,1.71-.17,2.92-1.31,2.72-2.58s-1.78-2.13-3.46-2c-10.37,1-26.6-5.6-19.11-21.06,5.79,7,15.15,12,27.91,15.16,3.56.87,6.38,4,6.41,7,.05,3.46-3.33,6.27-9.51,7.9-1.61.43-2.46,1.75-1.9,2.94a3.2,3.2,0,0,0,3,1.53,3.33,3.33,0,0,0,.94-.13,25,25,0,0,0,9.42-4.36c4.51.36,17.27,1.73,19.1,11.55.21,1.18,1.6,2,3.16,2l.33,0c1.71-.19,2.89-1.35,2.66-2.61a15,15,0,0,0-5-8.2c-4.09-3.42-2.68-10.74-2.67-10.81.25-1.26-.92-2.42-2.61-2.6s-3.28.69-3.53,2a18.37,18.37,0,0,0,.11,6.6,42.52,42.52,0,0,0-8.15-2.06,9,9,0,0,0,.83-3.71c-.06-5.09-4.51-10-10.67-11.36-22.9-5.19-43-23.52-26.12-43.09.52,10.2,12.58,16.28,25.62,16a14,14,0,0,0,2.26,7.45,24.51,24.51,0,0,1-16-1.39,3.82,3.82,0,0,0-4.3.65c-.95,1.05-.58,2.48.85,3.19a33.39,33.39,0,0,0,14.46,2.95,28.59,28.59,0,0,0,8.65-1.58c2.42,1.64,5.9,2.93,10.94,3.65,1,.14,1.13.15,1.53,2.66.51,3.08,1.26,7.73,8.18,12.56a35,35,0,0,0,8.84,4.36A17.14,17.14,0,0,1,237.59,752.31Z"/><path class="cls-4" d="M300.25,659a49.77,49.77,0,0,0-22.3-5.19,48,48,0,0,0-35.53,15.14V781.34s71.49-40.64,79.43-72.89a37.52,37.52,0,0,0,2.29-12.87C324.14,679.81,314.5,666.12,300.25,659Z"/><path class="cls-1" d="M177.15,807.7h-.07l-4.19-6.25V811h-2.31V797.64h2.5l4.07,6.31,4.06-6.32h2.49l0,13.35h-2.35v-9.57Z"/><path class="cls-1" d="M192.26,811.26c-.8,2.06-1.7,2.82-3.32,2.82a4.69,4.69,0,0,1-2.38-.61l.78-1.71a3,3,0,0,0,1.35.38c.65,0,1.05-.29,1.43-1.17l-4.2-10.06h2.46l2.87,7.48,2.6-7.48h2.4Z"/><path class="cls-1" d="M200.85,805.34V811h-2.35V797.61h2.35v5.55h6.37v-5.55h2.34V811h-2.34v-5.63Z"/><path class="cls-1" d="M222.89,799.69h-7.55v3.47H222v2.1h-6.69v3.59H223v2.1H213l0-13.35h9.9Z"/><path class="cls-1" d="M238.56,810.93h-2.48l-1.36-3.22h-6.31L227,810.94h-2.4l5.86-13.45h2.17Zm-7-10.64-2.28,5.34h4.59Z"/><path class="cls-1" d="M249.41,810.92l-3.28-4.65h-2.94v4.65h-2.34V797.58h5.95c3.07,0,5,1.62,5,4.23a4,4,0,0,1-3.18,4.06l3.61,5.06Zm-2.81-11.21h-3.42v4.48h3.43c1.68,0,2.75-.88,2.74-2.25S248.33,799.7,246.6,799.71Z"/><path class="cls-1" d="M260.22,810.91h-2.36V799.73h-4.24v-2.18h10.83v2.18h-4.24Z"/><path class="cls-1" d="M271.79,803.15c2.82.69,4.29,1.7,4.3,3.93,0,2.52-2,4-4.77,4a8.22,8.22,0,0,1-5.57-2.13l1.41-1.68a6.18,6.18,0,0,0,4.22,1.73c1.45,0,2.36-.67,2.36-1.7s-.54-1.49-3-2.06c-2.85-.68-4.45-1.52-4.45-4,0-2.32,1.9-3.89,4.55-3.89a7.45,7.45,0,0,1,4.85,1.67l-1.26,1.78a6,6,0,0,0-3.62-1.37c-1.38,0-2.18.7-2.18,1.6C268.62,802.09,269.24,802.55,271.79,803.15Z"/><path class="cls-1" d="M285.41,807.6h-.08l-4.18-6.25v9.54h-2.31V797.54h2.5l4.07,6.31,4-6.32H292v13.35h-2.34v-9.57Z"/><path class="cls-1" d="M308.18,810.87h-2.47l-1.36-3.22H298l-1.37,3.23h-2.41l5.86-13.45h2.18Zm-7-10.64-2.29,5.34h4.6Z"/><path class="cls-1" d="M315.46,806.57h-2.65v4.29h-2.35V797.51h5.26c3.11,0,5.08,1.75,5.08,4.47C320.8,805,318.4,806.56,315.46,806.57Zm.07-6.93h-2.72v4.8h2.73c1.77,0,2.88-1,2.88-2.41S317.29,799.64,315.53,799.64Z"/><path class="cls-3" d="M215.52,902a6.56,6.56,0,1,1-6.61-6.5A6.56,6.56,0,0,1,215.52,902Z"/><path class="cls-3" d="M252.25,901.66a6.56,6.56,0,1,1-6.61-6.51A6.55,6.55,0,0,1,252.25,901.66Z"/><path class="cls-3" d="M289,901.35a6.56,6.56,0,1,1-6.61-6.5A6.56,6.56,0,0,1,289,901.35Z"/><rect class="cls-5" x="54.79" y="331.46" width="382.47" height="185.48" rx="43.39"/><path class="cls-1" d="M112.52,370.14V353.31a1.76,1.76,0,1,1,3.51,0v16.83a1.76,1.76,0,1,1-3.51,0Z"/><path class="cls-1" d="M127.46,370.53a1.21,1.21,0,0,1-.84,1.2,5.46,5.46,0,0,1-2.07.36c-2.43,0-3.72-1.32-3.72-3.72V360h-1.2a1.38,1.38,0,0,1,0-2.76h1.2v-2.55a1.58,1.58,0,1,1,3.15,0v2.55h1.74a1.38,1.38,0,1,1,0,2.76H124v7.59c0,1,.48,1.71,1.38,1.71.36,0,.54-.09.78-.09A1.26,1.26,0,0,1,127.46,370.53Z"/><path class="cls-1" d="M137.09,352.47a2,2,0,1,1,1.95,1.95A2,2,0,0,1,137.09,352.47Zm.39,17.85V358.65a1.58,1.58,0,1,1,3.15,0v11.67a1.58,1.58,0,1,1-3.15,0Z"/><path class="cls-1" d="M143.72,369.45a1.34,1.34,0,0,1,1.35-1.35,1.56,1.56,0,0,1,.75.21,7.51,7.51,0,0,0,4,1.29c1.89,0,2.85-.69,2.85-1.77,0-1.26-1.53-1.71-3.3-2.1-2.49-.54-5.46-1.2-5.46-4.44,0-2.37,2-4.41,5.7-4.41a8.44,8.44,0,0,1,4.83,1.41,1.29,1.29,0,0,1,.57,1,1.27,1.27,0,0,1-1.26,1.26,1.34,1.34,0,0,1-.69-.21,6.36,6.36,0,0,0-3.42-1c-1.65,0-2.7.6-2.7,1.62s1.44,1.5,3.15,1.89c2.52.54,5.61,1.26,5.61,4.68,0,2.55-2.13,4.5-6,4.5a9.45,9.45,0,0,1-5.34-1.53A1.35,1.35,0,0,1,143.72,369.45Z"/><path class="cls-1" d="M178.58,362.13v8.19a1.58,1.58,0,1,1-3.15,0v-.15a6.12,6.12,0,0,1-4.68,1.92,4.81,4.81,0,0,1-5-4.8c0-3.33,2.67-4.71,5-4.71a6,6,0,0,1,4.68,1.86v-2.16c0-1.68-1.38-2.7-3.39-2.7a5.69,5.69,0,0,0-3.39,1.08,1.36,1.36,0,0,1-.72.21,1.27,1.27,0,0,1-1.26-1.26,1.29,1.29,0,0,1,.54-1,8.79,8.79,0,0,1,5.34-1.71C175.76,356.88,178.58,358.23,178.58,362.13Zm-3.15,6.3v-2.19a4.24,4.24,0,0,0-3.45-1.5c-1.77,0-3.09,1-3.09,2.61s1.32,2.58,3.09,2.58A4.24,4.24,0,0,0,175.43,368.43Z"/><path class="cls-1" d="M195.59,361.53v8.79a1.58,1.58,0,1,1-3.15,0v-7.65c0-2.25-1.14-3-2.91-3a4.77,4.77,0,0,0-3.72,1.95v8.7a1.58,1.58,0,1,1-3.15,0V358.65a1.58,1.58,0,1,1,3.15,0v.57a6.86,6.86,0,0,1,5.1-2.34C194,356.88,195.59,358.56,195.59,361.53Z"/><path class="cls-1" d="M206.48,364.47a7.46,7.46,0,1,1,14.91,0c0,4.17-2.82,7.62-7.47,7.62A7.26,7.26,0,0,1,206.48,364.47Zm11.64,0c0-2.55-1.5-4.8-4.2-4.8s-4.17,2.25-4.17,4.8,1.5,4.83,4.17,4.83S218.12,367.05,218.12,364.47Z"/><path class="cls-1" d="M237.5,361.53v8.79a1.58,1.58,0,1,1-3.15,0v-7.65c0-2.25-1.14-3-2.91-3a4.77,4.77,0,0,0-3.72,1.95v8.7a1.58,1.58,0,1,1-3.15,0V358.65a1.58,1.58,0,1,1,3.15,0v.57a6.86,6.86,0,0,1,5.1-2.34C235.94,356.88,237.5,358.56,237.5,361.53Z"/><path class="cls-1" d="M241.58,370.32V353.13a1.58,1.58,0,1,1,3.15,0v17.19a1.58,1.58,0,1,1-3.15,0Z"/><path class="cls-1" d="M248.42,352.47a2,2,0,1,1,2,1.95A2,2,0,0,1,248.42,352.47Zm.39,17.85V358.65a1.58,1.58,0,1,1,3.15,0v11.67a1.58,1.58,0,1,1-3.15,0Z"/><path class="cls-1" d="M269,361.53v8.79a1.58,1.58,0,1,1-3.15,0v-7.65c0-2.25-1.14-3-2.91-3a4.77,4.77,0,0,0-3.72,1.95v8.7a1.58,1.58,0,1,1-3.15,0V358.65a1.58,1.58,0,1,1,3.15,0v.57a6.86,6.86,0,0,1,5.1-2.34C267.41,356.88,269,358.56,269,361.53Z"/><path class="cls-1" d="M279.5,356.88a7,7,0,0,1,7.14,7.17c0,.93-.66,1.47-1.86,1.47h-9.33a4.39,4.39,0,0,0,4.62,4,6.53,6.53,0,0,0,3.3-1,1.24,1.24,0,0,1,.69-.18,1.27,1.27,0,0,1,1.26,1.26,1.29,1.29,0,0,1-.57,1.05,9,9,0,0,1-5,1.41,7.61,7.61,0,0,1-.24-15.21Zm-4.08,6.42h8.16a3.88,3.88,0,0,0-4.08-3.84A4,4,0,0,0,275.42,363.3Z"/><path class="cls-1" d="M304.73,370.53a1.21,1.21,0,0,1-.84,1.2,5.46,5.46,0,0,1-2.07.36c-2.43,0-3.72-1.32-3.72-3.72V360h-1.2a1.38,1.38,0,0,1,0-2.76h1.2v-2.55a1.58,1.58,0,1,1,3.15,0v2.55H303a1.38,1.38,0,0,1,0,2.76h-1.74v7.59c0,1,.48,1.71,1.38,1.71.36,0,.54-.09.78-.09A1.26,1.26,0,0,1,304.73,370.53Z"/><path class="cls-1" d="M306.14,364.47a7.46,7.46,0,1,1,14.91,0c0,4.17-2.82,7.62-7.47,7.62A7.26,7.26,0,0,1,306.14,364.47Zm11.64,0c0-2.55-1.5-4.8-4.2-4.8s-4.17,2.25-4.17,4.8,1.5,4.83,4.17,4.83S317.78,367.05,317.78,364.47Z"/><path class="cls-1" d="M323.33,364.47a7.46,7.46,0,1,1,14.91,0c0,4.17-2.82,7.62-7.47,7.62A7.26,7.26,0,0,1,323.33,364.47Zm11.64,0c0-2.55-1.5-4.8-4.2-4.8s-4.17,2.25-4.17,4.8,1.5,4.83,4.17,4.83S335,367.05,335,364.47Z"/><path class="cls-1" d="M341.42,370.32V353.13a1.58,1.58,0,1,1,3.15,0v17.19a1.58,1.58,0,1,1-3.15,0Z"/><path class="cls-1" d="M363.62,370.53a1.21,1.21,0,0,1-.84,1.2,5.46,5.46,0,0,1-2.07.36c-2.43,0-3.72-1.32-3.72-3.72V360h-1.2a1.38,1.38,0,0,1,0-2.76H357v-2.55a1.58,1.58,0,1,1,3.15,0v2.55h1.74a1.38,1.38,0,0,1,0,2.76h-1.74v7.59c0,1,.48,1.71,1.38,1.71.36,0,.54-.09.78-.09A1.26,1.26,0,0,1,363.62,370.53Z"/><path class="cls-1" d="M365,364.47a7.46,7.46,0,1,1,14.91,0c0,4.17-2.82,7.62-7.47,7.62A7.26,7.26,0,0,1,365,364.47Zm11.64,0c0-2.55-1.5-4.8-4.2-4.8s-4.17,2.25-4.17,4.8,1.5,4.83,4.17,4.83S376.67,367.05,376.67,364.47Z"/><path class="cls-1" d="M129.8,392.88a6.75,6.75,0,0,1,4.59,1.56,1.43,1.43,0,0,1,.51,1.08,1.43,1.43,0,0,1-2.34,1.08,3.87,3.87,0,0,0-2.61-.93c-2.64,0-4.38,2-4.38,4.8s1.74,4.83,4.38,4.83a3.87,3.87,0,0,0,2.61-.93,1.39,1.39,0,0,1,.9-.33,1.42,1.42,0,0,1,1.44,1.41,1.43,1.43,0,0,1-.51,1.08,6.75,6.75,0,0,1-4.59,1.56,7.61,7.61,0,0,1,0-15.21Z"/><path class="cls-1" d="M137.21,400.47a7.46,7.46,0,1,1,14.91,0c0,4.17-2.82,7.62-7.47,7.62A7.26,7.26,0,0,1,137.21,400.47Zm11.64,0c0-2.55-1.5-4.8-4.2-4.8s-4.17,2.25-4.17,4.8,1.5,4.83,4.17,4.83S148.85,403.05,148.85,400.47Z"/><path class="cls-1" d="M168.23,397.53v8.79a1.58,1.58,0,1,1-3.15,0v-7.65c0-2.25-1.14-3-2.91-3a4.77,4.77,0,0,0-3.72,1.95v8.7a1.58,1.58,0,1,1-3.15,0V394.65a1.58,1.58,0,1,1,3.15,0v.57a6.86,6.86,0,0,1,5.1-2.34C166.67,392.88,168.23,394.56,168.23,397.53Z"/><path class="cls-1" d="M185.24,397.53v8.79a1.58,1.58,0,1,1-3.15,0v-7.65c0-2.25-1.14-3-2.91-3a4.77,4.77,0,0,0-3.72,1.95v8.7a1.58,1.58,0,1,1-3.15,0V394.65a1.58,1.58,0,1,1,3.15,0v.57a6.86,6.86,0,0,1,5.1-2.34C183.68,392.88,185.24,394.56,185.24,397.53Z"/><path class="cls-1" d="M195.77,392.88a7,7,0,0,1,7.14,7.17c0,.93-.66,1.47-1.86,1.47h-9.33a4.39,4.39,0,0,0,4.62,4,6.53,6.53,0,0,0,3.3-1,1.24,1.24,0,0,1,.69-.18,1.27,1.27,0,0,1,1.26,1.26,1.29,1.29,0,0,1-.57,1.05,9,9,0,0,1-5,1.41,7.61,7.61,0,0,1-.24-15.21Zm-4.08,6.42h8.16a3.88,3.88,0,0,0-4.08-3.84A4,4,0,0,0,191.69,399.3Z"/><path class="cls-1" d="M212.63,392.88a6.75,6.75,0,0,1,4.59,1.56,1.43,1.43,0,0,1,.51,1.08,1.43,1.43,0,0,1-2.34,1.08,3.87,3.87,0,0,0-2.61-.93c-2.64,0-4.38,2-4.38,4.8s1.74,4.83,4.38,4.83a3.87,3.87,0,0,0,2.61-.93,1.39,1.39,0,0,1,.9-.33,1.42,1.42,0,0,1,1.44,1.41,1.43,1.43,0,0,1-.51,1.08,6.75,6.75,0,0,1-4.59,1.56,7.61,7.61,0,0,1,0-15.21Z"/><path class="cls-1" d="M228.2,406.53a1.21,1.21,0,0,1-.84,1.2,5.46,5.46,0,0,1-2.07.36c-2.43,0-3.72-1.32-3.72-3.72V396h-1.2a1.38,1.38,0,0,1,0-2.76h1.2v-2.55a1.58,1.58,0,1,1,3.15,0v2.55h1.74a1.38,1.38,0,1,1,0,2.76h-1.74v7.59c0,1,.48,1.71,1.38,1.71.36,0,.54-.09.78-.09A1.26,1.26,0,0,1,228.2,406.53Z"/><path class="cls-1" d="M239.12,410.82h.15a2,2,0,0,0,2.07-1.26l.72-1.65-5.16-12.72a1.75,1.75,0,0,1-.09-.57,1.54,1.54,0,0,1,1.53-1.56,1.58,1.58,0,0,1,1.47,1l3.9,10.05,3.9-10.05a1.58,1.58,0,0,1,1.47-1,1.55,1.55,0,0,1,1.56,1.56,1.94,1.94,0,0,1-.12.6l-6.18,15.12a4.85,4.85,0,0,1-5,3.27,2.59,2.59,0,0,1-.45,0,1.38,1.38,0,0,1-1.29-1.38A1.46,1.46,0,0,1,239.12,410.82Z"/><path class="cls-1" d="M252.41,400.47a7.46,7.46,0,1,1,14.91,0c0,4.17-2.82,7.62-7.47,7.62A7.26,7.26,0,0,1,252.41,400.47Zm11.64,0c0-2.55-1.5-4.8-4.2-4.8s-4.17,2.25-4.17,4.8,1.5,4.83,4.17,4.83S264.05,403.05,264.05,400.47Z"/><path class="cls-1" d="M283.43,394.65v11.67a1.58,1.58,0,1,1-3.15,0v-.48a7,7,0,0,1-5.13,2.25c-3.12,0-4.65-1.62-4.65-4.59v-8.85a1.58,1.58,0,1,1,3.15,0v7.71c0,2.25,1.14,2.94,2.91,2.94a4.82,4.82,0,0,0,3.72-1.89v-8.76a1.58,1.58,0,1,1,3.15,0Z"/><path class="cls-1" d="M294.77,406.53a1.21,1.21,0,0,1-.84,1.2,5.46,5.46,0,0,1-2.07.36c-2.43,0-3.72-1.32-3.72-3.72V396h-1.2a1.38,1.38,0,1,1,0-2.76h1.2v-2.55a1.58,1.58,0,1,1,3.15,0v2.55H293a1.38,1.38,0,1,1,0,2.76h-1.74v7.59c0,1,.48,1.71,1.38,1.71.36,0,.54-.09.78-.09A1.26,1.26,0,0,1,294.77,406.53Z"/><path class="cls-1" d="M306.89,406.32v-7.71c0-2.25-1.17-2.94-2.94-2.94a4.87,4.87,0,0,0-3.72,1.95v8.7a1.58,1.58,0,1,1-3.15,0V389.13a1.58,1.58,0,1,1,3.15,0v6.09a6.93,6.93,0,0,1,5.13-2.34c3.12,0,4.68,1.62,4.68,4.59v8.85a1.58,1.58,0,1,1-3.15,0Z"/><path class="cls-1" d="M333.83,398.13v8.19a1.58,1.58,0,1,1-3.15,0v-.15a6.12,6.12,0,0,1-4.68,1.92,4.81,4.81,0,0,1-5-4.8c0-3.33,2.67-4.71,5-4.71a6,6,0,0,1,4.68,1.86v-2.16c0-1.68-1.38-2.7-3.39-2.7a5.69,5.69,0,0,0-3.39,1.08,1.36,1.36,0,0,1-.72.21,1.27,1.27,0,0,1-1.26-1.26,1.29,1.29,0,0,1,.54-1,8.79,8.79,0,0,1,5.34-1.71C331,392.88,333.83,394.23,333.83,398.13Zm-3.15,6.3v-2.19a4.24,4.24,0,0,0-3.45-1.5c-1.77,0-3.09,1-3.09,2.61s1.32,2.58,3.09,2.58A4.24,4.24,0,0,0,330.68,404.43Z"/><path class="cls-1" d="M350.84,397.53v8.79a1.58,1.58,0,1,1-3.15,0v-7.65c0-2.25-1.14-3-2.91-3a4.77,4.77,0,0,0-3.72,1.95v8.7a1.58,1.58,0,1,1-3.15,0V394.65a1.58,1.58,0,1,1,3.15,0v.57a6.86,6.86,0,0,1,5.1-2.34C349.28,392.88,350.84,394.56,350.84,397.53Z"/><path class="cls-1" d="M368.27,389.13v17.19a1.58,1.58,0,1,1-3.15,0v-.54a5.93,5.93,0,0,1-4.65,2.31c-3.72,0-6.45-2.82-6.45-7.59s2.7-7.62,6.45-7.62a5.81,5.81,0,0,1,4.65,2.37v-6.12a1.58,1.58,0,1,1,3.15,0Zm-3.15,14.25v-5.76a4.76,4.76,0,0,0-3.75-1.95c-2.49,0-4.08,2-4.08,4.83s1.59,4.8,4.08,4.8A4.73,4.73,0,0,0,365.12,403.38Z"/><path class="cls-1" d="M112.3,436.47c0,4.77-2.67,7.62-6.42,7.62a5.69,5.69,0,0,1-4.65-2.37v6.12a1.58,1.58,0,1,1-3.15,0V430.65a1.58,1.58,0,1,1,3.15,0v.57a5.78,5.78,0,0,1,4.65-2.34C109.63,428.88,112.3,431.7,112.3,436.47Zm-3.27,0c0-2.79-1.59-4.8-4.08-4.8a4.7,4.7,0,0,0-3.72,1.95v5.73A4.79,4.79,0,0,0,105,441.3C107.44,441.3,109,439.29,109,436.47Z"/><path class="cls-1" d="M127.48,434.13v8.19a1.58,1.58,0,1,1-3.15,0v-.15a6.12,6.12,0,0,1-4.68,1.92,4.81,4.81,0,0,1-5-4.8c0-3.33,2.67-4.71,5-4.71a6,6,0,0,1,4.68,1.86v-2.16c0-1.68-1.38-2.7-3.39-2.7a5.69,5.69,0,0,0-3.39,1.08,1.36,1.36,0,0,1-.72.21,1.27,1.27,0,0,1-1.26-1.26,1.29,1.29,0,0,1,.54-1,8.79,8.79,0,0,1,5.34-1.71C124.66,428.88,127.48,430.23,127.48,434.13Zm-3.15,6.3v-2.19a4.24,4.24,0,0,0-3.45-1.5c-1.77,0-3.09,1-3.09,2.61s1.32,2.58,3.09,2.58A4.24,4.24,0,0,0,124.33,440.43Z"/><path class="cls-1" d="M139.63,430.47c0,.72-.54,1.35-1.62,1.5a5.11,5.11,0,0,0-3.3,1.89v8.46a1.58,1.58,0,1,1-3.15,0V430.65a1.58,1.58,0,1,1,3.15,0v.72a6.46,6.46,0,0,1,2.79-2.19,2.49,2.49,0,0,1,.84-.18A1.29,1.29,0,0,1,139.63,430.47Z"/><path class="cls-1" d="M148.42,428.88a7,7,0,0,1,7.14,7.17c0,.93-.66,1.47-1.86,1.47h-9.33a4.39,4.39,0,0,0,4.62,4,6.53,6.53,0,0,0,3.3-1,1.24,1.24,0,0,1,.69-.18,1.27,1.27,0,0,1,1.26,1.26,1.29,1.29,0,0,1-.57,1.05,9,9,0,0,1-5,1.41,7.61,7.61,0,0,1-.24-15.21Zm-4.08,6.42h8.16a3.88,3.88,0,0,0-4.08-3.84A4,4,0,0,0,144.34,435.3Z"/><path class="cls-1" d="M171.61,433.53v8.79a1.58,1.58,0,1,1-3.15,0v-7.65c0-2.25-1.14-3-2.91-3a4.77,4.77,0,0,0-3.72,1.95v8.7a1.58,1.58,0,1,1-3.15,0V430.65a1.58,1.58,0,1,1,3.15,0v.57a6.86,6.86,0,0,1,5.1-2.34C170.05,428.88,171.61,430.56,171.61,433.53Z"/><path class="cls-1" d="M183,442.53a1.21,1.21,0,0,1-.84,1.2,5.46,5.46,0,0,1-2.07.36c-2.43,0-3.72-1.32-3.72-3.72V432h-1.2a1.38,1.38,0,0,1,0-2.76h1.2v-2.55a1.58,1.58,0,1,1,3.15,0v2.55h1.74a1.38,1.38,0,1,1,0,2.76h-1.74v7.59c0,1,.48,1.71,1.38,1.71.36,0,.54-.09.78-.09A1.26,1.26,0,0,1,183,442.53Z"/><path class="cls-1" d="M184.27,441.45a1.34,1.34,0,0,1,1.35-1.35,1.56,1.56,0,0,1,.75.21,7.51,7.51,0,0,0,4,1.29c1.89,0,2.85-.69,2.85-1.77,0-1.26-1.53-1.71-3.3-2.1-2.49-.54-5.46-1.2-5.46-4.44,0-2.37,2-4.41,5.7-4.41a8.44,8.44,0,0,1,4.83,1.41,1.29,1.29,0,0,1,.57,1,1.27,1.27,0,0,1-1.26,1.26,1.34,1.34,0,0,1-.69-.21,6.36,6.36,0,0,0-3.42-1c-1.65,0-2.7.6-2.7,1.62s1.44,1.5,3.15,1.89c2.52.54,5.61,1.26,5.61,4.68,0,2.55-2.13,4.5-6,4.5a9.45,9.45,0,0,1-5.34-1.53A1.35,1.35,0,0,1,184.27,441.45Z"/><path class="cls-1" d="M214.39,442.53a1.21,1.21,0,0,1-.84,1.2,5.46,5.46,0,0,1-2.07.36c-2.43,0-3.72-1.32-3.72-3.72V432h-1.2a1.38,1.38,0,0,1,0-2.76h1.2v-2.55a1.58,1.58,0,1,1,3.15,0v2.55h1.74a1.38,1.38,0,0,1,0,2.76h-1.74v7.59c0,1,.48,1.71,1.38,1.71.36,0,.54-.09.78-.09A1.26,1.26,0,0,1,214.39,442.53Z"/><path class="cls-1" d="M215.8,436.47a7.46,7.46,0,1,1,14.91,0c0,4.17-2.82,7.62-7.47,7.62A7.26,7.26,0,0,1,215.8,436.47Zm11.64,0c0-2.55-1.5-4.8-4.2-4.8s-4.17,2.25-4.17,4.8,1.5,4.83,4.17,4.83S227.44,439.05,227.44,436.47Z"/><path class="cls-1" d="M253.59,434.13v8.19a1.58,1.58,0,1,1-3.15,0v-.15a6.09,6.09,0,0,1-4.67,1.92,4.81,4.81,0,0,1-5-4.8c0-3.33,2.67-4.71,5-4.71a6,6,0,0,1,4.67,1.86v-2.16c0-1.68-1.37-2.7-3.38-2.7a5.7,5.7,0,0,0-3.4,1.08,1.33,1.33,0,0,1-.72.21,1.27,1.27,0,0,1-1.25-1.26,1.29,1.29,0,0,1,.54-1,8.77,8.77,0,0,1,5.34-1.71C250.77,428.88,253.59,430.23,253.59,434.13Zm-3.15,6.3v-2.19a4.23,4.23,0,0,0-3.45-1.5c-1.76,0-3.09,1-3.09,2.61s1.33,2.58,3.09,2.58A4.23,4.23,0,0,0,250.44,440.43Z"/><path class="cls-1" d="M271.9,436.47c0,4.77-2.67,7.62-6.42,7.62a5.71,5.71,0,0,1-4.66-2.37v6.12a1.57,1.57,0,1,1-3.14,0V430.65a1.57,1.57,0,1,1,3.14,0v.57a5.79,5.79,0,0,1,4.66-2.34C269.23,428.88,271.9,431.7,271.9,436.47Zm-3.28,0c0-2.79-1.59-4.8-4.08-4.8a4.72,4.72,0,0,0-3.72,1.95v5.73a4.8,4.8,0,0,0,3.72,1.95C267,441.3,268.62,439.29,268.62,436.47Z"/><path class="cls-1" d="M289.29,436.47c0,4.77-2.67,7.62-6.42,7.62a5.69,5.69,0,0,1-4.65-2.37v6.12a1.58,1.58,0,1,1-3.15,0V430.65a1.58,1.58,0,1,1,3.15,0v.57a5.78,5.78,0,0,1,4.65-2.34C286.62,428.88,289.29,431.7,289.29,436.47Zm-3.27,0c0-2.79-1.59-4.8-4.08-4.8a4.7,4.7,0,0,0-3.72,1.95v5.73a4.79,4.79,0,0,0,3.72,1.95C284.43,441.3,286,439.29,286,436.47Z"/><path class="cls-1" d="M300.54,430.47c0,.72-.54,1.35-1.62,1.5a5.11,5.11,0,0,0-3.3,1.89v8.46a1.58,1.58,0,1,1-3.15,0V430.65a1.58,1.58,0,1,1,3.15,0v.72a6.46,6.46,0,0,1,2.79-2.19,2.49,2.49,0,0,1,.84-.18A1.29,1.29,0,0,1,300.54,430.47Z"/><path class="cls-1" d="M302,436.47a7.46,7.46,0,1,1,14.91,0c0,4.17-2.82,7.62-7.47,7.62A7.26,7.26,0,0,1,302,436.47Zm11.64,0c0-2.55-1.5-4.8-4.2-4.8s-4.17,2.25-4.17,4.8,1.5,4.83,4.17,4.83S313.62,439.05,313.62,436.47Z"/><path class="cls-1" d="M334.29,436.47c0,4.77-2.67,7.62-6.42,7.62a5.69,5.69,0,0,1-4.65-2.37v6.12a1.58,1.58,0,1,1-3.15,0V430.65a1.58,1.58,0,1,1,3.15,0v.57a5.78,5.78,0,0,1,4.65-2.34C331.62,428.88,334.29,431.7,334.29,436.47Zm-3.27,0c0-2.79-1.59-4.8-4.08-4.8a4.7,4.7,0,0,0-3.72,1.95v5.73a4.79,4.79,0,0,0,3.72,1.95C329.43,441.3,331,439.29,331,436.47Z"/><path class="cls-1" d="M345.54,430.47c0,.72-.54,1.35-1.62,1.5a5.11,5.11,0,0,0-3.3,1.89v8.46a1.58,1.58,0,1,1-3.15,0V430.65a1.58,1.58,0,1,1,3.15,0v.72a6.46,6.46,0,0,1,2.79-2.19,2.49,2.49,0,0,1,.84-.18A1.29,1.29,0,0,1,345.54,430.47Z"/><path class="cls-1" d="M347.49,424.47a1.95,1.95,0,1,1,1.95,1.95A2,2,0,0,1,347.49,424.47Zm.39,17.85V430.65a1.58,1.58,0,1,1,3.15,0v11.67a1.58,1.58,0,1,1-3.15,0Z"/><path class="cls-1" d="M367.11,434.13v8.19a1.58,1.58,0,1,1-3.15,0v-.15a6.12,6.12,0,0,1-4.68,1.92,4.81,4.81,0,0,1-5-4.8c0-3.33,2.67-4.71,5-4.71a6,6,0,0,1,4.68,1.86v-2.16c0-1.68-1.38-2.7-3.39-2.7a5.69,5.69,0,0,0-3.39,1.08,1.36,1.36,0,0,1-.72.21,1.27,1.27,0,0,1-1.26-1.26,1.29,1.29,0,0,1,.54-1,8.79,8.79,0,0,1,5.34-1.71C364.29,428.88,367.11,430.23,367.11,434.13Zm-3.15,6.3v-2.19a4.24,4.24,0,0,0-3.45-1.5c-1.77,0-3.09,1-3.09,2.61s1.32,2.58,3.09,2.58A4.24,4.24,0,0,0,364,440.43Z"/><path class="cls-1" d="M378.45,442.53a1.21,1.21,0,0,1-.84,1.2,5.46,5.46,0,0,1-2.07.36c-2.43,0-3.72-1.32-3.72-3.72V432h-1.2a1.38,1.38,0,0,1,0-2.76h1.2v-2.55a1.58,1.58,0,1,1,3.15,0v2.55h1.74a1.38,1.38,0,0,1,0,2.76H375v7.59c0,1,.48,1.71,1.38,1.71.36,0,.54-.09.78-.09A1.26,1.26,0,0,1,378.45,442.53Z"/><path class="cls-1" d="M387.21,428.88a7,7,0,0,1,7.14,7.17c0,.93-.66,1.47-1.86,1.47h-9.33a4.39,4.39,0,0,0,4.62,4,6.53,6.53,0,0,0,3.3-1,1.24,1.24,0,0,1,.69-.18,1.27,1.27,0,0,1,1.26,1.26,1.29,1.29,0,0,1-.57,1.05,9,9,0,0,1-5,1.41,7.61,7.61,0,0,1-.24-15.21Zm-4.08,6.42h8.16a3.88,3.88,0,0,0-4.08-3.84A4,4,0,0,0,383.13,435.3Z"/><path class="cls-1" d="M103.84,469.26v9.06a1.58,1.58,0,1,1-3.15,0v-8c0-1.56-.69-2.61-2.37-2.61A4.4,4.4,0,0,0,95,469.59v8.73a1.58,1.58,0,1,1-3.15,0v-8c0-1.56-.69-2.61-2.4-2.61a4.38,4.38,0,0,0-3.33,1.95v8.7a1.58,1.58,0,1,1-3.15,0V466.65a1.58,1.58,0,1,1,3.15,0v.57a6.36,6.36,0,0,1,4.71-2.34,3.77,3.77,0,0,1,4,2.67,6.15,6.15,0,0,1,4.92-2.67C102.34,464.88,103.84,466.32,103.84,469.26Z"/><path class="cls-1" d="M114.37,464.88a7,7,0,0,1,7.14,7.17c0,.93-.66,1.47-1.86,1.47h-9.33a4.39,4.39,0,0,0,4.62,4,6.53,6.53,0,0,0,3.3-1,1.24,1.24,0,0,1,.69-.18,1.27,1.27,0,0,1,1.26,1.26,1.29,1.29,0,0,1-.57,1.05,9,9,0,0,1-5,1.41,7.61,7.61,0,0,1-.24-15.21Zm-4.08,6.42h8.16a3.88,3.88,0,0,0-4.08-3.84A4,4,0,0,0,110.29,471.3Z"/><path class="cls-1" d="M137.56,469.53v8.79a1.58,1.58,0,1,1-3.15,0v-7.65c0-2.25-1.14-3-2.91-3a4.77,4.77,0,0,0-3.72,1.95v8.7a1.58,1.58,0,1,1-3.15,0V466.65a1.58,1.58,0,1,1,3.15,0v.57a6.86,6.86,0,0,1,5.1-2.34C136,464.88,137.56,466.56,137.56,469.53Z"/><path class="cls-1" d="M148.9,478.53a1.21,1.21,0,0,1-.84,1.2,5.46,5.46,0,0,1-2.07.36c-2.43,0-3.72-1.32-3.72-3.72V468h-1.2a1.38,1.38,0,0,1,0-2.76h1.2v-2.55a1.58,1.58,0,1,1,3.15,0v2.55h1.74a1.38,1.38,0,0,1,0,2.76h-1.74v7.59c0,1,.48,1.71,1.38,1.71.36,0,.54-.09.78-.09A1.26,1.26,0,0,1,148.9,478.53Z"/><path class="cls-1" d="M163.21,470.13v8.19a1.58,1.58,0,1,1-3.15,0v-.15a6.12,6.12,0,0,1-4.68,1.92,4.81,4.81,0,0,1-5-4.8c0-3.33,2.67-4.71,5-4.71a6,6,0,0,1,4.68,1.86v-2.16c0-1.68-1.38-2.7-3.39-2.7a5.69,5.69,0,0,0-3.39,1.08,1.36,1.36,0,0,1-.72.21,1.27,1.27,0,0,1-1.26-1.26,1.29,1.29,0,0,1,.54-1,8.79,8.79,0,0,1,5.34-1.71C160.39,464.88,163.21,466.23,163.21,470.13Zm-3.15,6.3v-2.19a4.24,4.24,0,0,0-3.45-1.5c-1.77,0-3.09,1-3.09,2.61s1.32,2.58,3.09,2.58A4.24,4.24,0,0,0,160.06,476.43Z"/><path class="cls-1" d="M167.29,478.32V461.13a1.58,1.58,0,1,1,3.15,0v17.19a1.58,1.58,0,1,1-3.15,0Z"/><path class="cls-1" d="M192,478.32v-7.71c0-2.25-1.17-2.94-2.94-2.94a4.87,4.87,0,0,0-3.72,1.95v8.7a1.58,1.58,0,1,1-3.15,0V461.13a1.58,1.58,0,1,1,3.15,0v6.09a6.93,6.93,0,0,1,5.13-2.34c3.12,0,4.68,1.62,4.68,4.59v8.85a1.58,1.58,0,1,1-3.15,0Z"/><path class="cls-1" d="M205.72,464.88a7,7,0,0,1,7.14,7.17c0,.93-.66,1.47-1.86,1.47h-9.33a4.39,4.39,0,0,0,4.62,4,6.53,6.53,0,0,0,3.3-1,1.24,1.24,0,0,1,.69-.18,1.27,1.27,0,0,1,1.26,1.26,1.29,1.29,0,0,1-.57,1.05,9,9,0,0,1-5,1.41,7.61,7.61,0,0,1-.24-15.21Zm-4.08,6.42h8.16a3.88,3.88,0,0,0-4.08-3.84A4,4,0,0,0,201.64,471.3Z"/><path class="cls-1" d="M228,470.13v8.19a1.58,1.58,0,1,1-3.15,0v-.15a6.12,6.12,0,0,1-4.68,1.92,4.81,4.81,0,0,1-5-4.8c0-3.33,2.67-4.71,5-4.71a6,6,0,0,1,4.68,1.86v-2.16c0-1.68-1.38-2.7-3.39-2.7a5.69,5.69,0,0,0-3.39,1.08,1.36,1.36,0,0,1-.72.21,1.27,1.27,0,0,1-1.26-1.26,1.29,1.29,0,0,1,.54-1,8.79,8.79,0,0,1,5.34-1.71C225.16,464.88,228,466.23,228,470.13Zm-3.15,6.3v-2.19a4.24,4.24,0,0,0-3.45-1.5c-1.77,0-3.09,1-3.09,2.61s1.32,2.58,3.09,2.58A4.24,4.24,0,0,0,224.83,476.43Z"/><path class="cls-1" d="M232.06,478.32V461.13a1.58,1.58,0,1,1,3.15,0v17.19a1.58,1.58,0,1,1-3.15,0Z"/><path class="cls-1" d="M246.55,478.53a1.21,1.21,0,0,1-.84,1.2,5.46,5.46,0,0,1-2.07.36c-2.43,0-3.72-1.32-3.72-3.72V468h-1.2a1.38,1.38,0,0,1,0-2.76h1.2v-2.55a1.58,1.58,0,1,1,3.15,0v2.55h1.74a1.38,1.38,0,1,1,0,2.76h-1.74v7.59c0,1,.48,1.71,1.38,1.71.36,0,.54-.09.78-.09A1.26,1.26,0,0,1,246.55,478.53Z"/><path class="cls-1" d="M258.67,478.32v-7.71c0-2.25-1.17-2.94-2.94-2.94a4.87,4.87,0,0,0-3.72,1.95v8.7a1.58,1.58,0,1,1-3.15,0V461.13a1.58,1.58,0,1,1,3.15,0v6.09a6.93,6.93,0,0,1,5.13-2.34c3.12,0,4.68,1.62,4.68,4.59v8.85a1.58,1.58,0,1,1-3.15,0Z"/><path class="cls-1" d="M281.68,466.47c0,.72-.54,1.35-1.62,1.5a5.11,5.11,0,0,0-3.3,1.89v8.46a1.58,1.58,0,1,1-3.15,0V466.65a1.58,1.58,0,1,1,3.15,0v.72a6.46,6.46,0,0,1,2.79-2.19,2.49,2.49,0,0,1,.84-.18A1.29,1.29,0,0,1,281.68,466.47Z"/><path class="cls-1" d="M290.47,464.88a7,7,0,0,1,7.14,7.17c0,.93-.66,1.47-1.86,1.47h-9.33a4.39,4.39,0,0,0,4.62,4,6.53,6.53,0,0,0,3.3-1,1.24,1.24,0,0,1,.69-.18,1.27,1.27,0,0,1,1.26,1.26,1.29,1.29,0,0,1-.57,1.05,9,9,0,0,1-5,1.41,7.61,7.61,0,0,1-.24-15.21Zm-4.08,6.42h8.16a3.88,3.88,0,0,0-4.08-3.84A4,4,0,0,0,286.39,471.3Z"/><path class="cls-1" d="M299.74,477.45a1.34,1.34,0,0,1,1.35-1.35,1.56,1.56,0,0,1,.75.21,7.51,7.51,0,0,0,4,1.29c1.89,0,2.85-.69,2.85-1.77,0-1.26-1.53-1.71-3.3-2.1-2.49-.54-5.46-1.2-5.46-4.44,0-2.37,2-4.41,5.7-4.41a8.44,8.44,0,0,1,4.83,1.41,1.29,1.29,0,0,1,.57,1,1.27,1.27,0,0,1-1.26,1.26,1.34,1.34,0,0,1-.69-.21,6.36,6.36,0,0,0-3.42-1c-1.65,0-2.7.6-2.7,1.62s1.44,1.5,3.15,1.89c2.52.54,5.61,1.26,5.61,4.68,0,2.55-2.13,4.5-6,4.5a9.45,9.45,0,0,1-5.34-1.53A1.35,1.35,0,0,1,299.74,477.45Z"/><path class="cls-1" d="M314,472.47a7.46,7.46,0,1,1,7.45,7.62A7.26,7.26,0,0,1,314,472.47Zm11.64,0c0-2.55-1.5-4.8-4.19-4.8s-4.17,2.25-4.17,4.8,1.5,4.83,4.17,4.83S325.62,475.05,325.62,472.47Z"/><path class="cls-1" d="M345,466.65v11.67a1.58,1.58,0,1,1-3.15,0v-.48a7,7,0,0,1-5.13,2.25c-3.11,0-4.65-1.62-4.65-4.59v-8.85a1.58,1.58,0,1,1,3.15,0v7.71c0,2.25,1.14,2.94,2.91,2.94a4.82,4.82,0,0,0,3.72-1.89v-8.76a1.58,1.58,0,1,1,3.15,0Z"/><path class="cls-1" d="M357.15,466.47c0,.72-.54,1.35-1.62,1.5a5.11,5.11,0,0,0-3.3,1.89v8.46a1.58,1.58,0,1,1-3.15,0V466.65a1.58,1.58,0,1,1,3.15,0v.72a6.46,6.46,0,0,1,2.79-2.19,2.49,2.49,0,0,1,.84-.18A1.29,1.29,0,0,1,357.15,466.47Z"/><path class="cls-1" d="M366.09,464.88a6.75,6.75,0,0,1,4.59,1.56,1.43,1.43,0,0,1,.51,1.08,1.43,1.43,0,0,1-2.34,1.08,3.87,3.87,0,0,0-2.61-.93c-2.64,0-4.38,2-4.38,4.8s1.74,4.83,4.38,4.83a3.87,3.87,0,0,0,2.61-.93,1.39,1.39,0,0,1,.9-.33,1.42,1.42,0,0,1,1.44,1.41,1.43,1.43,0,0,1-.51,1.08,6.75,6.75,0,0,1-4.59,1.56,7.61,7.61,0,0,1,0-15.21Z"/><path class="cls-1" d="M380.85,464.88a7,7,0,0,1,7.14,7.17c0,.93-.66,1.47-1.86,1.47H376.8a4.39,4.39,0,0,0,4.62,4,6.53,6.53,0,0,0,3.3-1,1.24,1.24,0,0,1,.69-.18,1.27,1.27,0,0,1,1.26,1.26,1.29,1.29,0,0,1-.57,1.05,9,9,0,0,1-5,1.41,7.61,7.61,0,0,1-.24-15.21Zm-4.08,6.42h8.16a3.88,3.88,0,0,0-4.08-3.84A4,4,0,0,0,376.77,471.3Z"/><path class="cls-1" d="M390.12,477.45a1.34,1.34,0,0,1,1.35-1.35,1.56,1.56,0,0,1,.75.21,7.51,7.51,0,0,0,4,1.29c1.89,0,2.85-.69,2.85-1.77,0-1.26-1.53-1.71-3.3-2.1-2.49-.54-5.46-1.2-5.46-4.44,0-2.37,2-4.41,5.7-4.41a8.44,8.44,0,0,1,4.83,1.41,1.29,1.29,0,0,1,.57,1,1.27,1.27,0,0,1-1.26,1.26,1.34,1.34,0,0,1-.69-.21,6.36,6.36,0,0,0-3.42-1c-1.65,0-2.7.6-2.7,1.62s1.44,1.5,3.15,1.89c2.52.54,5.61,1.26,5.61,4.68,0,2.55-2.13,4.5-6,4.5a9.45,9.45,0,0,1-5.34-1.53A1.35,1.35,0,0,1,390.12,477.45Z"/><path class="cls-1" d="M406.89,475.86a2.1,2.1,0,1,1-2.1,2.1A2.13,2.13,0,0,1,406.89,475.86Z"/></svg>