<svg xmlns="http://www.w3.org/2000/svg" viewBox="0 0 208.14 199.89"><defs><style>.cls-1{isolation:isolate;}.cls-2{fill:#e1e1e1;}.cls-3{fill:#f7a491;}.cls-4{fill:#177162;}.cls-5{fill:#009b84;}.cls-6{fill:#293241;}.cls-7{fill:#f47458;}.cls-8{fill:#f4f4f4;}.cls-9{fill:#001333;}.cls-10{fill:#8b9098;}.cls-11{fill:#fff;}.cls-12{fill:#3c8f7c;}.cls-13{fill:#daeef7;}.cls-13,.cls-16{mix-blend-mode:multiply;}.cls-14{fill:#a5f7ed;}.cls-15,.cls-16{fill:gray;}</style></defs><g class="cls-1"><g id="Layer_1" data-name="Layer 1"><polygon class="cls-2" points="122.02 186.9 123.44 186.9 121.18 112.52 119.76 112.52 122.02 186.9"/><polygon class="cls-2" points="83.28 186.9 81.86 186.9 84.12 112.52 85.54 112.52 83.28 186.9"/><path class="cls-2" d="M125.35,76.49h-1.13a24.47,24.47,0,0,1-3.48.85,92.48,92.48,0,0,1-12,1.42c-1.82.06-3.69.08-5.38.08H102c-1.68,0-3.55,0-5.37-.08a92.48,92.48,0,0,1-12-1.42,24.47,24.47,0,0,1-3.48-.85H80a2.69,2.69,0,0,0-2.39,3.16l5.24,48.89A2.61,2.61,0,0,0,85.05,131l15.74,1.21a2.24,2.24,0,0,0,1.87-.84,2.24,2.24,0,0,0,1.87.84L120.27,131a2.62,2.62,0,0,0,2.23-2.46l5.24-48.89A2.69,2.69,0,0,0,125.35,76.49Z"/><path class="cls-3" d="M66.88,54.85c.56-.5,2.39,2.5,3.13,2.4s-.92-4.35-.39-4.74c1-.71,2.1,4.54,2.57,4.24s-.44-5.77.65-5.58.34,5.77,1,5.67.23-5.25,1.56-5.69c.71-.24-.41,8.9.32,9.62s3.24-2.4,4-1.9-5.52,5.33-5.56,5.9-1.73,13-1.19,16.94c1.38,0,9,.51,10.31.44-.62,2.59,0,5-.45,7.66-4.39,0-15.78-1.4-16.67-2.26-2.74-2.61,2.52-19.11,3.28-22.28S69,60.91,68.92,59,66.31,55.35,66.88,54.85Z"/><path class="cls-4" d="M75.58,91.11s15.94,2.25,20.78.87,8.58-7.91,6.29-11.72-28.06,1-28.06,1Z"/><path class="cls-4" d="M110.88,78.82s3.31-.47,8.47,4.49,12.11,11,9.1,15.87l-12.66-.3s-7.66-9-7.77-9.47S110.88,78.82,110.88,78.82Z"/><path class="cls-5" d="M104.13,122.12a84.18,84.18,0,0,0,17.1-2.69l-3.31-27.62c-1.41-11.68-5.16-12.89-6.2-13h-.27c-2,0-4.72-.2-7.32-.37v0l-.22,0-.23,0v0c-2.6.17-5.27.32-7.31.37H96.1c-1,.1-4.8,1.31-6.2,13l-3.32,27.62a84.18,84.18,0,0,0,17.1,2.69v0h.45Z"/><path class="cls-6" d="M105.3,45.78s-7-3.12-8.73,2.63c0,0-5.73-.71-4.33,5.45,0,0-5.51,2.89-1.35,10.7,0,0-.73,7.06,7.47,7.68,0,0,1,2.78,4.72,2.26s4.66-2.19,4.66-2.19,6.64,2.8,8.21-3.38c0,0,4.74-1.69,1.27-7.82,0,0,3.41-7.69-3.06-10.78C114.16,50.33,112.23,42.89,105.3,45.78Z"/><path class="cls-3" d="M107.57,74c0,.09.44,3.7.68,5.6a1.5,1.5,0,0,1-1,1.61c-1.81.61-5.33,1.35-7.46-1a1,1,0,0,1-.24-.8L100.7,71Z"/><path class="cls-7" d="M107.23,75.82a1.42,1.42,0,0,0,.51-.29c-.1-.86-.17-1.48-.17-1.52l-6.87-3-.58,4.11C102.27,77.09,105.52,76.4,107.23,75.82Z"/><path class="cls-3" d="M96.18,64.62c.35,1.43-.15,2.78-1.12,3s-2-.73-2.38-2.16.15-2.78,1.12-3S95.83,63.19,96.18,64.62Z"/><path class="cls-3" d="M111.6,64.62c-.35,1.43.15,2.78,1.12,3s2-.73,2.38-2.16-.15-2.78-1.12-3S112,63.19,111.6,64.62Z"/><path class="cls-3" d="M113,64.07c0,6.29-4,11.39-9,11.39s-9-5.1-9-11.39,4-11.39,9-11.39S113,57.78,113,64.07Z"/><path class="cls-8" d="M99.66,78.41a7.68,7.68,0,0,0,4.43,3.42s-2.27.85-3.57.29S98.23,80.47,99.66,78.41Z"/><path class="cls-8" d="M108.1,78.41a7.6,7.6,0,0,1-4.38,3.42s2.25.85,3.54.29S109.52,80.47,108.1,78.41Z"/><path class="cls-3" d="M96.79,99.47c-.16-.25.25-.68.55-1a13.58,13.58,0,0,1,2.74-1.34,18.64,18.64,0,0,1,4.49.69,4.13,4.13,0,0,0,1.9.22l1.1-.22.72,2.67c-2.69,0-5.5.17-5.76.16a10,10,0,0,1-2.63-1,2.48,2.48,0,0,0-1.5.19,6,6,0,0,1-2.06.62C96.11,100.35,96.79,99.47,96.79,99.47Z"/><path class="cls-3" d="M106.31,98.06s15.1-5.51,18.5-4.49,4.68,4.36,3.66,6.39-21,.53-21,.53Z"/><rect class="cls-9" x="41.28" y="104.35" width="2.81" height="82.55"/><rect class="cls-9" x="165.13" y="104.35" width="2.81" height="82.55"/><path class="cls-3" d="M101.54,170.71s-.12,7.31.84,9.43-.62,5.41-.73,5.87-2.55.89-6.29.1-3.59-1.65-3.14-3,2.64-3,2.9-4.3-.52-6.27-.52-6.27Z"/><path class="cls-6" d="M94.83,186.62c-3.85-.81-3.17-2.66-2.71-4.08.29-.88,1.51-1.83,2.28-2.77a6.61,6.61,0,0,0,2.48,1.52c1.7.7,4.21-.08,5.81-.56a18.18,18.18,0,0,1,0,5.05C102.58,186.26,98.68,187.44,94.83,186.62Z"/><path class="cls-6" d="M101.62,141.61c.18,6,1,35.86,1,35.86l-9.13.19s-7.15-39.59-6-45.41,5.38-5.9,5.38-5.9S101.15,125.73,101.62,141.61Z"/><path class="cls-3" d="M104.78,170.71s.12,7.31-.83,9.43.61,5.41.72,5.87,2.56.89,6.29.1,3.59-1.65,3.14-3-2.64-3-2.9-4.3.52-6.27.52-6.27Z"/><path class="cls-6" d="M111.49,186.62c3.85-.81,3.17-2.66,2.71-4.08-.29-.88-1.51-1.83-2.28-2.77a6.61,6.61,0,0,1-2.48,1.52c-1.7.7-4.21-.08-5.81-.56a18.18,18.18,0,0,0,0,5.05C103.74,186.26,107.64,187.44,111.49,186.62Z"/><path class="cls-6" d="M104.7,141.61c-.18,6-1,35.86-1,35.86l9.14.19s7.14-39.59,6-45.41-5.38-5.9-5.38-5.9S105.17,125.73,104.7,141.61Z"/><rect class="cls-10" x="35.99" y="100.28" width="137.24" height="4.08"/><rect class="cls-10" x="41.28" y="110.58" width="126.66" height="39.17"/><rect class="cls-9" x="41.28" y="155.42" width="126.66" height="2.83"/><path class="cls-11" d="M101.52,69.46l4.94.27a2.22,2.22,0,0,1-2.4,1.89C101.41,71.55,101.52,69.46,101.52,69.46Z"/><path class="cls-2" d="M160.84,94.73h.93a.93.93,0,0,0-.55-.18H137.8a2.2,2.2,0,0,0-2.22,2.17V98.1a2.21,2.21,0,0,0,2.22,2.18H161Z"/><path class="cls-12" d="M147.54,94.55a2.1,2.1,0,0,0-2.12,2.08v1.56a2.1,2.1,0,0,0,2.12,2.08h14.58v-.35h-.06l-3.71-.34-.75-2.88s1.45-1.59,1.54-1.63,2.92-.17,2.92-.17h.06v-.35Z"/><path class="cls-8" d="M161.17,97.4a3.49,3.49,0,0,1,.89-2.5H147.84a1.93,1.93,0,0,0-2,1.91V98a1.93,1.93,0,0,0,2,1.91h14.22S161.17,99.52,161.17,97.4Z"/><path class="cls-13" d="M145.89,96.81V98a1.76,1.76,0,0,0,.06.46,4.15,4.15,0,0,1,3.15-2.61c4.08-.83,13-1,13-1H147.84A1.93,1.93,0,0,0,145.89,96.81Z"/><path class="cls-5" d="M160.28,90.15h.93a1.07,1.07,0,0,0-.55-.14H137.24A2,2,0,0,0,135,91.73v1.1a2,2,0,0,0,2.22,1.72H160.4Z"/><path class="cls-14" d="M147,90a1.93,1.93,0,0,0-2.12,1.65V92.9A1.93,1.93,0,0,0,147,94.55h14.58v-.28h-.06L157.8,94l-.75-2.29s1.44-1.26,1.54-1.29,2.91-.13,2.91-.13h.06V90Z"/><path class="cls-8" d="M160.62,92.27a2.52,2.52,0,0,1,.89-2H147.28a1.77,1.77,0,0,0-1.95,1.51v1a1.77,1.77,0,0,0,1.95,1.51h14.23S160.62,94,160.62,92.27Z"/><path class="cls-13" d="M145.33,91.8v1a1.13,1.13,0,0,0,.06.36,4,4,0,0,1,3.15-2.07,126.45,126.45,0,0,1,13-.76H147.28A1.77,1.77,0,0,0,145.33,91.8Z"/><polygon class="cls-15" points="157.53 96.98 158.44 98.42 159.46 96.98 157.53 96.98"/><polygon class="cls-15" points="150.35 92.02 151.25 93.44 152.26 92.02 150.35 92.02"/><path class="cls-16" d="M160.63,92h-15.3V91.9s15.31,0,15.31,0Z"/><path class="cls-13" d="M161.2,97H145.89v-.11s15.32,0,15.32,0Z"/></g></g></svg>