<svg xmlns="http://www.w3.org/2000/svg" viewBox="0 0 263.49 218.14"><defs><style>.cls-1{isolation:isolate;}.cls-2,.cls-8{fill:#33dfc2;}.cls-3,.cls-6,.cls-7,.cls-8,.cls-9{mix-blend-mode:multiply;}.cls-10,.cls-3,.cls-9{opacity:0.4;}.cls-4,.cls-7{fill:#009b84;}.cls-5,.cls-6{fill:#2e434e;}.cls-6{opacity:0.3;}.cls-7{opacity:0.2;}.cls-12,.cls-8{opacity:0.6;}.cls-11,.cls-9{fill:none;stroke-miterlimit:10;}.cls-9{stroke:#33dfc2;stroke-width:3.02px;}.cls-10,.cls-13{fill:#e1e1e1;}.cls-11{stroke:#385b64;stroke-width:7.24px;}.cls-12{fill:#fff;}</style></defs><g class="cls-1"><g id="Layer_1" data-name="Layer 1"><path class="cls-2" d="M105.74,183l0,0a.4.4,0,0,1,0-.57c.09-.09,9.41-8.84,12.55-12.22s11-14,11.06-14.06a.4.4,0,0,1,.65.47c-.08.11-8,10.74-11.12,14.14s-12.5,12.17-12.59,12.26A.41.41,0,0,1,105.74,183Z"/><g class="cls-3"><path class="cls-2" d="M105.74,183l0,0a.4.4,0,0,1,0-.57c.09-.09,9.41-8.84,12.55-12.22s11-14,11.06-14.06a.4.4,0,0,1,.65.47c-.08.11-8,10.74-11.12,14.14s-12.5,12.17-12.59,12.26A.41.41,0,0,1,105.74,183Z"/></g><path class="cls-2" d="M109.63,186.36a.41.41,0,0,1-.1-.48c.5-1,1.09-2.49,1.77-4.2,1.6-4,3.79-9.5,6.54-13.24a146.1,146.1,0,0,1,11.59-12.91.4.4,0,0,1,.57,0,.41.41,0,0,1,0,.57,144.93,144.93,0,0,0-11.51,12.82c-2.69,3.65-4.86,9.09-6.44,13.05-.69,1.73-1.28,3.22-1.79,4.26a.4.4,0,0,1-.54.19Z"/><path class="cls-2" d="M130,155.71a.44.44,0,0,1-.14-.25.4.4,0,0,1,.35-.45c3.3-.44,4.38-2,4.72-2.89a2.37,2.37,0,0,0,.09-1.83.39.39,0,0,1-.12-.54.42.42,0,0,1,.57-.12c.43.26.61,1.19.4,2.15s-1.19,3.45-5.56,4A.38.38,0,0,1,130,155.71Z"/><path class="cls-4" d="M160.64,46.14c3.26.82,12.82,6.07,20.84,10.92,6.15,3.71,16.55,10.26,17.07,12.4.77,3.13-2.24,8.82-2.58,9.45a.81.81,0,0,1-1.11.33l-.14-.09a.82.82,0,0,1-.18-1c.85-1.58,3-6.15,2.44-8.28-.8-2-18.08-12.82-29-18.59a5.06,5.06,0,0,1-3.58,0c-3.15-1-5.29-3.59-4.77-4.53A.81.81,0,0,1,160.64,46.14Z"/><path class="cls-4" d="M232.68,107.61c-1.32-3.09-8-11.7-14.06-18.87C214,83.25,205.89,74,203.69,73.84c-3.22-.26-8.36,3.6-8.93,4a.81.81,0,0,0-.15,1.14.69.69,0,0,0,.11.13.81.81,0,0,0,1,0c1.43-1.09,5.62-3.89,7.8-3.71,2.13.47,15.5,15.83,22.91,25.68a5.12,5.12,0,0,0,.61,3.52c1.44,3,4.38,4.66,5.22,4A.82.82,0,0,0,232.68,107.61Z"/><rect class="cls-5" x="164.3" y="69.34" width="12.05" height="76.8" rx="5.26" transform="translate(110.69 -84.77) rotate(40.47)"/><path class="cls-4" d="M143.06,144.79l-5-4.3a1.69,1.69,0,0,0-2.37.19l-5.49,6.44a1.67,1.67,0,0,0,.19,2.36l5,4.3a1.67,1.67,0,0,0,2.36-.19l5.5-6.44A1.68,1.68,0,0,0,143.06,144.79Zm-5.74,6.11a1,1,0,0,1-1.38.11L133,148.5a1,1,0,0,1-.11-1.37l3.2-3.75a1,1,0,0,1,1.38-.11l2.93,2.5a1,1,0,0,1,.11,1.38Z"/><path class="cls-5" d="M198.32,74.93l-2.54-2.16a.33.33,0,0,0-.46,0l-2.67,3.13a.33.33,0,0,0,0,.47l2.53,2.16,2.54,2.17a.33.33,0,0,0,.46,0l2.67-3.13a.33.33,0,0,0,0-.46Z"/><path class="cls-6" d="M198.32,74.93l-2.54-2.16a.33.33,0,0,0-.46,0l-2.67,3.13a.33.33,0,0,0,0,.47l2.53,2.16,2.54,2.17a.33.33,0,0,0,.46,0l2.67-3.13a.33.33,0,0,0,0-.46Z"/><polygon class="cls-4" points="145.42 136.92 142.82 134.7 137.94 140.42 140.54 142.64 143.15 144.87 148.03 139.14 145.42 136.92"/><polygon class="cls-7" points="145.42 136.92 142.82 134.7 137.94 140.42 140.54 142.64 143.15 144.87 148.03 139.14 145.42 136.92"/><path class="cls-2" d="M130,155.71a.5.5,0,0,1-.13-.19,5.63,5.63,0,0,1,1.22-5c2.06-2.42,3.65-1.44,4.17-1.12a1.56,1.56,0,0,1,.28.23c.09.12-.06.18-.15.32a.39.39,0,0,1-.55.13c-.49-.3-1.52-.94-3.14,1a4.78,4.78,0,0,0-1.05,4.2.4.4,0,0,1-.65.42Z"/><path class="cls-2" d="M129,155.2a1.06,1.06,0,0,0,1.61,1.38A1.06,1.06,0,1,0,129,155.2Z"/><path class="cls-8" d="M129,155.2a1.06,1.06,0,0,0,1.61,1.38A1.06,1.06,0,1,0,129,155.2Z"/><polygon class="cls-2" points="153.39 93.48 151.83 96.25 150.28 93.48 148.73 96.25 147.18 93.48 145.63 96.25 144.08 93.48 142.53 96.25 140.98 93.48 139.43 96.25 137.88 93.48 136.33 96.25 134.78 93.48 133.23 96.25 131.68 93.48 130.14 96.25 128.59 93.48 127.04 96.25 125.49 93.48 123.94 96.25 122.39 93.48 120.84 96.25 119.29 93.48 117.75 96.25 116.2 93.48 114.65 96.25 113.1 93.48 111.55 96.25 110 93.48 108.45 96.25 106.9 93.48 105.36 96.25 103.81 93.48 102.26 96.25 100.71 93.48 99.16 96.25 97.61 93.48 96.07 96.25 94.52 93.48 92.97 96.25 91.42 93.48 89.88 96.25 88.33 93.48 86.78 96.25 86.78 96.25 86.78 164.41 86.78 164.41 88.33 167.18 89.88 164.41 91.42 167.18 92.97 164.41 94.52 167.18 96.07 164.41 97.61 167.18 99.16 164.41 100.71 167.18 102.26 164.41 103.81 167.18 105.36 164.41 106.9 167.18 108.45 164.41 110 167.18 111.55 164.41 113.1 167.18 114.65 164.41 116.2 167.18 117.75 164.41 119.29 167.18 120.84 164.41 122.39 167.18 123.94 164.41 125.49 167.18 127.04 164.41 128.59 167.18 130.14 164.41 131.68 167.18 133.23 164.41 134.78 167.18 136.33 164.41 137.88 167.18 139.43 164.41 140.98 167.18 142.53 164.41 144.08 167.18 145.63 164.41 147.18 167.18 148.73 164.41 150.28 167.18 151.83 164.41 153.39 167.18 154.94 164.41 154.94 96.25 153.39 93.48"/><g class="cls-3"><path class="cls-2" d="M137.1,145.16a21,21,0,0,1-15.32,8.12,22.44,22.44,0,0,1-22-13.41A22.17,22.17,0,0,1,97.91,131a21,21,0,0,1,7-15.84,22.93,22.93,0,0,0-5.06,15.78,21.72,21.72,0,0,0,21.81,20.38A23,23,0,0,0,137.1,145.16Z"/></g><g class="cls-3"><path class="cls-2" d="M111,110.67a20.14,20.14,0,0,1,13.59-3,21.07,21.07,0,0,1,6.91,2.07A23.67,23.67,0,0,1,137.4,114a21.89,21.89,0,0,1,6.16,12.89,20.08,20.08,0,0,1-3.16,13.55,23.93,23.93,0,0,0,1.2-13.26,26.4,26.4,0,0,0-.84-3.17l-.6-1.52c-.2-.51-.49-1-.73-1.47a22.12,22.12,0,0,0-15.15-11.38A23.81,23.81,0,0,0,111,110.67Z"/></g><circle class="cls-9" cx="120.86" cy="130.33" r="28.05" transform="translate(-56.76 123.64) rotate(-45)"/><circle class="cls-10" cx="73.74" cy="139.3" r="26.72"/><circle class="cls-11" cx="73.74" cy="139.3" r="26.72"/><path class="cls-12" d="M66.25,134.22a4.14,4.14,0,1,0,4.14-4.14A4.14,4.14,0,0,0,66.25,134.22Z"/><g class="cls-3"><path class="cls-13" d="M60.38,144.52a12.23,12.23,0,0,1-1.59-4.72A14.37,14.37,0,0,1,75.1,124a13.83,13.83,0,0,1,4.84,1.65A12.47,12.47,0,0,1,83.68,129a16.06,16.06,0,0,0-8.76-3,14.69,14.69,0,0,0-8.44,2.41A14.92,14.92,0,0,0,61,135.29a16.28,16.28,0,0,0-1,4.47A16.77,16.77,0,0,0,60.38,144.52Z"/><path class="cls-13" d="M87.54,135.4a11.54,11.54,0,0,1,1.14,4.36,13.09,13.09,0,0,1-.48,4.6,13.35,13.35,0,0,1-2,4.25A13.88,13.88,0,0,1,82.82,152a14.1,14.1,0,0,1-8.94,2.65,12.61,12.61,0,0,1-8.27-3.52,16.69,16.69,0,0,0,8.25,1.52,15.8,15.8,0,0,0,4-.85l.94-.37c.3-.13.59-.3.89-.45a6.71,6.71,0,0,0,.87-.49,7.54,7.54,0,0,0,.83-.56,13.5,13.5,0,0,0,2.9-2.75,14.75,14.75,0,0,0,1.17-1.64l.48-.89a8.65,8.65,0,0,0,.43-.93,14.79,14.79,0,0,0,1.12-4A17.27,17.27,0,0,0,87.54,135.4Z"/></g></g></g></svg>