<svg xmlns="http://www.w3.org/2000/svg" viewBox="0 0 849.55 234.47"><defs><style>.cls-1{isolation:isolate;}.cls-2{fill:#177162;}.cls-3{fill:#d1d1d1;}.cls-4{fill:#2e434e;}.cls-5{fill:#e0e0e0;}.cls-6{fill:#fff;}.cls-7{fill:#8cbfb5;}.cls-11,.cls-8,.cls-9{fill:#fff9f0;}.cls-14,.cls-9{mix-blend-mode:multiply;}.cls-10{fill:#d8e7e4;}.cls-11{mix-blend-mode:overlay;opacity:0.2;}.cls-12{fill:#3c887b;}.cls-13{fill:#7baea6;}.cls-14{fill:#9bc2bb;opacity:0.3;}.cls-15{fill:#009b84;}</style></defs><g class="cls-1"><g id="Layer_1" data-name="Layer 1"><path class="cls-2" d="M239.38,193.48s9.39-1.55,15.76,3.69,2.61,14.18,7.87,15.34c7.59,1.67,25,4.06,23.22,20.47-.18,1.65-53.26,0-53.26,0l2.28-35.34Z"/><path class="cls-2" d="M88.42,205.36s-11.22-2-19,4.33-4.24,11.61-8.41,13-10.06,4-8.74,10.79H90Z"/><rect class="cls-3" x="88.84" y="122.76" width="116.29" height="110.41"/><rect class="cls-4" x="84.3" y="230.05" width="120.83" height="3.45"/><polygon class="cls-4" points="198.88 125.6 82.59 125.6 122.92 95.5 198.88 95.5 198.88 125.6"/><polygon class="cls-4" points="240.05 125.94 240.05 121.62 190.64 77.3 141.23 121.62 141.23 125.94 240.05 125.94"/><polygon class="cls-5" points="237.5 233.17 143.79 233.17 143.79 122.76 190.64 80.73 237.5 122.76 237.5 233.17"/><rect class="cls-6" x="154.67" y="135.21" width="31.42" height="30.96"/><rect class="cls-7" x="155.92" y="136.38" width="28.9" height="28.54"/><polygon class="cls-2" points="157.18 137.85 184.83 137.85 184.83 136.38 155.93 136.38 155.93 164.92 157.18 164.92 157.18 137.85"/><rect class="cls-6" x="169.63" y="135.75" width="1.35" height="29.76"/><rect class="cls-6" x="155.21" y="143.03" width="30.77" height="1.35"/><rect class="cls-6" x="95.89" y="135.21" width="31.42" height="30.96"/><rect class="cls-7" x="97.14" y="136.38" width="28.9" height="28.54"/><polygon class="cls-2" points="98.4 137.85 126.05 137.85 126.05 136.38 97.14 136.38 97.14 164.92 98.4 164.92 98.4 137.85"/><rect class="cls-6" x="110.85" y="135.75" width="1.35" height="29.76"/><rect class="cls-6" x="96.43" y="143.03" width="30.77" height="1.35"/><rect class="cls-6" x="180.23" y="96.03" width="19.36" height="20.91"/><rect class="cls-7" x="181.48" y="97.19" width="16.85" height="18.5"/><polygon class="cls-2" points="182.74 98.66 198.33 98.66 198.33 97.19 181.48 97.19 181.48 115.68 182.74 115.68 182.74 98.66"/><rect class="cls-6" x="97.51" y="184.91" width="9.34" height="35.68"/><rect class="cls-7" x="98.6" y="185.92" width="7.16" height="33.58"/><polygon class="cls-2" points="99.69 187.2 105.76 187.2 105.76 185.92 98.6 185.92 98.6 219.5 99.69 219.5 99.69 187.2"/><rect class="cls-6" x="130.95" y="184.91" width="9.34" height="35.68"/><rect class="cls-7" x="132.04" y="185.92" width="7.16" height="33.58"/><polygon class="cls-2" points="133.13 187.2 139.2 187.2 139.2 185.92 132.04 185.92 132.04 219.5 133.13 219.5 133.13 187.2"/><rect class="cls-6" x="195.77" y="135.21" width="31.42" height="30.96"/><rect class="cls-7" x="197.03" y="136.38" width="28.9" height="28.54"/><polygon class="cls-2" points="198.28 137.85 225.93 137.85 225.93 136.38 197.03 136.38 197.03 164.92 198.28 164.92 198.28 137.85"/><rect class="cls-6" x="210.73" y="135.75" width="1.35" height="29.76"/><rect class="cls-6" x="196.31" y="143.03" width="30.77" height="1.35"/><rect class="cls-6" x="154.67" y="184.2" width="31.42" height="30.96"/><rect class="cls-7" x="155.92" y="185.36" width="28.9" height="28.54"/><polygon class="cls-2" points="157.18 186.84 184.83 186.84 184.83 185.36 155.93 185.36 155.93 213.9 157.18 213.9 157.18 186.84"/><rect class="cls-6" x="169.63" y="184.73" width="1.35" height="29.76"/><rect class="cls-6" x="155.21" y="192.01" width="30.77" height="1.35"/><rect class="cls-6" x="195.77" y="184.2" width="31.42" height="30.96"/><rect class="cls-7" x="197.03" y="185.36" width="28.9" height="28.54"/><polygon class="cls-2" points="198.28 186.84 225.93 186.84 225.93 185.36 197.03 185.36 197.03 213.9 198.28 213.9 198.28 186.84"/><rect class="cls-6" x="210.73" y="184.73" width="1.35" height="29.76"/><rect class="cls-6" x="196.31" y="192.01" width="30.77" height="1.35"/><rect class="cls-4" x="82.47" y="125.59" width="61.37" height="2.14"/><rect class="cls-4" x="143.51" y="228.96" width="95.7" height="4.54"/><polygon class="cls-4" points="143.79 166.63 87.14 166.63 75.76 178.77 143.79 178.77 143.79 166.63"/><rect class="cls-4" x="75.63" y="178.77" width="68.15" height="1.68"/><rect class="cls-3" x="88.84" y="180.47" width="54.95" height="1.68"/><rect class="cls-3" x="88.84" y="127.77" width="54.95" height="1.68"/><rect class="cls-6" x="109.68" y="184.85" width="17.37" height="35.9"/><rect class="cls-7" x="110.51" y="185.62" width="4.5" height="7.08"/><rect class="cls-7" x="116.04" y="185.62" width="4.6" height="7.08"/><rect class="cls-7" x="121.67" y="185.62" width="4.59" height="7.08"/><rect class="cls-7" x="110.51" y="193.48" width="4.5" height="4.08"/><rect class="cls-7" x="116.04" y="193.48" width="4.6" height="4.08"/><rect class="cls-7" x="121.67" y="193.48" width="4.59" height="4.08"/><polygon class="cls-2" points="111.2 186.73 115.01 186.73 115.01 185.62 110.51 185.62 110.51 192.69 111.2 192.69 111.2 186.73"/><polygon class="cls-2" points="116.73 186.73 120.64 186.73 120.64 185.62 116.04 185.62 116.04 192.69 116.73 192.69 116.73 186.73"/><polygon class="cls-2" points="122.36 186.73 126.25 186.73 126.25 185.62 121.67 185.62 121.67 192.69 122.36 192.69 122.36 186.73"/><polygon class="cls-2" points="111.2 194.59 115.01 194.59 115.01 193.48 110.51 193.48 110.51 197.56 111.2 197.56 111.2 194.59"/><polygon class="cls-2" points="116.73 194.59 120.64 194.59 120.64 193.48 116.04 193.48 116.04 197.56 116.73 197.56 116.73 194.59"/><polygon class="cls-2" points="122.36 194.59 126.25 194.59 126.25 193.48 121.67 193.48 121.67 197.56 122.36 197.56 122.36 194.59"/><rect class="cls-7" x="110.51" y="198.45" width="4.5" height="4.08"/><rect class="cls-7" x="116.04" y="198.45" width="4.6" height="4.08"/><rect class="cls-7" x="121.67" y="198.45" width="4.59" height="4.08"/><polygon class="cls-2" points="111.2 199.56 115.01 199.56 115.01 198.45 110.51 198.45 110.51 202.53 111.2 202.53 111.2 199.56"/><polygon class="cls-2" points="116.73 199.56 120.64 199.56 120.64 198.45 116.04 198.45 116.04 202.53 116.73 202.53 116.73 199.56"/><polygon class="cls-2" points="122.36 199.56 126.25 199.56 126.25 198.45 121.67 198.45 121.67 202.53 122.36 202.53 122.36 199.56"/><rect class="cls-7" x="110.51" y="203.41" width="4.5" height="4.08"/><rect class="cls-7" x="116.04" y="203.41" width="4.6" height="4.08"/><rect class="cls-7" x="121.67" y="203.41" width="4.59" height="4.08"/><polygon class="cls-2" points="111.2 204.52 115.01 204.52 115.01 203.41 110.51 203.41 110.51 207.5 111.2 207.5 111.2 204.52"/><polygon class="cls-2" points="116.73 204.52 120.64 204.52 120.64 203.41 116.04 203.41 116.04 207.5 116.73 207.5 116.73 204.52"/><polygon class="cls-2" points="122.36 204.52 126.25 204.52 126.25 203.41 121.67 203.41 121.67 207.5 122.36 207.5 122.36 204.52"/><rect class="cls-7" x="110.51" y="208.4" width="4.5" height="11.52"/><rect class="cls-7" x="116.04" y="208.4" width="4.6" height="11.52"/><rect class="cls-7" x="121.67" y="208.4" width="4.59" height="11.52"/><polygon class="cls-2" points="111.2 209.51 115.01 209.51 115.01 208.41 110.51 208.41 110.51 219.92 111.2 219.92 111.2 209.51"/><polygon class="cls-2" points="116.73 209.51 120.64 209.51 120.64 208.41 116.04 208.41 116.04 219.92 116.73 219.92 116.73 209.51"/><polygon class="cls-2" points="122.36 209.51 126.25 209.51 126.25 208.41 121.67 208.41 121.67 219.92 122.36 219.92 122.36 209.51"/><rect class="cls-4" x="97.22" y="221.01" width="46.29" height="3.12"/><rect class="cls-4" x="92.11" y="224.01" width="51.4" height="3.12"/><rect class="cls-4" x="87.32" y="227.07" width="56.18" height="3.12"/><polygon class="cls-3" points="190.64 80.73 143.79 122.76 143.79 126.59 190.64 84.57 237.5 126.59 237.5 122.76 190.64 80.73"/><rect class="cls-4" x="674.53" y="5.85" width="1.28" height="8.74"/><rect class="cls-4" x="664.39" y="5.85" width="1.28" height="8.74"/><rect class="cls-4" x="654.25" y="5.85" width="1.28" height="8.74"/><rect class="cls-4" x="644.1" y="5.85" width="1.28" height="8.74"/><rect class="cls-8" x="675.85" y="82.76" width="11.81" height="146.2"/><rect class="cls-4" x="633.96" y="5.85" width="1.28" height="8.74"/><rect class="cls-4" x="623.81" y="5.85" width="1.28" height="8.74"/><rect class="cls-4" x="613.67" y="5.85" width="1.28" height="8.74"/><rect class="cls-4" x="603.53" y="5.85" width="1.28" height="8.74"/><rect class="cls-8" x="543.47" y="4.62" width="51.02" height="8.75"/><rect class="cls-8" x="675.45" y="24.23" width="82.96" height="47.95" transform="translate(1433.85 96.41) rotate(180)"/><rect class="cls-9" x="675.45" y="24.23" width="9.78" height="47.95" transform="translate(1360.67 96.41) rotate(180)"/><rect x="635.38" y="21.92" width="126.83" height="4.62" transform="translate(1397.58 48.46) rotate(180)"/><rect class="cls-4" x="733.19" y="36.34" width="25.31" height="18.93" transform="translate(791.66 -700.04) rotate(90)"/><rect class="cls-4" x="709.51" y="36.34" width="25.31" height="18.93" transform="translate(767.98 -676.36) rotate(90)"/><rect class="cls-4" x="686.32" y="36.34" width="25.31" height="18.93" transform="translate(744.78 -653.17) rotate(90)"/><rect class="cls-8" x="450.21" y="24.23" width="82.96" height="47.95"/><rect class="cls-9" x="523.39" y="24.23" width="9.78" height="47.95"/><rect class="cls-8" x="675.26" y="72.89" width="104.85" height="159.9" transform="translate(1455.37 305.68) rotate(180)"/><rect x="635.19" y="70.58" width="148.95" height="4.62" transform="translate(1419.32 145.79) rotate(180)"/><rect class="cls-4" x="739.86" y="75.24" width="25.31" height="40.3" transform="translate(847.91 -657.13) rotate(90)"/><rect class="cls-4" x="739.86" y="104.61" width="25.31" height="40.3" transform="translate(877.28 -627.76) rotate(90)"/><rect class="cls-4" x="739.86" y="133.98" width="25.31" height="40.3" transform="translate(906.65 -598.39) rotate(90)"/><rect class="cls-4" x="739.86" y="163.35" width="25.31" height="40.3" transform="translate(936.02 -569.02) rotate(90)"/><rect class="cls-4" x="739.86" y="192.71" width="25.31" height="40.3" transform="translate(965.39 -539.65) rotate(90)"/><rect class="cls-4" x="695.17" y="75.24" width="25.31" height="40.3" transform="translate(803.22 -612.44) rotate(90)"/><rect class="cls-4" x="695.17" y="104.61" width="25.31" height="40.3" transform="translate(832.59 -583.07) rotate(90)"/><rect class="cls-4" x="695.17" y="133.98" width="25.31" height="40.3" transform="translate(861.96 -553.7) rotate(90)"/><rect class="cls-4" x="695.17" y="163.35" width="25.31" height="40.3" transform="translate(891.33 -524.33) rotate(90)"/><rect class="cls-4" x="695.17" y="192.71" width="25.31" height="40.3" transform="translate(920.7 -494.96) rotate(90)"/><rect class="cls-8" x="428.32" y="72.89" width="104.85" height="159.9"/><rect class="cls-10" x="427.08" y="228.98" width="106.09" height="3.81"/><rect class="cls-10" x="674.93" y="228.98" width="106.09" height="3.81"/><rect class="cls-9" x="523.39" y="72.89" width="9.78" height="159.9"/><rect x="424.3" y="70.58" width="148.95" height="4.62"/><rect x="446.42" y="21.92" width="126.83" height="4.62"/><rect class="cls-8" x="533.17" y="15.48" width="142.64" height="33.21"/><rect class="cls-8" x="533.17" y="75.69" width="142.64" height="157.1"/><rect class="cls-4" x="565" y="65.6" width="78.9" height="125.62" transform="translate(732.86 -476.04) rotate(90)"/><rect class="cls-4" x="443.26" y="75.24" width="25.31" height="40.3" transform="translate(551.31 -360.52) rotate(90)"/><rect class="cls-4" x="443.26" y="104.61" width="25.31" height="40.3" transform="translate(580.68 -331.15) rotate(90)"/><rect class="cls-4" x="443.26" y="133.98" width="25.31" height="40.3" transform="translate(610.04 -301.78) rotate(90)"/><rect class="cls-4" x="443.26" y="163.35" width="25.31" height="40.3" transform="translate(639.41 -272.41) rotate(90)"/><rect class="cls-4" x="443.26" y="192.71" width="25.31" height="40.3" transform="translate(668.78 -243.05) rotate(90)"/><rect class="cls-4" x="487.95" y="75.24" width="25.31" height="40.3" transform="translate(596 -405.21) rotate(90)"/><rect class="cls-4" x="450.11" y="36.34" width="25.31" height="18.93" transform="translate(508.58 -416.96) rotate(90)"/><rect class="cls-4" x="473.79" y="36.34" width="25.31" height="18.93" transform="translate(532.26 -440.64) rotate(90)"/><rect class="cls-4" x="496.99" y="36.34" width="25.31" height="18.93" transform="translate(555.45 -463.84) rotate(90)"/><rect class="cls-4" x="487.95" y="104.61" width="25.31" height="40.3" transform="translate(625.36 -375.84) rotate(90)"/><rect class="cls-4" x="487.95" y="133.98" width="25.31" height="40.3" transform="translate(654.73 -346.47) rotate(90)"/><rect class="cls-4" x="487.95" y="163.35" width="25.31" height="40.3" transform="translate(684.1 -317.1) rotate(90)"/><rect class="cls-4" x="487.95" y="192.71" width="25.31" height="40.3" transform="translate(713.47 -287.74) rotate(90)"/><rect class="cls-4" x="585.02" y="193.39" width="40.93" height="39.77"/><rect x="452.78" y="57.55" width="19.98" height="1.31"/><rect x="476.46" y="57.55" width="19.98" height="1.31"/><rect x="499.66" y="57.55" width="19.98" height="1.31"/><rect x="688.75" y="57.55" width="19.98" height="1.31"/><rect x="712.42" y="57.55" width="19.98" height="1.31"/><rect x="735.62" y="57.55" width="19.98" height="1.31"/><polygon class="cls-11" points="455.08 224.21 431.93 224.21 458.71 82.74 481.87 82.74 455.08 224.21"/><rect class="cls-8" x="428.32" y="82.74" width="7.44" height="143.94"/><polygon class="cls-11" points="484.84 224.21 471.95 224.21 498.74 82.74 511.63 82.74 484.84 224.21"/><rect x="479.95" y="106.74" width="41.3" height="1.31"/><rect x="435.26" y="136.1" width="41.3" height="1.31"/><rect x="479.95" y="136.1" width="41.3" height="1.31"/><rect x="435.26" y="165.47" width="41.3" height="1.31"/><rect x="479.95" y="165.47" width="41.3" height="1.31"/><rect x="435.26" y="194.84" width="41.3" height="1.31"/><rect x="479.95" y="194.84" width="41.3" height="1.31"/><rect x="541.64" y="167.86" width="127.88" height="1.31"/><rect x="435.26" y="224.21" width="41.3" height="1.31"/><rect x="479.95" y="224.21" width="41.3" height="1.31"/><rect x="435.26" y="106.74" width="41.3" height="1.31"/><rect class="cls-8" x="476.07" y="82.57" width="4.38" height="144.1"/><rect class="cls-8" x="434.27" y="196.16" width="86.98" height="4.06"/><rect class="cls-8" x="434.27" y="166.79" width="86.98" height="4.06"/><rect class="cls-8" x="434.27" y="137.42" width="86.98" height="4.06"/><rect class="cls-8" x="434.27" y="108.05" width="86.98" height="4.06"/><polygon class="cls-11" points="700.15 224.21 677 224.21 703.79 82.74 726.94 82.74 700.15 224.21"/><polygon class="cls-11" points="736.77 224.21 723.88 224.21 750.67 82.74 763.56 82.74 736.77 224.21"/><rect class="cls-8" x="727.99" y="82.57" width="4.38" height="144.1"/><rect class="cls-8" x="686.2" y="196.16" width="86.98" height="4.06"/><rect class="cls-8" x="686.2" y="166.79" width="86.98" height="4.06"/><rect class="cls-8" x="686.2" y="137.42" width="86.98" height="4.06"/><rect class="cls-8" x="686.2" y="108.05" width="86.98" height="4.06"/><polygon class="cls-11" points="462.26 57.55 456.29 57.55 463.24 33.15 469.2 33.15 462.26 57.55"/><polygon class="cls-11" points="486.89 57.55 482.71 57.55 489.66 33.15 493.84 33.15 486.89 57.55"/><polygon class="cls-11" points="504.62 57.55 501.3 57.55 508.25 33.15 511.57 33.15 504.62 57.55"/><polygon class="cls-11" points="697.75 57.55 691.78 57.55 698.73 33.15 704.7 33.15 697.75 57.55"/><polygon class="cls-11" points="722.38 57.55 718.21 57.55 725.15 33.15 729.33 33.15 722.38 57.55"/><polygon class="cls-11" points="740.12 57.55 736.79 57.55 743.74 33.15 747.06 33.15 740.12 57.55"/><rect x="731.79" y="106.74" width="41.3" height="1.31"/><rect x="687.11" y="136.1" width="41.3" height="1.31"/><rect x="731.79" y="136.1" width="41.3" height="1.31"/><rect x="687.11" y="165.47" width="41.3" height="1.31"/><rect x="731.79" y="165.47" width="41.3" height="1.31"/><rect x="687.11" y="194.84" width="41.3" height="1.31"/><rect x="731.79" y="194.84" width="41.3" height="1.31"/><rect x="687.11" y="224.21" width="41.3" height="1.31"/><rect x="731.79" y="224.21" width="41.3" height="1.31"/><rect x="687.11" y="106.74" width="41.3" height="1.31"/><rect class="cls-9" x="533.17" y="15.48" width="142.64" height="11.06"/><rect x="530.02" y="13.37" width="148.95" height="4.62"/><rect x="542.19" width="53.58" height="4.62"/><rect x="538.8" y="181.95" width="131.39" height="11.44"/><rect x="605.32" y="193.39" width="0.33" height="39.77"/><rect class="cls-4" x="659.86" y="193.39" width="7.39" height="39.4"/><rect class="cls-4" x="541.64" y="193.39" width="7.39" height="39.4"/><rect class="cls-12" x="580.99" y="202.53" width="28.71" height="14.65" transform="translate(805.2 -385.49) rotate(90)"/><rect class="cls-12" x="601.26" y="202.53" width="28.71" height="14.65" transform="translate(825.47 -405.76) rotate(90)"/><polygon class="cls-11" points="595.73 224.21 589.33 224.21 594.38 195.5 600.78 195.5 595.73 224.21"/><polygon class="cls-11" points="616.28 224.21 609.89 224.21 614.94 195.5 621.34 195.5 616.28 224.21"/><polygon class="cls-11" points="567.3 167.86 549.8 167.86 569.55 88.96 587.05 88.96 567.3 167.86"/><polygon class="cls-11" points="644.67 167.86 611.41 167.86 631.17 88.96 664.43 88.96 644.67 167.86"/><rect class="cls-8" x="572.17" y="88.07" width="1.08" height="83.82"/><rect class="cls-8" x="635.98" y="88.07" width="1.08" height="83.82"/><rect class="cls-8" x="603.64" y="88.07" width="1.08" height="83.82"/><rect class="cls-8" x="604.8" y="64.72" width="1.15" height="130.52" transform="translate(735.35 -475.4) rotate(90)"/><rect class="cls-8" x="677.01" y="158.49" width="10.64" height="69.31"/><path class="cls-8" d="M627,129.76A22.26,22.26,0,1,1,604.7,107.5,22.26,22.26,0,0,1,627,129.76Z"/><circle class="cls-13" cx="604.7" cy="129.76" r="20.18" transform="translate(236.67 626.8) rotate(-65.59)"/><polygon class="cls-8" points="606.87 116.29 602.81 116.25 602.69 127.73 591.21 127.76 591.22 131.82 602.65 131.79 602.53 143.22 606.59 143.27 606.71 131.78 618.2 131.76 618.19 127.69 606.75 127.72 606.87 116.29"/><rect class="cls-4" x="594.49" y="5.85" width="81.32" height="1.28"/><rect y="232.79" width="849.55" height="1.68"/><rect class="cls-9" x="675.84" y="75.18" width="9.78" height="156.76" transform="translate(1361.46 307.13) rotate(180)"/><rect class="cls-12" x="527.42" y="48.69" width="154.15" height="33.21"/><rect class="cls-2" x="527.42" y="67.86" width="154.15" height="14.03"/><path class="cls-8" d="M547.93,74.75V56.92h3.5V64h7.08V56.92H562V74.75h-3.49V67h-7.08v7.74Z"/><path class="cls-8" d="M565,65.88a10.14,10.14,0,0,1,2.05-6.75,7.84,7.84,0,0,1,11.33,0,10.14,10.14,0,0,1,2.05,6.75,10.15,10.15,0,0,1-2.06,6.74,7.8,7.8,0,0,1-11.31,0A10.15,10.15,0,0,1,565,65.88Zm3.54,0a8.24,8.24,0,0,0,1.06,4.59,3.88,3.88,0,0,0,6.22,0,8.24,8.24,0,0,0,1.06-4.59,8.39,8.39,0,0,0-1.06-4.63,3.85,3.85,0,0,0-6.22,0A8.39,8.39,0,0,0,568.56,65.88Z"/><path class="cls-8" d="M582.08,70.73l3.17-1.35a5.71,5.71,0,0,0,1.64,2.07,3.55,3.55,0,0,0,2.14.66,3.65,3.65,0,0,0,2.21-.61,2,2,0,0,0,.81-1.66,1.8,1.8,0,0,0-.6-1.38,6.57,6.57,0,0,0-2.16-1.11l-.61-.21a20.87,20.87,0,0,1-3.8-1.63,4.41,4.41,0,0,1-1.62-1.65,4.53,4.53,0,0,1-.56-2.28,4.28,4.28,0,0,1,1.67-3.5,6.79,6.79,0,0,1,4.39-1.35,7.41,7.41,0,0,1,4,1A5.73,5.73,0,0,1,595,60.62l-3.17,1.12A4.33,4.33,0,0,0,590.47,60a3.38,3.38,0,0,0-2-.55,2.82,2.82,0,0,0-1.79.51,1.65,1.65,0,0,0-.66,1.38c0,.9,1.07,1.76,3.21,2.56l1.54.6a9.6,9.6,0,0,1,3.65,2.23,4.41,4.41,0,0,1,1,3,4.78,4.78,0,0,1-1.69,3.88A7,7,0,0,1,589.11,75a8.22,8.22,0,0,1-4.34-1.08A6.73,6.73,0,0,1,582.08,70.73Z"/><path class="cls-8" d="M598.44,74.75V56.92h6.63A7.59,7.59,0,0,1,610,58.24a4.83,4.83,0,0,1,1.61,4,5,5,0,0,1-1.57,4,6.87,6.87,0,0,1-4.59,1.35H602v7.21Zm3.53-10h2.59a4.69,4.69,0,0,0,2.71-.58,2.2,2.2,0,0,0,.8-1.92,2.23,2.23,0,0,0-.8-1.94,4.69,4.69,0,0,0-2.71-.58H602Z"/><path class="cls-8" d="M615,74.75V56.92h3.52V74.75Z"/><path class="cls-8" d="M626.33,74.75V59.87h-4.88V56.92h13.28v2.95h-4.87V74.75Z"/><path class="cls-8" d="M633.71,74.75l5.6-17.83h4.37l5.58,17.83h-3.49l-1.15-3.9h-6.41L637,74.75ZM639.05,68h4.73l-2.37-8Z"/><path class="cls-8" d="M651.42,74.75V56.92H655V71.71h7.83v3Z"/><rect class="cls-14" x="542.21" y="30.31" width="9.26" height="3.55"/><rect class="cls-14" x="534.91" y="35.72" width="9.26" height="3.55"/><rect class="cls-14" x="540.68" y="41.59" width="9.48" height="3"/><rect class="cls-14" x="546.84" y="36.02" width="9.21" height="3"/><rect class="cls-14" x="605" y="41.89" width="7.49" height="2.68"/><rect class="cls-14" x="609.95" y="37.52" width="7.49" height="2.68"/><rect class="cls-14" x="566.52" y="202.81" width="7.49" height="2.68"/><rect class="cls-14" x="571.47" y="198.44" width="7.49" height="2.68"/><rect class="cls-14" x="646.32" y="201.5" width="7.49" height="2.68"/><rect class="cls-14" x="650.04" y="206.38" width="7.49" height="2.68"/><rect class="cls-14" x="645.41" y="31.55" width="9.26" height="3.55" transform="translate(1300.08 66.65) rotate(180)"/><rect class="cls-14" x="672.79" y="41.03" width="3.02" height="3.55" transform="translate(1348.59 85.6) rotate(180)"/><rect class="cls-14" x="669.44" y="35.34" width="6.44" height="3.55" transform="translate(1345.31 74.23) rotate(180)"/><rect class="cls-14" x="650" y="36.22" width="9.26" height="3.55" transform="translate(1309.26 75.98) rotate(180)"/><rect class="cls-14" x="581.36" y="37.4" width="9.26" height="3.55" transform="translate(1171.98 78.34) rotate(180)"/><rect class="cls-14" x="575.82" y="32.08" width="9.26" height="3.55" transform="translate(1160.91 67.7) rotate(180)"/><rect class="cls-14" x="646.72" y="41.59" width="9.48" height="3" transform="translate(1302.92 86.19) rotate(180)"/><rect class="cls-14" x="631.12" y="214.04" width="9.26" height="3.55" transform="translate(1271.51 431.63) rotate(180)"/><rect class="cls-14" x="635.71" y="218.71" width="9.26" height="3.55" transform="translate(1280.69 440.96) rotate(180)"/><rect class="cls-14" x="632.43" y="224.08" width="9.48" height="3" transform="translate(1274.35 451.17) rotate(180)"/><rect class="cls-14" x="560.94" y="214.77" width="9.26" height="3.55"/><rect class="cls-14" x="556.35" y="219.44" width="9.26" height="3.55"/><rect class="cls-14" x="559.41" y="224.81" width="9.48" height="3"/><rect class="cls-14" x="639.08" y="36.82" width="9.21" height="3" transform="translate(1287.36 76.65) rotate(180)"/><path class="cls-15" d="M221.79,232.79a13,13,0,0,1,8.75-8.49c7.06-2.05,6.6-1,13-4.67s14.44-2.1,18.41,1.71c4.23,4.07,6.85,4.43,13.45,4.32s6.93,7.13,6.93,7.13Z"/></g></g></svg>