<svg id="Layer_1" data-name="Layer 1" xmlns="http://www.w3.org/2000/svg" viewBox="0 0 459.76 680.01"><defs><style>.cls-1{fill:#2e434e;}.cls-2{fill:#f6f6f6;}.cls-3{fill:#ebebeb;}.cls-4{fill:#fafafa;}.cls-5{fill:#e1e1e1;}.cls-6{fill:#009b84;}</style></defs><rect class="cls-1" y="50" width="459.76" height="630.01"/><polygon class="cls-2" points="441.59 642.54 356.44 642.54 38.28 642.54 38.28 75.46 441.59 75.46 441.59 571.99 441.59 642.54"/><polygon class="cls-3" points="435.22 632.02 350.83 632.02 35.55 632.02 35.55 67.96 435.22 67.96 435.22 561.85 435.22 632.02"/><polygon class="cls-4" points="392.27 588.12 346.24 625.61 28.08 625.61 28.08 69.39 431.39 69.39 431.39 556.41 392.27 588.12"/><path class="cls-1" d="M392.27,588.12s.82-.69,2.46-2,4.11-3.37,7.38-6l29.18-23.76-.05.12c-.05-80-.16-257.76-.29-487l.44.45-399.78,0H28.08l.5-.5c0,209.11-.07,402-.1,556.21l-.4-.39,318.16.23-.11,0,34.57-28,8.67-7c1.92-1.55,2.9-2.31,2.9-2.31s-.94.81-2.85,2.38l-8.61,7.07-34.46,28.17-.05,0h-.06L28.08,626h-.39v-.4c0-154.19-.06-347.1-.1-556.21V68.9h4l399.78,0h.45v.44c-.14,229.26-.24,407-.29,487v.07l-.06,0-29.28,23.64-7.43,6C393.12,587.47,392.27,588.12,392.27,588.12Z"/><path class="cls-5" d="M162.11,30.52H298.26a14.15,14.15,0,0,1,14.15,14.15V87.11a0,0,0,0,1,0,0H147.35a0,0,0,0,1,0,0V45.28A14.76,14.76,0,0,1,162.11,30.52Z"/><polygon class="cls-5" points="187.78 30.52 181.75 0 276.78 0 271.5 30.52 187.78 30.52"/><path class="cls-5" d="M138.21,293.39H70.27V225.44h67.94Zm-66.05-1.9h64.16V227.34H72.16Z"/><polygon class="cls-6" points="83.78 260.81 92.8 251.13 107.83 263.15 142.24 229.75 150.49 239.46 107.17 282.19 83.78 260.81"/><path class="cls-1" d="M378.31,241.85c0,.27-47.29.49-105.62.49s-105.64-.22-105.64-.49,47.29-.49,105.64-.49S378.31,241.58,378.31,241.85Z"/><path class="cls-1" d="M378.31,256c0,.27-47.29.49-105.62.49s-105.64-.22-105.64-.49,47.29-.49,105.64-.49S378.31,255.7,378.31,256Z"/><path class="cls-1" d="M378.31,270.09c0,.27-47.29.49-105.62.49s-105.64-.22-105.64-.49,47.29-.49,105.64-.49S378.31,269.82,378.31,270.09Z"/><path class="cls-1" d="M378.31,284.21c0,.27-47.29.49-105.62.49s-105.64-.22-105.64-.49,47.29-.5,105.64-.5S378.31,283.94,378.31,284.21Z"/><path class="cls-5" d="M138.21,394.72H70.27v-68h67.94Zm-66.05-1.9h64.16V328.67H72.16Z"/><polygon class="cls-6" points="83.78 362.14 92.8 352.46 107.83 364.48 142.24 331.08 150.49 340.79 107.17 383.53 83.78 362.14"/><path class="cls-1" d="M378.31,343.18c0,.27-47.29.5-105.62.5s-105.64-.23-105.64-.5,47.29-.49,105.64-.49S378.31,342.91,378.31,343.18Z"/><path class="cls-1" d="M378.31,357.3c0,.27-47.29.49-105.62.49s-105.64-.22-105.64-.49,47.29-.49,105.64-.49S378.31,357,378.31,357.3Z"/><path class="cls-1" d="M378.31,371.42c0,.27-47.29.49-105.62.49s-105.64-.22-105.64-.49,47.29-.49,105.64-.49S378.31,371.15,378.31,371.42Z"/><path class="cls-1" d="M378.31,385.54c0,.27-47.29.49-105.62.49s-105.64-.22-105.64-.49,47.29-.49,105.64-.49S378.31,385.27,378.31,385.54Z"/><path class="cls-5" d="M138.21,492.56H70.27V424.61h67.94Zm-66.05-1.9h64.16V426.51H72.16Z"/><polygon class="cls-6" points="83.78 459.98 92.8 450.3 107.83 462.32 142.24 428.91 150.49 438.63 107.17 481.36 83.78 459.98"/><path class="cls-1" d="M378.31,441c0,.27-47.29.49-105.62.49s-105.64-.22-105.64-.49,47.29-.49,105.64-.49S378.31,440.75,378.31,441Z"/><path class="cls-1" d="M378.31,455.14c0,.27-47.29.49-105.62.49s-105.64-.22-105.64-.49,47.29-.49,105.64-.49S378.31,454.87,378.31,455.14Z"/><path class="cls-1" d="M378.31,469.26c0,.27-47.29.49-105.62.49s-105.64-.22-105.64-.49,47.29-.5,105.64-.5S378.31,469,378.31,469.26Z"/><path class="cls-1" d="M378.31,483.38c0,.27-47.29.49-105.62.49s-105.64-.22-105.64-.49,47.29-.5,105.64-.5S378.31,483.1,378.31,483.38Z"/><polygon class="cls-2" points="358.89 533.52 314.67 625.09 346.24 625.09 358.89 533.52"/><polygon class="cls-4" points="346.24 625.61 358.89 534.03 431.39 556.41 346.24 625.61"/><path class="cls-1" d="M346.24,625.61l24.38-20.07L431.09,556l.16.84-28-8.63-44.51-13.76.6-.38c-3.79,26.6-7,49.38-9.35,65.58-2.28,15.74-3.46,23.87-3.76,25.93a3.48,3.48,0,0,1,0-.41c0-.33.09-.74.16-1.27.16-1.18.37-2.85.65-5,.59-4.45,1.43-10.85,2.49-18.88,2.19-16.33,5.26-39.29,8.85-66.1l.07-.54.52.16,44.53,13.71,28,8.65.87.27-.7.56-61.2,49.37-17.87,14.36-4.77,3.82-1.22,1C346.37,625.52,346.23,625.62,346.24,625.61Z"/><polyline points="270.22 0 264.98 30.52 271.5 30.52 276.78 0 268.47 0"/><path class="cls-1" d="M123.81,117.1h0a3.47,3.47,0,0,1,3.48,3.5V140a1.84,1.84,0,0,1-.48.06,5,5,0,0,1-3.32-1.11c-1.16-1.07-1-2.86-.94-3.84a29.93,29.93,0,0,1,.33-3.05c.3-2.2.61-4.48.29-5.56a5,5,0,0,0-5.3-3.82c-.63,0-1.12.4-1.1.87s.54.82,1.16.81,2.3-.06,3,2.5c.24.83-.08,3.16-.33,5-.16,1.21-.25,2.06-.34,3.13s-.54,3.12,1.41,5a7.13,7.13,0,0,0,5,1.75c.21,0,.42,0,.62,0v11.41h0a14.6,14.6,0,0,1-2.8-1.35,4.67,4.67,0,0,1-2.29-3.57,2.44,2.44,0,0,0-2.38-2.41c-3.19-.46-3.78-1.69-4.12-3.21a5,5,0,0,1,1-3.88.72.72,0,0,0-.26-1.17,1.41,1.41,0,0,0-1.58.19,6.13,6.13,0,0,0-1.36,2.58c-4.94.18-8.86-3.48-6.34-6.48-2-2.36-1.41-6.64,2.9-9a10,10,0,0,0,3,5.58,11.68,11.68,0,0,0,1.62,1.28,1.31,1.31,0,0,0,.78.21,1.26,1.26,0,0,0,.81-.28.7.7,0,0,0-.09-1.19,9.67,9.67,0,0,1-1.34-1.07c-2.85-2.7-3.27-4.83-2.59-6.61s3.61-3.45,6.13-2.92C119.45,118,121.32,117.16,123.81,117.1Z"/><path class="cls-1" d="M127.33,155.12v11.25c-4.44,2.34-10.54.44-11.36-3.19-7.38,2.14-11.41-3.06-10.52-6.18a12.16,12.16,0,0,0,3.46.39c.29,0,.59,0,.9,0,.62-.06,1.06-.48,1-.94a1.12,1.12,0,0,0-1.26-.73c-3.79.36-9.71-2-7-7.69,2.11,2.54,5.53,4.4,10.19,5.54a3,3,0,0,1,2.34,2.57c0,1.26-1.22,2.29-3.47,2.88-.59.16-.9.64-.7,1.08a1.17,1.17,0,0,0,1.11.55,1.32,1.32,0,0,0,.34,0,9.37,9.37,0,0,0,3.44-1.59c1.64.13,6.3.62,7,4.21a1.07,1.07,0,0,0,1.15.72h.13c.62-.06,1-.49,1-.95a5.47,5.47,0,0,0-1.81-3c-1.49-1.25-1-3.92-1-3.95.09-.45-.33-.88-1-.95a1.15,1.15,0,0,0-1.29.72,6.93,6.93,0,0,0,0,2.4,16.15,16.15,0,0,0-3-.75,3.38,3.38,0,0,0,.3-1.35,4.7,4.7,0,0,0-3.9-4.15c-8.35-1.89-15.68-8.58-9.53-15.73.19,3.72,4.59,5.95,9.35,5.84a5,5,0,0,0,.83,2.72,9,9,0,0,1-5.85-.5,1.4,1.4,0,0,0-1.57.23.72.72,0,0,0,.31,1.17,12.35,12.35,0,0,0,5.28,1.07,10.31,10.31,0,0,0,3.16-.57,9.35,9.35,0,0,0,4,1.33c.36.05.41.06.56,1a6.12,6.12,0,0,0,3,4.58,12.27,12.27,0,0,0,3.22,1.6A5.94,5.94,0,0,1,127.33,155.12Z"/><path class="cls-1" d="M150.2,121a18.23,18.23,0,0,0-8.14-1.89,17.52,17.52,0,0,0-13,5.53v41s26.1-14.84,29-26.61a13.87,13.87,0,0,0,.83-4.7C158.92,128.65,155.4,123.66,150.2,121Z"/><path class="cls-1" d="M199.83,155.14a2.55,2.55,0,0,1-2.49,2.39,2.83,2.83,0,0,1-2.21-1.13L188,146H181.9v8.85a2.64,2.64,0,1,1-5.28,0V130a2.52,2.52,0,0,1,2.8-2.8h10.43c6,0,9.84,3.88,9.84,9.43,0,4.92-2.93,7.77-6.23,8.67l5.87,8.22A2.63,2.63,0,0,1,199.83,155.14ZM181.9,141.37h7.23c3,0,5.14-1.9,5.14-4.79s-2.16-4.78-5.14-4.78H181.9Z"/><path class="cls-1" d="M205,154.46V130a2.52,2.52,0,0,1,2.8-2.8h15.76a2.33,2.33,0,1,1,0,4.65H210.25v7.81h13a2.33,2.33,0,1,1,0,4.65h-13v8.35h13.28a2.33,2.33,0,1,1,0,4.65H207.77A2.52,2.52,0,0,1,205,154.46Z"/><path class="cls-1" d="M229.71,152.52a2.51,2.51,0,0,1,4-2,12.83,12.83,0,0,0,7.81,2.62c4.33,0,6.05-2.12,6.05-4.11,0-2.71-3.21-3.52-6.86-4.47-4.93-1.22-10.71-2.66-10.71-9,0-5,4.38-8.8,11.43-8.8a16.54,16.54,0,0,1,9.3,2.75,2.36,2.36,0,0,1,1.13,2,2.5,2.5,0,0,1-2.49,2.48,2.33,2.33,0,0,1-1.39-.45,12.85,12.85,0,0,0-7-2.12c-3.57,0-5.56,1.49-5.56,3.75s3.07,3.11,6.64,4c5,1.26,10.88,2.8,10.88,9.34,0,5-3.52,9.3-11.65,9.3a17,17,0,0,1-10.61-3.29A2.55,2.55,0,0,1,229.71,152.52Z"/><path class="cls-1" d="M257.83,129.54a2.67,2.67,0,0,1,5.33,0v15.67c0,4.78,2.67,7.9,7.72,7.9s7.68-3.12,7.68-7.9V129.54a2.67,2.67,0,0,1,5.33,0v15.8c0,7.5-4.29,12.46-13,12.46s-13.05-5-13.05-12.41Z"/><path class="cls-1" d="M290.29,154.46V129.54a2.64,2.64,0,1,1,5.28,0v23.07h11.2a2.33,2.33,0,1,1,0,4.65H293.09A2.53,2.53,0,0,1,290.29,154.46Z"/><path class="cls-1" d="M316.3,154.87V131.8h-7.05a2.33,2.33,0,1,1,0-4.65h19.37a2.33,2.33,0,1,1,0,4.65h-7v23.07a2.64,2.64,0,1,1-5.28,0Z"/><path class="cls-1" d="M333.63,152.52a2.51,2.51,0,0,1,4-2,12.83,12.83,0,0,0,7.81,2.62c4.33,0,6.05-2.12,6.05-4.11,0-2.71-3.21-3.52-6.86-4.47-4.93-1.22-10.7-2.66-10.7-9,0-5,4.38-8.8,11.42-8.8a16.51,16.51,0,0,1,9.3,2.75,2.36,2.36,0,0,1,1.13,2,2.5,2.5,0,0,1-2.48,2.48,2.34,2.34,0,0,1-1.4-.45,12.85,12.85,0,0,0-7-2.12c-3.57,0-5.56,1.49-5.56,3.75s3.07,3.11,6.64,4c5,1.26,10.88,2.8,10.88,9.34,0,5-3.52,9.3-11.65,9.3a17,17,0,0,1-10.61-3.29A2.55,2.55,0,0,1,333.63,152.52Z"/></svg>