<svg id="Layer_1" data-name="Layer 1" xmlns="http://www.w3.org/2000/svg" viewBox="0 0 201 138.65"><defs><style>.cls-1{fill:#eaeaea;}.cls-2{fill:#177162;}.cls-3{fill:#e1e1e1;}.cls-4{fill:#8b9098;}.cls-5{fill:#3e4653;}.cls-6{fill:#fff;}.cls-7{fill:#009b84;}</style></defs><path class="cls-1" d="M193,138.28l-82.18,0H68.94l-67.36.32-.12-.42c-7.29-24.24,14.84-23.94,21-31.47,2.18-2.68,2.32-6.36-1.61-12.49l-.06-.08a46.72,46.72,0,0,1-5.18-10.8,33.1,33.1,0,0,1-.07-20.85,40.7,40.7,0,0,1,8-13.73A55.92,55.92,0,0,1,28.09,44c33.45-30.67,115-36.49,126.3,17.11,6.4,30.39,16.52,12.81,37.34,34.4,6.87,7.13,9.19,14.38,9.26,20.85C201.14,128.79,193,138.28,193,138.28Z"/><path class="cls-2" d="M60.4,96.86S50.65,95.25,44,100.69s-2.71,14.73-8.18,15.93c-7.88,1.74-26,4.23-24.12,21.27.19,1.72,55.33,0,55.33,0L64.7,101.18Z"/><path class="cls-2" d="M140,109.2s11.64-2.13,19.73,4.5,4.4,12.06,8.73,13.48,10.46,4.19,9.09,11.2H138.39Z"/><path class="cls-3" d="M188.06,137.83H182.8c-.28-.24.19-.78.69-.82a3.1,3.1,0,0,1,.8.09c.08-1,.49-5.28,2.05-5.11,1.75.2,0,1.91-.5,2.92-.36.75-.75,1.82-.93,2.33l.44.09c.24-.71,1.1-3.11,2.2-3,1.29.16.77,1.12-.14,1.69-.68.42-1.5,1-1.89,1.31a5.81,5.81,0,0,0,1,.08A2.23,2.23,0,0,1,188.06,137.83Z"/><rect class="cls-4" x="60.4" y="5.41" width="92.77" height="127.77"/><rect class="cls-5" x="59.18" y="63.44" width="95.21" height="4.1"/><rect class="cls-6" x="115.86" y="24.38" width="23.3" height="1.17"/><rect class="cls-6" x="115.86" y="26.22" width="23.3" height="1.17"/><rect class="cls-6" x="115.86" y="28.06" width="23.3" height="1.17"/><rect class="cls-6" x="115.86" y="29.78" width="23.3" height="1.17"/><rect class="cls-6" x="115.86" y="31.72" width="23.3" height="1.17"/><rect class="cls-6" x="116.94" y="23.83" width="0.23" height="10.02"/><rect class="cls-6" x="137.99" y="23.83" width="0.23" height="10.02"/><path class="cls-5" d="M141.3,56.29h-.54V22.61H114.18V56.29h-.54a2.46,2.46,0,0,0-2.45,2.46v.08h32.57v-.08A2.46,2.46,0,0,0,141.3,56.29ZM115.42,23.84h24.11v6H115.42Zm0,7.35h24.11v25.1H115.42Z"/><rect class="cls-6" x="115.81" y="82.76" width="23.3" height="1.17"/><rect class="cls-6" x="115.81" y="84.6" width="23.3" height="1.17"/><rect class="cls-6" x="115.81" y="86.44" width="23.3" height="1.17"/><rect class="cls-6" x="115.81" y="88.16" width="23.3" height="1.17"/><rect class="cls-6" x="115.81" y="90.1" width="23.3" height="1.17"/><rect class="cls-6" x="116.89" y="82.21" width="0.23" height="10.02"/><rect class="cls-6" x="137.94" y="82.21" width="0.23" height="10.02"/><path class="cls-5" d="M141.3,114.86h-.54V81.18H114.18v33.68h-.54a2.46,2.46,0,0,0-2.45,2.46v.08h32.57v-.08A2.46,2.46,0,0,0,141.3,114.86ZM115.42,82.42h24.11v6H115.42Zm0,7.34h24.11v25.1H115.42Z"/><rect class="cls-5" x="59.18" y="125.27" width="95.21" height="13.03"/><path class="cls-7" d="M81.79,138.38a13.32,13.32,0,0,0-9.09-8.47c-7.33-2.13-6.86-1.06-13.48-4.85s-17-1.42-19.15,1.66-7.09,4.73-13.95,4.61-7.2,6.56-7.2,6.56Z"/><path class="cls-5" d="M101,114.86h-.54V81.18H73.84v33.68H73.3a2.46,2.46,0,0,0-2.46,2.46v.08h32.58v-.08A2.46,2.46,0,0,0,101,114.86ZM75.08,82.42h24.1v6H75.08Zm0,7.34h24.1v25.1H75.08Z"/><rect class="cls-6" x="75.51" y="82.95" width="23.3" height="1.17"/><rect class="cls-6" x="75.51" y="84.79" width="23.3" height="1.17"/><rect class="cls-6" x="75.51" y="86.63" width="23.3" height="1.17"/><rect class="cls-6" x="75.51" y="88.35" width="23.3" height="1.17"/><rect class="cls-6" x="75.51" y="90.29" width="23.3" height="1.17"/><rect class="cls-6" x="76.6" y="82.4" width="0.23" height="10.02"/><rect class="cls-6" x="97.65" y="82.4" width="0.23" height="10.02"/><rect class="cls-6" x="75.29" y="24.19" width="23.3" height="1.17"/><rect class="cls-6" x="75.29" y="26.03" width="23.3" height="1.17"/><rect class="cls-6" x="75.29" y="27.87" width="23.3" height="1.17"/><rect class="cls-6" x="75.29" y="29.59" width="23.3" height="1.17"/><rect class="cls-6" x="75.29" y="31.53" width="23.3" height="1.17"/><rect class="cls-6" x="76.38" y="23.64" width="0.23" height="10.02"/><rect class="cls-6" x="97.43" y="23.64" width="0.23" height="10.02"/><path class="cls-5" d="M70.84,58.75v.08h32.58v-.08A2.46,2.46,0,0,0,101,56.29h-.54V22.61H73.84V56.29H73.3A2.46,2.46,0,0,0,70.84,58.75ZM99.18,29.8H75.08v-6h24.1Zm0,26.49H75.08V31.19h24.1Z"/><rect class="cls-5" x="54.97" y="1.86" width="103.64" height="7.09" transform="translate(-0.13 3.85) rotate(-2.06)"/><rect class="cls-5" x="71.9" y="14.74" width="30.54" height="6.53"/><rect class="cls-5" x="112.19" y="14.74" width="30.54" height="6.53"/><rect class="cls-5" x="71.9" y="72.14" width="30.54" height="6.53"/><rect class="cls-5" x="112.19" y="72.14" width="30.54" height="6.53"/></svg>