<svg id="Layer_1" data-name="Layer 1" xmlns="http://www.w3.org/2000/svg" viewBox="0 0 204.07 209.03"><defs><style>.cls-1{fill:#3e4653;}.cls-11,.cls-2{fill:#293241;}.cls-13,.cls-3{fill:#e1e1e1;}.cls-4{fill:#fdf8fc;}.cls-5,.cls-9{fill:#009b84;}.cls-6{fill:#e6dde0;}.cls-10,.cls-11,.cls-12,.cls-13,.cls-6,.cls-8,.cls-9{fill-rule:evenodd;}.cls-10,.cls-7{fill:#fff;}.cls-14,.cls-8{fill:#177162;opacity:0.77;}.cls-12{fill:#d2c7cd;}</style></defs><path class="cls-1" d="M99.94,182H41.74a6.81,6.81,0,0,1-6.81-7.08l2.92-73.75a6.81,6.81,0,0,1,6.81-6.54H97.8a6.81,6.81,0,0,1,6.81,6.61L106.75,175A6.81,6.81,0,0,1,99.94,182Z"/><path class="cls-1" d="M85.56,87.63h0a3.07,3.07,0,0,1-3-2.64l-3.1-21.94H62.26L59.16,85a3.07,3.07,0,0,1-3,2.64h0a4.68,4.68,0,0,0-4.69,4.68v6.24H90.25V92.31A4.68,4.68,0,0,0,85.56,87.63Z"/><rect class="cls-2" x="60.8" y="60.32" width="20.09" height="6.44" rx="3.22"/><rect class="cls-2" x="60.82" y="39.06" width="20.09" height="21.26" rx="7.81"/><circle class="cls-3" cx="70.57" cy="98.74" r="8.97"/><path class="cls-3" d="M91.88,158.23H49.25A3.07,3.07,0,0,1,46.19,155l2-34.23a3.08,3.08,0,0,1,3.07-2.89H91.88A3.06,3.06,0,0,1,95,120.93v34.23A3.06,3.06,0,0,1,91.88,158.23Z"/><path class="cls-4" d="M40.24,125.65h0c-.1,0-.12,0,0-3,.09-1.59.22-3.86.39-6.75.32-5.26.71-11.39.91-14.57a2.85,2.85,0,0,1,2.8-2.68l7-.15a.09.09,0,0,1,.09.09.11.11,0,0,1-.09.1l-7,.14a2.67,2.67,0,0,0-2.62,2.51c-.93,14.54-1.45,23.52-1.41,24.12a.1.1,0,0,1,0,.09A.12.12,0,0,1,40.24,125.65Z"/><path class="cls-4" d="M86.47,177.34a.09.09,0,0,1,0-.18l13.31-.65a2.65,2.65,0,0,0,2.53-2.72l-1.11-49.2a.11.11,0,0,1,.09-.1.09.09,0,0,1,.09.09l1.11,49.2a2.83,2.83,0,0,1-2.7,2.91l-13.32.65Z"/><path class="cls-4" d="M89.07,154.13h-35a2.68,2.68,0,0,1-2.67-2.82l1.47-26.63a2.68,2.68,0,0,1,2.67-2.53h32.7a2.67,2.67,0,0,1,2.67,2.6l.82,26.62a2.7,2.7,0,0,1-2.68,2.76ZM55.56,122.34a2.5,2.5,0,0,0-2.49,2.35L51.6,151.32a2.54,2.54,0,0,0,.68,1.85,2.49,2.49,0,0,0,1.81.78h35a2.49,2.49,0,0,0,2.49-2.57l-.81-26.63a2.48,2.48,0,0,0-2.49-2.41Zm-4.05,29h0Z"/><path class="cls-4" d="M63.65,57.19a.09.09,0,0,1-.09-.09V41.89a.09.09,0,0,1,.18,0V57.1A.09.09,0,0,1,63.65,57.19Z"/><path class="cls-4" d="M66.38,57.19a.09.09,0,0,1-.09-.09V41.89a.09.09,0,0,1,.18,0V57.1A.09.09,0,0,1,66.38,57.19Z"/><path class="cls-4" d="M69.11,57.19A.09.09,0,0,1,69,57.1V41.89a.09.09,0,0,1,.18,0V57.1A.09.09,0,0,1,69.11,57.19Z"/><path class="cls-4" d="M71.84,57.19a.09.09,0,0,1-.09-.09V41.89a.09.09,0,0,1,.18,0V57.1A.09.09,0,0,1,71.84,57.19Z"/><path class="cls-4" d="M74.57,57.19a.09.09,0,0,1-.09-.09V41.89a.09.09,0,0,1,.18,0V57.1A.09.09,0,0,1,74.57,57.19Z"/><path class="cls-4" d="M77.3,57.19a.09.09,0,0,1-.09-.09V41.89a.09.09,0,0,1,.18,0V57.1A.09.09,0,0,1,77.3,57.19Z"/><path class="cls-4" d="M79.25,57.19a.09.09,0,0,1-.09-.09V41.89a.09.09,0,0,1,.18,0V57.1A.09.09,0,0,1,79.25,57.19Z"/><path class="cls-5" d="M95.48,85.47A17.33,17.33,0,0,0,93.79,92a18.85,18.85,0,0,1-1.59,6.56c-1,2-3.08,3.67-5.34,3.61-2.93-.08-5.16-2.89-8.06-3.33-3.17-.49-6.08,2-7.62,4.82s-2.23,6-3.83,8.81c-2.75,4.73-7.86,7.58-13,9.44a33.8,33.8,0,0,1-14.18,2.26,19.07,19.07,0,0,1-12.76-6c-2.94-3.36-4.3-7.87-4.63-12.33a29,29,0,0,1,7.46-21.94c5.47-5.77,13.86-8.82,21.67-7.33a13,13,0,0,1,5.29,2.11c2,1.43,3.27,3.56,4.81,5.43A5.26,5.26,0,0,0,64.42,86a5.43,5.43,0,0,0,2.34,0,39.54,39.54,0,0,1,5.72-.79A7.4,7.4,0,0,1,77.81,87c1.56,1.55,2,3.94,3.46,5.59a6,6,0,0,0,7.6,1c3.94-2.61,3.59-9,7.32-11.9,1-.74,6.09-1.84,5-.5-.44.53-2.53.93-3.26,1.47A8.77,8.77,0,0,0,95.48,85.47Z"/><path class="cls-4" d="M46.5,80.52c-9.26,0-16.76,7.46-16.76,16.2a11.91,11.91,0,0,0,5.11,10.1,4,4,0,0,1,1.71,3.28v5.17A2.75,2.75,0,0,0,39.31,118H53.69a2.75,2.75,0,0,0,2.75-2.75V110.1a4,4,0,0,1,1.71-3.28,11.91,11.91,0,0,0,5.11-10.1C63.26,88,55.76,80.52,46.5,80.52Zm-7.58,20.65a4,4,0,0,1-4-4c0-2.2,2.54-4,4.73-4s3.22,1.78,3.22,4A4,4,0,0,1,38.92,101.17Zm7,2.22c-.46,2.34-3,3.43-3.11,2.18-.13-1,1.82-2.06,2.72-2.48A.28.28,0,0,1,46,103.39Zm4.17,2.18c-.15,1.25-2.65.16-3.11-2.18a.28.28,0,0,1,.39-.3C48.32,103.51,50.27,104.54,50.14,105.57Zm3.94-4.21a4,4,0,0,1-4-4c0-2.2,1-4,3.22-4s4.73,1.78,4.73,4A4,4,0,0,1,54.08,101.36Z"/><path class="cls-4" d="M40.58,117.36a.18.18,0,0,1-.19-.19v-6.44a.19.19,0,0,1,.19-.19.2.2,0,0,1,.19.19v6.44A.19.19,0,0,1,40.58,117.36Z"/><path class="cls-4" d="M43,117.36a.18.18,0,0,1-.19-.19v-6.44a.19.19,0,1,1,.37,0v6.44A.18.18,0,0,1,43,117.36Z"/><path class="cls-4" d="M45.31,117.36a.19.19,0,0,1-.19-.19v-6.44a.2.2,0,0,1,.19-.19.19.19,0,0,1,.19.19v6.44A.18.18,0,0,1,45.31,117.36Z"/><path class="cls-4" d="M47.68,117.36a.19.19,0,0,1-.19-.19v-6.44a.19.19,0,0,1,.38,0v6.44A.19.19,0,0,1,47.68,117.36Z"/><path class="cls-4" d="M50.05,117.36a.18.18,0,0,1-.19-.19v-6.44a.19.19,0,0,1,.19-.19.2.2,0,0,1,.19.19v6.44A.19.19,0,0,1,50.05,117.36Z"/><path class="cls-4" d="M52.42,117.36a.18.18,0,0,1-.19-.19v-6.44a.19.19,0,1,1,.37,0v6.44A.18.18,0,0,1,52.42,117.36Z"/><rect class="cls-2" x="106.8" y="74.24" width="2.6" height="17.71" rx="0.77" transform="translate(-27.37 98.57) rotate(-44.07)"/><path class="cls-6" d="M104.26,82.22l3.09-3a.87.87,0,0,1,1.24,0l11.09,11.48a.86.86,0,0,1,0,1.23l-3.1,3a.86.86,0,0,1-1.23,0L104.24,83.45A.86.86,0,0,1,104.26,82.22Z"/><path class="cls-2" d="M118.29,92.19H128a1.88,1.88,0,0,1,1.88,1.88v9.25a1.88,1.88,0,0,1-1.88,1.88h-9.76a1.87,1.87,0,0,1-1.87-1.87V94.06a1.88,1.88,0,0,1,1.88-1.88Z" transform="translate(-33.98 113.33) rotate(-44.03)"/><rect class="cls-2" x="109.16" y="80.51" width="9.99" height="17.71" rx="1.44" transform="translate(-30.03 104.44) rotate(-44.03)"/><rect class="cls-7" x="111.14" y="91.52" width="17.28" height="7.31" rx="1.05" transform="translate(-32.49 109.98) rotate(-44.02)"/><path class="cls-6" d="M107,90.49l8.5-8.21a.91.91,0,0,1,1.29,0l3.13,3.23a.91.91,0,0,1,0,1.29L111.42,95a.91.91,0,0,1-1.29,0L107,91.78A.91.91,0,0,1,107,90.49Z"/><path class="cls-8" d="M113.45,113.62,124,103.45a1.78,1.78,0,0,1,2.51,0l35.8,37a1.78,1.78,0,0,1,0,2.51l-10.52,10.17a1.79,1.79,0,0,1-2.51-.05l-35.8-37A1.77,1.77,0,0,1,113.45,113.62Z"/><path class="cls-9" d="M119.22,108l13.43-13a2.28,2.28,0,0,1,3.21,0L171,131.44a2.28,2.28,0,0,1-.05,3.21l-13.44,13a2.27,2.27,0,0,1-3.2,0l-35.12-36.33A2.28,2.28,0,0,1,119.22,108Z"/><path class="cls-9" d="M141.44,128.64l4-3.88a.68.68,0,0,1,1,0l14.23,14.71a.68.68,0,0,1,0,1l-4,3.89a.67.67,0,0,1-1,0L141.43,129.6A.69.69,0,0,1,141.44,128.64Z"/><path class="cls-10" d="M142.43,168.88v7.65a5.3,5.3,0,0,1-5.29,5.29H127a5.31,5.31,0,0,1-5.3-5.29V161.74c0-4.2,4.43-8.35,4.43-13.47v-6.68H138v6.68c0,5.12,4.43,9.27,4.43,13.47Z"/><polygon class="cls-6" points="126.14 145.35 126.14 141.59 138 141.59 138 148.11 126.14 145.35"/><path class="cls-9" d="M124.44,157.09a11.85,11.85,0,0,0-1.46,4.65v14.79a4,4,0,0,0,4,4h10.13a4.05,4.05,0,0,0,4-4V161.74a11.88,11.88,0,0,0-1.47-4.65Z"/><path class="cls-11" d="M130,140.22h4.16a.7.7,0,0,0,.7-.7v-7.44a2.78,2.78,0,0,0-2.78-2.77h0a2.78,2.78,0,0,0-2.77,2.77v7.44A.69.69,0,0,0,130,140.22Z"/><path class="cls-10" d="M131.14,140.22H133a.31.31,0,0,1,.31.31V171.2a1.25,1.25,0,0,1-1.24,1.24h0a1.25,1.25,0,0,1-1.24-1.24V140.53A.31.31,0,0,1,131.14,140.22Z"/><path class="cls-12" d="M131.14,140.22H133a.31.31,0,0,1,.31.31V147l-2.48-.58v-5.91A.31.31,0,0,1,131.14,140.22Z"/><rect class="cls-1" x="124.65" y="136.8" width="14.85" height="6.84" rx="0.86"/><rect class="cls-1" x="87.22" y="175.52" width="8.93" height="5.24" rx="0.68"/><path class="cls-13" d="M167.62,174.45h2.26c1.89,0,6.78,1.48,12.48,2.7,0,0,.41.08.41.44v1.1c0,.36-.41.43-.41.43-5.7,1.22-10.59,2.7-12.48,2.7h-2.26l-3-3.68Z"/><rect class="cls-3" x="82.18" y="174.45" width="8.92" height="7.37" rx="0.96"/><rect class="cls-3" x="93" y="174.45" width="75.59" height="7.37" rx="0.96"/><path class="cls-10" d="M94,179.29V177a.41.41,0,0,1,.41-.41h29.05a1.58,1.58,0,0,1,1.56,1.57h0a1.57,1.57,0,0,1-1.56,1.56h-29A.41.41,0,0,1,94,179.29Z"/><rect class="cls-1" x="146.69" y="174.45" width="21.89" height="7.37" rx="0.96"/><path class="cls-14" d="M146.9,177.35h21.48a.2.2,0,0,1,.2.2v1.16a.21.21,0,0,1-.21.21H146.9a.2.2,0,0,1-.2-.2v-1.16A.21.21,0,0,1,146.9,177.35Z"/><rect class="cls-5" x="164.01" y="176.62" width="4.57" height="3.03" rx="0.4"/><rect class="cls-5" x="146.69" y="176.62" width="4.57" height="3.03" rx="0.4"/></svg>