<?xml version="1.0" encoding="utf-8"?>
<!-- Generator: Adobe Illustrator 25.4.1, SVG Export Plug-In . SVG Version: 6.00 Build 0)  -->
<svg version="1.1" id="Layer_1" xmlns="http://www.w3.org/2000/svg" xmlns:xlink="http://www.w3.org/1999/xlink" x="0px" y="0px"
	 viewBox="0 0 843.6 525" style="enable-background:new 0 0 843.6 525;" xml:space="preserve">
<style type="text/css">
	.st0{fill:#263238;}
	.st1{fill:#9F6B5B;}
	.st2{fill:#774F44;}
	.st3{fill:#E0E0E0;}
	.st4{fill:#009B84;}
	.st5{opacity:0.2;}
	.st6{fill:#455A64;}
	.st7{clip-path:url(#SVGID_00000144298764321722622870000010017998308837231551_);}
	.st8{fill:#FFBE9D;}
	.st9{fill:#EB996E;}
	.st10{fill:#385B64;}
	.st11{opacity:0.6;}
	.st12{fill:#FFFFFF;}
	.st13{fill:#33DFC2;}
</style>
<path class="st0" d="M553.1,72.7c0,0-10.8,40.3-11.7,68.8l-0.3,9.5c0,0,23.8,19.8,43.8,21l16.7-41.1L553.1,72.7z"/>
<path class="st0" d="M658.8,97.5c-4.5-19.7-6.3-42.5-22.7-55.4c-12.1-9.5-26-12.2-41.4-11.5c-7.6,0.3-16.2,3.8-22.8,7.6
	c-9.1,5.1-12.9,15.5-17.3,25c-8.8,18.9-7.6,44.6-1.7,51.7l79.1,41.8c15.8-8.2,25.7-11.5,28.2-32.5
	C661.4,115.2,660.8,106.2,658.8,97.5z"/>
<path class="st1" d="M634.4,57.7L584.6,43c-16-2.3-27.5,17.1-29.2,33.2c-1.8,17.9-3.4,39.8-1.8,53.3c3.2,27.1,23.7,31.4,23.7,31.4
	s0,0.4-0.1,8.4l-0.5,13c-0.3,5.3,1.2,10.5,4.4,14.7c7.3,9.5,20.7,10.8,36.5,4.9c9.2-3.4,15.5-10.2,16.2-19.5l8.7-114.8
	C642.8,62.8,639.3,58.4,634.4,57.7z"/>
<path class="st0" d="M564.7,100.8c-0.1,1.9,1.3,3.5,3.2,3.6c1.8,0.2,3.5-1.1,3.7-2.9c0,0,0-0.1,0-0.1c0.1-1.9-1.3-3.5-3.2-3.6
	c-1.8-0.2-3.5,1.1-3.7,2.9C564.7,100.7,564.7,100.8,564.7,100.8z"/>
<path class="st0" d="M559.6,92.5c0.4,0.5,3.1-1.4,6.8-1.2s6.4,2.1,6.8,1.7c0.2-0.2-0.2-1-1.3-1.9c-1.6-1.2-3.5-1.8-5.4-1.9
	c-1.9-0.1-3.8,0.5-5.5,1.5C559.8,91.5,559.4,92.3,559.6,92.5z"/>
<path class="st0" d="M599.3,100.5c-0.1,1.9,1.3,3.5,3.2,3.6c1.8,0.2,3.5-1.1,3.7-2.9c0,0,0,0,0-0.1c0.1-1.9-1.3-3.5-3.2-3.6
	C601.2,97.3,599.5,98.6,599.3,100.5C599.3,100.4,599.3,100.5,599.3,100.5z"/>
<path class="st0" d="M596.2,92.9c0.4,0.5,3.1-1.4,6.8-1.2s6.4,2.1,6.8,1.7c0.2-0.2-0.2-1-1.3-1.9c-1.6-1.2-3.5-1.8-5.4-1.9
	c-1.9-0.1-3.8,0.5-5.5,1.5C596.4,91.9,596,92.7,596.2,92.9z"/>
<path class="st0" d="M581.7,117c0-0.2-2.3-0.7-6-1.3c-1-0.1-1.8-0.4-2-1c0-1,0.2-2,0.8-2.8l3.1-7.1c4.3-10.1,7.5-18.5,7-18.7
	s-4.2,7.9-8.5,18.1c-1,2.5-2,4.9-3,7.2c-0.4,1.1-1.1,2.3-0.6,3.7c0.3,0.7,0.8,1.2,1.5,1.4c0.5,0.2,1.1,0.3,1.6,0.3
	C579.3,117.1,581.7,117.2,581.7,117z"/>
<path class="st2" d="M577.4,160.9c12.7,0.7,25.3-2.2,36.5-8.2c0,0-9.7,18.5-36.5,14.9L577.4,160.9z"/>
<path class="st2" d="M593.7,124.4c-1-1.7-2.9-2.8-4.9-2.9c-2.8-0.3-5.6,0.9-7.2,3.2c-0.6,1.1-0.7,2.3-0.5,3.5c0.2,0.6,0,0.3,0.5,0.7
	c1.6,1.5,3.3,3.1,5.4,3.7c2.3,0.7,4.8-0.1,6.2-2C594.6,128.8,594.8,126.4,593.7,124.4z"/>
<path class="st0" d="M593.2,120.2c-0.6-0.1-0.8,4-4.4,6.7s-7.9,2.1-7.9,2.6c-0.1,0.2,0.9,0.8,2.7,1c2.4,0.1,4.7-0.6,6.6-2
	c1.8-1.4,3-3.4,3.4-5.6C593.9,121.2,593.5,120.2,593.2,120.2z"/>
<path class="st0" d="M594.8,79.3c0.3,1,4,0.9,8.3,1.9s7.7,2.5,8.3,1.6c0.3-0.4-0.2-1.4-1.5-2.5c-3.6-2.8-8.3-3.8-12.7-2.7
	C595.5,78.1,594.7,78.8,594.8,79.3z"/>
<path class="st0" d="M559.9,82.5c0.8,0.7,3.5-0.5,7-1.1s6.4-0.3,6.9-1.3c0.2-0.5-0.3-1.2-1.7-1.8c-3.8-1.4-8.1-0.7-11.2,1.9
	C559.8,81.2,559.5,82.1,559.9,82.5z"/>
<path class="st0" d="M585.3,40.1c0,0.2-0.1,0.4-0.1,0.6h0.1L585.3,40.1z"/>
<path class="st0" d="M620.1,171.8c0.8-7.1-2.1-14.2-1.2-21.2c0.9-7.5,5.7-13.9,7.7-21.2c3.2-11.6-1.2-24-2.8-36
	c-6.7-0.8-13-4.9-17.5-10.1c-5.4-6.3-8.7-14.1-11.8-21.8c0.2,7.6,2.8,14.9,7.3,20.9c-3.1,0.5-6.2-0.5-8.4-2.7
	c-2.2-2.2-3.8-4.8-4.9-7.7c-2.9-6.8-4.5-14.1-4.8-21.5c-1,10.6,0.2,21.3,3.5,31.5c-1.9-0.6-3.9-0.1-5.9,0.2s-4.2,0.2-5.6-1.2
	c-0.8-1-1.4-2.3-1.5-3.6c-1.9-9-2.2-18.3-0.9-27.4c-2.6,4.9-4.6,9.9-6.2,15.2c-1.4,5.3-1.8,11-0.1,16.2c-0.9,0.9-2.4,0.9-3.3,0
	c-0.9-0.9-1.4-2.1-1.5-3.4c-0.7-4.5,0.1-9.1,0.9-13.7c-2.7,4.8-3.6,10.3-5.1,15.6s-3.9,10.7-8.5,13.7c-0.8-6.9-0.6-13.8,0.6-20.6
	c0.9-5.7,3.6-11.2,6.1-16.4c2.8-5.8,6.6-11.4,10.9-15.2c7.9-7,11.2-4,16.3-1.3l0.6,0.3c0-0.1,0-0.2,0-0.4l0.2-1.1
	c13.3-3,27.1-2.3,40,1.9c9.6,3.1,21.3,12.9,26.2,21.7l0.3,0.5c11.3,20.3,18.7,43.9,19.2,94.9l0,0L620.1,171.8z"/>
<path class="st0" d="M641.3,235.7c-0.1-0.7-0.1-1.3,0-2c0.2-1.8,0.5-3.7,1-5.4c3.2-12.1,12.1-21.9,23.8-26.2
	c1.7-0.6,3.5-1.1,5.3-1.5c0.7-0.2,1.3-0.2,2-0.2c0,0.2-2.8,0.6-7.1,2.3c-11.3,4.5-20,14-23.4,25.8
	C641.7,232.9,641.5,235.8,641.3,235.7z"/>
<path class="st3" d="M523.2,383.3c0,0-3.1,52.3,10.7,72.8l10.2-34.5v-38L523.2,383.3z"/>
<path class="st4" d="M629.5,173.5c0,0-29,21.9-43.1,19.4c-11.3-2-9.4-19.2-9.4-19.2l-5.5,11.9l-11.8,47.4l5,22.3l26.9-16.6
	L629.5,173.5z"/>
<path class="st3" d="M530.5,268.3c3-31.3,40.7-85.5,40.7-85.5l6-9.6l-5.9,26.6c0,0-5.9,38.8-6.7,39.6l33.2-32.1l37.3-39.5l7.4,10.6
	l32.8,18.1l-3.3,102.8L660,329.4c0,0,34.6,94.7,39.1,128.3l7.5,63.7L530,521c0,0,6.2-99.6,6.9-120.8s2.2-68.3,2.2-68.3
	S527.5,299.6,530.5,268.3z"/>
<path class="st0" d="M706.6,521.3c-0.1-0.2-0.1-0.4-0.1-0.6c-0.1-0.4-0.2-1-0.2-1.7l-0.8-6.5c-0.7-5.7-1.7-14-3-24.1
	c-0.6-5.1-1.3-10.7-2-16.7c-0.4-3-0.7-6.1-1.1-9.3s-0.7-6.5-1.3-9.8c-2.5-13.3-6.7-27.6-11.2-42.6c-2.5-8.1-5-16-7.5-23.6
	s-5-14.8-7.4-21.6l-12-35.4v-0.1v-0.1c3.3-8.2,5.9-14.8,7.8-19.4c0.9-2.2,1.6-3.9,2.1-5.2l0.6-1.3c0.1-0.2,0.1-0.3,0.2-0.4
	c0,0.2-0.1,0.3-0.1,0.5c-0.1,0.4-0.3,0.8-0.5,1.4l-2,5.2l-7.5,19.5v-0.2l12.3,35.3c2.4,6.8,4.8,14,7.5,21.6s5,15.5,7.5,23.6
	c4.5,15,8.7,29.3,11.2,42.7c0.6,3.4,1,6.7,1.3,9.9s0.7,6.3,1.1,9.3c0.7,6,1.3,11.6,1.9,16.7c1.1,10.1,2,18.4,2.7,24.1
	c0.3,2.8,0.5,5,0.7,6.6c0.1,0.7,0.1,1.3,0.2,1.7C706.6,520.9,706.6,521.1,706.6,521.3z"/>
<g class="st5">
	<path d="M679.4,385.7c0,0-23.9,30.8-29.5,29.9s-11.2-11.8-11.2-11.8l-6.2-2.9l-6.1-11.1l13.2-11.8L679.4,385.7z"/>
</g>
<path class="st3" d="M565.8,190.7c0,0-14,5.9-18.5,13.1s-7.6,38.1-7.6,38.1l22.2-37.4L565.8,190.7z"/>
<path class="st1" d="M586.2,387.4l21.9-8.1l16.7-11.2l14.2,22.8l-6.4,3.9c0,0-0.2,5.5-0.2,6.2s-2.2,6.1-19.9,5.8s-21.8-9.3-21.8-9.3
	s-9.2,10.5-13,12.2s-7.4-3.3-7.4-3.3L586.2,387.4z"/>
<path class="st1" d="M538.8,341.6c0,0-8.3,8.8-10.4,15.6s-0.8,26.2-0.8,26.2l2.4,0.1c0,0,0,12.6,3.5,13.1s6.9,0.5,7.1-5.2
	s-1.6-15.7-1.6-15.7L538.8,341.6z"/>
<path class="st0" d="M555.7,521.3c0-0.2-0.1-0.5-0.1-0.7c0-0.5,0-1.2-0.1-2.2c0-1.9-0.1-4.7-0.2-8.3c-0.1-7.2-0.3-17.6-0.6-30.4
	c-0.4-25.7-1-61.1-1.7-100.2c-1.3-39.1-1.5-74.6,0.7-100.3c1.2-12.8,3.7-23,6.2-29.7c0.6-1.7,1.2-3.2,1.8-4.4s1-2.4,1.5-3.2l1-1.9
	c0.1-0.2,0.2-0.4,0.4-0.6c-0.1,0.2-0.2,0.5-0.3,0.7c-0.2,0.5-0.5,1.1-0.9,2s-0.9,1.9-1.4,3.2s-1.1,2.8-1.7,4.4
	c-2.4,6.7-4.8,16.9-6,29.7c-2,25.6-1.7,61.1-0.4,100.2c0.6,39.1,1.1,74.6,1.5,100.3c0.1,12.8,0.2,23.2,0.3,30.4c0,3.5,0,6.3,0,8.3
	c0,0.9,0,1.6,0,2.2C555.7,520.8,555.7,521.1,555.7,521.3z"/>
<path class="st0" d="M617.4,483.8c-0.3-0.1-0.6-0.2-0.9-0.3c-0.8-0.3-1.6-0.7-2.4-1.1c-2.9-1.4-5.6-3.3-8-5.4
	c-3.6-3.2-6.7-6.9-9.1-11c-3-5-5.3-10.5-6.7-16.2c-3-12.1-2.5-23.6-2-31.6c0.3-4,0.6-7.3,0.9-9.6c0.1-1,0.2-1.9,0.3-2.6
	c0-0.3,0.1-0.6,0.2-0.9c0,0.3,0,0.6,0,0.9c0,0.7-0.1,1.6-0.2,2.6c-0.2,2.3-0.4,5.5-0.6,9.6c-0.4,8-0.7,19.4,2.2,31.4
	c1.4,5.6,3.6,11,6.5,16c2.4,4.1,5.4,7.8,8.8,11C612.6,482,617.5,483.6,617.4,483.8z"/>
<path class="st0" d="M565.8,190.7c0,0.4,0,0.8,0,1.1c-0.1,0.8-0.1,1.9-0.2,3.3c-0.2,2.9-0.6,7.1-1,12.3v0.1l-0.1,0.1l-3.8,2.2
	l0.2-0.3c0.6,8.6,1.4,19.6,2.4,32.1l-0.5-0.4l29.8-10.8l9.5-3.4l-0.3,0.5c-0.5-3.3-0.9-6.5-1.4-9.6l-0.1-0.7l0.7,0.2l11.3,4
	l-0.5,0.1c9-12.7,16.6-23.6,22-31.3c2.7-3.8,4.8-6.8,6.4-8.9l1.7-2.4c0.2-0.3,0.4-0.5,0.6-0.8c-0.1,0.3-0.3,0.6-0.5,0.9l-1.7,2.4
	l-6.2,9.1l-21.8,31.5l-0.2,0.2l-0.3-0.1l-11.4-4l0.6-0.5l1.4,9.6v0.4l-0.3,0.1l-9.5,3.4L562.8,242l-0.5,0.2v-0.5
	c-0.8-12.5-1.5-23.5-2.1-32.1v-0.2l0.2-0.1l3.8-2.1l-0.1,0.2c0.5-5.2,1-9.4,1.3-12.3c0.2-1.4,0.3-2.5,0.4-3.3
	C565.6,191.4,565.7,191,565.8,190.7z"/>
<path class="st0" d="M539,375.7c0-0.3-0.1-0.5-0.1-0.8c0-0.6,0-1.3-0.1-2.3c0-2.1-0.1-5-0.2-8.7c-0.1-7.6-0.2-18.4-0.3-31.3v0.1
	c-2-6.9-3.7-14.5-5.4-22.7c-0.8-4.1-1.6-8.3-2.4-12.7c-0.9-4.4-1.4-8.9-1.5-13.5c-0.4-12.1,1.7-24.1,6.1-35.4l0,0
	c2.6-7.2,5.7-14.2,9.3-21c3.2-6.1,6.2-11.4,8.7-15.8s4.6-7.7,6.1-10l1.7-2.6c0.2-0.3,0.4-0.6,0.6-0.9c-0.1,0.3-0.3,0.7-0.5,1
	l-1.6,2.7c-1.4,2.3-3.4,5.8-5.9,10.1s-5.4,9.7-8.5,15.8c-3.5,6.8-6.6,13.8-9.2,21l0,0l0,0c-4.3,11.2-6.3,23.1-6,35.1
	c0.2,4.5,0.7,8.9,1.5,13.3c0.8,4.3,1.5,8.6,2.4,12.6c1.7,8.2,3.4,15.8,5.3,22.7v0.1c0,12.9,0,23.7,0,31.3c0,3.7,0,6.7-0.1,8.7
	c0,1,0,1.7,0,2.3C539,375.2,539,375.4,539,375.7z"/>
<g class="st5">
	<path d="M670.4,307.3c-18.3-13-29.2-35.8-29.5-58.3L670.4,307.3z"/>
</g>
<path class="st3" d="M662.2,190.5c0,0,15.6,3,21.8,16.4s46.9,114.5,47.7,121.6s-2.5,16.1-10.9,25s-71.6,53.4-71.6,53.4L621.7,363
	l55.8-40.2l-36.4-75.1C641.1,247.6,643.8,196,662.2,190.5z"/>
<path class="st0" d="M700.8,332.7c-0.2,0.2-4.3-3.4-10.4-6.3s-11.5-3.8-11.4-4.1c1.2,0,2.4,0.1,3.6,0.5c5.7,1.3,11.1,3.8,15.7,7.4
	C699.2,330.9,700.1,331.8,700.8,332.7z"/>
<path class="st0" d="M698.7,316.8c0,0.3-4.6,0.1-10.1,1.6s-9.4,3.9-9.5,3.6s3.7-3,9.3-4.5S698.8,316.6,698.7,316.8z"/>
<path class="st0" d="M720.7,353.5c0.1-0.2,0.2-0.3,0.4-0.5l1.1-1.3c0.6-0.7,1.2-1.4,1.8-2.1c2.9-3.6,5.1-7.8,6.5-12.2
	c0.6-2,0.9-4.1,0.9-6.3c0.1-2.4-0.3-4.7-1.2-6.9l-28.5-73.5l-12.5-30.1l-5.7-13.7c-2-4.1-5-7.6-8.6-10.2l0,0l-31.5-17.6l0,0l0,0
	l-6.3-8.4l-1.6-2.2c-0.2-0.2-0.4-0.5-0.5-0.8c0.2,0.2,0.4,0.4,0.6,0.7l1.7,2.1l6.5,8.3l-0.1-0.1l31.6,17.3l0,0l0,0
	c3.8,2.7,6.8,6.3,8.9,10.5l5.7,13.8c4,9.5,8.2,19.6,12.5,30.1c11.2,28.7,21.1,54.7,28.3,73.6c0.9,2.3,1.3,4.7,1.2,7.1
	c0,2.2-0.4,4.3-1,6.4c-1,3.3-2.5,6.4-4.5,9.3c-0.7,1-1.5,2-2.3,3c-0.6,0.7-1.2,1.4-1.8,2l-1.2,1.2
	C721,353.2,720.9,353.4,720.7,353.5z"/>
<path class="st0" d="M680.9,384.1c-0.2,0.2-0.3,0.3-0.5,0.4l-1.6,1.2l-6.3,4.6l-23.2,16.7l-0.3,0.2l-0.2-0.3l-27.5-43.9l-0.2-0.3
	l0.3-0.2l25.2-18.1l30.7-22.1l-0.1,0.5l-26.7-54.2c-3.3-6.7-5.8-12-7.7-15.7l-2-4.2l-0.5-1.1c-0.1-0.1-0.1-0.2-0.2-0.4
	c0.1,0.1,0.2,0.2,0.2,0.3c0.2,0.3,0.3,0.6,0.6,1.1c0.5,1,1.2,2.4,2.1,4.1l7.9,15.6l27,54l0.2,0.3l-0.3,0.2l-30.7,22.1l-25.2,18.1
	l0.1-0.6c10.4,16.7,19.7,31.7,27.3,44l-0.5-0.1l23.3-16.5l6.4-4.5l1.7-1.1C680.5,384.4,680.7,384.2,680.9,384.1z"/>
<path class="st0" d="M641.3,235.7c-0.1-0.7-0.1-1.3,0-2c0.2-1.8,0.5-3.7,1-5.4c3.2-12.1,12.1-21.9,23.8-26.2
	c1.7-0.6,3.5-1.1,5.3-1.5c0.7-0.2,1.3-0.2,2-0.2c0,0.2-2.8,0.6-7.1,2.3c-11.3,4.5-20,14-23.4,25.8
	C641.7,232.9,641.5,235.8,641.3,235.7z"/>
<path class="st0" d="M680.9,384.1c-0.2,0.2-0.3,0.3-0.5,0.4l-1.6,1.2l-6.3,4.6l-23.2,16.7l-0.3,0.2l-0.2-0.3l-27.5-43.9l-0.2-0.3
	l0.3-0.2l25.2-18.1l30.7-22.1l-0.1,0.5l-26.7-54.2c-3.3-6.7-5.8-12-7.7-15.7l-2-4.2l-0.5-1.1c-0.1-0.1-0.1-0.2-0.2-0.4
	c0.1,0.1,0.2,0.2,0.2,0.3c0.2,0.3,0.3,0.6,0.6,1.1c0.5,1,1.2,2.4,2.1,4.1l7.9,15.6l27,54l0.2,0.3l-0.3,0.2l-30.7,22.1l-25.2,18.1
	l0.1-0.6c10.4,16.7,19.7,31.7,27.3,44l-0.5-0.1l23.3-16.5l6.4-4.5l1.7-1.1C680.5,384.4,680.7,384.2,680.9,384.1z"/>
<g class="st5">
	<polygon points="612,221.8 602.6,221.5 604.6,230.9 562.6,241.6 602,227.4 600.6,217.8 	"/>
</g>
<path class="st0" d="M530,521c0-0.4,0-0.9,0-1.3c0-0.9,0.1-2.2,0.2-3.7c0.2-3.3,0.4-8,0.7-13.8c0.7-11.7,1.6-27.9,2.7-46.2l0.1,0.3
	c-1.6-2.2-2.9-4.6-3.9-7.2c-2.7-7-4-14.1-4.9-20.7s-1.4-13-1.6-18.7c-0.5-11.5-0.3-20.7-0.1-26.4v-0.2h0.2l5,0.3l1.3,0.1
	c0.1,0,0.3,0,0.4,0.1c0,0-0.1,0-0.4,0h-1.3l-5-0.1l0.2-0.2c-0.1,5.7-0.2,14.9,0.4,26.4c0.3,5.7,0.8,12,1.7,18.7s2.2,13.7,4.9,20.5
	c0.9,2.5,2.2,4.8,3.8,7l0.1,0.1v0.2c-1.2,18.2-2.2,34.4-2.9,46.2c-0.4,5.8-0.7,10.4-1,13.7c-0.1,1.5-0.2,2.8-0.3,3.7
	C530.1,520.1,530.1,520.6,530,521z"/>
<path class="st6" d="M634.3,216.1l-2.3-0.9c0-0.1,5.1-12.3,10.1-25.2c2-5.1,2.7-9.4,2.1-12.7c-0.5-2.9-3.1-4.9-6-4.8l-1.6-2.2
	c4.4-0.9,9.2,2.6,10,6.6c0.7,3.8-0.1,8.5-2.3,14C639.4,203.8,634.3,216,634.3,216.1z"/>
<path class="st6" d="M638,244.6l-3.1-1.2c2.6-6.6,6.1-18.3,4.6-21.6c-0.9-2-3.6-3.7-6.7-4.4c-3.4-0.9-7-0.2-9.8,2
	c-3.6,3-9,13.8-10.8,17.6l-3.1-1.4c0.3-0.6,6.8-14.7,11.7-18.8c3.6-2.9,8.3-3.9,12.7-2.7c4.2,0.9,7.7,3.4,9.1,6.3
	C645,225.9,639.2,241.5,638,244.6z"/>
<path class="st0" d="M604.1,295.7c-3.9,0-7.7-2.1-11.3-6.2l1.3-1.1c4,4.5,8.2,6.3,12.3,5.4c16.8-4,29.5-50.5,29.7-51l1.6,0.4
	c-0.5,2-13.2,48-30.9,52.2C605.8,295.6,605,295.7,604.1,295.7z"/>
<path class="st0" d="M596,291.5L596,291.5c-0.7,0.7-1.8,0.8-2.6,0.2l-3.6-2.7c-1.1-0.7-1.4-2.2-0.7-3.3c0,0,0,0,0,0l0,0
	c0.7-1.1,2.2-1.4,3.3-0.7c0.1,0.1,0.3,0.2,0.4,0.3l3.3,3.4C596.8,289.4,596.8,290.7,596,291.5C596,291.5,596,291.5,596,291.5z"/>
<path class="st0" d="M611.2,297.2c-5.2,0-9-1.7-11.4-5.1c-10.3-14.5,9.1-54.6,10-56.3l1.5,0.7c-0.2,0.4-19.8,40.9-10.1,54.6
	c2.5,3.5,7,5,13.2,4.2l0.2,1.7C613.5,297.2,612.4,297.2,611.2,297.2z"/>
<path class="st0" d="M610.9,296.3L610.9,296.3c0.1,1,0.8,1.8,1.8,1.9l4.5,0.4c1.3,0.2,2.5-0.7,2.7-2c0,0,0,0,0,0l0,0
	c0.2-1.3-0.8-2.5-2.1-2.7c-0.2,0-0.3,0-0.5,0l-4.7,0.4C611.7,294.3,610.8,295.2,610.9,296.3C610.9,296.3,610.9,296.3,610.9,296.3z"
	/>
<ellipse transform="matrix(0.9231 -0.3845 0.3845 0.9231 -58.0597 223.5389)" class="st0" cx="530.1" cy="257" rx="13.2" ry="13.2"/>
<ellipse transform="matrix(0.9231 -0.3845 0.3845 0.9231 -58.0597 223.5389)" class="st0" cx="530.1" cy="257" rx="13.2" ry="13.2"/>
<path class="st3" d="M539.8,256.9c0,5.4-4.3,9.7-9.7,9.7c-5.4,0-9.7-4.3-9.7-9.7c0-5.4,4.3-9.7,9.7-9.7c0,0,0,0,0,0
	C535.4,247.2,539.8,251.6,539.8,256.9z"/>
<path class="st6" d="M535.5,245.1l-2.2-1.1c1.1-2.1,27.1-52.8,28.7-55c0.3-0.4,0.6-1,1-1.6c0.8-1.4,1.6-2.7,2.6-3.9
	c2.6-3.2,5.8-6.2,9.5-6.9l-2.2,3.4c-2,0.8-3.1,2.1-5.4,4.9c-0.9,1.2-1.7,2.4-2.4,3.6c-0.4,0.7-0.8,1.3-1.1,1.7
	C562.8,192.1,543,230.4,535.5,245.1z"/>
<g>
	<defs>
		<rect id="SVGID_1_" x="-87.8" width="595.2" height="519.3"/>
	</defs>
	<clipPath id="SVGID_00000074429875470217532820000014563247084589566394_">
		<use xlink:href="#SVGID_1_"  style="overflow:visible;"/>
	</clipPath>
	<g style="clip-path:url(#SVGID_00000074429875470217532820000014563247084589566394_);">
		<path class="st0" d="M394.6,295.5l-29.9,22.7l-12.7,5.7l12.7-19.1l24.2-17c2.1-1.5,5.1-1,6.6,1.1l0,0
			C397.1,290.9,396.7,293.9,394.6,295.5z"/>
		<path class="st8" d="M276.4,348.8c1.4,0,42.1-16.1,43-18.3s0.4-8.4,8.5-10.6s16.5-5.1,16.5-5.1l20.7-13.8c0,0,5.8,1.9,0.6,8.1
			c-2.9,3.4-6.2,6.5-9.6,9.4c-1.9,1.6,2,3.9,2,3.9l28.2-21.4c-0.6,5.2-2.6,10.2-5.8,14.4l-4,5.4c1.5,4.2,0.3,8.9-3.1,11.7
			c-5.8,5.4-15.2,19.3-25,19.7s-16.8,1.1-16.8,1.1l-51.4,25.1L276.4,348.8z"/>
		<path class="st0" d="M195.7,53.7c-1.9,10.9-17.4,15.5-18.7,26.5c-0.6,4.7,1.8,9.3,1.7,14.1c-0.1,6.4-4.4,11.8-6.6,17.8
			c-4.4,12.4,1.1,26.8,11.2,35.3s23.6,11.7,36.8,11.8"/>
		<path class="st0" d="M284.2,63.2c-1.2,5.8,1.9,11.6,5.2,16.5s7,10.2,7.1,16.1c0.1,10.5-11.4,18.7-10.7,29.3
			c0.4,5.6,4.2,10.7,4.3,16.3c0,5.5-3.6,10.3-7.7,13.9s-8.2,2.4-11.9,6.4c-4.3,4.4-9.6,7.9-15.3,10.2c-12.2,4.6-24.6-6.2-29.8-8.6"
			/>
		<path class="st0" d="M192.7,59.7c0.6-5.3,6.1-8.8,11.3-10s10.9-1.3,15.7-3.7c4.3-2.1,7.5-5.8,11.3-8.8
			c14.5-11.1,35.3-8.4,46.5,6.1c3.7,4.8,6,10.6,6.7,16.6c0.9,7.9-1.7,16.7-8.4,20.9c-7.8,4.9-17.9,2.2-26.5-0.9s-18.5-6.2-26.6-2
			c-4.9,2.5-8.2,7.3-11.6,11.7s-7.5,8.7-12.9,9.8s-12-3-11.5-8.5"/>
		<path class="st8" d="M213.1,61.2l49-5.5c15.4,0.5,22.9,20.5,21.8,35.8c-1.2,17.1-3.4,37.8-7.1,50.2c-7.5,24.8-27.4,25.4-27.4,25.4
			s-4.4,31-6.1,43.2l-53.6-6.5l14.2-134.5C204.5,64.5,208.5,61,213.1,61.2z"/>
		<path class="st0" d="M277.6,109.3c-0.2,1.8-1.8,3-3.6,2.9c-1.7-0.1-3.1-1.6-3-3.3c0,0,0-0.1,0-0.1c0.2-1.8,1.8-3,3.6-2.9
			C276.4,106,277.7,107.5,277.6,109.3C277.6,109.3,277.6,109.3,277.6,109.3z"/>
		<path class="st0" d="M278.4,104.1c-0.5,0.4-2.7-1.8-6.2-2.2s-6.3,0.9-6.6,0.4c-0.2-0.2,0.4-0.9,1.6-1.6c1.7-0.9,3.5-1.2,5.4-0.9
			c1.8,0.2,3.5,1.1,4.9,2.3C278.4,103.1,278.6,104,278.4,104.1z"/>
		<path class="st0" d="M243.5,104.4c-0.2,1.8-1.8,3-3.6,2.9c-1.7-0.1-3.1-1.5-3-3.3c0,0,0-0.1,0-0.1c0.2-1.8,1.8-3,3.6-2.9
			c1.7,0.1,3.1,1.5,3,3.3C243.5,104.3,243.5,104.4,243.5,104.4z"/>
		<path class="st0" d="M243.9,100.1c-0.5,0.4-2.7-1.8-6.2-2.2s-6.3,0.9-6.6,0.4c-0.2-0.2,0.4-0.9,1.6-1.6c1.7-0.8,3.5-1.2,5.4-0.9
			c1.8,0.2,3.5,1.1,4.8,2.3C243.8,99.1,244.1,99.9,243.9,100.1z"/>
		<path class="st0" d="M253.1,127.8c0-0.2,2.2-0.3,5.8-0.2c0.9,0,1.8,0,2-0.6c0.2-0.9,0.1-1.9-0.2-2.7c-0.5-2.3-1.1-4.7-1.7-7.2
			c-2.4-10.2-3.9-18.5-3.5-18.6s2.7,8.1,5,18.3c0.6,2.5,1.1,4.9,1.6,7.2c0.2,1.1,0.6,2.3,0,3.6c-0.3,0.6-1,1-1.6,1.1
			c-0.5,0.1-1,0.1-1.5,0C255.2,128.3,253.1,128,253.1,127.8z"/>
		<path class="st9" d="M249.9,169.6c-12-1.4-23.3-6.2-32.8-13.7c0.3,0.1,6.9,18.9,31.6,19.6L249.9,169.6z"/>
		<path class="st9" d="M250.4,136c-1.1-1.9-3.1-3.1-5.3-3.1c-1.6-0.1-3.1,0.5-4.3,1.6c-1.1,1.1-1.5,2.7-0.8,4.1
			c0.8,1.4,2.7,2,4.4,1.8c1.7-0.4,3.4-1.1,4.8-2.1c0.4-0.2,0.8-0.5,1.1-0.9c0.3-0.4,0.4-0.9,0.2-1.3"/>
		<path class="st0" d="M242.4,128.8c0.6,0.1,0.1,3.9,3,7s7,3.3,7,3.8c0,0.2-1,0.6-2.7,0.4c-2.2-0.3-4.3-1.3-5.8-3
			c-1.5-1.6-2.3-3.7-2.2-5.8C241.6,129.6,242.2,128.8,242.4,128.8z"/>
		<path class="st0" d="M246.3,94.2c-0.5,0.9-3.9,0-8.1-0.1s-7.6,0.6-8.1-0.3c-0.2-0.4,0.5-1.3,2-2c3.9-1.8,8.5-1.7,12.3,0.3
			C245.8,92.9,246.5,93.8,246.3,94.2z"/>
		<path class="st0" d="M278.5,93.8c-0.7,0.7-3-0.4-5.9-0.9s-5.4-0.2-5.9-1.1c-0.2-0.4,0.3-1.2,1.5-1.8c3.2-1.4,7-0.8,9.5,1.6
			C278.6,92.6,278.8,93.5,278.5,93.8z"/>
		<path class="st0" d="M191.1,147c6.8,2.4,7.9-1.1,13.8-5.2c5.9-4.2,9.5-11,9.7-18.3c0.1-6.3-2.4-13.1,0.6-18.7
			c3.9-7.4,15.2-8.3,19.2-15.7c2.3-4.3,1.5-9.8,4-14c2.4-3.9,7.1-5.7,11.6-6.7s9.2-1.4,13.2-3.7s6.9-7.2,5.1-11.5
			c-19.3-0.3-38.5,1.6-57.3,5.8c-4.4,1-9,2.2-11.9,5.6c-3.1,3.5-3.7,8.6-4.1,13.3l-6.2,68.8"/>
		<path class="st0" d="M182.3,93.1c0.4-10.8-8-20-18.8-20.4c-6.8-0.3-13.3,3-17.1,8.6c-4.5,6.7-4.5,15.6-2.2,23.3
			c2.7,9.2,9.6,18.2,19.2,19.1c9,0.8,17.2-6,21-14.2s4-17.5,4.1-26.5"/>
		<path class="st6" d="M172.5,127.1c-0.5-0.5-0.9-1-1.1-1.7c-0.8-1.7-1.2-3.5-1.2-5.3c0-2.7,0.4-5.4,1.3-8c0.9-2.9,2.4-5.9,3.6-9.1
			c1.2-2.9,1.9-6.1,1.9-9.3c-0.1-2.9-1.1-5.5-1.4-7.8c-0.3-1.8-0.1-3.7,0.6-5.4c0.6-1.2,1.2-1.6,1.2-1.6s-0.4,0.6-0.8,1.8
			c-0.5,1.7-0.6,3.4-0.2,5.2c0.4,2.2,1.4,4.7,1.7,7.9c0.1,3.3-0.5,6.7-1.8,9.8c-1.2,3.3-2.7,6.3-3.6,9.1c-0.9,2.5-1.4,5-1.5,7.7
			C170.9,124.7,172.8,127.1,172.5,127.1z"/>
		<path class="st6" d="M176.4,96.6c0.1,0.1-1.4,1.7-4.4,3.3c-8.2,4.3-18.2,3.1-25.1-3c-2.6-2.3-3.6-4.2-3.5-4.2s1.4,1.6,4,3.6
			c6.9,5.5,16.3,6.6,24.3,2.9C174.6,97.8,176.2,96.5,176.4,96.6z"/>
		<path class="st6" d="M174.6,100.4c0.1,0.1-0.8,1.6-2.7,3.7c-5.2,5.4-12.4,8.5-19.9,8.5c-2.9,0-4.5-0.5-4.5-0.6
			c0-0.1,1.8,0,4.5-0.2c7.2-0.5,14-3.4,19.4-8.3C173.3,101.7,174.4,100.3,174.6,100.4z"/>
		<path class="st6" d="M176.1,136.3c0,0-0.1-0.1-0.2-0.4c-0.2-0.4-0.4-0.7-0.6-1.1c-0.6-1.5-1-3.1-1.1-4.7c-0.1-2.6,0.4-5.1,1.4-7.4
			c1.4-3.1,3.9-5.7,7-7.1c3.3-1.7,7.4-2.6,10.4-5.7c1.5-1.5,2.3-3.6,2.2-5.8c-0.2-2.3-0.6-4.6-1.3-6.9c-1.3-5.2-0.5-10.6,2.4-15.1
			c1.5-2.4,3.6-4.3,6-5.7c2.6-1.3,5.4-2,8.2-2.2c2.8-0.2,5.6-0.2,8.3-0.7c2.6-0.3,5.1-1.2,7.2-2.8c1.9-1.6,3.3-3.8,3.8-6.2
			c0.6-2.5,1.4-4.9,2.3-7.2c1.8-4.4,4.7-8.2,8.5-11c3.3-2.5,7.4-3.8,11.5-3.9c3.4-0.1,6.8,0.9,9.6,2.8c2.1,1.5,3.8,3.4,5,5.7
			c0.7,1.4,1.2,3,1.4,4.6c0.1,0.6,0.1,1.1,0,1.7c-0.2-2.1-0.8-4.1-1.8-6c-1.2-2.2-2.9-4-5-5.4c-2.7-1.8-5.9-2.7-9.2-2.6
			c-4,0.1-7.8,1.4-11,3.8c-3.6,2.8-6.4,6.5-8.1,10.7c-0.9,2.3-1.6,4.7-2.1,7.1c-0.6,2.7-2.1,5.1-4.2,6.8c-2.3,1.6-5,2.7-7.7,3
			c-2.8,0.4-5.6,0.4-8.3,0.7c-2.7,0.1-5.4,0.8-7.8,2c-2.3,1.3-4.2,3.1-5.6,5.3c-2.7,4.2-3.6,9.4-2.3,14.2c0.7,2.3,1.1,4.7,1.3,7.1
			c0.1,2.4-0.8,4.7-2.5,6.4c-3.3,3.2-7.5,4.1-10.7,5.7c-3,1.4-5.4,3.7-6.8,6.7c-1.1,2.2-1.6,4.7-1.6,7.1
			C174.8,132.3,175.3,134.3,176.1,136.3z"/>
		<path class="st6" d="M187.6,65.7c-0.1-0.4-0.2-0.8-0.1-1.2c0.1-1.2,0.5-2.3,1.3-3.2c1.2-1.5,2.9-2.5,4.7-2.9
			c2.5-0.4,5-0.2,7.3,0.8c2.6,0.9,5.2,2.3,8.1,3.3s6.4,1.5,9.4-0.2s4.8-5,6.7-8.4c1.9-3.6,4.4-6.8,7.3-9.6c5.7-5.5,13.1-8.9,21-9.8
			c3.5-0.3,6.9,0.3,10.1,1.7c2.8,1.3,5.1,3.3,6.8,5.8c2.4,3.8,2.5,8.6,0.3,12.4c-0.6,1-1.4,1.9-2.4,2.6c-0.3,0.3-0.7,0.5-1,0.6
			c1.2-1,2.2-2.1,3-3.5c0.8-1.6,1.3-3.4,1.3-5.1c0.1-2.4-0.6-4.7-1.9-6.7c-1.6-2.4-3.8-4.2-6.5-5.4c-3-1.3-6.4-1.8-9.7-1.5
			c-7.6,0.9-14.7,4.2-20.2,9.5c-2.8,2.7-5.3,5.9-7.1,9.4c-1.9,3.3-3.8,6.9-7.1,8.7c-1.6,0.9-3.4,1.3-5.3,1.2c-1.7-0.1-3.3-0.4-4.9-1
			c-3-1.1-5.6-2.6-8.1-3.5c-2.2-0.9-4.6-1.2-6.9-0.9c-1.7,0.4-3.3,1.3-4.5,2.6c-0.8,0.8-1.3,1.9-1.4,3
			C187.5,65.3,187.6,65.7,187.6,65.7z"/>
		<path class="st8" d="M206.9,554.7c-1.2,3.5-35.7,154.9-35.7,154.9L66.1,836.3l-37-31.2l78.8-118.8l15-150L206.9,554.7z"/>
		<path class="st10" d="M29.1,805.1l-1.2,1.5L5,836.5L-23.4,856l38,73.1h41.8c0,0-3-10-23.1-15.2L32,873.7l36.1-39.7"/>
		<g class="st11">
			<polygon class="st12" points="-23.4,856 14.6,929.1 56.4,929.1 51.7,922.8 17.7,920.9 -17.4,851.8 			"/>
		</g>
		<path class="st0" d="M33,895.5c-0.3,0.4-2.7-1-6-0.9s-5.6,1.4-5.9,1s2-2.8,5.9-2.8S33.4,895.2,33,895.5z"/>
		<path class="st0" d="M32.3,885.5c-0.4,0.3-2.3-2.2-5.6-2.8s-6,0.9-6.3,0.4c-0.2-0.2,0.3-0.9,1.5-1.5c3.2-1.7,7.2-0.9,9.6,1.9
			C32.4,884.6,32.6,885.4,32.3,885.5z"/>
		<path class="st0" d="M32.6,872.8c-0.4,0.2-1.9-2.2-4.8-3.2s-5.5-0.1-5.7-0.5c-0.1-0.2,0.4-0.8,1.6-1.2c3.2-1.1,6.7,0.1,8.5,3
			C32.8,871.9,32.8,872.7,32.6,872.8z"/>
		<path class="st0" d="M43.8,862.8c-0.5,0.2-1.7-2.2-4.3-3.9s-5.2-1.9-5.2-2.5s3.1-1.2,6.2,0.9C43.7,859.6,44.3,862.8,43.8,862.8z"
			/>
		<path class="st0" d="M49.3,854.3c-0.2,0.1-1.6-1.5-3.6-4.4c-1.2-1.7-2.3-3.3-3.5-5c-0.8-1-1.5-2.2-1.9-3.4
			c-0.2-0.8-0.2-1.8,0.2-2.5c0.5-0.9,1.5-1.4,2.5-1.3c1.5,0.3,2.8,1,3.9,2c1,0.8,1.8,1.8,2.5,2.9c1.2,1.8,1.9,3.9,2.2,6
			c0.4,3.7-0.8,5.8-0.9,5.7c-0.3-0.1,0.4-2.2-0.3-5.5c-0.4-1.9-1.2-3.7-2.3-5.3c-0.7-0.9-1.4-1.8-2.3-2.5c-0.8-0.8-1.8-1.3-2.9-1.6
			c-0.3-0.1-0.6,0.1-0.8,0.4c-0.2,0.4-0.2,0.8-0.1,1.2c0.4,1,1,2,1.6,2.9l3.2,5.2C48.5,852.2,49.5,854.1,49.3,854.3z"/>
		<path class="st0" d="M50.8,855.5c-0.2,0,0-2.2,2.2-4.7c3.2-3.4,8.2-4.3,12.4-2.2c0.4,0.4,0.7,0.9,0.6,1.5c0,0.5-0.2,0.9-0.5,1.3
			c-0.4,0.5-0.9,0.9-1.5,1.3c-0.9,0.7-2,1.2-3,1.7c-1.7,0.8-3.6,1.3-5.5,1.5c-3.2,0.3-5.2-0.3-5.2-0.5s2-0.2,5-0.8
			c1.7-0.4,3.4-1,5-1.8c0.9-0.5,1.8-1,2.6-1.6c0.4-0.3,0.8-0.6,1.1-0.9c0.2-0.4,0.1-0.3,0.1-0.4c-0.4-0.2-0.8-0.4-1.2-0.5
			c-0.5-0.1-1-0.2-1.6-0.2c-1-0.1-2,0-3,0.2c-1.7,0.4-3.2,1.1-4.5,2.3C51.7,853.7,51.1,855.6,50.8,855.5z"/>
		<g class="st11">
			<path class="st12" d="M10,854.7c0,2.8-2.2,5-5,5s-5-2.2-5-5s2.2-5,5-5S10,852,10,854.7z"/>
		</g>
		<path class="st8" d="M205.1,581.4L287.5,713c0,0,0.9,32.4,9.7,51.7s48.4,100.4,48.4,100.4l35.9-16.4l-44.4-160.7l-62.8-161.9
			L205.1,581.4z"/>
		<path class="st10" d="M336.5,851.9l29.4,73.5l92.2-35.2c-3.9-8.6-62.1-6.3-62.1-6.3L377.5,834L336.5,851.9z"/>
		<g class="st11">
			<path class="st12" d="M369.6,889c-1.6,1.2-2.1,3.5-1,5.3c1.2,1.7,3.5,2.1,5.2,1c1.6-1.1,2.3-4.1,1-5.6s-4.3-1.9-5.6-0.4"/>
		</g>
		<g class="st11">
			<path class="st12" d="M365.8,925.4l-2.6-7.6l89.4-31c0,0,4.8,0.2,5.4,3.3L365.8,925.4z"/>
		</g>
		<path class="st0" d="M397.7,884.2c0.1,0.5-2,1.5-3.7,3.8s-2.1,4.6-2.6,4.6s-0.8-2.9,1.2-5.6S397.6,883.8,397.7,884.2z"/>
		<path class="st0" d="M411.4,883.8c0.3,0.4-1.4,1.9-2.2,4.4s-0.5,4.7-0.9,4.8s-1.7-2.3-0.7-5.3S411.2,883.3,411.4,883.8z"/>
		<path class="st0" d="M420.9,892.9c-0.4,0.3-1.9-1.8-1.6-4.7s1.9-4.7,2.3-4.4s-0.5,2.1-0.6,4.5S421.3,892.7,420.9,892.9z"/>
		<path class="st0" d="M392.2,872.1c0,0.5-2.3,0.7-4.8,1.8s-4.2,2.7-4.5,2.4s0.9-2.6,3.9-3.9S392.3,871.7,392.2,872.1z"/>
		<path class="st0" d="M389.6,860.5c0.1,0.2-1.6,1.2-4.6,1.7c-1.8,0.3-3.6,0.5-5.4,0.4c-1.1-0.1-2.1-0.2-3.2-0.4
			c-0.6-0.1-1.2-0.3-1.8-0.5c-0.9-0.4-1.3-1.4-1.1-2.3c0.2-0.8,0.8-1.5,1.6-1.8c0.6-0.2,1.2-0.4,1.8-0.4c1.1-0.1,2.2-0.2,3.2-0.1
			c1.8,0.1,3.6,0.5,5.3,1.2c2.9,1.2,4.3,2.6,4.1,2.7s-1.7-0.8-4.5-1.6c-1.6-0.5-3.3-0.7-5-0.8c-1,0-2,0.1-3,0.2
			c-1.1,0.1-1.9,0.4-2,1c0,0.2,0,0.3,0.3,0.5c0.4,0.2,0.9,0.3,1.3,0.4c1,0.2,2,0.4,3,0.5c1.7,0.2,3.4,0.2,5.1,0
			C387.8,860.8,389.6,860.2,389.6,860.5z"/>
		<path class="st0" d="M389.3,861.3c-0.1,0.1-1.6-1.1-2.9-4c-0.7-1.7-1.2-3.5-1.3-5.3c-0.1-1.1,0-2.2,0.1-3.2
			c0.2-1.1,0.4-2.6,2.1-3.5c0.8-0.3,1.8-0.1,2.4,0.5c0.4,0.4,0.8,1,1.1,1.5c0.6,1,1,2,1.2,3.1c0.4,1.8,0.4,3.7-0.1,5.5
			c-0.9,3.1-2.6,4.3-2.6,4.2c-0.2-0.2,1-1.6,1.5-4.5c0.3-1.6,0.2-3.3-0.2-4.9c-0.2-0.9-0.6-1.8-1.1-2.6c-0.5-0.9-1.2-1.6-1.5-1.3
			c-0.6,0.5-1,1.3-1,2.1c-0.2,1-0.2,1.9-0.2,2.9c0.1,1.7,0.3,3.3,0.9,5C388.4,859.7,389.5,861.2,389.3,861.3z"/>
		<path class="st10" d="M189.6,176.1c0,0-21.5,14.9-31.3,31.1c-9.8,16.2-11.5,40.6-12.4,55.8c-1.4,23.2,3.5,65.9-1.9,88.6
			s-30.2,68-37.4,119S104,619.1,104,619.1s79,31.1,114.7-3.7c42-40.8,89-27.4,89-27.4S265.9,477,257,452.7s-6.7-108.8-6.7-108.8
			s31.9-42.2,22.5-66.4c-9.6-24.8-29.5-76.7-29.5-76.7L189.6,176.1z"/>
		<path class="st0" d="M23.2,409.5l76-123.8c0,0,35.5,6.8,51.4,19.1c15.9,12.3,47.5,40.5,47.5,40.5l-51,135.6c0,0-3,0.6-18.8-2.9
			S23.2,409.5,23.2,409.5z"/>
		<path class="st10" d="M191.1,176.1l3.1-14.1c0,0,57.9,23.1,56.5,26.3s-4.9,15.3-4.9,15.3L191.1,176.1z"/>
		<path class="st0" d="M114.7,288.6c0.3-1.7,15.5-38.2,35.3-65.5c15.5-21.3,35.5-37.6,48.2-33.1c0,0-11.4,1.9-24.1,18.6
			c-16.2,21.2-38.9,87.9-38.9,87.9L114.7,288.6z"/>
		<path class="st10" d="M216,202.6l18.5,133.6l79-9.1L321,361c0,0-117.5,68.8-137.4,12.3c-20.8-58.9-16.9-131.5-16.9-131.5
			S176.3,186.1,216,202.6z"/>
		<path class="st0" d="M268.8,385.8c-0.2,0-0.4,0.1-0.6,0.1l-1.6,0.5l-6.2,2.1c-7.6,2.6-15.3,4.6-23.2,6.1c-5.4,1-10.9,1.4-16.4,1.2
			c-6.3-0.3-12.5-1.7-18.3-4.1c-6.4-2.7-11.9-7.1-16-12.7c-4.2-5.9-6.7-13.1-8.3-20.5c-4.9-25.9-8.4-52.1-10.4-78.4
			c-0.8-10.1-1.2-18.3-1.5-23.9c-0.1-2.8-0.3-4.9-0.3-6.5c0-0.7-0.1-1.2-0.1-1.7c0-0.2,0-0.4-0.1-0.6c0,0.2,0,0.4,0,0.6
			c0,0.5,0,1,0,1.7c0,1.5,0,3.7,0.1,6.5c0.1,5.7,0.5,13.9,1.1,24c1.8,26.4,5.1,52.6,10.1,78.6c1.7,7.6,4.2,14.9,8.6,21
			c4.2,5.8,9.9,10.3,16.6,13c5.9,2.5,12.3,3.8,18.7,4.1c5.6,0.1,11.1-0.3,16.6-1.4c7.9-1.6,15.6-3.7,23.1-6.5c2.7-1,4.7-1.7,6.1-2.3
			l1.5-0.6C268.4,385.9,268.6,385.9,268.8,385.8z"/>
		<path class="st0" d="M222.2,247.4c0,0.6,0,1.2,0.1,1.7c0.1,1.2,0.3,2.9,0.6,4.9c0.6,4.4,1.3,10.5,2.3,18c2.1,15.3,4.9,36.2,8,59.3
			c0.2,1.7,0.5,3.4,0.7,5l0.1,0.6l0.6-0.1l56.1-6.7l16.8-2.1l4.5-0.6c0.5,0,1.1-0.1,1.6-0.3c-0.5,0-1.1,0-1.6,0.1l-4.6,0.4
			l-16.8,1.8l-56.1,6.3l0.7,0.5c-0.2-1.6-0.5-3.3-0.7-5c-3.3-23.1-6.2-44-8.4-59.2c-1.1-7.5-2-13.6-2.7-17.9c-0.3-2-0.6-3.6-0.8-4.9
			C222.5,248.5,222.4,247.9,222.2,247.4z"/>
		<path class="st0" d="M235.5,335.2c0-0.1-1.2,0-2.8,0.9c-4.2,2.3-7.1,6.4-7.9,11.2c-0.3,1.8-0.1,2.9,0.1,2.9c0.4,0,0.5-4.4,3.6-8.7
			S235.6,335.5,235.5,335.2z"/>
		<path class="st0" d="M224.6,226.7c0.1-0.7,0-1.4-0.1-2.1c-0.2-1.4-0.4-3.3-0.9-5.7c-0.9-4.8-2.4-11.6-6.6-18s-10.8-9.9-15.7-10.7
			c-1.9-0.3-3.9-0.3-5.9,0.1c-0.7,0.1-1.4,0.3-2,0.7c0,0.3,3-0.9,7.7,0.1s10.8,4.4,14.9,10.5s5.7,12.8,6.8,17.5
			S224.4,226.7,224.6,226.7z"/>
		<path class="st0" d="M215.7,199.2c4,3.4,12.7,20.7,14.6,38.8c1.5,14-1.5,28.1-3.8,42c-0.3-6.8-3.4-26.1-3.4-26.1s0.8-9.4,0.6-18.2
			c-0.1-5.7-1-11.4-2.5-16.9L215.7,199.2z"/>
		<path class="st0" d="M166.2,260.4c0.3-0.2-0.9-2.5-2.3-5.3c-1.4-2.9-2.6-5.1-2.9-5s0.3,2.7,1.8,5.6
			C164.3,258.5,165.9,260.6,166.2,260.4z"/>
		<path class="st0" d="M245.8,201.5c0-0.2-3.5,0.8-8.6-1.1c-5.2-1.8-10.8-7-17.9-11.7c-6-4-12.3-7.6-18.7-10.7
			c-2.5-1.2-4.5-2.1-6-2.7c-0.7-0.4-1.5-0.6-2.3-0.8c-0.1,0.2,3,1.6,7.9,4.2s11.5,6.3,18.4,11c3.5,2.3,6.7,4.7,9.7,6.8
			c2.6,2,5.5,3.5,8.6,4.6c2.1,0.7,4.3,1,6.6,0.9C244.2,202.1,245,201.9,245.8,201.5z"/>
		<path class="st0" d="M214.9,605.1c0.3-0.2-4.5-4.6-8.7-13.8c-0.6-1.2-1.1-2.4-1.6-3.6l-1.5-4c-0.8-2.9-1.9-5.8-2.5-9.1
			c-1.6-7.1-2.6-14.3-3.1-21.5c-0.8-13.2-0.5-26.4,1-39.5c0.6-5,1.1-9.1,1.5-11.9c0.2-1.3,0.3-2.4,0.5-3.2c0.1-0.4,0.1-0.8,0.1-1.1
			c-0.2,0.3-0.3,0.7-0.3,1.1c-0.2,0.9-0.4,1.9-0.7,3.2c-0.6,2.8-1.2,6.8-1.9,11.9c-1.8,13.1-2.2,26.4-1.4,39.7
			c0.4,7.3,1.5,14.5,3.2,21.7c0.7,3.3,1.8,6.3,2.6,9.2l1.6,4c0.5,1.3,1,2.5,1.6,3.7c1,2.1,2.1,4.1,3.4,6c0.9,1.5,1.9,2.9,3.1,4.2
			l2.2,2.4C214.6,604.9,214.9,605.2,214.9,605.1z"/>
	</g>
</g>
<rect y="518.4" class="st0" width="843.6" height="1.9"/>
<polygon class="st13" points="339.7,223.1 363.7,197.3 403.7,229.3 495.3,140.4 517.2,166.3 401.9,280 "/>
</svg>
