<svg id="Layer_1" data-name="Layer 1" xmlns="http://www.w3.org/2000/svg" viewBox="0 0 143.54 143.92"><defs><style>.cls-1{fill:#5c6583;}.cls-2{fill:#6c7696;}.cls-3{fill:#151921;}.cls-4{fill:#3e4653;}.cls-5{fill:#966259;}.cls-6{fill:#009b84;}.cls-7{fill:#293241;}.cls-8{fill:#6b4744;}</style></defs><path class="cls-1" d="M92.84,62.92c-.16-3.37-.07-6-.07-6s-2.43-2.3-4.82-4.24c-.71.4-1.4.87-1.9,1.16a33.57,33.57,0,0,0-5.91,4c-2,1.86-3.85,4.29-4,7.15-.22,4.11,3.86,5.77,7.28,4.58a20.89,20.89,0,0,0,7.35-4.83C91.37,64.28,92.12,63.62,92.84,62.92Z"/><path class="cls-2" d="M92.77,58.43s-.43,11.86,2.12,18a15.7,15.7,0,0,1-16.1,3c-9.6-3.52-1.48-19.91-.85-21.6s4.45-5.08,5.51-6.14S92.77,58.43,92.77,58.43Z"/><path class="cls-3" d="M118.35,14.58s4.74,23.3-12.06,36.43S77.65,39.57,76.57,39.36s-32.86-27.2-32.86-27.2A41.15,41.15,0,0,1,48.23,0h73.25a16.56,16.56,0,0,1-.76,2.29S124.81,8.65,118.35,14.58Z"/><path class="cls-4" d="M87.68,21.36s5.09,3.81,10.38,3.18,4.66-3.82,4.66-3.82,3.6,3.39,10,2.55c0,0,5.72,40.66-27.11,40.87,0,0-2.55-29.22-2.76-30.28S87.68,21.36,87.68,21.36Z"/><path class="cls-3" d="M117.93,24.18a1.92,1.92,0,0,0-.44-.25.87.87,0,0,0-.17-.16l-.22-.1-.12-.05-.08,0-.13-.06-.33-.17c-.22-.09-.46-.15-.69-.23l-.29-.1-.1,0-.08,0a6.48,6.48,0,0,1-1.08-.63l0,0-.19-.15L113.7,22a2.11,2.11,0,0,0-.33-.18.7.7,0,0,0-.68-.42,1.81,1.81,0,0,0-.72.14l-.32.15-.16.06-.28.08a3.89,3.89,0,0,1-.47.09l-.19,0-.33,0h-.54a10.85,10.85,0,0,1-1.14,0l-.21,0h0l-.51-.11c-.51-.12-1-.26-1.5-.41a9.64,9.64,0,0,1-1.44-.54c-.47-.23-.84-.6-1.3-.84a.63.63,0,0,0-.66.09,1.13,1.13,0,0,0-.86.39,5.83,5.83,0,0,0-.59,1.17,2.52,2.52,0,0,1-.79.77,8.78,8.78,0,0,1-2.41,1,7.88,7.88,0,0,1-2.9.24,7.48,7.48,0,0,1-1.49-.33c-.51-.17-1-.46-1.49-.58-.73-.17-1.3.95-.54,1.28a19,19,0,0,0,2.48,1.12,8.24,8.24,0,0,0,2.71.29,10,10,0,0,0,5.23-1.53,4.24,4.24,0,0,0,1.58-2,9.17,9.17,0,0,0,1.67,1,10.24,10.24,0,0,0,2.85.93,9.79,9.79,0,0,0,2.91,0,3.86,3.86,0,0,0,1.66-.59c.09.09.17.18.26.26a8,8,0,0,0,1.26.89,5.53,5.53,0,0,0,1.41.56,2.57,2.57,0,0,0,.83,0,1.39,1.39,0,0,0,.74-.21,1.54,1.54,0,0,0,.53-.29A.25.25,0,0,0,117.93,24.18Z"/><path class="cls-3" d="M105,143.23a1.3,1.3,0,0,1,.83.28l.21,0a1.37,1.37,0,0,1,.81.25h36.73c-1-12.25-2.83-28.72-5.59-38.82-4.86-17.72-22-33.77-33.4-37.32l-.25,0L83.4,70.07l-1.51.17-7.16.84s-.47,2.38-1,5.53c0,.16-.05.32-.08.47-.19,1-.4,2.16-.6,3.3-.44,2.46-.87,5-1.19,7.08-.06.47-.13.91-.18,1.32-.25,1.83-.35,3-.17,3.09s1.7,2.27,4.15,5.91c5.58,8.27,15.76,23.81,24.21,37.29,1.79,2.85,3.5,5.59,5.08,8.17Z"/><path d="M.11,115.34c-.4-15.66,22.73-41.24,43-46.78,0,0,23.95,12.86,22.55,12.68S8.69,110.79,7.94,111,.11,115.34.11,115.34Z"/><path class="cls-4" d="M68.67,66.73s1-11.81.13-14.3c-.39-1.12-1-1.53-1.5-1.53a16.26,16.26,0,0,1,.38,6.75C66.93,63.25,67.06,68.91,68.67,66.73Z"/><path class="cls-5" d="M48.6,91.87s0,4.18-.06,10.38c0,1.3,0,2.67,0,4.13-.11,11.47-.36,27.2-.91,37.36H31.91c2.26-9.17,5.35-21.58,7.82-31.06.57-2.19,1.11-4.21,1.61-6,1-3.71,1.79-6.44,2.22-7.54,2-5.19,4.79-7.1,5-7.24Z"/><path class="cls-5" d="M105.81,143.59a1.31,1.31,0,0,1,.91.33,1,1,0,0,0,0-.18h9.32c-3.82-15.54-10.3-41.46-11.86-45.51a16.4,16.4,0,0,0-4.75-7,3.16,3.16,0,0,0-.29-.21s0,25.77.66,44.09c.12,3.17.25,6.12.39,8.67h5A1.41,1.41,0,0,1,105.81,143.59Z"/><path class="cls-6" d="M105.81,143.59a1.41,1.41,0,0,1,.64.15h.29c-.74-12.79-1.32-23.8-1.32-26.43,0-6-4.52-21.35-6-26.12L99,89.75s-7.26-.75-14.5-1.11a95.44,95.44,0,0,0-10.63-.07l-2.25.21-.94.09c-1.44.16-3,.34-4.66.55l-.28,0c-8,1-17.15,2.42-17.15,2.42l0,0c-.2.25-2.88,3.66-4,12.78-.19,1.46-.32,3.08-.41,4.85-.06,1.21-.09,2.49-.09,3.85,0,9-.24,20.48-.68,30.37h61.77A1.41,1.41,0,0,1,105.81,143.59Z"/><path class="cls-7" d="M35,28.08S22.44,31.65,23.48,44.55c1,11.91,6.81,11.3,6.81,11.3S26,72.73,38.94,77.63c12.2,4.61,16.78,0,16.78,0s5.29,14,23.38,8.6S95.57,69.85,95.57,69.85s7.71,3,16.62-11.13,3.83-24.35-8-30.64c0,0,3.93-18-14.11-20.91s-22.46,7-22.46,7-3.21-11-22.41-3.44C32.65,15.72,35,28.08,35,28.08Z"/><path class="cls-5" d="M84.84,55.1c-1.32,3.7-.37,7.43,2.13,8.33s5.62-1.38,6.94-5.08.38-7.44-2.13-8.34S86.17,51.39,84.84,55.1Z"/><path class="cls-5" d="M43.84,58.77c.6,3.89,3.22,6.71,5.85,6.3s4.27-3.89,3.66-7.78S50.12,50.58,47.5,51,43.23,54.88,43.84,58.77Z"/><path class="cls-5" d="M65.4,75.8l.7,15.29a7.36,7.36,0,0,0,6.55,6.73c6.21.78,11.89-4,11.89-8.83,0-.61-3.06-21.58-3.06-21.58Z"/><path class="cls-8" d="M81.48,67.41,65.4,75.8l.25,5.44c2.91,0,7.22-.22,10.67-2.28a13.67,13.67,0,0,0,5.83-7Z"/><path class="cls-5" d="M73.66,26.22a23,23,0,0,1,12.17,9.86c4.56,7.68,7.31,29.75-8.48,39.17S51,69.54,49.9,55.47C48.59,38.83,55.86,23.39,73.66,26.22Z"/><path class="cls-4" d="M5.7,107.15c-6.26,4.6-7.34,11.07-3.36,15.17s12.44,5.23,21.52.62,37.69-26,43-30.72a38.6,38.6,0,0,0,4.28-3.9c2-2.44,2.08-5.52,5.54-6.67,1.87-.62,2.23-1.42,2.6-3.16s-2.47-5.8-4.59-7.41a3.33,3.33,0,0,0-4.72.49s1-11.81.12-14.3-2.61-1.49-3-.25-2.48,13.44-3.35,15.55-2.58,7-4,8.44S16.52,99.19,5.7,107.15Z"/><path class="cls-7" d="M77.68,79.83a15,15,0,0,1-2.33.18,1.55,1.55,0,0,0,0-.65A3.76,3.76,0,0,0,75,78.2a5.07,5.07,0,0,0-1.63-1.84.86.86,0,0,0-1.29.74,19.81,19.81,0,0,1-.33,3.35c-.08.42-.2.84-.32,1.26a9.78,9.78,0,0,0-1,1.27c-1,1.61-2.15,3.32-3.32,4.9-1.55,2.08-3.54,3.33-5.48,5-5.25,4.53-11.29,8.28-17.21,11.87-7.43,4.51-14.9,9.44-23,12.66C18,118.77,5.75,123,.76,120.06a8.55,8.55,0,0,0,1.58,2.26c4,4.11,12.44,5.23,21.52.62s37.69-26,43-30.72a38.6,38.6,0,0,0,4.28-3.9c2-2.44,2.08-5.52,5.54-6.67a3.08,3.08,0,0,0,2.43-2.45A4.09,4.09,0,0,1,77.68,79.83Z"/></svg>