<svg id="Layer_1" data-name="Layer 1" xmlns="http://www.w3.org/2000/svg" viewBox="0 0 278.81 189.93"><defs><style>.cls-1{fill:#293241;}.cls-2{fill:#b3b3b3;}.cls-3{fill:#ff9685;}.cls-4{fill:#e1e1e1;}.cls-5{fill:#e06c63;}.cls-6{fill:#161e1e;}.cls-7{fill:#1d2426;}.cls-8{fill:#009b84;}</style></defs><path class="cls-1" d="M122.4,122.11s13.38,4.91,22.45,3.13,21.71-3.28,26-2.09-.15-27.36-.15-27.36l-51.16-4Z"/><path class="cls-2" d="M100.06,167.85c0-.31,0-.63,0-.95-.08-2.55-.13-5-.22-7.15-.57-13.47,1.15-20.63,4.3-26.07,2.46-4.25,6.85-6.58,8.64-7.4l.79-.33h0s3.14,20.69,4.37,36.86c.11,1.4.21,2.78.28,4.1,0,.32,0,.64.06.95Z"/><path class="cls-2" d="M194.64,167.85H175.1c0-.31,0-.63,0-.95.06-1.42.19-3,.37-4.69.61-5.77,1.8-12.81,3-19.14,1.59-8.31,3.19-15.38,3.48-16.64,0-.13,0-.2,0-.2a15.29,15.29,0,0,1,1.51,1.15,23.72,23.72,0,0,1,8,14c.75,4.51,2.78,15,3.12,25.48Z"/><path class="cls-3" d="M147.94,60.63s-27.5.29-22.63,36.09A41.32,41.32,0,0,0,132.76,114a29,29,0,0,0,4,4.89,7.7,7.7,0,0,0,4.68,2.22,17.3,17.3,0,0,0,7.35,1.45,19.26,19.26,0,0,0,12.34-4.81c6.53-5.58,10.1-15,10.29-23C171.71,82.68,172.58,60.63,147.94,60.63Z"/><path class="cls-1" d="M148.65,69.22s-1.28,4-3.86,5-3.87.58-4.73,2.15-2.44,3.73-4.87,3.87-5.87.72-6.59,3.15.29,7.88-.57,10.17-1.43,8.17,0,11.75,2,4.72,1.29,7.45.69,9.28,1.41,11.42c0,0-8,.18-11.15-.68a20.33,20.33,0,0,0-4.73-.86s3-9.17,2.29-14.47-1.43-12.17-.57-14.75-1.43-5.44-.72-8.74S118,80.39,118,78s-.14-4.58,2.44-7.45,3.58-3.87,3.86-5.87a8.26,8.26,0,0,1,5.16-6.74c3.72-1.43,4.58-4.87,9.31-5.3a17.29,17.29,0,0,1,9.45,1.58S153.67,50.6,158,52s4.29,4.16,7.3,5,6.16,1.57,7.88,4.29,1.86,5.16,5.16,7.45,3,8.6,2.29,11.17,0,4.87.71,7.6,2.15,4.58.86,8-1.72,8.74-.43,11.31a11.57,11.57,0,0,1,.86,7.45,13,13,0,0,0,.58,7.31,6.07,6.07,0,0,1,.14,4.87c-.29.57-3.15-2.44-5.87-1.43a9.85,9.85,0,0,1-6.31-.15c-1-.28-3.43-2.43-4.72-2,0,0,2.43-9.17,2-11.46s.15-6.31,1.15-10.17.57-5.88-.29-7.59-.86-4.3-.71-7.17-.86-2.86-2.44-3.72A6.09,6.09,0,0,1,162.69,78C162.55,75.52,150.8,80.39,148.65,69.22Z"/><path class="cls-4" d="M110.87,166.9c-1.13-18,.59-39.45,2.67-40.95h0c1-.64,3.83-1.46,7-2.22,1.3-.31,2.66-.62,4-.89,0,0,0,0,0,0,2.14-.45,4.13-.84,5.49-1.1l1-.2.83-.15s1.46-.35,4.08-.74c1-.16,2.28-.32,3.68-.46h0l1.74-.16a98.28,98.28,0,0,1,15.47,0l1,.08c1.23.1,2.49.23,3.79.4.87.1,1.75.22,2.65.36h.11l2.47.4c1.66.28,3.16.56,4.51.85l.79.17c4,.9,6.71,1.9,8.54,3.14a8.34,8.34,0,0,1,1.3,1.07c3.13,3.18,2,7.87.9,15.84-.86,6.15-1.79,16.43-2.47,24.63,0,.32,0,.64-.07.95H110.94C110.92,167.54,110.89,167.22,110.87,166.9Z"/><path class="cls-3" d="M135.62,113.34s-.49,6.38-5.11,8.47a1.3,1.3,0,0,0-.62,1.76c1.55,3.2,6.56,11,18.62,11s16.81-8.12,18.16-11.33a1.24,1.24,0,0,0-.7-1.63c-2-.75-5.81-3-6.86-9.1Z"/><path class="cls-5" d="M161.14,117.7a19.26,19.26,0,0,1-12.34,4.81,17.5,17.5,0,0,1-6.35-1.05c-.43,0-7-3.74-7.61-4.82a11.27,11.27,0,0,1-.88,1.92c3.71,4.23,8.64,7.22,14.84,7.1a19.65,19.65,0,0,0,13.83-6.2A9.79,9.79,0,0,1,161.14,117.7Z"/><path class="cls-6" d="M148.65,69.22a28.52,28.52,0,0,1-.68-3.74c-.14-1.25-.23-2.5-.27-3.76s0-2.51,0-3.77a25.58,25.58,0,0,1,.48-3.77,28.57,28.57,0,0,1,.57,3.75c.13,1.25.21,2.5.25,3.75s0,2.51,0,3.76A28.45,28.45,0,0,1,148.65,69.22Z"/><path class="cls-7" d="M162,87.8h-.06c-3.81-.29-8.63-2.69-8.84-2.79a.67.67,0,1,1,.6-1.19s4.8,2.38,8.35,2.65A.67.67,0,0,1,162,87.8Z"/><path class="cls-7" d="M135.19,88.08a.67.67,0,0,1-.18-1.31,13.17,13.17,0,0,0,6.11-3.66.69.69,0,0,1,.95-.08.68.68,0,0,1,.08,1,14.53,14.53,0,0,1-6.78,4.08Z"/><path class="cls-5" d="M147.49,102.4a3.06,3.06,0,0,1-2.79-1.49,2.51,2.51,0,0,1,.49-3.1,5,5,0,0,0,1.85-3.1.47.47,0,0,1,.48-.46.48.48,0,0,1,.46.48,5.84,5.84,0,0,1-2.16,3.77,1.58,1.58,0,0,0-.3,2c.4.72,1.43,1.31,3.15.83a.47.47,0,0,1,.58.32.47.47,0,0,1-.33.58A5.56,5.56,0,0,1,147.49,102.4Z"/><path class="cls-5" d="M153.67,110.23a.48.48,0,0,1-.32-.13c-4.53-4.27-9.95-.29-10-.25a.48.48,0,0,1-.66-.1.46.46,0,0,1,.1-.65c.06,0,6.1-4.48,11.2.32a.47.47,0,0,1-.32.81Z"/><path class="cls-7" d="M155.39,94a.57.57,0,0,1-.48-.27.57.57,0,0,1,.18-.77,8.69,8.69,0,0,1,7.07-.62.56.56,0,0,1,.34.71.55.55,0,0,1-.71.34,7.67,7.67,0,0,0-6.11.52A.52.52,0,0,1,155.39,94Z"/><path class="cls-7" d="M143.35,93.84a.52.52,0,0,1-.33-.11,7.13,7.13,0,0,0-6.63-.64.55.55,0,0,1-.72-.32.56.56,0,0,1,.32-.72,8.23,8.23,0,0,1,7.7.79.56.56,0,0,1,.11.78A.55.55,0,0,1,143.35,93.84Z"/><path class="cls-3" d="M126.74,105.32c-.46,1.61-1.48,7.49-2.16,17.49v0c0,.41-.06.83-.08,1.26q-.21,3.12-.34,6.72c-.24,6.32,0,19.78-.81,33-.06,1-.12,2-.19,3.05,0,.32,0,.64-.08.95H102c.08-.31.15-.63.23-.95,2.92-11.71,7.74-30.09,10.55-40.62.9-3.35,1.59-5.91,2-7.21,2-7.16,2-7.16.85-12.32-1-4.75-.89-12.42.94-16.5a7.33,7.33,0,0,1,.5-1c2.29-3.73,3.72-8.6,5.15-10,1.1-1.09,3-1,3.88-.93l.42.07c.17,3.19-.94,6.56-1.71,9.4a12.61,12.61,0,0,0-.69,4.33,3.26,3.26,0,0,0,.11.59c.28.93.71,2.37,1.14,4s.83,3.18,1.12,4.67A10.85,10.85,0,0,1,126.74,105.32Z"/><path class="cls-3" d="M172.92,167.85c0-.31,0-.63-.07-.95-.07-.93-.13-1.86-.19-2.8-.22-3.69-.37-7.4-.46-11-.26-9.32-.18-17.7-.36-22.3-.07-2-.17-3.95-.28-5.75,0-.67-.07-1.32-.12-1.95,0-.36,0-.72-.08-1.07-.65-9.24-1.58-14.81-2.06-16.57a.62.62,0,0,0,0-.16,11.69,11.69,0,0,1,.37-4.25v0l.27-1.22a.1.1,0,0,0,0,0c.27-1.17.58-2.37.89-3.48.23-.83.45-1.6.65-2.27l.39-1.32a8.13,8.13,0,0,0-.33-4c-.75-3-2.15-6.79-2-10.33a6.08,6.08,0,0,1,1-.11,4.51,4.51,0,0,1,3.31,1c1.42,1.43,2.86,6.3,5.15,10,1.49,2.41,2.13,6.87,2.09,11.11,0,.89-.05,1.77-.12,2.61a28,28,0,0,1-.53,3.75c-1.15,5.16-1.15,5.16.86,12.32.37,1.33,1.08,4,2,7.46.07.28.16.56.23.85,2.85,10.68,7.44,28.21,10.26,39.52.08.32.15.64.24.95Z"/><path class="cls-8" d="M55.5,93.44l-9.21-4.1a1.79,1.79,0,0,0-1.48-.06,1.7,1.7,0,0,0-1,1.07,1.68,1.68,0,0,0,.09,1.44,1.91,1.91,0,0,0,1.18.9l9.75,2.64a1,1,0,0,0,1.31-.61C56.35,94.16,56.14,93.73,55.5,93.44Zm6.41,1.87a1.65,1.65,0,0,0-1-.8l-.44-.16a1.48,1.48,0,0,0-2.09,1l-.12.34a1.62,1.62,0,0,0,0,1.28,1.67,1.67,0,0,0,1,.81l.44.15a1.58,1.58,0,0,0,1.28,0,1.72,1.72,0,0,0,.82-1l.12-.34A1.74,1.74,0,0,0,61.91,95.31Z"/><path class="cls-8" d="M94.43,83l-7.35-6.9a1.79,1.79,0,0,0-1.38-.55,1.75,1.75,0,0,0-1.29.68,1.69,1.69,0,0,0-.38,1.4,1.87,1.87,0,0,0,.82,1.24l8.33,5.68A1,1,0,1,0,94.43,83Zm4.76,2.78-.37-.3a1.49,1.49,0,0,0-2.31.25l-.22.28a1.48,1.48,0,0,0,.25,2.3l.36.3a1.73,1.73,0,0,0,1.22.43,1.71,1.71,0,0,0,1.09-.68l.22-.28a1.62,1.62,0,0,0,.43-1.21A1.59,1.59,0,0,0,99.19,85.81Z"/><path class="cls-8" d="M141.79,24.58a1.75,1.75,0,0,0-2-1.77,1.71,1.71,0,0,0-1.25.73,1.84,1.84,0,0,0-.27,1.46l2,9.89c.13.68.5,1,1.12.91s.88-.45.85-1.15ZM143.7,40l-.06-.45a1.7,1.7,0,0,0-.57-1.17,1.67,1.67,0,0,0-1.25-.27l-.36,0a1.63,1.63,0,0,0-1.15.56,1.61,1.61,0,0,0-.27,1.26l.05.46a1.65,1.65,0,0,0,.56,1.16,1.7,1.7,0,0,0,1.26.27l.35,0a1.7,1.7,0,0,0,1.16-.57A1.64,1.64,0,0,0,143.7,40Z"/><path class="cls-8" d="M211.33,53.13a1.7,1.7,0,0,0-1.27-.7,1.92,1.92,0,0,0-1.4.52l-7.46,6.79a1,1,0,0,0-.2,1.43.94.94,0,0,0,1.42.15l8.42-5.56a1.76,1.76,0,0,0,.49-2.63Zm-12.05,9.58-.21-.28a1.64,1.64,0,0,0-1.08-.7,1.62,1.62,0,0,0-1.22.41l-.37.28a1.64,1.64,0,0,0-.7,1.09,1.61,1.61,0,0,0,.41,1.21l.22.28a1.67,1.67,0,0,0,1.08.71,1.72,1.72,0,0,0,1.22-.41L199,65a1.49,1.49,0,0,0,.28-2.3Z"/><path class="cls-8" d="M235.52,113.79a1.93,1.93,0,0,0-1.44-.41l-10,1.05c-.69.08-1,.42-1,1s.37.92,1.07,1l10.06.51a1.86,1.86,0,0,0,1.42-.48,1.72,1.72,0,0,0,.53-1.35A1.68,1.68,0,0,0,235.52,113.79Zm-14.78,1.54a1.68,1.68,0,0,0-.45-1.2,1.61,1.61,0,0,0-1.23-.39h-.47a1.47,1.47,0,0,0-1.59,1.68v.36a1.47,1.47,0,0,0,1.68,1.59h.46a1.65,1.65,0,0,0,1.21-.45,1.7,1.7,0,0,0,.39-1.23Z"/><path class="cls-8" d="M247.66,74.89a1.67,1.67,0,0,0-1-1.07,1.86,1.86,0,0,0-1.48,0l-9.28,4c-.65.27-.87.7-.67,1.29s.62.77,1.3.6l9.78-2.47a1.79,1.79,0,0,0,1.2-.87A1.74,1.74,0,0,0,247.66,74.89ZM233.13,80l-.1-.35a1.71,1.71,0,0,0-.79-1,1.68,1.68,0,0,0-1.29,0l-.44.15a1.6,1.6,0,0,0-1,.79,1.68,1.68,0,0,0,0,1.29l.12.34a1.68,1.68,0,0,0,.79,1,1.65,1.65,0,0,0,1.28,0l.44-.15a1.66,1.66,0,0,0,1-.79A1.57,1.57,0,0,0,233.13,80Z"/><path class="cls-8" d="M75,148.52,65,147.9a1.76,1.76,0,0,0-1.41.46,1.74,1.74,0,0,0-.56,1.35,1.68,1.68,0,0,0,.6,1.31,1.84,1.84,0,0,0,1.42.43l10-.94q1-.1,1-1C76.06,148.88,75.71,148.56,75,148.52Zm6.64-.5a1.61,1.61,0,0,0-1.22-.4H80a1.65,1.65,0,0,0-1.21.45,1.61,1.61,0,0,0-.4,1.22v.35a1.64,1.64,0,0,0,.44,1.21,1.69,1.69,0,0,0,1.22.41h.47a1.66,1.66,0,0,0,1.21-.44,1.62,1.62,0,0,0,.4-1.22v-.36A1.66,1.66,0,0,0,81.66,148Z"/><path class="cls-8" d="M85.62,122.56a.1.1,0,0,1,0-.09.3.3,0,0,1,0-.1,8.64,8.64,0,0,0,1.07-2,5.85,5.85,0,0,0,.38-2.09,5.25,5.25,0,0,0-.47-2.1,6.61,6.61,0,0,0-1.43-2,6.13,6.13,0,0,0-3-1.68,6.72,6.72,0,0,0-6.34,1.92,7,7,0,0,0-1.59,2.4,6.85,6.85,0,0,0-.51,2.75,1.58,1.58,0,0,0,.53,1.25,1.6,1.6,0,0,0,1.34.32,1.38,1.38,0,0,0,1.07-.68,2.78,2.78,0,0,0,.35-1.14,4.46,4.46,0,0,1,.32-1.39,3.87,3.87,0,0,1,.82-1.21,3.94,3.94,0,0,1,1.53-1,3.24,3.24,0,0,1,1.66-.08,3,3,0,0,1,1.48.84,3.35,3.35,0,0,1,1.06,1.8,3,3,0,0,1-.22,1.8,5.58,5.58,0,0,1-1.17,1.67A1.54,1.54,0,0,0,82,123a1.6,1.6,0,0,0,.52,1.16L84,125.6a1.64,1.64,0,0,0,1.18.5,1.55,1.55,0,0,0,1.16-.49,1.59,1.59,0,0,0,.49-1.18,1.66,1.66,0,0,0-.52-1.16Zm4.37,4-.33-.32a1.61,1.61,0,0,0-1.16-.56,1.65,1.65,0,0,0-1.16.56l-.25.26a1.48,1.48,0,0,0,0,2.32l.32.32a1.48,1.48,0,0,0,2.33,0l.25-.25a1.68,1.68,0,0,0,.55-1.16A1.71,1.71,0,0,0,90,126.57Z"/><path class="cls-8" d="M106.14,42.69a6.55,6.55,0,0,0-.63-2.37,6.15,6.15,0,0,0-2.18-2.61,6.72,6.72,0,0,0-6.61-.47,7.09,7.09,0,0,0-3.79,4.07,1.57,1.57,0,0,0,0,1.36,1.64,1.64,0,0,0,1.13.77,1.36,1.36,0,0,0,1.25-.25,2.73,2.73,0,0,0,.73-.95,4.42,4.42,0,0,1,.8-1.17,3.66,3.66,0,0,1,1.19-.84,3.57,3.57,0,0,1,1.77-.36,3.09,3.09,0,0,1,1.58.51,3,3,0,0,1,1.1,1.3,3.46,3.46,0,0,1,.35,2.06,3,3,0,0,1-.85,1.6,5.3,5.3,0,0,1-1.7,1.15,1.59,1.59,0,0,0-.87.93,1.66,1.66,0,0,0,.08,1.27l.85,1.89a1.64,1.64,0,0,0,.92.89,1.69,1.69,0,0,0,2.14-1,1.68,1.68,0,0,0-.07-1.28L103,48.3a.07.07,0,0,1,0-.09l.07-.09a8.56,8.56,0,0,0,1.71-1.49,5.8,5.8,0,0,0,1.09-1.81A5.23,5.23,0,0,0,106.14,42.69Zm-.52,10.91-.2-.41a1.65,1.65,0,0,0-.89-.94,1.68,1.68,0,0,0-1.28.12l-.32.15a1.6,1.6,0,0,0-.93.89,1.64,1.64,0,0,0,.12,1.28l.19.42a1.63,1.63,0,0,0,.89.93,1.59,1.59,0,0,0,1.28-.11l.33-.15a1.5,1.5,0,0,0,.81-2.18Z"/><path class="cls-8" d="M180.73,35.2a6.75,6.75,0,0,0-4-5.31,7.23,7.23,0,0,0-2.81-.67,6.9,6.9,0,0,0-2.75.47,1.55,1.55,0,0,0-1,.93,1.62,1.62,0,0,0,.15,1.36,1.45,1.45,0,0,0,1,.78,2.82,2.82,0,0,0,1.2-.07,4.19,4.19,0,0,1,1.41-.16,3.45,3.45,0,0,1,1.42.35,3.69,3.69,0,0,1,1.43,1.1,3.24,3.24,0,0,1,.65,1.53,3,3,0,0,1-.27,1.68,3.5,3.5,0,0,1-1.33,1.62,3,3,0,0,1-1.76.41,5.76,5.76,0,0,1-2-.54,1.54,1.54,0,0,0-1.26,0,1.65,1.65,0,0,0-.92.88l-.86,1.89a1.64,1.64,0,0,0-.08,1.28,1.55,1.55,0,0,0,.87.92,1.57,1.57,0,0,0,1.27.06,1.67,1.67,0,0,0,.92-.89l.42-.92a.13.13,0,0,1,.07-.06h.11a8.42,8.42,0,0,0,2.24.32,5.64,5.64,0,0,0,2.09-.36,5.09,5.09,0,0,0,1.81-1.16,6.59,6.59,0,0,0,1.38-2A6.06,6.06,0,0,0,180.73,35.2ZM170.52,45.62a1.63,1.63,0,0,0-.92-.88l-.33-.16a1.47,1.47,0,0,0-2.17.82l-.2.41a1.66,1.66,0,0,0-.12,1.29,1.63,1.63,0,0,0,.93.89l.32.15a1.49,1.49,0,0,0,2.18-.81l.19-.42A1.66,1.66,0,0,0,170.52,45.62Z"/><path class="cls-8" d="M217.92,89.17a7.21,7.21,0,0,0-1.74-2.29,7.11,7.11,0,0,0-2.43-1.39,1.53,1.53,0,0,0-2.1,1.25,1.35,1.35,0,0,0,.29,1.24,2.7,2.7,0,0,0,1,.7,4.43,4.43,0,0,1,1.2.76,4.28,4.28,0,0,1,.88,1.17,3.79,3.79,0,0,1,.4,1.76,3.16,3.16,0,0,1-.47,1.61,2.94,2.94,0,0,1-1.26,1.12,3.42,3.42,0,0,1-2,.41,3,3,0,0,1-1.63-.8,5.67,5.67,0,0,1-1.2-1.66,1.52,1.52,0,0,0-.95-.84,1.59,1.59,0,0,0-1.26.1l-1.87.91a1.63,1.63,0,0,0-.86,1,1.59,1.59,0,0,0,.08,1.26,1.61,1.61,0,0,0,1,.85,1.71,1.71,0,0,0,1.27-.11l.91-.45a.14.14,0,0,1,.09,0l.09.06a8.56,8.56,0,0,0,1.54,1.67,5.48,5.48,0,0,0,1.85,1,5.21,5.21,0,0,0,2.13.25,6.57,6.57,0,0,0,2.35-.69,6.14,6.14,0,0,0,2.54-2.26,6.6,6.6,0,0,0,1-3.19A6.68,6.68,0,0,0,217.92,89.17Zm-14.93,7-.15-.32a1.67,1.67,0,0,0-.92-.9,1.62,1.62,0,0,0-1.28.16l-.41.2a1.48,1.48,0,0,0-.76,2.19l.16.32a1.62,1.62,0,0,0,.91.91,1.64,1.64,0,0,0,1.29-.16l.41-.2a1.63,1.63,0,0,0,.91-.92A1.67,1.67,0,0,0,203,96.13Z"/><path class="cls-8" d="M223.49,138.38a7.07,7.07,0,0,0-.8-2.68,1.57,1.57,0,0,0-1.05-.87,1.6,1.6,0,0,0-1.33.32,1.4,1.4,0,0,0-.65,1.1,2.85,2.85,0,0,0,.22,1.18,4.31,4.31,0,0,1,.34,1.37,4,4,0,0,1-1.09,3,3.16,3.16,0,0,1-1.43.83,2.91,2.91,0,0,1-1.7-.06,3.43,3.43,0,0,1-1.77-1.11,3,3,0,0,1-.63-1.7,5.71,5.71,0,0,1,.28-2,1.61,1.61,0,0,0-.1-1.26,1.65,1.65,0,0,0-1-.8l-2-.62a1.68,1.68,0,0,0-1.27.08,1.69,1.69,0,0,0-.71,2.24,1.67,1.67,0,0,0,1,.81l1,.3a.09.09,0,0,1,.07.06s0,.07,0,.11a8.6,8.6,0,0,0,0,2.26,5.92,5.92,0,0,0,.63,2,5.07,5.07,0,0,0,1.37,1.64,6.32,6.32,0,0,0,2.18,1.12,6.08,6.08,0,0,0,3.4.12,6.64,6.64,0,0,0,2.92-1.61,6.81,6.81,0,0,0,1.85-3A7.21,7.21,0,0,0,223.49,138.38Zm-15.86-4a1.69,1.69,0,0,0-1-.77l-.45-.14a1.67,1.67,0,0,0-1.29,0,1.69,1.69,0,0,0-.77,1l-.11.34a1.66,1.66,0,0,0,.05,1.29,1.63,1.63,0,0,0,1,.77l.44.14a1.67,1.67,0,0,0,1.29,0,1.69,1.69,0,0,0,.77-1l.11-.34A1.66,1.66,0,0,0,207.63,134.36Z"/></svg>