<svg id="Layer_1" data-name="Layer 1" xmlns="http://www.w3.org/2000/svg" viewBox="0 0 263.49 199.74"><defs><style>.cls-1{fill:#009b84;}.cls-2{fill:#293241;}.cls-3{fill:#fdf8fc;}.cls-4{fill:#3e4653;}.cls-5{fill:#999;}.cls-6{fill:#e1e1e1;}.cls-7{fill:#f4f4f4;}.cls-8{fill:#f7a491;}.cls-9{fill:#f47458;}.cls-10{fill:#ed9485;}.cls-11{fill:#184655;}</style></defs><path class="cls-1" d="M84,114.09c-8.78,6-20,6.18-27.52,4.24-16.47-4.26-24-20.43-19.4-35.89,3.27-11,20.51-28.67,42-15.64,20.78,12.61,8.83,42.53,8.83,42.53s4.76,6.61,4.63,7.1S84,114.09,84,114.09Z"/><path class="cls-2" d="M68.24,100.93s0-.08,0-.23,0-.36,0-.64a10.68,10.68,0,0,0-.11-2.28,8.71,8.71,0,0,0-.37-1.51,8,8,0,0,0-.77-1.63,6.32,6.32,0,0,0-1.31-1.49,6.24,6.24,0,0,0-3.85-1.4,3.92,3.92,0,0,0-1,.09,4.16,4.16,0,0,0-1,.26,6.59,6.59,0,0,0-1.61.83,8.4,8.4,0,0,0-1.21,1,10.65,10.65,0,0,0-1.42,1.79,4.07,4.07,0,0,0-.32.55,2.35,2.35,0,0,0-.11.21.51.51,0,0,0,.21.69.52.52,0,0,0,.62-.12l0,0,.13-.14.39-.43a11.92,11.92,0,0,1,1.49-1.36,7.13,7.13,0,0,1,2.36-1.27,2.82,2.82,0,0,1,.69-.14,3.29,3.29,0,0,1,.7,0,2.73,2.73,0,0,1,.66.07,3.53,3.53,0,0,1,.77.23,4.4,4.4,0,0,1,1.25.69,5.68,5.68,0,0,1,1,1,7.13,7.13,0,0,1,.69,1.23,9.82,9.82,0,0,1,.46,1.23,14.65,14.65,0,0,1,.43,2c0,.24,0,.43.07.56s0,.2,0,.2v0a.51.51,0,0,0,1,0Z"/><path class="cls-2" d="M59.09,86.32l-.31.26c-.2.16-.49.39-.84.62a4.47,4.47,0,0,1-1.18.58,2.28,2.28,0,0,1-.61.1,1.75,1.75,0,0,1-.6-.09h0l.06,0h0l-.11,0-.22-.09c-.14-.06-.13-.1-.21-.13a2.12,2.12,0,0,1-.44-.41A3.84,3.84,0,0,1,54,86a8.59,8.59,0,0,1-.33-1.38.51.51,0,1,0-1-.11s-.06.19-.12.49a5.42,5.42,0,0,0-.05,1.28,4.44,4.44,0,0,0,.58,1.87,3.86,3.86,0,0,0,.81.92,5.81,5.81,0,0,0,.58.36l.21.1.11,0,.1,0h0l.08,0a3.44,3.44,0,0,0,1.27.15,3.3,3.3,0,0,0,1.16-.29A4.6,4.6,0,0,0,59,88.37a5.57,5.57,0,0,0,.75-1c.15-.27.22-.45.22-.44a.51.51,0,1,0-.84-.58Z"/><path class="cls-2" d="M78.25,92.58l-.31.25c-.2.17-.49.39-.84.63a5.18,5.18,0,0,1-1.18.58,1.92,1.92,0,0,1-.61.09,1.74,1.74,0,0,1-.6-.08h-.06l.07,0h0l-.11,0-.22-.09c-.14-.07-.13-.1-.22-.14a1.85,1.85,0,0,1-.43-.41,3.91,3.91,0,0,1-.58-1.13,8.59,8.59,0,0,1-.33-1.38.51.51,0,0,0-.45-.56.52.52,0,0,0-.57.45s-.05.18-.11.49a4.93,4.93,0,0,0-.05,1.28,4.49,4.49,0,0,0,.58,1.87,3.63,3.63,0,0,0,.81.91,3.55,3.55,0,0,0,.58.36l.21.1.11,0,.1,0,0,0,.08,0a3.66,3.66,0,0,0,1.27.15,3.53,3.53,0,0,0,1.16-.29,4.48,4.48,0,0,0,1.55-1.13,5,5,0,0,0,.75-1,4.69,4.69,0,0,0,.22-.44.51.51,0,0,0-.14-.71A.51.51,0,0,0,78.25,92.58Z"/><path class="cls-3" d="M49.64,87.23c.25.1-.89,4.77-2.38,3.89C45.53,90.1,48.71,86.87,49.64,87.23Z"/><path class="cls-1" d="M184,109.47s-3.9,7.06-3.33,8,8-2.34,8-2.34,7.61,7,22.1,4.11c19.57-4,31.5-24.51,20.37-45C220.77,55,198.35,56,186.34,67.47S176.25,97.57,184,109.47Z"/><path class="cls-2" d="M191.76,87.57s.37-.12.94-.25a17.71,17.71,0,0,1,2.07-.35c.76-.07,1.52-.13,2.1-.13s1,0,1,0a1.34,1.34,0,0,1,.3,2.61s-.37.12-.93.25-1.32.25-2.08.35a16.76,16.76,0,0,1-2.1.14c-.58,0-1,0-1,0a1.35,1.35,0,0,1-.3-2.61Z"/><path class="cls-2" d="M213.86,86s.38-.11.94-.21a18.09,18.09,0,0,1,2.09-.24c.77,0,1.53,0,2.11,0s1,.08,1,.08a1.34,1.34,0,0,1,.17,2.62,9.25,9.25,0,0,1-.94.21c-.57.1-1.33.18-2.09.24a16.94,16.94,0,0,1-2.11,0,9.07,9.07,0,0,1-1-.08,1.35,1.35,0,0,1-.17-2.62Z"/><path class="cls-2" d="M198.7,93.61s.92-.29,2.36-.63c.72-.16,1.57-.34,2.48-.51.45-.09,1-.13,1.44-.2s1-.13,1.56-.16c1,0,1.9,0,2.85,0s1.84.1,2.56.17c1.46.15,2.44.3,2.44.3a1.31,1.31,0,0,1,1.09,1.51,1.33,1.33,0,0,1-1.29,1.11H211.8c-.72,0-1.51,0-2.37,0s-1.86,0-2.81.06l-1.3.14c-.45.05-.88.07-1.32.14-.87.14-1.69.22-2.39.33-1.39.21-2.35.33-2.35.33A1.32,1.32,0,0,1,197.78,95a1.34,1.34,0,0,1,.91-1.43Z"/><path class="cls-1" d="M153.22,80.48s-.14,4.64.59,4.9c.55.2,3.21-3.75,3.21-3.75a22.12,22.12,0,0,0,17.69-3.24c7.94-5.29,13.34-23.85-2.06-32.71-11.24-6.47-21.63-3-27.66,5.22C140.5,57,139,70.18,153.22,80.48Z"/><path class="cls-2" d="M156.47,67.71l.05-.17a3.37,3.37,0,0,1,.15-.46,7.61,7.61,0,0,1,.8-1.53,6.26,6.26,0,0,1,1.79-1.76c.2-.13.42-.23.63-.35s.46-.17.69-.26.49-.12.74-.18l.75-.07h.39l.34,0c.21,0,.52.09.77.13a5.5,5.5,0,0,1,1.38.58,6,6,0,0,1,.57.42,5.27,5.27,0,0,1,.48.46,5.33,5.33,0,0,1,.71.95,6.76,6.76,0,0,1,.69,1.6c.06.2.09.36.12.47l0,.18a.37.37,0,0,1-.3.43.37.37,0,0,1-.42-.22v0l-.06-.13-.18-.39a8,8,0,0,0-.8-1.27,7.22,7.22,0,0,0-.66-.71l-.4-.32-.45-.28a3.94,3.94,0,0,0-1-.37,3.51,3.51,0,0,0-.53-.08l-.33,0h-.28c-.19,0-.39,0-.58.05l-.55.13-.54.18c-.16.09-.34.15-.49.24a6.28,6.28,0,0,0-1.58,1.3,8.79,8.79,0,0,0-.91,1.22c-.1.15-.17.28-.22.36l-.07.13v0a.37.37,0,0,1-.51.16A.39.39,0,0,1,156.47,67.71Z"/><path class="cls-2" d="M157.5,62a1.39,1.39,0,1,1-1.38-1.4A1.38,1.38,0,0,1,157.5,62Z"/><path class="cls-2" d="M154.43,59a4,4,0,0,1,.78.2,9.44,9.44,0,0,1,1.57.71,10.9,10.9,0,0,1,1.44,1,5.32,5.32,0,0,1,.59.55.4.4,0,0,1,0,.56.42.42,0,0,1-.33.1,6.31,6.31,0,0,1-.78-.21,11.35,11.35,0,0,1-1.58-.7,10,10,0,0,1-1.44-1,5.32,5.32,0,0,1-.59-.55.41.41,0,0,1,.05-.57A.38.38,0,0,1,154.43,59Z"/><path class="cls-2" d="M170.1,62a1.39,1.39,0,1,1-1.38-1.39A1.38,1.38,0,0,1,170.1,62Z"/><path class="cls-2" d="M170.67,59.71a4.53,4.53,0,0,1-.6.54,8.89,8.89,0,0,1-1.45.93,10.14,10.14,0,0,1-1.58.69,5.2,5.2,0,0,1-.78.2.4.4,0,0,1-.35-.67,5,5,0,0,1,.6-.53,10.35,10.35,0,0,1,3-1.63,4.62,4.62,0,0,1,.79-.19.4.4,0,0,1,.45.34A.44.44,0,0,1,170.67,59.71Z"/><path class="cls-1" d="M125.19,84.68c.88-.5-1.13-6.33-1.13-6.33s15.63-6.2,14.51-22.68-20.28-28.3-37.32-19.57S84.68,65.27,93.37,74.21c9.43,9.72,24.64,7,24.64,7S124.21,85.25,125.19,84.68Z"/><path class="cls-3" d="M102.31,53.84s-1.55-3.16-3.38-1.62,2.31,6.27,3.94,6.2,5.14-5.56,3.17-7S102.31,53.84,102.31,53.84Z"/><path class="cls-3" d="M121.64,53.32s-1.55-3.17-3.38-1.62,2.31,6.27,3.94,6.19,5.07-5.21,3.1-6.62S121.64,53.32,121.64,53.32Z"/><path class="cls-2" d="M107.4,57.21l.28.44a7.34,7.34,0,0,0,.88,1.08A5.47,5.47,0,0,0,110,59.82a4.32,4.32,0,0,0,2,.45h.21l.31,0,.3,0,.21,0a3.55,3.55,0,0,0,.88-.34,5.34,5.34,0,0,0,.78-.53c.23-.22.45-.42.64-.64a8.26,8.26,0,0,0,.83-1.12l.27-.46,0,0a.47.47,0,0,1,.86.33l0,.18a4.56,4.56,0,0,1-.12.45,7.1,7.1,0,0,1-.69,1.5,6.07,6.07,0,0,1-.69.91,5.38,5.38,0,0,1-1,.86,4.44,4.44,0,0,1-1.34.6l-.4.1-.32,0-.31,0H112a5.9,5.9,0,0,1-1.45-.2,5.26,5.26,0,0,1-1.31-.55,5.57,5.57,0,0,1-1.78-1.68,6.11,6.11,0,0,1-.76-1.48c-.07-.19-.11-.34-.14-.45l0-.17,0-.14a.47.47,0,0,1,.35-.56.48.48,0,0,1,.56.35Z"/><path class="cls-4" d="M162.69,145.38l-.06.18c-.07.21-.13.42-.2.62a100.29,100.29,0,0,1-8.5,19.15q-1.34,2.29-2.82,4.51H109.43l-.05.08,0-.08H81.08a57.59,57.59,0,0,1-1.18-12.57c.09-9.8,4.63-18,11-22.47s20-3.27,25.19-9.16c6-6.84,7.42-15.72,13.07-22.83a31,31,0,0,1,9-7.1c13.14-6.58,25.56,3.46,27.55,17.3A74.67,74.67,0,0,1,162.69,145.38Z"/><path class="cls-5" d="M138.15,161.54c-.07.4-2.71,4.38-5.35,8.3H109.43l-.05.08,0-.08c2-6.3,8.08-13,13-18.79a34.63,34.63,0,0,1,4.13-4.21h0c4.77-4,7.67-3.53,7.67-3.53S138.3,160.74,138.15,161.54Z"/><path class="cls-5" d="M180.36,169.92l-.06-.08H156.94c-1.06-1.57-2.12-3.15-3-4.51a34.43,34.43,0,0,1-2.34-3.79c-.16-.8,4-18.23,4-18.23s2.57-.45,6.86,2.87c.45.35.91.74,1.4,1.18a36.59,36.59,0,0,1,3.53,3.69c4.88,5.81,10.92,12.49,13,18.79Z"/><path class="cls-6" d="M169.12,169.84H120.9l.67-5.6c1.09-9,3-14.3,4.93-17.4h0c2.25-3.62,4.51-4.25,5.44-4.35h.46c3.42-.09,7.89-.34,12.23-.62v0l.38,0,.38,0v0c2.17.14,4.38.27,6.46.38s4.06.2,5.77.24h.46c.81.08,2.62.57,4.55,3.07a14.78,14.78,0,0,1,1.2,1.8c1.82,3.16,3.59,8.35,4.62,16.88l.31,2.57Z"/><path class="cls-7" d="M180.3,169.84H169.12l-.36-3C172.29,164.73,178.06,166.68,180.3,169.84Z"/><path class="cls-8" d="M150.83,135.26c0,.16.74,6.19,1.14,9.37a2.53,2.53,0,0,1-1.7,2.7c-3,1-8.93,2.26-12.49-1.72a1.62,1.62,0,0,1-.4-1.33l2-14Z"/><path class="cls-9" d="M150.27,138.3a2.42,2.42,0,0,0,.85-.5c-.17-1.43-.29-2.48-.29-2.54l-11.5-5-1,6.88C142,140.42,147.39,139.26,150.27,138.3Z"/><path class="cls-8" d="M132.28,118.65c.35,2.43-.7,4.6-2.35,4.84s-3.27-1.54-3.62-4,.69-4.6,2.34-4.84S131.92,116.21,132.28,118.65Z"/><path class="cls-8" d="M158,121.09c-.81,2.33-.19,4.66,1.38,5.21s3.5-.9,4.31-3.22.19-4.66-1.38-5.21S158.76,118.77,158,121.09Z"/><path class="cls-8" d="M160.38,120.41c-1,10.47-8.48,18.32-16.71,17.54s-14.1-9.91-13.1-20.39,8.49-18.32,16.72-17.53S161.38,109.94,160.38,120.41Z"/><path class="cls-7" d="M137.6,142.63a12.87,12.87,0,0,0,7.41,5.72s-3.81,1.42-6,.48S135.2,146.08,137.6,142.63Z"/><path class="cls-7" d="M151.72,142.63a12.75,12.75,0,0,1-7.32,5.72s3.76,1.42,5.91.48S154.1,146.08,151.72,142.63Z"/><path class="cls-10" d="M179.3,169.84h-9.84c.18-1.18.48-2,.91-2.23C172.89,166.12,176.71,166.89,179.3,169.84Z"/><path class="cls-7" d="M121,166.81l-.37,3H109.43C111.67,166.68,117.45,164.73,121,166.81Z"/><path class="cls-10" d="M120.28,169.84h-9.84c2.58-3,6.41-3.72,8.93-2.23C119.8,167.87,120.09,168.66,120.28,169.84Z"/><path class="cls-4" d="M130.85,115.55s17.23-9.88,17.58-16.41S137,100.37,137,100.37l-6.66,8.15Z"/><path class="cls-4" d="M146.73,100s10.78,17.53,13.76,18c0,0,1.77-8.36,1.53-8.7s-4.25-6.68-4.46-6.93-7.86-4.17-7.86-4.17L142.49,98Z"/><path class="cls-11" d="M109.43,169.84l-.05.08,0-.08Z"/></svg>